<?xml version="1.0" encoding="UTF-8" standalone="no"?>
<svg x="0px" y="0px" viewBox="0 0 829.23296 154.576" xml:space="preserve" xmlns="http://www.w3.org/2000/svg">
<g style="fill:#fff">
<path d="m 224.117,112.067 h 16.508 v 26.981 c -7.646,5.403 -18.112,8.286 -27.734,8.286 -21.044,0 -36.409,-14.053 -36.409,-33.874 0,-19.821 15.366,-33.874 36.782,-33.874 12.361,0 22.356,4.188 28.868,11.915 l -11.883,10.603 c -4.536,-4.925 -9.72,-7.249 -16.038,-7.249 -11.324,0 -18.865,7.347 -18.865,18.606 0,10.984 7.541,18.614 18.679,18.614 3.491,0 6.788,-0.648 10.093,-2.138 v -17.87 z m 25.037,1.394 c 0,-19.537 15.568,-33.874 36.693,-33.874 21.133,0 36.693,14.337 36.693,33.874 0,19.545 -15.56,33.874 -36.693,33.874 -21.125,0 -36.693,-14.328 -36.693,-33.874 m 54.521,0 c 0,-11.259 -7.825,-18.614 -17.828,-18.614 -9.995,0 -17.828,7.355 -17.828,18.614 0,11.259 7.833,18.614 17.828,18.614 10.004,0 17.828,-7.355 17.828,-18.614 m 25.33,0 c 0,-19.537 15.568,-33.874 36.693,-33.874 21.133,0 36.693,14.337 36.693,33.874 0,19.545 -15.56,33.874 -36.693,33.874 -21.125,0 -36.693,-14.328 -36.693,-33.874 m 54.521,0 c 0,-11.259 -7.825,-18.614 -17.828,-18.614 -10.004,0 -17.828,7.355 -17.828,18.614 0,11.259 7.825,18.614 17.828,18.614 10.003,0 17.828,-7.355 17.828,-18.614 M 412.252,80.89 h 31.225 c 21.878,0 36.879,12.563 36.879,32.57 0,20.007 -15.001,32.57 -36.879,32.57 h -31.225 z m 30.472,50.438 c 11.219,0 18.76,-6.61 18.76,-17.869 0,-11.259 -7.541,-17.861 -18.76,-17.861 h -11.802 v 35.729 h 11.802 z"/>
<path transform="translate(-2.553,-219.458)" d="m 574.192,350.887 h 31.509 v 14.604 h -50.18 v -65.14 h 18.671 z"/>
<path d="m 606.109,113.461 c 0,-19.537 15.568,-33.874 36.693,-33.874 21.133,0 36.693,14.337 36.693,33.874 0,19.545 -15.56,33.874 -36.693,33.874 -21.125,0 -36.693,-14.328 -36.693,-33.874 m 54.521,0 c 0,-11.259 -7.825,-18.614 -17.828,-18.614 -9.995,0 -17.828,7.355 -17.828,18.614 0,11.259 7.833,18.614 17.828,18.614 10.003,0 17.828,-7.355 17.828,-18.614 m 25.33,0 c 0,-19.537 15.568,-33.874 36.693,-33.874 21.133,0 36.693,14.337 36.693,33.874 0,19.545 -15.56,33.874 -36.693,33.874 -21.124,0 -36.693,-14.328 -36.693,-33.874 m 54.521,0 c 0,-11.259 -7.825,-18.614 -17.828,-18.614 -10.003,0 -17.828,7.355 -17.828,18.614 0,11.259 7.825,18.614 17.828,18.614 10.004,0 17.828,-7.355 17.828,-18.614 m 88.247,-8.466 c 0,14.791 -11.324,24.008 -29.338,24.008 h -11.51 v 17.026 h -18.671 v -65.14 h 30.181 c 18.015,0.001 29.338,9.218 29.338,24.106 m -18.864,0 c 0,-6.051 -3.872,-9.59 -11.607,-9.59 h -10.376 v 19.084 h 10.376 c 7.735,-0.001 11.607,-3.54 11.607,-9.494 m -313.65,-2.027 h 34.951 v 19.205 H 496.214 Z M 124.751,15.029 c 2.406,11.081 -1.288,25.369 -5.37,33.34 -3.029,5.897 -6.909,11.332 -11.227,16.483 -1.401,1.669 -2.851,3.305 -4.333,4.925 -0.688,-1.79 -1.272,-3.604 -1.79,-5.435 -1.515,1.855 -3.118,3.726 -4.868,5.646 0.834,2.811 1.822,5.565 3.07,8.254 2.074,4.487 5.767,12.668 11.243,13.908 2.065,0.462 3.92,-0.81 5.168,-4.973 0.332,-1.126 0.624,-2.454 0.867,-4.026 0.437,-2.884 2.608,-3.953 4.844,-3.718 0.607,0.057 1.215,0.194 1.798,0.437 2.211,0.932 4.009,3.118 3.564,6.059 -0.591,3.872 -1.863,7.168 -3.604,9.801 -4.009,6.026 -10.514,8.521 -17.099,6.164 -3.143,-1.118 -5.872,-3.11 -8.149,-5.484 -4.342,-4.544 -7.209,-10.36 -9.412,-16.151 -0.219,-0.583 -0.413,-1.166 -0.616,-1.758 -1.612,1.547 -3.183,3.038 -4.722,4.479 0.664,1.555 1.361,3.11 2.155,4.625 -1.515,1.49 -3.029,2.989 -4.487,4.487 -2.867,2.948 -5.743,5.978 -8.521,9.113 -1.555,-1.369 -3.216,-2.633 -4.917,-3.856 -1.66,1.482 -3.24,2.892 -4.755,4.253 4.641,3.362 8.618,7.816 11.47,12.847 1.061,1.863 1.96,3.831 2.616,5.864 3.945,12.223 -0.275,28.447 -13.179,33.032 4.504,0.794 9.121,1.231 13.851,1.231 43.262,0 78.343,-34.603 78.343,-77.29 -0.002,-25.54 -12.573,-48.187 -31.94,-62.257"/>
<path d="m 100.38,57.337 c 1.563,-1.863 3.102,-3.758 4.528,-5.735 5.808,-8.027 9.501,-16.573 9.655,-26.657 0.065,-4.633 -0.907,-11.923 -4.892,-13.786 -1.474,-0.688 -3.337,-0.664 -5.727,0.535 -0.17,0.081 -0.324,0.202 -0.494,0.292 -8.772,4.925 -9.744,19.821 -9.931,28.366 -0.073,3.305 0.04,6.634 0.284,9.955 -0.024,0.049 0,0.356 0.057,0.883 0.535,6.358 1.498,12.701 3.305,18.8 1.75,-1.92 3.353,-3.791 4.86,-5.646 -0.657,-2.309 -1.2,-4.642 -1.645,-7.007"/>
<path d="m 67.651,96.843 c -0.94,-0.656 -1.887,-1.304 -2.843,-1.944 1.976,-2.219 3.961,-4.39 5.881,-6.431 3.621,-3.848 7.411,-7.59 11.21,-11.332 0.348,1.053 0.713,2.09 1.102,3.118 0.348,0.915 0.729,1.822 1.118,2.722 1.539,-1.442 3.102,-2.924 4.714,-4.471 C 85.982,70.397 84.362,61.576 83.487,53.184 82.151,40.37 82.475,26.195 88.153,14.466 89.976,10.683 92.9,7.038 96.439,4.333 97.225,3.742 98.043,3.199 98.885,2.705 92.332,0.955 85.455,0 78.343,0 35.081,0 0,34.603 0,77.29 c 0,28.439 15.584,53.274 38.783,66.695 -5.889,-10.732 -0.94,-25.677 7.517,-33.777 0.381,-0.373 1.409,-1.296 1.409,-1.296 0,0 2.227,1.345 4.617,3.329 1.166,-1.199 2.438,-2.446 3.775,-3.734 -2.73,-2.13 -5.508,-4.171 -8.448,-6.124 -3.872,-2.576 -7.954,-5.2 -10.992,-8.748 C 27.2,82.57 26.001,64.443 35.26,52.916 c 0.81,-1.013 1.669,-1.985 2.641,-2.884 4.779,-4.415 10.23,-6.278 15.593,-6.148 8.084,0.178 15.933,4.925 20.857,12.579 1.831,2.843 0.462,5.573 -1.814,6.885 -0.583,0.332 -1.223,0.575 -1.879,0.705 -1.952,0.381 -4.082,-0.203 -5.443,-2.325 -4.22,-6.553 -11.154,-9.21 -17.107,-6.107 -1.75,0.915 -3.418,2.3 -4.909,4.269 -0.178,0.235 -0.324,0.478 -0.486,0.713 -5.37,7.873 -3.904,19.31 2.09,26.374 5.022,5.929 12.012,9.833 18.403,14.321 0.13,0.097 0.251,0.211 0.381,0.308 1.523,-1.361 3.094,-2.778 4.755,-4.261 -0.237,-0.162 -0.456,-0.34 -0.691,-0.502"/>
<path d="m 52.327,112.245 c 1.175,0.972 2.373,2.09 3.378,3.305 0.154,0.178 -3.831,4.253 -4.228,4.755 -1.855,2.309 -3.264,4.99 -3.985,7.857 -1.345,5.378 -0.275,12.701 5.176,15.552 8.343,4.366 16.249,-5.702 15.973,-13.786 -0.243,-7.055 -2.876,-13.559 -8.286,-18.022 -1.417,-1.166 -2.835,-2.284 -4.253,-3.394 -1.337,1.278 -2.609,2.526 -3.775,3.733 M 210.774,33.01 204.497,17.952 198.211,33.01 Z m 2.892,6.909 h -18.403 l -3.507,8.424 H 182.36 L 200.018,9.018 h 9.064 l 17.715,39.325 h -9.623 z m 40.486,0.954 c 7.865,0 13.017,-4.666 13.017,-12.19 0,-7.533 -5.152,-12.199 -13.017,-12.199 h -8.384 V 40.873 Z M 236.599,9.016 h 18.006 c 12.96,0 21.854,7.752 21.854,19.667 0,11.907 -8.894,19.667 -21.854,19.667 h -18.006 z m 49.316,35.454 3.118,-6.853 c 3.337,2.414 8.319,4.099 13.073,4.099 5.435,0 7.646,-1.798 7.646,-4.212 0,-7.363 -23.044,-2.309 -23.044,-16.913 0,-6.691 5.435,-12.247 16.702,-12.247 4.981,0 10.076,1.174 13.754,3.483 l -2.827,6.909 c -3.686,-2.082 -7.476,-3.086 -10.984,-3.086 -5.435,0 -7.533,2.017 -7.533,4.487 0,7.249 23.044,2.252 23.044,16.694 0,6.569 -5.492,12.19 -16.816,12.19 -6.283,10e-4 -12.626,-1.853 -16.133,-4.551"/>
<path transform="translate(-2.553,-219.458)" d="m 385,228.471 v 7.307 h -20.777 v 10.392 h 18.347 v 7.306 h -18.347 v 14.329 h -9.169 v -39.334 z"/>
<path d="m 425.541,28.68 c 0,-7.468 -5.322,-12.587 -12.401,-12.587 -7.079,0 -12.401,5.119 -12.401,12.587 0,7.468 5.322,12.587 12.401,12.587 7.079,0 12.401,-5.119 12.401,-12.587 m -34.085,0 c 0,-11.688 9.169,-20.339 21.684,-20.339 12.458,0 21.684,8.594 21.684,20.339 0,11.745 -9.226,20.339 -21.684,20.339 -12.515,0 -21.684,-8.651 -21.684,-20.339 m 72.588,-12.248 h -7.476 v 13.713 h 7.476 c 5.597,0 8.432,-2.584 8.432,-6.861 0,-4.325 -2.835,-6.852 -8.432,-6.852 M 472.646,48.346 465,37.387 h -0.454 -7.978 v 10.959 h -9.169 V 9.012 h 17.148 c 10.587,0 17.212,5.451 17.212,14.272 0,5.905 -2.997,10.23 -8.149,12.417 l 8.886,12.644 h -9.85 z m 70.491,-20.282 h 8.375 v 15.957 c -4.358,3.256 -10.36,4.998 -16.022,4.998 -12.45,0 -21.627,-8.481 -21.627,-20.339 0,-11.85 9.177,-20.339 21.797,-20.339 6.966,0 12.741,2.357 16.589,6.804 l -5.889,5.387 c -2.884,-3.029 -6.221,-4.431 -10.246,-4.431 -7.695,0 -12.96,5.111 -12.96,12.579 0,7.363 5.265,12.587 12.847,12.587 2.495,0 4.82,-0.454 7.136,-1.685 z m 54.132,0.616 c 0,-7.468 -5.322,-12.587 -12.401,-12.587 -7.079,0 -12.401,5.119 -12.401,12.587 0,7.468 5.322,12.587 12.401,12.587 7.079,0 12.401,-5.119 12.401,-12.587 m -34.085,0 c 0,-11.688 9.169,-20.339 21.684,-20.339 12.458,0 21.684,8.594 21.684,20.339 0,11.745 -9.226,20.339 -21.684,20.339 -12.515,0 -21.684,-8.651 -21.684,-20.339 m 87.534,0 c 0,-7.468 -5.322,-12.587 -12.401,-12.587 -7.079,0 -12.401,5.119 -12.401,12.587 0,7.468 5.322,12.587 12.401,12.587 7.079,10e-4 12.401,-5.119 12.401,-12.587 m -34.085,0 c 0,-11.688 9.169,-20.339 21.684,-20.339 12.458,0 21.684,8.594 21.684,20.339 0,11.745 -9.226,20.339 -21.684,20.339 -12.515,0 -21.684,-8.651 -21.684,-20.339 m 73.493,12.193 c 7.865,0 13.017,-4.666 13.017,-12.19 0,-7.533 -5.152,-12.199 -13.017,-12.199 h -8.384 V 40.873 Z M 672.574,9.016 h 18.006 c 12.96,0 21.846,7.752 21.846,19.667 0,11.907 -8.886,19.667 -21.846,19.667 h -18.006 z m 101.235,27.642 c 0,-3.313 -2.551,-4.884 -7.306,-4.884 h -10.7 v 9.72 h 10.7 c 4.754,0 7.306,-1.467 7.306,-4.836 M 755.803,15.865 v 9.274 h 9.112 c 4.479,0 6.909,-1.571 6.909,-4.666 0,-3.086 -2.43,-4.609 -6.909,-4.609 h -9.112 z m 27.232,21.749 c 0,6.796 -5.435,10.733 -15.852,10.733 H 746.69 V 9.013 h 19.359 c 9.906,0 15.001,4.107 15.001,10.23 0,3.928 -2.033,6.966 -5.265,8.651 4.415,1.401 7.25,4.779 7.25,9.72"/>
<path transform="translate(-2.553,-219.458)" d="m 831.786,228.472 h -8.999 L 812.2,245.944 801.614,228.472 h -9.737 l 15.342,25.288 v 14.038 h 9.177 v -13.924 z"/>
</g>
</svg>
