<svg id="Layer_1" data-name="Layer 1" xmlns="http://www.w3.org/2000/svg" viewBox="0 0 129 127"><defs><style>.cls-1,.cls-2{fill:#a39161;}.cls-1{stroke:#a39161;stroke-miterlimit:3.86;stroke-width:1.09px;}.cls-3{fill:#010101;}</style></defs><title>BTA-Winner_Mob</title><g id="Layer_2" data-name="Layer 2"><path class="cls-1" d="M64.87,116.15A52.29,52.29,0,0,1,15,49.72,52,52,0,0,0,12.72,63.9c0,28.76,23.48,52.79,52.11,52.92"/><path class="cls-1" d="M64.73,116.15a52.29,52.29,0,0,0,49.83-66.43,52,52,0,0,1,2.32,14.18c0,28.76-23.48,52.79-52.11,52.92"/><path class="cls-2" d="M13.09,68.54c.37-5.21,3.49-6.32,5.74-7a7.45,7.45,0,0,0,1.65-.71c.17-.1.4-.26.64-.43a8.55,8.55,0,0,1-.1,1.14,8.28,8.28,0,0,1-.84,2.59c-.94,1.91-2.93,3.93-7.09,4.37Z"/><path class="cls-2" d="M16.14,79.05l.31.17.06.2-.57.57a.29.29,0,0,1-.47,0,.3.3,0,0,1,0-.47c.34-.33.64-.63.88-.9l.13-.14-.34.57ZM17.66,77a.33.33,0,0,1,.47-.07.32.32,0,0,1,.06.47,14.55,14.55,0,0,1-1.1,1.41l-.17-.1-.44-.23c.37-.44.74-.87,1.18-1.48Z"/><path class="cls-2" d="M30.09,100.46a6.74,6.74,0,0,0,4.4-2.86l.07,0a13.73,13.73,0,0,1-3,5.14,13.57,13.57,0,0,1-1.51-2.32Zm2.25-12.64a11.67,11.67,0,0,1,2.39,4.84,5.57,5.57,0,0,1-.58.44,7.91,7.91,0,0,1-1.34.67A6.26,6.26,0,0,0,29,96.49a9.69,9.69,0,0,1,1.41-4.87,5.55,5.55,0,0,0,2-3.8Z"/><path class="cls-2" d="M30.09,100.46a6.74,6.74,0,0,0,4.4-2.86l.07,0a13.73,13.73,0,0,1-3,5.14,13.57,13.57,0,0,1-1.51-2.32Z"/><path class="cls-2" d="M32,103.75c-4.07,3.8-7.86,4-10.62,3.36A11.26,11.26,0,0,1,18,105.67a6.37,6.37,0,0,1-.91-.64.47.47,0,0,0-.54,0l.24-.27c.33-.1.7-.2,1-.3a10.33,10.33,0,0,0,2.15-1c2-1.35,4.87-3,8.7-1.55l.1.2,1.15.94.4-.33A8.73,8.73,0,0,1,32,103.75Z"/><path class="cls-2" d="M19.34,96.73A10.09,10.09,0,0,1,11.1,95a10.83,10.83,0,0,1-2-2,5.15,5.15,0,0,1-.5-.67c-.1-.17-.17-.27-.17-.27h1a9.68,9.68,0,0,0,2.36-.4c2.82-.84,6.85-1.85,10.85,2.89a14.47,14.47,0,0,0-2-.3A8.76,8.76,0,0,1,19,93.94l-.71-.27-.67-.27.2.67a6.84,6.84,0,0,0,.34.81,7.22,7.22,0,0,0,1.18,1.85Z"/><path class="cls-2" d="M20,83.93a18.52,18.52,0,0,1-2.15,1.51,10.93,10.93,0,0,1-.74-4.34A7.53,7.53,0,0,0,20,83.93Zm3.46-6.05a9.51,9.51,0,0,1-.91,3,9.65,9.65,0,0,0-3.69-1.44,6.24,6.24,0,0,1-1.28-.4,9.53,9.53,0,0,1,2.79-3.7,7.19,7.19,0,0,0,3.09,2.59Z"/><path class="cls-2" d="M20,83.93a18.52,18.52,0,0,1-2.15,1.51,10.93,10.93,0,0,1-.74-4.34A7.53,7.53,0,0,0,20,83.93Z"/><path class="cls-2" d="M23.47,77.88a9.51,9.51,0,0,1-.91,3,9.65,9.65,0,0,0-3.69-1.44,6.24,6.24,0,0,1-1.28-.4,9,9,0,0,1,2.65-3.83,13.51,13.51,0,0,0,2.32-2.89,12.22,12.22,0,0,1,.91,5.61Z"/><path class="cls-2" d="M16.88,85C7.78,89.1,3.71,81.44,3.71,81.44c.3,0,.67,0,.94,0a8.51,8.51,0,0,0,2.12-.27c2.69-.63,6.59-1.37,10.11,3.83Z"/><path class="cls-2" d="M20.75,65.68a10.87,10.87,0,0,1,.3,2,9.1,9.1,0,0,1-1,4.34c0-.1-.47.8-.74,1.11a11.35,11.35,0,0,1-4.67,3.26c-1.08-5.58,1.88-7.6,4-8.91a7.37,7.37,0,0,0,1.51-1.21,2.13,2.13,0,0,0,.54-.57Z"/><path class="cls-2" d="M13.89,75.53c-4.37,1.17-7.15-.11-8.83-1.65a8.29,8.29,0,0,1-1.82-2.29,3.9,3.9,0,0,1-.4-.8.4.4,0,0,0-.44-.2l.34-.1c.27.06.6.13.8.16a8.26,8.26,0,0,0,1.92.07c2.49-.23,6.05-.34,8.43,4.81Z"/><path class="cls-2" d="M12.38,67.49c-4.07-.13-6.11-2-7.19-3.76a8.69,8.69,0,0,1-1-2.45,8.21,8.21,0,0,1-.17-1.11c.23.13.47.27.67.37a6.41,6.41,0,0,0,1.65.57c2.18.5,5.31,1.34,6,6.38Z"/><path class="cls-2" d="M13.72,60.54c.71-4.54,3.53-5.24,5.52-5.65a8,8,0,0,0,1.47-.47,5.62,5.62,0,0,0,.61-.33,7.64,7.64,0,0,1-1.08,3.16c-1,1.61-2.85,3.22-6.52,3.29Z"/><path class="cls-2" d="M13.25,59.8c-7.22-.64-7.12-7-7.12-7a6,6,0,0,0,.57.34,7.21,7.21,0,0,0,1.45.6c2,.54,4.7,1.45,5.1,6Z"/><path class="cls-2" d="M13.25,54.09c-5.84-3.67-3.05-9-3.05-9a3.5,3.5,0,0,0,.33.53,5.61,5.61,0,0,0,1,1.11c1.44,1.31,3.36,3.3,1.74,7.33Z"/><path class="cls-2" d="M14,53.55c2.55-3.53,5.24-2.92,7.09-2.39a6.29,6.29,0,0,0,1.48.24h.63c.1.07.14.07.14.1a.28.28,0,0,0-.27.13,4,4,0,0,1-.44.54A7.1,7.1,0,0,1,21,53.65c-1.51.87-3.8,1.45-6.92-.1Z"/><path class="cls-2" d="M19.17,43.13a6.46,6.46,0,0,1,.13.81,5.71,5.71,0,0,1-.2,1.91A5.88,5.88,0,0,1,14.8,50c-.5-3.69,1.51-4.94,3-5.71a5.37,5.37,0,0,0,1-.74,1.81,1.81,0,0,0,.37-.37Z"/><path class="cls-2" d="M39.46,109.46c-5-4.87-3.46-9-2.18-11.86A12.74,12.74,0,0,0,38,95.32c.06-.31.1-.71.13-1,.24-.27.07,0,.3.26a6.94,6.94,0,0,1,.78.81,11.72,11.72,0,0,1,1.91,3.06c1.08,2.65,1.45,6.42-1.65,11Z"/><path class="cls-2" d="M39.9,110.37c-7.12,8.5-14.88,2.86-14.88,2.86.3-.14.67-.27.94-.41a9.06,9.06,0,0,0,2-1.31c2.38-2,5.95-4.63,12-1.14Z"/><path class="cls-2" d="M49.34,113.56c-5.57-4.2-4.5-8.5-3.63-11.49a10.11,10.11,0,0,0,.41-2.35c0-.3,0-.71,0-1,.2-.31.06,0,.33.23l.88.71a10.48,10.48,0,0,1,2.28,2.79c1.45,2.48,2.29,6.18-.27,11.15Z"/><path class="cls-2" d="M49.91,114.44c-3,4.7-6.65,5.81-9.47,5.81a12.25,12.25,0,0,1-3.56-.57c-.44-.14-.81-.3-1.05-.4a.47.47,0,0,0-.53.13l.17-.3c.3-.17.63-.37.87-.54a9.63,9.63,0,0,0,1.81-1.51c2.15-2.29,5.35-5.35,11.76-2.62Z"/><path class="cls-2" d="M41,107.14a.38.38,0,0,1,.37.34,4.24,4.24,0,0,0,2.21,3.87.34.34,0,0,1,.17.47.34.34,0,0,1-.47.16c-1.81-.87-2.45-2.45-2.62-4.43a.41.41,0,0,1,.34-.41Z"/><path class="cls-2" d="M39,112.12a.32.32,0,0,1,.2-.44,8.54,8.54,0,0,1,3.23-.7.37.37,0,0,1,.37.33.36.36,0,0,1-.34.37,7.51,7.51,0,0,0-3,.67.4.4,0,0,1-.47-.23Z"/><path class="cls-2" d="M34.09,102.47a.37.37,0,0,1,.37.34,6.57,6.57,0,0,0,1.31,4.13.33.33,0,0,1-.07.47.31.31,0,0,1-.47-.06,7.28,7.28,0,0,1-1.44-4.51c0-.2.13-.33.3-.37Z"/><path class="cls-2" d="M31.57,107.31a.32.32,0,0,1,.13-.47,5.52,5.52,0,0,1,3.09-.74.32.32,0,0,1,.34.34.34.34,0,0,1-.34.34,5.15,5.15,0,0,0-2.75.63.3.3,0,0,1-.47-.1Z"/><path class="cls-2" d="M20.71,87c.07-.13.1-.27.17-.37a.35.35,0,0,1,.47-.16.33.33,0,0,1,.17.47l-.13.27a2.91,2.91,0,0,0-.68-.21Z"/><path class="cls-2" d="M20.71,87c.07-.13.1-.27.17-.37a.35.35,0,0,1,.47-.16.33.33,0,0,1,.17.47l-.13.27a2.91,2.91,0,0,0-.68-.21Z"/><path class="cls-2" d="M17.12,88.5c.23.3.5.63.81,1l-.07.07c-.24-.14-.51-.27-.77-.41a.34.34,0,0,1,0-.63Z"/><path class="cls-2" d="M14.26,78.85a2.11,2.11,0,0,0-1.24-.6c-.24,0-.3-.2-.3-.41a.35.35,0,0,1,.4-.3,2.74,2.74,0,0,1,1.51.71,5.52,5.52,0,0,1,.57.6c.17.24.37.47.57.74a.32.32,0,0,1-.06.47.33.33,0,0,1-.47-.07,6.63,6.63,0,0,0-.47-.6c-.21-.2-.34-.4-.51-.54Z"/><path class="cls-2" d="M10.73,69.41a.33.33,0,0,1-.2-.44.34.34,0,0,1,.44-.2,6.27,6.27,0,0,1,1.44.84c.41.34.81.71,1.28,1.14a.36.36,0,0,1,0,.51.32.32,0,0,1-.47,0,14.89,14.89,0,0,0-1.17-1,3.9,3.9,0,0,0-1.35-.84Z"/><path class="cls-2" d="M14.83,69.31a.32.32,0,0,1,.1.47,7.53,7.53,0,0,0-1,2,.38.38,0,0,1-.44.24.34.34,0,0,1-.24-.44,6.9,6.9,0,0,1,1.08-2.15.41.41,0,0,1,.5-.1Z"/><path class="cls-2" d="M14.8,61.21a.32.32,0,0,1,.47.07.33.33,0,0,1-.07.47,10.11,10.11,0,0,0-1,.87l-1,1a.36.36,0,0,1-.51-.51l1-1,1.11-.87Z"/><path class="cls-2" d="M11.14,61.85c-.14-.24-.27-.47-.44-.74a.34.34,0,0,1,.17-.47.35.35,0,0,1,.47.17,3.53,3.53,0,0,0,.44.74c.13.23.3.43.43.64a8.25,8.25,0,0,1,.88,1.41.34.34,0,0,1-.17.47.36.36,0,0,1-.47-.17,7.43,7.43,0,0,0-.88-1.41c-.13-.2-.26-.41-.43-.64Z"/><path class="cls-2" d="M16.18,54.62a.31.31,0,0,1-.2.44,5.06,5.06,0,0,0-2,1.31.29.29,0,0,1-.47,0,.33.33,0,0,1,0-.5,5.43,5.43,0,0,1,2.18-1.45.32.32,0,0,1,.44.2Z"/><path class="cls-2" d="M12.31,53.48a.32.32,0,0,1,.47-.06,3.35,3.35,0,0,1,1.31,1.88.35.35,0,0,1-.67.2,3.11,3.11,0,0,0-1.07-1.58.29.29,0,0,1,0-.44Z"/><path class="cls-2" d="M16.68,50.59a.34.34,0,0,1-.17.47l-1.37.71a.34.34,0,0,1-.47-.17.35.35,0,0,1,.16-.47l1.38-.71a.41.41,0,0,1,.47.17Z"/><path class="cls-2" d="M14.23,48.51a.31.31,0,0,1,.4.27A11.43,11.43,0,0,1,15,50.9a.33.33,0,0,1-.34.36.36.36,0,0,1-.37-.33,10,10,0,0,0-.33-2,.39.39,0,0,1,.3-.4Z"/><path class="cls-2" d="M26,80.8c-1.64,4.13-.6,9.64.84,14A54.9,54.9,0,0,0,30,102.47l-.1.07-.87-.7a51.55,51.55,0,0,1-2.89-7.67c-1.25-4.33-2.09-9.71-.44-13.81C25.72,80.36,27.77,76.43,26,80.8Z"/><path class="cls-2" d="M34.89,93s1.65,6.19-6,7.36C28.21,95.82,31,94.71,33,94A7.79,7.79,0,0,0,34.89,93Z"/><path class="cls-2" d="M27.94,99.69C20,100.16,18.13,94,18.13,94l.74.27a8.58,8.58,0,0,0,1.71.36c2.25.21,5.48.68,7.36,5Z"/><path class="cls-2" d="M31.9,85.87s1.58,5.89-5.71,7c-.64-4.27,1.95-5.31,3.87-6a5.73,5.73,0,0,0,1.34-.68,4.32,4.32,0,0,0,.5-.37Z"/><path class="cls-2" d="M25.72,91.82a9.32,9.32,0,0,1-7.49-2.52,8.36,8.36,0,0,1-1.45-2c-.13-.27-.23-.5-.3-.67l-.1-.23a4,4,0,0,0,.7.23,8.65,8.65,0,0,0,1.65.34c2.12.2,5.18.67,7,4.8Z"/><path class="cls-2" d="M25.15,86.82c-.07-4,2.59-4.74,4.5-5.15A6.28,6.28,0,0,0,31,81.2c.13-.06.34-.2.54-.3,0,0,.7,5.61-6.42,5.92Z"/><path class="cls-2" d="M24.85,84.9c-7.26-.37-8.24-6-8.24-6a5.93,5.93,0,0,0,.64.31,8.59,8.59,0,0,0,1.52.47c2,.4,4.9,1.14,6.08,5.17Z"/><path class="cls-2" d="M28.11,94.24a.15.15,0,0,1,.13.2,20.94,20.94,0,0,1-.6,2.83.22.22,0,0,1-.21.13.18.18,0,0,1-.13-.2,19,19,0,0,0,.6-2.79.23.23,0,0,1,.21-.17Z"/><path class="cls-2" d="M25.15,93.87a.17.17,0,0,1-.07-.23.17.17,0,0,1,.24-.07,2.9,2.9,0,0,1,1,.87c.26.34.47.71.8,1.15.07.1,0,.16,0,.23a.15.15,0,0,1-.24,0c-.3-.41-.5-.78-.77-1.08a2.59,2.59,0,0,0-.94-.84Z"/><path class="cls-2" d="M26.12,88.63a2.32,2.32,0,0,0,.31-.4.17.17,0,0,1,.23-.07.16.16,0,0,1,0,.23c-.11.17-.21.27-.31.41l-.3.3a2.94,2.94,0,0,0-.54.71c-.06.1-.13.1-.23.06a.14.14,0,0,1-.07-.23,4.74,4.74,0,0,1,.54-.74,1.44,1.44,0,0,0,.33-.27Z"/><path class="cls-2" d="M23.74,86.38c.07-.07.17-.1.23,0a4.57,4.57,0,0,1,1.35,2.22.17.17,0,0,1-.1.23c-.1,0-.17,0-.24-.1a4.28,4.28,0,0,0-1.24-2.08.17.17,0,0,1,0-.27Z"/><polygon class="cls-2" points="20.61 25.89 21.35 29.42 13.89 23.98 20.61 25.89"/><polygon class="cls-2" points="24.31 26.9 21.35 29.42 24.07 21.22 24.31 26.9"/><polygon class="cls-2" points="20.61 25.89 21.35 29.42 24.07 21.22 20.61 25.89"/><polygon class="cls-2" points="24.31 26.9 21.35 29.42 29.95 29.09 24.31 26.9"/><polygon class="cls-2" points="29.95 29.09 21.35 29.42 24.38 31.61 29.95 29.09"/><polygon class="cls-2" points="24.38 31.61 21.35 29.42 23.8 38.09 24.38 31.61"/><polygon class="cls-2" points="23.8 38.09 21.35 29.42 19.98 33.05 23.8 38.09"/><polygon class="cls-2" points="19.98 33.05 21.35 29.42 14.56 34.5 19.98 33.05"/><polygon class="cls-2" points="14.56 34.5 21.35 29.42 17.93 29.69 14.56 34.5"/><polygon class="cls-2" points="17.93 29.69 21.35 29.42 13.89 23.98 17.93 29.69"/><polygon class="cls-2" points="23.57 37.22 23.91 31.27 29.45 29.09 23.94 27.24 24.01 21.63 20.65 26.27 14.43 24.35 18.19 29.69 14.83 34.33 20.11 32.52 23.57 37.22"/><polygon class="cls-2" points="111.81 30.06 108.21 29.76 115.57 24.18 111.81 30.06"/><polygon class="cls-2" points="109.76 33.32 108.21 29.76 115.2 34.77 109.76 33.32"/><polygon class="cls-2" points="111.81 30.06 108.21 29.76 115.2 34.77 111.81 30.06"/><polygon class="cls-2" points="109.76 33.32 108.21 29.76 106.03 38.09 109.76 33.32"/><polygon class="cls-2" points="106.03 38.09 108.21 29.76 105.26 32.01 106.03 38.09"/><polygon class="cls-2" points="105.26 32.01 108.21 29.76 99.24 29.56 105.26 32.01"/><polygon class="cls-2" points="99.24 29.56 108.21 29.76 105.16 27.37 99.24 29.56"/><polygon class="cls-2" points="105.16 27.37 108.21 29.76 105.36 21.76 105.16 27.37"/><polygon class="cls-2" points="105.36 21.76 108.21 29.76 108.95 26.4 105.36 21.76"/><polygon class="cls-2" points="108.95 26.4 108.21 29.76 115.57 24.18 108.95 26.4"/><polygon class="cls-2" points="100.12 29.59 105.69 31.68 106.16 37.62 109.52 32.88 114.87 34.56 111.44 30 115.07 24.59 108.89 26.63 105.46 22.03 105.63 27.68 100.12 29.59"/><path class="cls-2" d="M61.41,116.22c-6-3.5-5.51-7.9-5-11a9.65,9.65,0,0,0,.13-2.38,10.18,10.18,0,0,0-.13-1c.17-.31.07,0,.37.2a9.56,9.56,0,0,1,.94.6,11.85,11.85,0,0,1,2.62,2.49c1.71,2.25,3,5.85,1.08,11.09Z"/><path class="cls-2" d="M48.3,123.41c.27-.2.61-.44.84-.64A10.08,10.08,0,0,0,50.75,121c1.85-2.52,4.64-5.94,11.33-4-4.84,10-13.75,6.39-13.78,6.39Z"/><path class="cls-2" d="M53,110.47a.32.32,0,0,1,.4.27c.44,2,.87,3.33,2.45,4.47a.34.34,0,0,1-.4.54c-1.72-1.28-2.22-2.76-2.72-4.88a.34.34,0,0,1,.27-.4Z"/><path class="cls-2" d="M50.75,116.32a.33.33,0,0,1-.4-.27.31.31,0,0,1,.27-.4l1.75-.44a8.57,8.57,0,0,1,1.78-.27.32.32,0,0,1,.37.34.35.35,0,0,1-.34.37,7.38,7.38,0,0,0-1.71.27c-.57.1-1.08.26-1.72.4Z"/><path class="cls-2" d="M116.51,68.54c-.37-5.21-3.49-6.32-5.74-7a7.45,7.45,0,0,1-1.65-.71c-.17-.1-.4-.26-.64-.43a8.55,8.55,0,0,0,.1,1.14,8,8,0,0,0,.84,2.59c.94,1.91,2.93,3.93,7.09,4.37Z"/><path class="cls-2" d="M113.46,79.05l-.34-.6.13.13c.27.27.54.57.88.91a.33.33,0,0,1,0,.5.3.3,0,0,1-.47,0l-.57-.57,0-.2.34-.17Zm-1.52-2.11c.44.6.81,1,1.18,1.51l-.44.23-.17.1a14.55,14.55,0,0,1-1.1-1.41.32.32,0,0,1,.06-.47.3.3,0,0,1,.47,0Z"/><path class="cls-2" d="M99.51,100.42A16.31,16.31,0,0,1,98,102.74a14.07,14.07,0,0,1-3-5.14l.07,0a6.86,6.86,0,0,0,4.43,2.85Zm-2.25-12.6a5.23,5.23,0,0,0,1.95,3.73,9.75,9.75,0,0,1,1.41,4.91,6.18,6.18,0,0,0-3.83-2.72,5.55,5.55,0,0,1-1.34-.67,3.7,3.7,0,0,1-.58-.44,11,11,0,0,1,2.39-4.81Z"/><path class="cls-2" d="M99.51,100.42a6.77,6.77,0,0,1-4.4-2.85l-.07,0a13.65,13.65,0,0,0,3,5.14,11.88,11.88,0,0,0,1.51-2.32Z"/><path class="cls-2" d="M97.63,103.72c4.07,3.83,7.86,4,10.62,3.36a11.25,11.25,0,0,0,3.32-1.45,5.65,5.65,0,0,0,.91-.64.47.47,0,0,1,.54,0l-.24-.26c-.33-.11-.7-.21-1-.31a9.84,9.84,0,0,1-2.15-1c-2-1.34-4.87-3-8.7-1.54l-.1.2-1.18.94-.4-.34a14.09,14.09,0,0,0-1.65,1.08Z"/><path class="cls-2" d="M110.26,96.73A10.09,10.09,0,0,0,118.5,95a11.84,11.84,0,0,0,2-2,5.15,5.15,0,0,0,.5-.67c.1-.17.17-.27.17-.27h-1a9.68,9.68,0,0,1-2.36-.4C115,90.85,111,89.84,107,94.58a14.47,14.47,0,0,1,2-.3,8.76,8.76,0,0,0,1.65-.34l.71-.27.67-.27-.2.67a6.84,6.84,0,0,1-.34.81,8.52,8.52,0,0,1-1.18,1.85Z"/><path class="cls-2" d="M109.59,83.93a8,8,0,0,0,2.89-2.86,10.89,10.89,0,0,1-.74,4.33,10.67,10.67,0,0,1-2.15-1.47Zm-3.46-6.09a7.74,7.74,0,0,0,3.09-2.55A9.11,9.11,0,0,1,112,79a8.87,8.87,0,0,1-1.28.4A9.19,9.19,0,0,0,107,80.83a9.46,9.46,0,0,1-.91-3Z"/><path class="cls-2" d="M109.59,83.93a18.52,18.52,0,0,0,2.15,1.51,10.93,10.93,0,0,0,.74-4.34,8,8,0,0,1-2.89,2.83Z"/><path class="cls-2" d="M106.13,77.84a9.38,9.38,0,0,0,.91,3,9.65,9.65,0,0,1,3.69-1.44A5.67,5.67,0,0,0,112,79a9.07,9.07,0,0,0-2.65-3.83A13.24,13.24,0,0,1,107,72.23a12.38,12.38,0,0,0-.91,5.61Z"/><path class="cls-2" d="M112.72,85c9.1,4.07,13.17-3.59,13.17-3.59-.3,0-.67,0-.94,0a8.51,8.51,0,0,1-2.12-.27c-2.69-.63-6.62-1.37-10.11,3.83Z"/><path class="cls-2" d="M108.85,65.68a10.87,10.87,0,0,0-.3,2,9.17,9.17,0,0,0,1,4.34c0-.1.47.8.74,1.11a11.35,11.35,0,0,0,4.67,3.26c1.08-5.58-1.88-7.6-4-8.91a8.54,8.54,0,0,1-1.51-1.18c-.17-.16-.37-.4-.54-.6Z"/><path class="cls-2" d="M115.71,75.49c4.37,1.18,7.15-.1,8.83-1.64a9.09,9.09,0,0,0,1.82-2.29,3.93,3.93,0,0,0,.4-.81.42.42,0,0,1,.44-.2l-.34-.1c-.27.07-.6.14-.8.17a8.85,8.85,0,0,1-1.92.07c-2.49-.2-6-.31-8.43,4.8Z"/><path class="cls-2" d="M117,67.49c4.07-.13,6.12-2,7.19-3.76a7.95,7.95,0,0,0,1.14-3.56c-.23.13-.47.27-.67.37a6.46,6.46,0,0,1-1.64.57c-2.22.5-5.31,1.34-6,6.38Z"/><path class="cls-2" d="M115.88,60.54c-.71-4.54-3.53-5.24-5.52-5.65a7.29,7.29,0,0,1-1.47-.47,5.62,5.62,0,0,1-.61-.33,7.64,7.64,0,0,0,1.08,3.16c1,1.61,2.85,3.22,6.52,3.29Z"/><path class="cls-2" d="M116.08,59.8c7.22-.64,7.12-7,7.12-7a6,6,0,0,1-.57.34,7,7,0,0,1-1.45.6c-2,.54-4.73,1.45-5.1,6Z"/><path class="cls-2" d="M116.35,54.09c5.84-3.67,3.05-9,3.05-9a3.5,3.5,0,0,1-.33.53,5.61,5.61,0,0,1-1,1.11c-1.44,1.31-3.36,3.26-1.74,7.33Z"/><path class="cls-2" d="M115.57,53.55c-2.55-3.53-5.24-2.92-7.09-2.39a6.29,6.29,0,0,1-1.48.24h-.63c-.11.07-.14.07-.14.1a.28.28,0,0,1,.27.13,4,4,0,0,0,.44.54,7.1,7.1,0,0,0,1.71,1.48c1.48.87,3.8,1.45,6.92-.1Z"/><path class="cls-2" d="M110.43,43.13a6.46,6.46,0,0,0-.13.81,5.71,5.71,0,0,0,.2,1.91,5.88,5.88,0,0,0,4.3,4.1c.5-3.69-1.51-4.94-3-5.71a5.37,5.37,0,0,1-1-.74,3.18,3.18,0,0,1-.37-.37Z"/><path class="cls-2" d="M90.14,109.46c5-4.87,3.46-9,2.18-11.86a12.74,12.74,0,0,1-.71-2.28c-.06-.31-.1-.71-.13-1-.24-.27-.07,0-.3.26a6.94,6.94,0,0,0-.78.81,11.72,11.72,0,0,0-1.91,3.06c-1.08,2.62-1.45,6.42,1.65,11Z"/><path class="cls-2" d="M89.7,110.37c7.12,8.5,14.88,2.86,14.88,2.86-.3-.14-.67-.27-.94-.41a9.06,9.06,0,0,1-2-1.31c-2.42-2-6-4.63-12-1.14Z"/><path class="cls-2" d="M80.26,113.56c5.57-4.2,4.5-8.5,3.63-11.49a10.11,10.11,0,0,1-.41-2.35c0-.3,0-.71,0-1-.2-.31-.06,0-.33.23l-.88.71A11.18,11.18,0,0,0,80,102.41c-1.45,2.48-2.29,6.18.27,11.15Z"/><path class="cls-2" d="M79.69,114.44c3,4.7,6.65,5.81,9.47,5.81a12,12,0,0,0,3.56-.57c.44-.14.81-.3,1-.4a.47.47,0,0,1,.53.13l-.17-.3c-.3-.17-.63-.37-.87-.54a11.09,11.09,0,0,1-1.81-1.51c-2.19-2.29-5.38-5.38-11.76-2.62Z"/><path class="cls-2" d="M88.62,107.14a.38.38,0,0,0-.37.34A4.24,4.24,0,0,1,86,111.35a.34.34,0,0,0-.17.47.34.34,0,0,0,.47.16c1.81-.87,2.45-2.45,2.62-4.43,0-.27-.17-.41-.34-.41Z"/><path class="cls-2" d="M90.64,112.12a.32.32,0,0,0-.2-.44,8.54,8.54,0,0,0-3.23-.7.37.37,0,0,0-.37.33.36.36,0,0,0,.34.37,8.06,8.06,0,0,1,3,.67.42.42,0,0,0,.47-.23Z"/><path class="cls-2" d="M95.51,102.47a.37.37,0,0,0-.37.34,6.57,6.57,0,0,1-1.31,4.13.33.33,0,0,0,.07.47.34.34,0,0,0,.47-.06,7.28,7.28,0,0,0,1.44-4.51.3.3,0,0,0-.3-.37Z"/><path class="cls-2" d="M98,107.31a.31.31,0,0,0-.14-.47,5.52,5.52,0,0,0-3.09-.74.32.32,0,0,0-.33.34.33.33,0,0,0,.33.34,5.18,5.18,0,0,1,2.76.63.29.29,0,0,0,.47-.1Z"/><path class="cls-2" d="M108.89,87a5.82,5.82,0,0,0-.68.2l-.13-.27a.34.34,0,0,1,.17-.47.36.36,0,0,1,.47.17c.07.13.1.27.17.37Z"/><path class="cls-2" d="M108.89,87c-.07-.13-.1-.27-.17-.37a.36.36,0,0,0-.47-.17.33.33,0,0,0-.17.47l.13.27.68-.2Z"/><path class="cls-2" d="M112.48,88.5c-.23.3-.5.63-.81,1l.07.07c.24-.14.51-.27.77-.41a.34.34,0,0,0,0-.63Z"/><path class="cls-2" d="M115.34,78.82a2.18,2.18,0,0,1,1.24-.61c.24,0,.3-.2.3-.4a.34.34,0,0,0-.4-.3,2.73,2.73,0,0,0-1.51.7,4.86,4.86,0,0,0-.57.61c-.17.23-.37.47-.57.74a.32.32,0,0,0,.06.47.31.31,0,0,0,.47-.07c.17-.23.34-.44.47-.64a6.07,6.07,0,0,0,.51-.5Z"/><path class="cls-2" d="M118.76,69.71a.32.32,0,0,0,.21-.43.35.35,0,0,0-.44-.21,6.56,6.56,0,0,0-1.45.84c-.4.34-.8.71-1.24,1.15a.36.36,0,0,0,0,.5.32.32,0,0,0,.47,0c.44-.4.77-.74,1.17-1a3.56,3.56,0,0,1,1.31-.84Z"/><path class="cls-2" d="M114.77,69.31a.32.32,0,0,0-.1.47,7.53,7.53,0,0,1,1,2,.38.38,0,0,0,.44.24.34.34,0,0,0,.24-.44,6.9,6.9,0,0,0-1.08-2.15.38.38,0,0,0-.5-.1Z"/><path class="cls-2" d="M114.8,61.21a.32.32,0,0,0-.47.07.33.33,0,0,0,.07.47,10.11,10.11,0,0,1,1,.87l1,1a.31.31,0,0,0,.47,0,.34.34,0,0,0,0-.51l-1-1c-.31-.26-.64-.53-1.08-.87Z"/><path class="cls-2" d="M118.19,61.85c.14-.24.27-.47.44-.74a.34.34,0,0,0-.17-.47.35.35,0,0,0-.47.17,4,4,0,0,1-.43.74c-.14.23-.31.43-.44.64a8.92,8.92,0,0,0-.88,1.41.34.34,0,0,0,.17.47.36.36,0,0,0,.47-.17,7.43,7.43,0,0,1,.88-1.41l.43-.64Z"/><path class="cls-2" d="M113.42,54.59a.31.31,0,0,0,.2.44,5,5,0,0,1,1.95,1.31.3.3,0,0,0,.47,0,.34.34,0,0,0,0-.51,5.51,5.51,0,0,0-2.18-1.44.34.34,0,0,0-.44.2Z"/><path class="cls-2" d="M117.29,53.48a.32.32,0,0,0-.47-.06,3.35,3.35,0,0,0-1.31,1.88.32.32,0,0,0,.2.43.31.31,0,0,0,.43-.23,3,3,0,0,1,1.11-1.58.29.29,0,0,0,0-.44Z"/><path class="cls-2" d="M112.92,50.59a.32.32,0,0,0,.17.47l1.37.71a.34.34,0,0,0,.47-.17.35.35,0,0,0-.16-.47l-1.38-.71a.37.37,0,0,0-.47.17Z"/><path class="cls-2" d="M115.37,48.51a.31.31,0,0,0-.4.27,11.43,11.43,0,0,0-.34,2.12.33.33,0,0,0,.34.36.36.36,0,0,0,.37-.33,10,10,0,0,1,.33-2,.39.39,0,0,0-.3-.4Z"/><path class="cls-2" d="M103.58,80.8c1.64,4.13.6,9.64-.84,14a56.24,56.24,0,0,1-3.16,7.62l.1.07.87-.7a51.55,51.55,0,0,0,2.89-7.67c1.25-4.33,2.09-9.71.44-13.81C103.85,80.36,101.83,76.43,103.58,80.8Z"/><path class="cls-2" d="M94.71,93s-1.65,6.19,6,7.4c.67-4.51-2.08-5.61-4.07-6.29a5.76,5.76,0,0,1-1.41-.7c-.13-.1-.33-.27-.53-.41Z"/><path class="cls-2" d="M101.66,99.69c7.9.47,9.81-5.68,9.81-5.68l-.74.27a8.58,8.58,0,0,1-1.71.36c-2.25.21-5.48.68-7.36,5Z"/><path class="cls-2" d="M97.7,85.87s-1.58,5.89,5.71,7c.64-4.26-2-5.31-3.87-6a6.75,6.75,0,0,1-1.34-.64,5.6,5.6,0,0,1-.5-.37Z"/><path class="cls-2" d="M103.88,91.82a9.32,9.32,0,0,0,7.49-2.52,8.66,8.66,0,0,0,1.45-2c.13-.27.23-.5.3-.67a1.37,1.37,0,0,0,.1-.23,3.84,3.84,0,0,1-.71.23,8.37,8.37,0,0,1-1.64.34c-2.15.2-5.21.64-7,4.8Z"/><path class="cls-2" d="M104.45,86.78c.07-4-2.59-4.74-4.5-5.14a6.28,6.28,0,0,1-1.38-.47c-.13-.07-.34-.2-.54-.3,0,0-.7,5.61,6.42,5.91Z"/><path class="cls-2" d="M104.75,84.9c7.26-.37,8.24-6,8.24-6-.24.13-.48.23-.64.3a7.2,7.2,0,0,1-1.52.47c-2,.44-4.9,1.18-6.08,5.21Z"/><path class="cls-2" d="M101.49,94.24a.15.15,0,0,0-.13.2,20.94,20.94,0,0,0,.6,2.83.22.22,0,0,0,.21.13.18.18,0,0,0,.13-.2,19,19,0,0,1-.6-2.79.2.2,0,0,0-.21-.17Z"/><path class="cls-2" d="M104.45,93.87a.17.17,0,0,0,.07-.23.17.17,0,0,0-.24-.07,2.9,2.9,0,0,0-1,.87c-.26.34-.47.71-.8,1.15-.07.1,0,.16,0,.23a.15.15,0,0,0,.24,0c.3-.41.5-.78.77-1.08a2.59,2.59,0,0,1,.94-.84Z"/><path class="cls-2" d="M103.48,88.63a2.32,2.32,0,0,1-.31-.4.17.17,0,0,0-.23-.07.2.2,0,0,0-.07.23,4.85,4.85,0,0,0,.3.41l.31.3a2.68,2.68,0,0,1,.53.71.17.17,0,0,0,.24.06.14.14,0,0,0,.07-.23,4.74,4.74,0,0,0-.54-.74,2.44,2.44,0,0,1-.3-.27Z"/><path class="cls-2" d="M105.86,86.38a.15.15,0,0,0-.23,0,4.57,4.57,0,0,0-1.35,2.22.21.21,0,0,0,.1.23c.1,0,.17,0,.24-.1a4.28,4.28,0,0,1,1.24-2.08.17.17,0,0,0,0-.27Z"/><path class="cls-2" d="M104.32,82.35c1.14-2.59.5-4.3-.47-5.35a5,5,0,0,0-1.45-1.1c-.2-.11-.5-.24-.74-.34a3,3,0,0,1,.07.47,5.43,5.43,0,0,1-.1,1.18c-.37,1.47-.74,3.62,2.69,5.14Z"/><path class="cls-2" d="M25.49,82.35C24.34,79.76,25,78.05,26,77a5,5,0,0,1,1.44-1.1c.2-.11.5-.24.74-.34,0,.2-.07.37-.07.47a5.43,5.43,0,0,0,.1,1.18c.37,1.47.74,3.62-2.68,5.14Z"/><path class="cls-2" d="M68.16,116.22c6-3.5,5.51-7.9,5-11a10.24,10.24,0,0,1-.14-2.38c0-.3.07-.71.14-1-.17-.31-.07,0-.37.2a8.5,8.5,0,0,0-.94.6,11.63,11.63,0,0,0-2.62,2.49c-1.72,2.25-3,5.85-1.08,11.09Z"/><path class="cls-2" d="M81.27,123.37c-.27-.2-.61-.43-.85-.63A10.9,10.9,0,0,1,78.81,121c-1.85-2.52-4.64-5.95-11.32-4,4.87,10,13.78,6.45,13.78,6.41Z"/><path class="cls-2" d="M76.59,110.44a.31.31,0,0,0-.4.27c-.47,2-.91,3.32-2.45,4.47a.33.33,0,0,0-.07.47.32.32,0,0,0,.47.06c1.72-1.27,2.22-2.75,2.72-4.87a.36.36,0,0,0-.27-.4Z"/><path class="cls-2" d="M78.85,116.32a.33.33,0,0,0,.4-.27.31.31,0,0,0-.27-.4l-1.75-.44a8.57,8.57,0,0,0-1.78-.27.32.32,0,0,0-.37.34.37.37,0,0,0,.34.37,7.38,7.38,0,0,1,1.71.27c.57.1,1.08.26,1.72.4Z"/><path class="cls-3" d="M26.16,18.23a2,2,0,0,0-1-.6,1.28,1.28,0,0,0-.58.2c-.13.07-.2.1-.26,0s0-.17.2-.3c.67-.41,1.38-.81,1.51-.88s.64-.47,1.38-.94c.17-.1.3-.13.33-.06s0,.16-.16.27a.9.9,0,0,0-.31.23.32.32,0,0,0,0,.37,8.59,8.59,0,0,0,1,1c.74.7,4.37,3.83,5,4.4l0,0-1.68-8.2c-.1-.44-.07-.61,0-.67s.34.06.74.37l6.69,4.77,0,0c-.3-1-1.41-5-1.88-6.78a3.85,3.85,0,0,0-.34-.81c-.13-.2-.37-.3-.84,0-.13.07-.23.1-.3,0s0-.17.24-.3c.67-.44,1.24-.71,1.34-.81s.61-.43,1-.7c.14-.1.24-.14.3,0s0,.17-.1.24a1.27,1.27,0,0,0-.4.34c-.23.3-.07.9.14,1.81.43,2,1.61,6.89,2.18,9.21.13.53.17.74,0,.84s-.3,0-.77-.37l-6.66-4.74h0c.17.81,1.31,6.38,1.48,7.9.1.67.13.87,0,1s-.26,0-.6-.3Z"/><path class="cls-3" d="M44.44,11.68c-.74-2.15-.91-2.55-1.08-3s-.43-.67-.77-.64a1.54,1.54,0,0,0-.54.14c-.13,0-.23,0-.27-.07s.07-.17.3-.24c.54-.2,1.45-.47,1.85-.6s1.18-.47,1.72-.64c.16-.07.3-.07.33,0s0,.17-.17.24a1.48,1.48,0,0,0-.4.2c-.37.2-.4.47-.23,1s.27.87,1,3l.88,2.52c.47,1.38.87,2.49,1.14,3.09.17.37.37.61.81.51a7.55,7.55,0,0,0,.74-.21c.16-.06.23,0,.27,0s-.07.17-.24.23c-.94.34-1.85.61-2.22.74s-1.21.47-1.78.67c-.17.07-.3.07-.33,0s0-.13.2-.2a3.37,3.37,0,0,0,.5-.24c.27-.16.27-.43.17-.84-.14-.63-.54-1.74-1-3.12Z"/><path class="cls-3" d="M53.64,14.07c.17,1.17.44,1.51.74,1.58a2.45,2.45,0,0,0,.81,0c.17,0,.27,0,.27.1s-.1.17-.34.2c-1,.13-1.58.17-1.85.2s-.84.17-1.61.27c-.2,0-.33,0-.33-.1s.06-.14.23-.17a2.36,2.36,0,0,0,.67-.17c.37-.17.37-.6.24-1.91l-1-8.87c0-.31,0-.51.13-.54s.34.17.61.4S55,7.38,57.44,9.26c1.14.88,3.46,2.76,3.73,3h.07l-1-6.68c-.13-.91-.3-1.18-.67-1.28a3.13,3.13,0,0,0-.81,0c-.17,0-.23,0-.27-.1s.14-.17.37-.17c.78-.1,1.51-.13,1.82-.2.16,0,.74-.14,1.44-.24.2,0,.34,0,.37.1s-.07.14-.23.17-.27,0-.44.1c-.4.17-.47.51-.4,1.35l1.07,9.44c0,.34,0,.47-.13.5s-.37-.13-.54-.27c-1-.77-3.23-2.48-5-3.83s-3.73-3.05-4-3.29h0Z"/><path class="cls-3" d="M68.13,13.13c-.14,1.17,0,1.58.27,1.74a2.16,2.16,0,0,0,.77.21c.17,0,.23.06.23.16s-.16.14-.37.1c-1-.13-1.54-.26-1.84-.3-.14,0-.84-.07-1.62-.17-.2,0-.33-.06-.3-.2s.1-.1.27-.1a2.16,2.16,0,0,0,.67,0c.4-.06.54-.5.74-1.78L68.33,4c0-.3.1-.5.27-.47s.27.23.47.54,2.08,3,3.93,5.44c.87,1.14,2.59,3.6,2.79,3.87h.07l.8-6.73c.1-.9,0-1.2-.3-1.41a2.44,2.44,0,0,0-.77-.2c-.17,0-.24-.07-.24-.17s.17-.1.4-.1c.78.1,1.48.27,1.82.31.17,0,.74.06,1.48.16.2,0,.33.07.33.17s-.1.14-.3.1a2.13,2.13,0,0,0-.47,0c-.44.07-.6.37-.74,1.17l-1.51,9.41c0,.34-.14.44-.27.44s-.3-.2-.47-.4c-.81-1-2.45-3.26-3.76-5s-2.79-3.93-3-4.27h0Z"/><path class="cls-3" d="M83.31,11.28c.84-2.15,1-2.52,1.15-3s.13-.78-.31-1c-.1-.07-.33-.17-.53-.27s-.24-.14-.2-.24.13-.1.37,0,.77.34,1.14.47.67.3.87.37c.44.17,3.26,1.28,3.53,1.35l.64.16a.45.45,0,0,1,.23,0c.07,0,.07.1,0,.17a9.28,9.28,0,0,0-.47.87c-.07.13-.34.74-.44.91a.17.17,0,0,1-.2.1c-.1,0-.1-.14-.07-.24a1.13,1.13,0,0,0,.1-.54c0-.3-.07-.5-.74-.87-.23-.13-1.68-.74-2-.84-.07,0-.1,0-.17.1l-1.38,3.56c0,.1,0,.17,0,.21.3.13,1.91.73,2.25.84a1.17,1.17,0,0,0,.74.06c.13-.06.23-.13.3-.1s.1.07.07.14a7.08,7.08,0,0,0-.51,1c-.13.27-.37.81-.43.91s-.1.27-.24.2-.1-.1-.07-.17a3.46,3.46,0,0,0,.14-.54c0-.3-.07-.6-.57-.84-.27-.13-1.65-.7-2-.8-.07,0-.11,0-.14.1l-.44,1.11c-.2.47-.7,1.78-.84,2.18-.33,1-.2,1.28,1.21,1.85a3.94,3.94,0,0,0,1.38.34c.44,0,.71-.27,1-.81.1-.14.14-.2.24-.14s.07.17,0,.31a9.91,9.91,0,0,1-.81,1.48c-.23.33-.37.26-.91.06-1-.4-1.81-.74-2.41-1s-1-.43-1.45-.6l-.81-.3c-.33-.1-.7-.24-1-.34s-.27-.17-.24-.23.1-.11.27,0a2,2,0,0,0,.54.14c.3.06.5-.24.71-.61.3-.57.74-1.68,1.24-3Z"/><path class="cls-3" d="M93.19,15.71c1.25-1.91,1.48-2.28,1.72-2.68A.75.75,0,0,0,94.84,12c-.1-.1-.3-.23-.47-.37s-.2-.17-.13-.27.16-.07.33.07c.67.44,1.45,1,1.72,1.18.43.26,1.41.87,1.81,1.1a4.89,4.89,0,0,1,2,2.05A2.64,2.64,0,0,1,99.81,18c-.6.94-1.54,1.54-3.49,1.75.2,2.15.33,3.83.57,5.1a3.12,3.12,0,0,0,.87,1.78c.14.11.24.21.34.27s.13.14.1.2-.17.07-.34,0l-1.21-.77a3.54,3.54,0,0,1-1.2-1.11,7.37,7.37,0,0,1-.54-3c-.07-1-.07-2.25-.14-2.55,0-.11-.06-.17-.16-.24l-1.08-.74c-.07,0-.13,0-.17,0l-.1.17a30.64,30.64,0,0,0-1.68,2.76c-.2.4-.3.7,0,1a4.52,4.52,0,0,0,.58.43c.1.07.13.14.1.2s-.17.07-.34,0c-.74-.47-1.65-1.11-1.85-1.24s-1.07-.64-1.58-1c-.16-.1-.23-.2-.16-.3s.1-.07.26,0a1.86,1.86,0,0,0,.47.24c.31.1.54-.14.81-.47.4-.51,1-1.48,1.82-2.66ZM94,17.66c-.1.14-.1.2,0,.3a3.7,3.7,0,0,0,.87.74,1.56,1.56,0,0,0,1,.37,2.62,2.62,0,0,0,2-1.41c1.17-1.78.3-3.09-.44-3.56a2.39,2.39,0,0,0-.7-.37.19.19,0,0,0-.24.1Z"/><path class="cls-3" d="M34.69,40.18c0-2.36,0-2.79,0-3.26s-.17-.78-.67-.88a3.52,3.52,0,0,0-.61,0c-.17,0-.27,0-.27-.14s.1-.13.34-.13c.81,0,1.78,0,2.08,0,.74,0,1.35,0,1.88,0,2.79,0,3.3,1.48,3.3,2.32a3.33,3.33,0,0,1-1.58,2.69,3.71,3.71,0,0,1,2.79,3.32c0,1.65-1.28,3.36-4.1,3.36-.17,0-.64,0-1.08,0s-.91,0-1.14,0h-.87c-.37,0-.74,0-1.08,0s-.3,0-.3-.17.07-.13.23-.13a2.76,2.76,0,0,0,.57-.07c.31-.07.37-.4.44-.84.07-.64.07-1.85.07-3.29V40.18Zm1.85.26c0,.14,0,.17.1.17a3.32,3.32,0,0,0,.74,0,1.55,1.55,0,0,0,1.11-.31,2,2,0,0,0,.64-1.64c0-1-.61-2.39-1.92-2.39a1.84,1.84,0,0,0-.5,0c-.1,0-.14.1-.14.26S36.54,40.44,36.54,40.44Zm2.05,1.25a2.16,2.16,0,0,0-1.28-.37h-.67c-.07,0-.1,0-.1.1v3.66c0,1,0,1.28.54,1.48a2.67,2.67,0,0,0,1.11.17,1.78,1.78,0,0,0,1.85-2A3.47,3.47,0,0,0,38.59,41.69Z"/><path class="cls-3" d="M43.73,40.18c0-2.36,0-2.79,0-3.26s-.17-.78-.67-.88a3.52,3.52,0,0,0-.61,0c-.17,0-.27,0-.27-.14s.1-.13.34-.13c.8,0,1.78,0,2.12,0l2.18,0a4.83,4.83,0,0,1,2.82.67,2.66,2.66,0,0,1,1,2.12c0,1.14-.47,2.18-2,3.46C50,43.7,51,45.08,51.93,46.06a3,3,0,0,0,1.71,1,2.38,2.38,0,0,0,.44,0c.14,0,.17,0,.17.14s-.1.16-.3.16H52.47a2.87,2.87,0,0,1-1.65-.3,7.74,7.74,0,0,1-2.12-2.25c-.6-.84-1.31-1.88-1.51-2.12s-.17-.1-.27-.1l-1.34,0a.12.12,0,0,0-.13.13V43c0,1.45,0,2.66.06,3.3,0,.43.14.77.61.84.23,0,.57.07.74.07s.16,0,.16.13-.1.17-.3.17c-.91,0-2,0-2.25,0s-1.28,0-1.88,0c-.2,0-.3,0-.3-.17s.06-.13.23-.13a2.21,2.21,0,0,0,.54-.07c.3-.07.37-.41.44-.84.06-.64.06-1.85.06-3.3l.17-2.78Zm1.82,1.21c0,.16,0,.23.13.26a4,4,0,0,0,1.18.17A1.61,1.61,0,0,0,48,41.55a2.67,2.67,0,0,0,.9-2.31c0-2.19-1.44-2.83-2.35-2.83a2.37,2.37,0,0,0-.81.07.18.18,0,0,0-.13.2v4.71Z"/><path class="cls-3" d="M55.36,40.18c0-2.36,0-2.79,0-3.26s-.16-.78-.53-.88a3.31,3.31,0,0,0-.54-.06c-.17,0-.24,0-.24-.17s.14-.14.37-.14c.57,0,1.55,0,2,0s1.28,0,1.88,0c.2,0,.34,0,.34.14s-.1.17-.24.17a2.87,2.87,0,0,0-.47,0c-.4.07-.54.34-.57.87s0,.94,0,3.26v2.72c0,1.48,0,2.73.06,3.36,0,.41.17.71.61.74a5,5,0,0,0,.77.07c.17,0,.24,0,.24.14s-.14.16-.31.16c-1,0-2,0-2.38,0l-1.95,0c-.2,0-.3,0-.3-.16s.06-.14.23-.14a2.21,2.21,0,0,0,.57-.07c.31-.06.41-.33.44-.77.07-.64.07-1.85.07-3.36V40.18Z"/><path class="cls-3" d="M63.59,36.58l-2.28.07c-.91,0-1.28.1-1.48.43a1.55,1.55,0,0,0-.27.54c0,.14-.07.17-.17.17s-.13-.07-.13-.23.3-1.65.33-1.79.1-.3.17-.3.27.17.67.17,1,.07,1.55.07h6.08a7.79,7.79,0,0,0,1.07-.07c.24,0,.37-.07.41-.07s.13.1.13.34,0,1.38,0,1.78c0,.17,0,.23-.14.23s-.16-.06-.16-.3l0-.17c0-.4-.43-.84-1.81-.87l-1.95,0v6.31c0,1.42,0,2.63.07,3.3,0,.43.13.77.6.84a6.65,6.65,0,0,0,.77.06c.17,0,.24,0,.24.14s-.14.17-.3.17c-1,0-2,0-2.42,0s-1.31,0-2,0c-.2,0-.3,0-.3-.17s.06-.14.23-.14a2.93,2.93,0,0,0,.57-.06c.31-.07.41-.41.44-.84.07-.64.07-1.85.07-3.3V36.58Z"/><path class="cls-3" d="M71.72,40.18c0-2.36,0-2.79,0-3.26s-.17-.78-.54-.88a3.31,3.31,0,0,0-.54-.06c-.16,0-.23,0-.23-.17s.13-.14.37-.14c.57,0,1.54,0,2,0s1.31,0,1.89,0c.2,0,.33,0,.33.14s-.1.17-.23.17a2.64,2.64,0,0,0-.47,0c-.41.07-.54.34-.58.87s0,.94,0,3.26v2.72c0,1.48,0,2.73.07,3.36,0,.41.17.71.6.74a5,5,0,0,0,.78.07c.16,0,.23,0,.23.14s-.13.16-.3.16c-1,0-2,0-2.39,0l-2,0c-.2,0-.3,0-.3-.16s.07-.14.24-.14a1.78,1.78,0,0,0,.53-.07c.31-.06.41-.33.44-.77.07-.64.07-1.85.07-3.36l0-2.65Z"/><path class="cls-3" d="M76.66,47.17c-.23-.11-.3-.17-.3-.54,0-.84.07-1.78.07-2s.06-.4.2-.4.17.13.17.27a3.26,3.26,0,0,0,.13.77,2.12,2.12,0,0,0,2.22,1.55,1.87,1.87,0,0,0,2-1.75c0-.74-.24-1.48-1.51-2.45L79,42.06c-1.68-1.31-2.28-2.39-2.28-3.66,0-1.69,1.41-2.93,3.56-2.93a7.71,7.71,0,0,1,2,.27c.13,0,.2.07.2.2s-.07.64-.07,1.85c0,.34,0,.47-.17.47s-.16-.1-.16-.27a1.8,1.8,0,0,0-.41-1A1.92,1.92,0,0,0,80,36.24a1.64,1.64,0,0,0-1.85,1.58c0,.71.37,1.25,1.65,2.22l.44.34c1.85,1.41,2.52,2.45,2.52,3.93A3.12,3.12,0,0,1,81.33,47a4.42,4.42,0,0,1-2.45.64A6.63,6.63,0,0,1,76.66,47.17Z"/><path class="cls-3" d="M93.23,40.61a.11.11,0,0,0,.1-.1v-.33c0-2.36,0-2.79,0-3.26s-.16-.78-.67-.88a3.4,3.4,0,0,0-.6,0c-.17,0-.27,0-.27-.14s.1-.13.33-.13c.84,0,1.82,0,2.22,0l2,0c.2,0,.34,0,.34.13s-.1.14-.27.14a2.32,2.32,0,0,0-.44,0c-.4.07-.54.34-.57.88s0,.94,0,3.26V42.9c0,1.41,0,2.62.06,3.29,0,.44.14.77.61.84a6.12,6.12,0,0,0,.77.07c.17,0,.24,0,.24.13s-.14.17-.31.17c-1,0-2,0-2.38,0l-1.92,0c-.2,0-.33,0-.33-.17s.06-.13.23-.13a2.21,2.21,0,0,0,.54-.07c.3-.07.37-.4.44-.84.06-.64.06-1.85.06-3.29V41.55a.09.09,0,0,0-.1-.1H87.31s-.1,0-.1.1V42.9c0,1.41,0,2.62.07,3.29,0,.44.13.77.6.84a6.28,6.28,0,0,0,.78.07c.17,0,.23,0,.23.13s-.13.17-.3.17c-1,0-2,0-2.39,0l-1.94,0c-.21,0-.31,0-.31-.17s.07-.13.24-.13a2.37,2.37,0,0,0,.54-.07c.3-.07.37-.4.43-.84.07-.64.07-1.85.07-3.29V40.18c0-2.36,0-2.79,0-3.26s-.17-.78-.68-.88a3.4,3.4,0,0,0-.6,0c-.17,0-.27,0-.27-.14s.1-.13.34-.13c.84,0,1.81,0,2.21,0l2,0c.21,0,.34,0,.34.13s-.1.14-.27.14a2.38,2.38,0,0,0-.44,0c-.4.07-.53.34-.57.88s0,.94,0,3.26v.33c0,.07,0,.1.1.1Z"/><path class="cls-3" d="M39.8,53l-2.28.07c-.91,0-1.28.1-1.48.43a1.55,1.55,0,0,0-.27.54c0,.13-.07.17-.17.17s-.13-.07-.13-.24.3-1.64.33-1.78.1-.3.2-.3.27.17.68.17,1,.06,1.54.06H44.3A8.39,8.39,0,0,0,45.38,52l.4-.07c.1,0,.14.1.14.34s0,1.37,0,1.78c0,.17,0,.23-.13.23s-.17-.06-.17-.3v-.17c0-.4-.44-.84-1.81-.87l-2,0v6.32c0,1.41,0,2.62.06,3.29,0,.44.14.78.61.85a6.65,6.65,0,0,0,.77.06c.17,0,.24,0,.24.14s-.14.16-.31.16c-1,0-2,0-2.42,0l-1.94,0c-.21,0-.31,0-.31-.16s.07-.14.24-.14a3,3,0,0,0,.57-.06c.3-.07.4-.41.44-.85.06-.63.06-1.84.06-3.29l0-6.28Z"/><path class="cls-3" d="M47.9,56.57c0-2.35,0-2.75,0-3.26s-.16-.77-.67-.87a3.4,3.4,0,0,0-.6,0c-.17,0-.27,0-.27-.14s.1-.13.33-.13c.81,0,1.79,0,2.12,0l2.19,0a4.84,4.84,0,0,1,2.82.67,2.66,2.66,0,0,1,1,2.12c0,1.14-.47,2.18-2,3.46,1.38,1.71,2.42,3.09,3.33,4.06a2.94,2.94,0,0,0,1.71,1,2.32,2.32,0,0,0,.44,0c.13,0,.17,0,.17.13s-.11.17-.31.17H56.63a2.94,2.94,0,0,1-1.64-.3,7.74,7.74,0,0,1-2.12-2.25c-.6-.84-1.31-1.88-1.51-2.12a.28.28,0,0,0-.27-.1l-1.34,0a.12.12,0,0,0-.14.13v.2c0,1.45,0,2.66.07,3.3,0,.43.13.77.6.84.24,0,.58.06.74.06s.17,0,.17.14-.1.17-.3.17c-.91,0-2,0-2.25,0s-1.28,0-1.88,0c-.21,0-.31,0-.31-.17s.07-.14.24-.14a3,3,0,0,0,.57-.06c.3-.07.37-.41.44-.84.06-.64.06-1.85.06-3.3l.14-2.79Zm1.81,1.21c0,.17,0,.24.14.27a4.29,4.29,0,0,0,1.17.17A1.63,1.63,0,0,0,52.13,58,2.68,2.68,0,0,0,53,55.63c0-2.18-1.45-2.82-2.35-2.82a2.37,2.37,0,0,0-.81.07.18.18,0,0,0-.13.2S49.71,57.78,49.71,57.78Z"/><path class="cls-3" d="M60.13,59.73c-.07,0-.1,0-.14.14l-.84,2.21a2.67,2.67,0,0,0-.23,1c0,.26.13.47.6.47h.24c.17,0,.23,0,.23.13s-.1.17-.26.17c-.51,0-1.15,0-1.65,0-.17,0-1,0-1.81,0-.21,0-.31,0-.31-.17s.07-.13.2-.13a1.83,1.83,0,0,0,.47,0c.71-.1,1-.6,1.32-1.38l3.86-9.67c.17-.44.27-.61.44-.61s.23.14.37.51c.37.84,2.82,7.12,3.83,9.47.57,1.38,1,1.62,1.34,1.68a4.27,4.27,0,0,0,.64.07c.13,0,.2,0,.2.13s-.13.17-.71.17-1.68,0-2.92,0c-.27,0-.47,0-.47-.14s.07-.13.2-.13a.28.28,0,0,0,.14-.37L63.62,59.9a.14.14,0,0,0-.16-.1H60.13ZM63.29,59c.07,0,.1,0,.07-.1L62,55.06c0-.07,0-.13-.07-.13s-.07.06-.1.13l-1.41,3.8c0,.07,0,.1.07.1Z"/><path class="cls-3" d="M66.41,53.62c-.37-.84-.6-1-1.17-1.18a2.14,2.14,0,0,0-.61-.07c-.13,0-.17,0-.17-.13s.17-.14.41-.14c.8,0,1.68,0,2.21,0,.37,0,1.11,0,1.89,0,.2,0,.37,0,.37.14s-.1.13-.24.13a1.08,1.08,0,0,0-.6.1.38.38,0,0,0-.17.34A4.7,4.7,0,0,0,68.66,54l2.66,7h.07c.67-1.68,2.65-6.66,3-7.67a2.07,2.07,0,0,0,.13-.57.32.32,0,0,0-.2-.3,1.68,1.68,0,0,0-.6-.07c-.14,0-.27,0-.27-.13s.13-.17.44-.17c.77,0,1.41,0,1.61,0l1.44,0c.21,0,.34,0,.34.14s-.1.13-.24.13a1.31,1.31,0,0,0-.73.17c-.21.13-.44.4-.84,1.38-.61,1.44-1,2.28-1.85,4.16-1,2.25-1.72,3.93-2,4.71s-.51,1.14-.71,1.14-.3-.2-.57-.94Z"/><path class="cls-3" d="M79,56.57c0-2.35,0-2.75,0-3.26s-.17-.77-.68-.87a3.4,3.4,0,0,0-.6,0c-.17,0-.27,0-.27-.14s.1-.13.34-.13H79c.4,0,.74,0,1,0h3.87a5.89,5.89,0,0,0,.67-.1c.07,0,.17-.07.24-.07s.1.07.1.14-.07.3-.14,1c0,.16,0,.84-.06,1a.16.16,0,0,1-.17.17c-.1,0-.14-.06-.14-.2a1.36,1.36,0,0,0-.1-.57c-.1-.27-.27-.47-1-.54-.27,0-1.88-.07-2.18-.07-.07,0-.1,0-.1.17V57c0,.1,0,.17.1.17.33,0,2.11,0,2.45,0s.6-.07.74-.24.17-.2.23-.2.1,0,.1.13-.06.34-.13,1.11c0,.3-.07.91-.07,1s0,.31-.13.31a.13.13,0,0,1-.14-.14,1.66,1.66,0,0,0-.06-.54c-.07-.3-.31-.53-.88-.6-.3,0-1.81,0-2.18,0-.07,0-.1.06-.1.16v3.6c0,1.07.27,1.31,1.85,1.31a3.59,3.59,0,0,0,1.44-.2c.4-.17.57-.51.71-1.15,0-.16.06-.23.16-.23s.14.13.14.27a14.59,14.59,0,0,1-.2,1.71c-.1.41-.24.41-.84.41-1.14,0-2,0-2.66,0s-1.14,0-1.61,0H79c-.37,0-.74,0-1.08,0s-.3,0-.3-.17.07-.13.23-.13a1.81,1.81,0,0,0,.54-.07c.3-.06.37-.4.44-.84.07-.64.07-1.85.07-3.29L79,56.57Z"/><path class="cls-3" d="M89.87,59.3c0,2,0,3,.33,3.32s.68.34,1.85.34c.81,0,1.41,0,1.82-.44a2.22,2.22,0,0,0,.4-.94c0-.13,0-.23.17-.23s.13.06.13.26a11.94,11.94,0,0,1-.23,1.79c-.1.33-.17.4-1,.4-1.11,0-1.91,0-2.59,0s-1.24,0-1.88,0H88c-.37,0-.74,0-1.08,0s-.3,0-.3-.16.07-.14.24-.14a3,3,0,0,0,.57-.06c.3-.07.37-.41.43-.85.07-.63.07-1.84.07-3.29V56.54c0-2.35,0-2.76,0-3.26s-.17-.77-.67-.87a2,2,0,0,0-.51,0c-.17,0-.27,0-.27-.13s.1-.14.34-.14c.74,0,1.68,0,2.12,0s1.47,0,2.08,0c.2,0,.34,0,.34.14s-.11.13-.27.13a3.28,3.28,0,0,0-.61,0c-.4.06-.54.33-.57.87s0,.91,0,3.26V59.3Z"/><path class="cls-3" d="M34.93,76.13c-.07,0-.1,0-.14.13L34,78.48a2.67,2.67,0,0,0-.23.94c0,.27.13.47.6.47h.24c.17,0,.23,0,.23.14s-.1.17-.27.17c-.5,0-1.14,0-1.64,0-.17,0-1,0-1.82,0-.2,0-.3,0-.3-.17s.07-.14.2-.14a2.27,2.27,0,0,0,.47,0c.71-.1,1-.6,1.31-1.38l3.87-9.68c.17-.43.27-.6.43-.6s.24.13.37.5c.37.84,2.83,7.13,3.83,9.48.58,1.38,1,1.61,1.35,1.68a5.9,5.9,0,0,0,.64.07c.13,0,.2,0,.2.13s-.14.17-.71.17-1.68,0-2.92,0c-.27,0-.47,0-.47-.14s.07-.13.2-.13a.26.26,0,0,0,.14-.34l-1.25-3.26c0-.07-.06-.1-.17-.1l-3.32-.1Zm3.16-.77c.06,0,.1,0,.06-.1l-1.37-3.8c0-.07,0-.13-.07-.13s-.07.06-.1.13l-1.41,3.8c0,.06,0,.1.06.1Z"/><path class="cls-3" d="M41.88,70a2.23,2.23,0,0,0-.57-1.1,1.3,1.3,0,0,0-.6-.14c-.17,0-.24,0-.24-.13s.14-.14.34-.14c.8,0,1.64,0,1.78,0s.81,0,1.71,0c.2,0,.34,0,.34.14s-.14.13-.27.13a.65.65,0,0,0-.37.07.32.32,0,0,0-.17.33,13.48,13.48,0,0,0,.34,1.42c.27,1,1.68,5.67,2,6.55h0l3-8c.16-.44.26-.54.36-.54s.24.23.44.74l3.19,7.76h0c.27-1,1.51-5.11,2-6.89a3.82,3.82,0,0,0,.17-.9c0-.24-.14-.48-.74-.48-.17,0-.27,0-.27-.13s.13-.13.37-.13c.8,0,1.48,0,1.61,0s.77,0,1.28,0c.16,0,.27,0,.27.13s-.07.17-.21.17a1.39,1.39,0,0,0-.53.07c-.37.13-.54.74-.88,1.64-.7,2-2.32,6.82-3.09,9.14-.17.54-.23.71-.44.71s-.23-.17-.47-.74l-3.19-7.73h-.07c-.3.77-2.35,6.25-3,7.66-.3.64-.37.81-.57.81s-.2-.17-.37-.57Z"/><path class="cls-3" d="M58.89,76.13c-.07,0-.1,0-.14.13l-.84,2.22a2.46,2.46,0,0,0-.23.94c0,.27.13.47.6.47h.24c.16,0,.23,0,.23.14s-.1.17-.27.17c-.5,0-1.14,0-1.64,0-.17,0-1,0-1.82,0-.2,0-.3,0-.3-.17s.07-.14.17-.14a2.32,2.32,0,0,0,.47,0c.7-.1,1-.6,1.31-1.38l3.86-9.68c.17-.43.27-.6.44-.6s.23.13.37.5c.37.84,2.82,7.13,3.83,9.48.57,1.38,1,1.61,1.34,1.68a6.18,6.18,0,0,0,.64.07c.14,0,.2,0,.2.13s-.13.17-.7.17-1.68,0-2.93,0c-.26,0-.47,0-.47-.14s.07-.13.21-.13a.25.25,0,0,0,.13-.34l-1.24-3.26a.16.16,0,0,0-.17-.1l-3.29-.1ZM62,75.36c.07,0,.1,0,.07-.1l-1.38-3.8c0-.07,0-.13-.07-.13s-.06.06-.1.13l-1.41,3.8c0,.06,0,.1.07.1Z"/><path class="cls-3" d="M69,73c0-2.35,0-2.79,0-3.26s-.17-.77-.67-.87a2.65,2.65,0,0,0-.61,0c-.16,0-.27,0-.27-.13s.11-.13.34-.13c.81,0,1.78,0,2.12,0l2.18,0a4.81,4.81,0,0,1,2.82.67,2.65,2.65,0,0,1,1,2.12c0,1.14-.47,2.18-2,3.46,1.37,1.71,2.42,3.09,3.32,4a2.85,2.85,0,0,0,1.72,1,2.22,2.22,0,0,0,.43,0c.14,0,.2,0,.2.14s-.1.17-.3.17H77.8a2.84,2.84,0,0,1-1.64-.31A7.13,7.13,0,0,1,74,77.64c-.6-.84-1.31-1.88-1.51-2.11a.27.27,0,0,0-.27-.11l-1.34,0a.13.13,0,0,0-.14.14v.2c0,1.44,0,2.65.07,3.29,0,.44.13.77.6.84.24,0,.57.07.74.07s.2,0,.2.13-.1.17-.3.17c-.91,0-2,0-2.25,0l-1.88,0c-.2,0-.3,0-.3-.17s.06-.13.23-.13a2.86,2.86,0,0,0,.57-.07c.31-.07.37-.4.44-.84.07-.64.07-1.85.07-3.29L69,73Zm1.82,1.21c0,.17,0,.24.13.27a4.42,4.42,0,0,0,1.18.17,1.65,1.65,0,0,0,1.11-.27,2.69,2.69,0,0,0,.9-2.32c0-2.18-1.44-2.82-2.35-2.82a2.28,2.28,0,0,0-.8.07.19.19,0,0,0-.14.2l0,4.7Z"/><path class="cls-3" d="M80.66,73c0-2.35,0-2.79,0-3.26s-.17-.77-.68-.87a2.56,2.56,0,0,0-.6,0c-.17,0-.27,0-.27-.13s.1-.13.34-.13c.8,0,1.78,0,2.21,0s1.45,0,2.39,0c1.92,0,4.5,0,6.18,1.74a5.48,5.48,0,0,1,1.48,3.9A6,6,0,0,1,90,78.48a7,7,0,0,1-5.17,1.82c-.57,0-1.18,0-1.78-.1s-1.11-.1-1.52-.1h-.87c-.37,0-.74,0-1.08,0s-.3,0-.3-.17.07-.13.24-.13a3,3,0,0,0,.57-.07c.3-.07.37-.4.44-.84.06-.64.06-1.85.06-3.29L80.66,73Zm1.92,1.68c0,1.65,0,2.82,0,3.13A2.78,2.78,0,0,0,82.78,79c.2.31.8.61,2,.61a4.26,4.26,0,0,0,4.81-4.94,5.28,5.28,0,0,0-1.48-3.87,6.14,6.14,0,0,0-4.37-1.54,4,4,0,0,0-1,.1.3.3,0,0,0-.2.3V72.7l0,2Z"/><path class="cls-3" d="M93.06,80c-.24-.1-.3-.17-.3-.54,0-.84.06-1.78.06-2S92.89,77,93,77s.16.14.16.27a3.39,3.39,0,0,0,.14.78,2.11,2.11,0,0,0,2.22,1.54,1.87,1.87,0,0,0,2-1.75c0-.74-.24-1.47-1.52-2.45l-.7-.57c-1.68-1.31-2.29-2.39-2.29-3.66,0-1.68,1.41-2.93,3.56-2.93a7.64,7.64,0,0,1,2,.27c.14,0,.21.07.21.17s-.07.64-.07,1.85c0,.33,0,.47-.17.47s-.17-.1-.17-.27a1.76,1.76,0,0,0-.4-1A1.93,1.93,0,0,0,96.42,69a1.64,1.64,0,0,0-1.85,1.58c0,.71.37,1.25,1.65,2.22l.43.34c1.85,1.41,2.52,2.45,2.52,3.93a3.12,3.12,0,0,1-1.44,2.69,4.43,4.43,0,0,1-2.45.63A5.78,5.78,0,0,1,93.06,80Z"/></g></svg>