<svg id="Layer_1" data-name="Layer 1" xmlns="http://www.w3.org/2000/svg" xmlns:xlink="http://www.w3.org/1999/xlink" viewBox="0 0 108.36 53.52"><defs><style>.cls-1{fill:url(#linear-gradient);}.cls-2{fill:url(#linear-gradient-2);}.cls-3{fill:url(#linear-gradient-3);}.cls-4{fill:url(#linear-gradient-4);}.cls-5{fill:url(#linear-gradient-5);}.cls-6{fill:url(#linear-gradient-6);}.cls-7{fill:url(#linear-gradient-7);}.cls-8{fill:url(#linear-gradient-8);}.cls-9{fill:url(#linear-gradient-9);}.cls-10{fill:url(#linear-gradient-10);}.cls-11{fill:url(#linear-gradient-11);}.cls-12{fill:url(#linear-gradient-12);}.cls-13{fill:url(#linear-gradient-13);}.cls-14{fill:url(#linear-gradient-14);}.cls-15{fill:url(#linear-gradient-15);}.cls-16{fill:url(#linear-gradient-16);}.cls-17{fill:url(#linear-gradient-17);}.cls-18{fill:url(#linear-gradient-18);}.cls-19{fill:url(#linear-gradient-19);}.cls-20{fill:url(#linear-gradient-20);}.cls-21{fill:url(#linear-gradient-21);}.cls-22{fill:url(#linear-gradient-22);}.cls-23{fill:url(#linear-gradient-23);}.cls-24{fill:url(#linear-gradient-24);}</style><linearGradient id="linear-gradient" x1="22.54" y1="29.7" x2="22.54" y2="1.15" gradientUnits="userSpaceOnUse"><stop offset="0" stop-color="#005c98"/><stop offset="1" stop-color="#009ab7"/></linearGradient><linearGradient id="linear-gradient-2" x1="62.7" y1="27.98" x2="62.7" y2="4.36" xlink:href="#linear-gradient"/><linearGradient id="linear-gradient-3" x1="80" y1="27.98" x2="80" y2="4.36" xlink:href="#linear-gradient"/><linearGradient id="linear-gradient-4" x1="41.79" y1="27.98" x2="41.79" y2="4.35" xlink:href="#linear-gradient"/><linearGradient id="linear-gradient-5" x1="95.9" y1="27.98" x2="95.9" y2="4.35" xlink:href="#linear-gradient"/><linearGradient id="linear-gradient-6" x1="9.61" y1="12.73" x2="9.61" y2="4.82" xlink:href="#linear-gradient"/><linearGradient id="linear-gradient-7" x1="9.61" y1="25.96" x2="9.61" y2="18.04" xlink:href="#linear-gradient"/><linearGradient id="linear-gradient-8" x1="7.77" y1="16.75" x2="7.77" y2="14.09" xlink:href="#linear-gradient"/><linearGradient id="linear-gradient-9" x1="6.55" y1="12.75" x2="6.55" y2="6.82" xlink:href="#linear-gradient"/><linearGradient id="linear-gradient-10" x1="10.6" y1="9.99" x2="10.6" y2="1.42" xlink:href="#linear-gradient"/><linearGradient id="linear-gradient-11" x1="10.6" y1="29.35" x2="10.6" y2="20.82" xlink:href="#linear-gradient"/><linearGradient id="linear-gradient-12" x1="6.55" y1="23.97" x2="6.55" y2="18.04" xlink:href="#linear-gradient"/><linearGradient id="linear-gradient-13" x1="6.57" y1="52.03" x2="6.57" y2="41.82" xlink:href="#linear-gradient"/><linearGradient id="linear-gradient-14" x1="16.52" y1="51.96" x2="16.52" y2="41.82" xlink:href="#linear-gradient"/><linearGradient id="linear-gradient-15" x1="25.5" y1="52.03" x2="25.5" y2="41.82" xlink:href="#linear-gradient"/><linearGradient id="linear-gradient-16" x1="33.14" y1="52.03" x2="33.14" y2="41.82" xlink:href="#linear-gradient"/><linearGradient id="linear-gradient-17" x1="47.31" y1="52.03" x2="47.31" y2="41.82" xlink:href="#linear-gradient"/><linearGradient id="linear-gradient-18" x1="56.77" y1="52.15" x2="56.77" y2="44.46" xlink:href="#linear-gradient"/><linearGradient id="linear-gradient-19" x1="63.05" y1="52.03" x2="63.05" y2="50.44" xlink:href="#linear-gradient"/><linearGradient id="linear-gradient-20" x1="69.89" y1="52.03" x2="69.89" y2="41.82" xlink:href="#linear-gradient"/><linearGradient id="linear-gradient-21" x1="78.74" y1="52.15" x2="78.74" y2="41.86" xlink:href="#linear-gradient"/><linearGradient id="linear-gradient-22" x1="86.84" y1="52.19" x2="86.84" y2="41.89" xlink:href="#linear-gradient"/><linearGradient id="linear-gradient-23" x1="94.97" y1="52.17" x2="94.97" y2="41.9" xlink:href="#linear-gradient"/><linearGradient id="linear-gradient-24" x1="103.1" y1="52.22" x2="103.1" y2="41.92" xlink:href="#linear-gradient"/></defs><title>ABTA_Mob</title><path class="cls-1" d="M16.26,1.15a9.94,9.94,0,0,0-1.34.06v2.3h0V28.74h0v.9c.44,0,.89.06,1.34.06a14.28,14.28,0,0,0,0-28.55ZM21.5,16.73a19.56,19.56,0,0,1-.36,2.66H17.78V16.73Zm-3.7-2.67V11.39h3.33a20.17,20.17,0,0,1,.37,2.67Zm6.5,2.67h3.35A11.56,11.56,0,0,1,27,19.39h-3.1a18.09,18.09,0,0,0,.35-2.66Zm0-2.67a20.17,20.17,0,0,0-.37-2.67H27a10.72,10.72,0,0,1,.64,2.67Zm1.27-5.33H23.14a18,18,0,0,0-1.82-3.58,11.62,11.62,0,0,1,4.23,3.58Zm-5.21,0H17.78V4.08a17.31,17.31,0,0,1,2.56,4.65ZM17.78,26.82V22.06h2.59A17.19,17.19,0,0,1,17.78,26.82Zm3.57-1.09a17.79,17.79,0,0,0,1.82-3.62h2.42a11.44,11.44,0,0,1-4.24,3.57Z"/><path class="cls-2" d="M62.26,28h-7.5V4.36h7.38c4.77,0,7,3.26,7,6.13a5.26,5.26,0,0,1-2.83,4.91v.07a5.19,5.19,0,0,1,4.33,5.35C70.64,24.22,68.2,28,62.26,28ZM61.5,8H59.1v6.16h2.29a3.13,3.13,0,0,0,3.36-2.88V11C64.76,9.27,63.62,8,61.5,8Zm.82,9.78H59.1v6.53h2.76c2.9,0,4.33-1.3,4.33-3.44,0-1.84-1.4-3.07-3.83-3.07Z"/><path class="cls-3" d="M88,8H81.75V28H77.38V8H70.5V4.36h19Z"/><path class="cls-4" d="M48.16,28l-2.33-5.92H37.39L35.2,28H30.86L40,4.35h3.25L52.72,28Zm-5.6-14.89a24.94,24.94,0,0,1-.9-2.94h0A19,19,0,0,1,40.8,13l-2,5.5h5.7Z"/><path class="cls-5" d="M102.28,28,100,22.06H91.5L89.32,28H85L94.11,4.35h3.26L106.83,28ZM96.69,13.09a24.94,24.94,0,0,1-.9-2.94h0A19,19,0,0,1,94.93,13l-2,5.5h5.75Z"/><path class="cls-6" d="M13.57,12.73V11.65L6.73,4.82A13.76,13.76,0,0,0,5.65,5.9l6.85,6.83Z"/><path class="cls-7" d="M13.57,18v1.08L6.73,26a13.76,13.76,0,0,1-1.08-1.08L12.5,18Z"/><path class="cls-8" d="M13.57,14.09H2C2,14.53,2,15,2,15.42A9.79,9.79,0,0,0,2,16.75H13.57Z"/><path class="cls-9" d="M4.9,6.82a14.06,14.06,0,0,0-2.64,5.93h8.58Z"/><path class="cls-10" d="M13.57,10V1.42A14.45,14.45,0,0,0,7.64,4.06Z"/><path class="cls-11" d="M7.64,26.71a14.19,14.19,0,0,0,5.93,2.64V20.82Z"/><path class="cls-12" d="M10.84,18H2.26A14.08,14.08,0,0,0,4.9,24Z"/><path class="cls-13" d="M7.31,41.82l4,10.21H9.8L8.69,49H4.37L3.22,52H1.83l4-10.21Zm1,6L6.6,43.06h0L4.79,47.82Z"/><path class="cls-14" d="M16.21,41.82h1.46c.23,0,.46.06.69.1a1.86,1.86,0,0,1,.55.22,2.84,2.84,0,0,1,.86.83,2.4,2.4,0,0,1,.35,1.3,2.51,2.51,0,0,1-.4,1.41,2.25,2.25,0,0,1-1.12.88h0a2.4,2.4,0,0,1,1.45.86,2.58,2.58,0,0,1,.5,1.6,3.06,3.06,0,0,1-.2,1.09,2.76,2.76,0,0,1-.6.93,3,3,0,0,1-1,.66,3.1,3.1,0,0,1-1.34.25H12.5V41.82Zm.37,4.39a2.66,2.66,0,0,0,1.67-.39,1.48,1.48,0,0,0,.51-1.22,2,2,0,0,0-.17-.86,1.41,1.41,0,0,0-.48-.49,2.06,2.06,0,0,0-.69-.22,5.89,5.89,0,0,0-.84,0H13.86v3.25Zm.69,4.68a2,2,0,0,0,1.41-.49,1.76,1.76,0,0,0,.51-1.35,1.7,1.7,0,0,0-.19-.82,1.65,1.65,0,0,0-.49-.53,2.27,2.27,0,0,0-.71-.27,5.83,5.83,0,0,0-.83-.08H13.86v3.54Z"/><path class="cls-15" d="M21.42,43V41.82h8.17V43H26.18V52H24.82V43Z"/><path class="cls-16" d="M33.88,41.82l4,10.21h-1.5L35.26,49H30.93L29.79,52H28.4l4-10.21Zm.94,6-1.7-4.76h0l-1.76,4.76Z"/><path class="cls-17" d="M44.68,41.82l5.38,8.28h0V41.82h1.29V52H49.86l-5.31-8.21h0V52H43.27V41.82Z"/><path class="cls-18" d="M53.41,46.82a3.25,3.25,0,0,1,1.81-2.06,4.15,4.15,0,0,1,3.1,0,3.36,3.36,0,0,1,1.81,2.06,5.11,5.11,0,0,1,0,3A3.36,3.36,0,0,1,59.44,51a3.1,3.1,0,0,1-1.12.81,4.15,4.15,0,0,1-3.1,0A3,3,0,0,1,54.09,51a3.33,3.33,0,0,1-.68-1.22A5.11,5.11,0,0,1,53.41,46.82Zm1.23,2.71a2.65,2.65,0,0,0,.5.88,2.2,2.2,0,0,0,1.63.72,2,2,0,0,0,.89-.19,2.15,2.15,0,0,0,.74-.53,2.38,2.38,0,0,0,.49-.88,4,4,0,0,0,0-2.38,2.55,2.55,0,0,0-.49-.88,2.51,2.51,0,0,0-.74-.55,2.29,2.29,0,0,0-1.78,0,2.14,2.14,0,0,0-.74.55,2.75,2.75,0,0,0-.5.88A4.19,4.19,0,0,0,54.64,49.53Z"/><path class="cls-19" d="M63.85,50.44V52H62.26V50.44Z"/><path class="cls-20" d="M70.59,52H69.23V47.82l-4-6H66.9L70,46.68l3-4.86H74.5l-3.9,6V52Z"/><path class="cls-21" d="M80.12,43.38A1.65,1.65,0,0,0,78.94,43a2,2,0,0,0-1.24.38,2.52,2.52,0,0,0-.74,1,4.59,4.59,0,0,0-.36,1.25,10.2,10.2,0,0,0-.1,1.23h0a2.58,2.58,0,0,1,1.07-1,3.6,3.6,0,0,1,2.77-.06,2.89,2.89,0,0,1,1,.69,3,3,0,0,1,.6,1,3.63,3.63,0,0,1,.22,1.3A4.07,4.07,0,0,1,82,49.91,3.16,3.16,0,0,1,81.42,51a2.83,2.83,0,0,1-1,.82,3.6,3.6,0,0,1-1.61.32A3.24,3.24,0,0,1,77,51.68a3.06,3.06,0,0,1-1.06-1.17,4.84,4.84,0,0,1-.49-1.58,11.48,11.48,0,0,1-.12-1.66,11.19,11.19,0,0,1,.18-2,5.45,5.45,0,0,1,.6-1.74,3.5,3.5,0,0,1,1.15-1.21,3.17,3.17,0,0,1,1.8-.46,3,3,0,0,1,2,.66,2.78,2.78,0,0,1,.86,1.93H80.7A1.86,1.86,0,0,0,80.12,43.38Zm-2.21,3.38a2.1,2.1,0,0,0-.65.49,1.92,1.92,0,0,0-.41.72,3.13,3.13,0,0,0-.14.9,2.64,2.64,0,0,0,.15.89,2.17,2.17,0,0,0,.4.71,1.84,1.84,0,0,0,.66.48,2.27,2.27,0,0,0,1.77,0,1.62,1.62,0,0,0,.64-.49,2.33,2.33,0,0,0,.39-.73,2.45,2.45,0,0,0,.14-.85,3.35,3.35,0,0,0-.12-.89,2,2,0,0,0-.38-.73,1.72,1.72,0,0,0-.64-.49,2.14,2.14,0,0,0-.9-.19A2.18,2.18,0,0,0,77.91,46.76Z"/><path class="cls-22" d="M83.5,45.89a7.78,7.78,0,0,1,.14-1.17A7.18,7.18,0,0,1,84,43.63a3.11,3.11,0,0,1,.59-.9,2.64,2.64,0,0,1,.93-.61,4.06,4.06,0,0,1,2.71,0,2.64,2.64,0,0,1,.93.61,3.11,3.11,0,0,1,.59.9,7.18,7.18,0,0,1,.33,1.09,9.33,9.33,0,0,1,.14,1.17v2.32a8.91,8.91,0,0,1-.14,1.17,5,5,0,0,1-.33,1.08,2.87,2.87,0,0,1-.59.9,2.51,2.51,0,0,1-.93.61,3.73,3.73,0,0,1-1.36.22A3.65,3.65,0,0,1,85.49,52a2.51,2.51,0,0,1-.93-.61,2.87,2.87,0,0,1-.59-.9,5,5,0,0,1-.33-1.08,7.48,7.48,0,0,1-.14-1.17Zm1.29,2.43A5.37,5.37,0,0,0,85,49.65a2.49,2.49,0,0,0,.62,1.05,1.91,1.91,0,0,0,2.41,0,2.59,2.59,0,0,0,.62-1.05,5.37,5.37,0,0,0,.23-1.33v-2.1a4,4,0,0,0-.07-.91c0-.29-.11-.59-.19-.88a2.6,2.6,0,0,0-.36-.75,2.11,2.11,0,0,0-.59-.52,2.06,2.06,0,0,0-1.75,0,2.11,2.11,0,0,0-.59.52,2.36,2.36,0,0,0-.36.75,6.87,6.87,0,0,0-.18.88,7.14,7.14,0,0,0-.08.91V47c0,.38,0,.78.07,1.28Z"/><path class="cls-23" d="M93.55,50.73a1.92,1.92,0,0,0,1.26.4,1.82,1.82,0,0,0,1.67-1,6.32,6.32,0,0,0,.62-3h0a2.63,2.63,0,0,1-2.35,1.4,3.37,3.37,0,0,1-1.37-.25,2.72,2.72,0,0,1-1.61-1.76,4.57,4.57,0,0,1-.21-1.38,3.76,3.76,0,0,1,.24-1.32,3.14,3.14,0,0,1,1.75-1.68,3.83,3.83,0,0,1,1.34-.24,4.44,4.44,0,0,1,1.35.22,2.8,2.8,0,0,1,1.1.76,4.27,4.27,0,0,1,.75,1.49,8.34,8.34,0,0,1,.28,2.38,8,8,0,0,1-.84,4,2.85,2.85,0,0,1-2.68,1.41,3.29,3.29,0,0,1-2.12-.65,2.56,2.56,0,0,1-1-2H93A1.53,1.53,0,0,0,93.55,50.73Zm3.2-6.34a2.31,2.31,0,0,0-.4-.74,2.16,2.16,0,0,0-2.48-.49,1.59,1.59,0,0,0-.61.54,2.39,2.39,0,0,0-.35.76,3.94,3.94,0,0,0-.1.9,2.2,2.2,0,0,0,.15.81,2.47,2.47,0,0,0,.41.68,2,2,0,0,0,.63.48,1.75,1.75,0,0,0,.81.18,2,2,0,0,0,.86-.18,2,2,0,0,0,1.07-1.2,2.45,2.45,0,0,0,.14-.85A3,3,0,0,0,96.75,44.39Z"/><path class="cls-24" d="M102.43,46.25h.4a2.08,2.08,0,0,0,.74-.11,1.72,1.72,0,0,0,.62-.31,1.51,1.51,0,0,0,.58-1.24,1.47,1.47,0,0,0-.52-1.22,2.18,2.18,0,0,0-2.14-.23,1.87,1.87,0,0,0-.6.48,2.09,2.09,0,0,0-.35.7,3,3,0,0,0-.11.84H99.83a4.33,4.33,0,0,1,.24-1.33,3.18,3.18,0,0,1,.59-1,2.84,2.84,0,0,1,1-.67,3.52,3.52,0,0,1,1.33-.24,5.12,5.12,0,0,1,1.23.16,3.13,3.13,0,0,1,1,.5,2.41,2.41,0,0,1,.65.84,3,3,0,0,1,.23,1.22,1.88,1.88,0,0,1-.4,1.21,2.44,2.44,0,0,1-1,.8h0a2.18,2.18,0,0,1,1.38.87,2.82,2.82,0,0,1,.45,1.59,3.07,3.07,0,0,1-.28,1.34,2.67,2.67,0,0,1-.75,1,3.19,3.19,0,0,1-1.11.58,4.41,4.41,0,0,1-1.35.19,3.91,3.91,0,0,1-1.4-.22,2.78,2.78,0,0,1-1.75-1.63,3.67,3.67,0,0,1-.22-1.4h1.21a2.53,2.53,0,0,0,.57,1.61,2,2,0,0,0,1.59.62,2.49,2.49,0,0,0,.85-.14,2.17,2.17,0,0,0,.7-.38,1.82,1.82,0,0,0,.48-.62,2,2,0,0,0,.17-.82,1.89,1.89,0,0,0-.17-.84,1.79,1.79,0,0,0-1.13-1,3.14,3.14,0,0,0-.86-.13c-.24,0-.48,0-.72,0v-1Z"/></svg>