<?xml version="1.0" encoding="utf-8"?>
<!-- Generator: Adobe Illustrator 15.1.0, SVG Export Plug-In . SVG Version: 6.00 Build 0)  -->
<!DOCTYPE svg PUBLIC "-//W3C//DTD SVG 1.1//EN" "http://www.w3.org/Graphics/SVG/1.1/DTD/svg11.dtd">
<svg version="1.1" id="Layer_1" xmlns="http://www.w3.org/2000/svg" xmlns:xlink="http://www.w3.org/1999/xlink" x="0px" y="0px"
	 width="725.773px" height="242.269px" viewBox="0 0 725.773 242.269" enable-background="new 0 0 725.773 242.269"
	 xml:space="preserve">
<g>
	<g>
		<defs>
			<path id="SVGID_1_" d="M89.415,36.621c-0.245,0.052-0.488,0.104-0.7,0.018l0,0c-0.319,0.475-0.66,0.489-1.113,0.557l0,0
				c-0.244,0.036-0.518,0.275-0.716,0.318l0,0c-0.12,0.026-0.237,0.013-0.354-0.001l0,0c-0.121-0.014-0.243-0.028-0.363,0.001l0,0
				c-1.335,0.338-2.428,1.796-3.739,1.91l0,0c-0.089,0.015-0.132-0.015-0.176-0.045l0,0c-0.051-0.035-0.101-0.07-0.222-0.035l0,0
				c-1.044,0.718-1.705,1.926-2.705,2.466l0,0c-0.106-0.35,0.238-0.658,0-0.875l0,0c-0.097,0.576-0.517,0.207-0.955,0.637l0,0
				c-0.022-0.14,0.224-0.397,0-0.478l0,0c-0.014,0.359-0.235,0.363-0.319,0.079l0,0c-0.119,0.173-0.088,0.495-0.317,0.557l0,0
				c-0.049-0.19,0.099-0.577-0.08-0.636l0,0c0.046,0.285-0.092,0.385-0.159,0.557l0,0c-0.142-0.071-0.203-0.222-0.478-0.159l0,0
				c-0.762,0.521-1.246,0.83-1.511,2.147l0,0c-0.457,2.264-0.891,5.787-0.796,7.876l0,0c0.095,0.25,0.465,0.226,0.478,0.557l0,0
				c0.096,0.833-0.042,1.522,0.159,2.148l0,0c0.932-0.154,2.103-0.465,2.545,0.318l0,0c0.267,1.325,0.959,2.223,1.353,3.421l0,0
				c1.126,0.332,1.8,1.117,2.864,1.511l0,0c0.499-0.814,1.297-0.516,2.096-0.218l0,0c0.689,0.256,1.379,0.514,1.881,0.059l0,0
				c0.235,0.11,0.271,0.419,0.638,0.398l0,0c0.865-1.097,0.427-3.498,1.352-4.535l0,0c1.153-5.901,1.839-12.118,2.228-18.458l0,0
				c-0.135-0.121-0.287-0.16-0.446-0.16l0,0C89.716,36.558,89.564,36.589,89.415,36.621"/>
		</defs>
		<clipPath id="SVGID_2_">
			<use xlink:href="#SVGID_1_"  overflow="visible"/>
		</clipPath>
		<g clip-path="url(#SVGID_2_)">
			<g>
				<defs>
					
						<rect id="SVGID_3_" x="68.656" y="36.729" transform="matrix(-0.3894 -0.9211 0.9211 -0.3894 69.8219 142.8732)" width="27.222" height="23.129"/>
				</defs>
				<clipPath id="SVGID_4_">
					<use xlink:href="#SVGID_3_"  overflow="visible"/>
				</clipPath>
				
					<linearGradient id="SVGID_5_" gradientUnits="userSpaceOnUse" x1="-83.2783" y1="-167.8145" x2="-82.2783" y2="-167.8145" gradientTransform="matrix(69.2849 163.8734 163.8734 -69.2849 33346.1016 2049.4678)">
					<stop  offset="0" style="stop-color:#F7931E"/>
					<stop  offset="1" style="stop-color:#F15A22"/>
				</linearGradient>
				<polygon clip-path="url(#SVGID_4_)" fill="url(#SVGID_5_)" points="87.638,31.3 98.219,56.327 77.015,65.292 66.434,40.265 				
					"/>
			</g>
		</g>
	</g>
	<g>
		<defs>
			<path id="SVGID_6_" d="M122.734,101.617c0-0.002,0-0.004,0-0.006l0,0l0,0C122.734,101.613,122.734,101.615,122.734,101.617
				 M122.734,101.611c0-0.003,0-0.005,0.001-0.008l0,0c-0.001-0.127-0.065-0.192-0.16-0.225l0,0
				C122.63,101.438,122.683,101.52,122.734,101.611 M120.267,87.217c0.023-0.122,0.046-0.273,0.064-0.442l0,0
				C120.243,86.856,120.266,87.046,120.267,87.217 M120.427,81.648c0-0.001,0-0.002,0-0.003l0,0
				C120.427,81.646,120.427,81.647,120.427,81.648 M136.578,108.777c-0.125-0.142-0.391-0.14-0.398-0.398l0,0
				c0.237,0.002,0.271,0.207,0.477,0.239l0,0c0.022,0.129-0.076,0.137-0.079,0.239l0,0
				C136.486,108.841,136.534,108.777,136.578,108.777 M135.543,107.027c0.299,0.074,0.577,0.854,0.795,1.273l0,0
				C136.006,107.944,135.837,107.424,135.543,107.027 M134.906,105.515c0.276,0.07,0.174,0.515,0.398,0.637l0,0
				c-0.023,0.02-0.045,0.029-0.067,0.029l0,0C135.082,106.181,134.993,105.688,134.906,105.515 M133.554,104.004
				c0.365,0.709,0.754,1.682,0.955,2.307l0,0C134.017,105.716,133.815,104.83,133.554,104.004 M134.19,103.606
				c0.199,0.358,0.391,0.723,0.478,1.194l0,0C134.403,104.506,134.331,104.023,134.19,103.606 M133.315,103.049
				c0.063-0.088,0.089,0.603,0.317,0.796l0,0c-0.02,0.007-0.039,0.011-0.059,0.011l0,0
				C133.327,103.856,133.192,103.217,133.315,103.049 M132.52,102.652c0.157-0.254,0.31,0.16,0.239,0.397l0,0
				C132.572,103.023,132.681,102.702,132.52,102.652 M131.565,97.481c0.24,1.537,0.625,3.35,0.875,4.613l0,0
				C131.938,100.817,131.688,98.872,131.565,97.481 M135.463,99.389c-0.375-0.956-0.312-1.305-0.637-1.908l0,0
				c0.226-0.208,0.245,0.015,0.281,0.237l0,0c0.027,0.163,0.063,0.328,0.197,0.318l0,0c0.27,1.651,0.716,2.455,0.875,3.661l0,0
				c0.257-0.252,0.236,0.534,0.398,0.955l0,0c-0.638-0.406-0.414-1.576-0.956-2.229l0,0c0.158-0.203-0.082-0.366,0.08-0.477l0,0
				c-0.222-0.097-0.302-0.336-0.398-0.558l0,0c0.022-0.074,0.044-0.049,0.081-0.024l0,0c0.019,0.012,0.041,0.024,0.069,0.024l0,0
				C135.457,99.39,135.46,99.39,135.463,99.389 M134.985,96.764v0.318c-0.077-0.001-0.062-0.098-0.079-0.159l0,0
				c-0.07,0.036-0.143,0.071-0.159,0.159l0,0c-0.086-0.019-0.054-0.158-0.159-0.159l0,0c0.06-0.145,0.105-0.134,0.18-0.124l0,0
				c0.02,0.003,0.04,0.005,0.064,0.005l0,0C134.874,96.804,134.923,96.796,134.985,96.764 M131.406,96.526
				c0.098-0.067,0.161,0.578,0.16,0.875l0,0C131.445,97.176,131.425,96.852,131.406,96.526 M134.35,94.06
				c0.181,0.25,0.024,0.197,0.318,0.079l0,0c-0.085,0.074-0.025,0.294-0.238,0.239l0,0c0.071,0.364,0.634,0.866,0.238,1.193l0,0
				c0.012,0.094,0.144,0.067,0.238,0.08l0,0c-0.022,0.27-0.126,0.458-0.08,0.795l0,0c-0.282-0.199-0.072-0.931-0.396-0.875l0,0
				c0.07-0.232,0.07-0.244,0-0.477l0,0c0.162,0.024,0.155,0.215,0.317,0.238l0,0c0.043-0.113-0.309-0.193-0.079-0.238l0,0
				c-0.15-0.158-0.29-0.125-0.159-0.398l0,0c-0.201,0.139-0.121,0.047-0.095-0.045l0,0c0.019-0.065,0.01-0.13-0.144-0.114l0,0
				C134.389,94.295,134.243,94.228,134.35,94.06 M134.35,93.025c0.139,0.074,0.175,0.248,0.159,0.477l0,0
				c-0.197-0.443-0.1,0.018-0.238,0.239l0,0c-0.181-0.084-0.031-0.5-0.08-0.716l0,0c0.041,0.028,0.082,0.055,0.112,0.055l0,0
				C134.326,93.081,134.342,93.066,134.35,93.025 M134.111,90.638c0.02-0.086,0.157-0.054,0.159-0.159l0,0
				c0.09,0.015,0.043,0.079,0,0.079l0,0c0.025,0.187,0.125,0.299,0.079,0.557l0,0c-0.117-0.092-0.2-0.092-0.319,0l0,0
				c0.456,0.449,0.242,0.975,0.399,1.671l0,0h-0.239c0.213-0.744-0.443-1.516-0.16-2.068l0,0c0.075,0.059,0.121,0.145,0.16,0.239
				l0,0c0.006,0.001,0.013,0.002,0.018,0.002l0,0C134.309,90.96,134.18,90.659,134.111,90.638 M133.952,88.092
				c0.258,0.104,0.205,0.381,0.395,0.403l0,0c0.001-0.001,0.002-0.003,0.003-0.004l0,0c0,0.001-0.001,0.003-0.002,0.004l0,0
				c0.024,0.003,0.05,0.001,0.082-0.004l0,0c0.005,0.125-0.039,0.303,0.079,0.317l0,0c-0.134,0.277-0.203-0.146-0.161-0.312l0,0
				h-0.001l0,0c-0.121,0.169-0.243,0.336-0.316,0.552l0,0c0.021,0.071,0.053,0.046,0.104,0.021l0,0
				c0.036-0.017,0.079-0.033,0.135-0.021l0,0c-0.218,0.296,0.252,1.12-0.24,1.353l0,0c0.05-0.216-0.101-0.631,0.081-0.717l0,0
				c-0.337-0.122-0.437-1.086,0-1.033l0,0C134.005,88.516,133.899,88.383,133.952,88.092 M134.19,86.979
				c0.098,0.389-0.274,0.309-0.239,0.636l0,0C133.82,87.381,133.879,87.087,134.19,86.979 M137.372,109.334
				c-2.772-4.038-4.285-10.079-4.614-16.389l0,0c-0.138-2.63,0.017-4.014,0-6.842l0,0c0.333,5.137,1.021,9.682,2.148,13.844l0,0
				c1.123,4.143,3.155,7.696,4.614,11.375l0,0C138.533,111.194,137.908,110.114,137.372,109.334 M133.872,86.104
				c0.25-0.091,0.194,0.125,0.319,0.159l0,0c-0.266,0.254-0.064,0.504-0.239,0.875l0,0
				C133.668,86.966,133.909,86.597,133.872,86.104 M133.554,86.502c-0.192-0.883-0.027-0.87,0.159-0.08l0,0
				c-0.006,0.186-0.339,0.448-0.08,0.637l0,0c-0.091,0.2-0.176-0.001-0.183-0.203l0,0c-0.006-0.167,0.041-0.333,0.183-0.274l0,0
				C133.648,86.514,133.603,86.506,133.554,86.502 M134.031,85.308c0.186,0.273-0.005,0.479,0,0.716l0,0
				C133.841,85.866,133.822,85.449,134.031,85.308 M133.235,85.069c0.124-0.116,0.071-0.407,0.08-0.636l0,0
				c0.037-0.134,0.099,0.084,0.103,0.303l0,0c0.003,0.171-0.029,0.343-0.135,0.343l0,0C133.269,85.08,133.253,85.077,133.235,85.069
				 M134.111,84.036c0.155,0.057,0.069,1.014,0,1.193l0,0c-0.078-0.002-0.062-0.098-0.081-0.159l0,0
				c-0.128,0.264-0.24,0.046-0.239-0.239l0,0c0.104,0.028,0.125,0.14,0.239,0.159l0,0c-0.029-0.153-0.38-0.433,0.081-0.397l0,0
				c-0.019-0.079-0.117-0.078-0.215-0.077l0,0c-0.036,0-0.072,0.001-0.104-0.002l0,0c0-0.117,0.337-0.252,0-0.239l0,0
				c0.041-0.114,0.128-0.085,0.203-0.057l0,0c0.034,0.013,0.066,0.025,0.09,0.025l0,0C134.129,84.243,134.148,84.2,134.111,84.036
				 M133.952,83.478c0.179,0.06,0.031,0.446,0.079,0.636l0,0C133.812,84.012,133.872,83.686,133.952,83.478 M133.474,83.399
				c0.129-0.023,0.137,0.075,0.239,0.079l0,0c-0.276,0.432,0.122,1.06-0.239,1.353l0,0c0.171-0.484-0.253-0.508-0.158-1.114l0,0
				c0.11-0.253,0.078,0.281,0.079,0.397l0,0C133.57,83.895,133.524,83.689,133.474,83.399 M134.35,83.797
				c-0.058-0.243,0.081-0.291,0.08-0.478l0,0c0.11,0,0.164,0.492-0.021,0.492l0,0C134.392,83.811,134.372,83.807,134.35,83.797
				 M134.111,82.922c0.313-0.048,0.093,0.437,0.159,0.636l0,0C134.022,83.54,134.135,83.163,134.111,82.922 M134.111,82.684
				c0.058,0.243-0.137,0.234-0.081,0.477l0,0C133.93,83.019,133.76,82.635,134.111,82.684 M134.19,81.251
				c0.268,0.006,0.044,0.524,0.08,0.636l0,0C134.091,81.828,134.239,81.441,134.19,81.251 M134.19,81.012
				c0.192,0.072-0.18,0.235-0.079,0.478l0,0c-0.119-0.067-0.172-0.2-0.16-0.397l0,0c0.03,0.001,0.059,0.003,0.085,0.003l0,0
				C134.116,81.095,134.18,81.082,134.19,81.012 M133.395,80.615c0.066-0.093,0.105-0.213,0.079-0.398l0,0
				c0.211-0.027,0.239,0.227,0.239,0.48l0,0c0,0.264-0.03,0.528,0.079,0.474l0,0c0.201,0.08-0.063,0.352-0.238,0.318l0,0
				c-0.036-0.152,0.245-0.342-0.08-0.318l0,0C133.573,80.959,133.747,80.651,133.395,80.615 M133.872,80.376v-0.478
				c0.127,0.47,0.3,0.073,0.399,0.637l0,0C134.01,80.434,134.102,80.42,133.872,80.376 M133.713,79.262
				c0.308,0.083,0.08,0.616,0,0.795l0,0C133.363,79.881,133.754,79.672,133.713,79.262 M132.44,82.285
				c0.06-1.168-0.019-2.671,0.478-3.421l0,0c-0.145,1.189-0.193,2.426-0.239,3.66l0,0c-0.023,0.62-0.055,1.323-0.16,1.83l0,0
				c-0.154,0.75,0.081,1.356,0.08,1.909l0,0c0,0.19-0.16,0.461-0.159,0.637l0,0c0,0.104,0.155,0.188,0.159,0.159l0,0
				c-0.073,0.554-0.343,1.129-0.146,1.863l0,0c0.02,0.043,0.042,0.109,0.066,0.205l0,0c-0.026-0.069-0.048-0.138-0.066-0.205l0,0
				c-0.177-0.399-0.117,1.259,0.066,1.478l0,0c-0.077-0.002-0.061-0.098-0.079-0.159l0,0c-0.31,0.49,0.076,0.973,0.079,1.353l0,0
				c0.001,0.236-0.205,1.032,0.08,1.272l0,0c-0.208,3.593,0.5,5.863,1.114,8.593l0,0c0.083,0.279,0.097,0.757,0.159,1.114l0,0
				C131.97,96.652,132.066,89.577,132.44,82.285 M134.43,78.387c0.241,0.121-0.066,0.35,0,0.557l0,0h-0.239
				c0.013,0.093,0.145,0.067,0.239,0.08l0,0c-0.011,0.198-0.271,0.023-0.318,0l0,0c-0.011-0.195-0.014-0.383,0.079-0.477l0,0
				c0.107,0.024,0.066,0.199,0.08,0.318l0,0C134.401,78.784,134.356,78.526,134.43,78.387 M134.588,76.796
				c-0.169,0.258-0.069,0.463,0.08,0.875l0,0c-0.198,0.012-0.219-0.153-0.239-0.318l0,0c-0.021-0.165-0.041-0.33-0.238-0.318l0,0
				C134.264,76.895,134.338,76.758,134.588,76.796 M134.509,76.16c-0.259-0.087-0.131-0.559-0.159-0.875l0,0
				c0.063-0.069,0.218-0.048,0.238-0.16l0,0c0.172,0.102-0.265,0.26-0.158,0.557l0,0c0.121,0.197,0.321,0.314,0.556,0.398l0,0
				c-0.083,0.114-0.154,0.102-0.23,0.091l0,0c-0.089-0.013-0.187-0.026-0.325,0.148l0,0c0.171,0.146,0.154,0.199,0.079,0.397l0,0
				c-0.099,0.011-0.119-0.056-0.139-0.123l0,0c-0.022-0.077-0.044-0.153-0.18-0.116l0,0C134.2,76.275,134.307,76.169,134.509,76.16
				 M134.747,74.17c-0.067-0.092-0.104-0.213-0.079-0.398l0,0c0.275,0.169,0.035,0.348,0.158,0.716l0,0
				c-0.131,0.029-0.159-0.046-0.187-0.123l0,0c-0.029-0.079-0.058-0.159-0.209-0.116l0,0c0.001-0.122,0.217-0.261,0.158,0l0,0
				C134.652,74.234,134.668,74.17,134.747,74.17 M135.224,67.487c0.056-0.245,0.056-0.152,0-0.398l0,0h0.239
				c0.092,0.251-0.125,0.194-0.159,0.318l0,0c0.022,0.09,0.053,0.065,0.093,0.041l0,0c0.04-0.024,0.087-0.049,0.146,0.039l0,0
				c-0.005,0.07-0.039,0.093-0.084,0.093l0,0C135.375,67.581,135.257,67.502,135.224,67.487 M139.6,25.561
				c-0.009,0.362-0.001,0.741-0.238,0.875l0,0c-0.026-0.296-0.301-0.287-0.397-0.317l0,0c-0.009-0.133,0.043-0.721-0.08-0.478l0,0
				c0.03,0.508,0.054,1.009-0.556,0.875l0,0c-0.162-0.184-0.317-0.374-0.479-0.557l0,0c-0.052,0.331-0.89,0.562-0.954,0.16l0,0
				c-0.116,0.494-0.315,0.906-0.716,1.113l0,0c-0.109-0.129-0.283-0.196-0.239-0.477l0,0c-0.371,0.046-0.651,0.897-0.795,0.238l0,0
				c-0.034,0.52-0.217,0.5-0.474,0.481l0,0c-0.075-0.005-0.156-0.011-0.241-0.003l0,0c-0.592,0.053-1.971,1.004-2.388,0.239l0,0
				c-0.083,0.51-0.92,0.565-1.432,0.398l0,0c-0.37,0.486-0.516,1.413-1.114,1.431l0,0c-0.157,0.374-0.298,0.762-0.477,1.115l0,0
				c-0.876,1.872-1.694,4.319-2.388,6.761l0,0c-0.555,1.956-1.569,4.618-1.51,5.888l0,0c0.167-0.231,0.176-0.62,0.317-0.875l0,0
				c-2.656,11.833-4.42,26.362-5.013,39.217l0,0c0.005-0.042,0.064-0.083,0.08,0.003l0,0c-0.047,0.427-0.271,0.603-0.08,0.956l0,0
				c0.018-0.062,0.002-0.158,0.08-0.16l0,0c0.074,0.318-0.381,0.866,0,0.557l0,0c-0.409,0.386-0.084,1.119-0.317,1.75l0,0
				c0.17,0.07,0.162-0.039,0.154-0.148l0,0c-0.006-0.09-0.013-0.181,0.083-0.169l0,0c0.031,0.664-0.016,1.656-0.096,2.341l0,0
				c0.037-0.034,0.092-0.048,0.176-0.034l0,0c-0.142,0.667-0.149,1.211-0.08,1.591l0,0c-0.331-0.165-0.299,0.433-0.16,0.476l0,0
				c0.036-0.149-0.107-0.478,0.16-0.396l0,0c-0.009,2.81,0.263,7.598,1.591,10.342l0,0c-0.23,1.054,0.725,2.007,0.718,2.85l0,0
				c0,0.002-0.001,0.005-0.001,0.008l0,0c0.246,0.437,0.447,1.114,0.478,0.881l0,0c0.211,0.174,0.04,0.428,0.158,0.557l0,0
				c0.152-0.328,0.32,0.715,0.478,0.955l0,0c0.063,0.095,0.265,0.029,0.318,0.079l0,0c0.28,0.262,0.416,0.695,0.397,0.955l0,0
				c1.113,0.782,2.166,2.702,3.818,2.944l0,0c0.86,1.289,2.233,2.064,3.343,3.102l0,0c0.342-0.303,0.739-0.122,1.145,0.06l0,0
				c0.423,0.188,0.854,0.377,1.242,0.02l0,0c0.364,0.246,0.619,0.601,0.954,0.875l0,0c-0.129-0.534-0.742-0.584-0.715-1.273l0,0
				c0.146,0.019,0.279,0.453,0.397,0.238l0,0c-0.123-0.019-0.381-0.295-0.159-0.397l0,0c1.105,1.176,2.155,2.831,3.66,3.341l0,0
				c-0.996-0.356-1.561-1.568-1.91-2.307l0,0c0.601,0.677,1.312,1.712,2.148,2.067l0,0c-0.815-0.598-1.521-1.701-2.148-2.227l0,0
				c0.141-0.147,0.232,0.034,0.399,0.08l0,0c0-0.266-0.26-0.272-0.239-0.558l0,0c0.348,0.059-0.064-0.157,0.159-0.159l0,0
				c0.66,0.737,1.701,1.245,2.546,1.83l0,0c0.559,0.386,0.943,1.188,1.511,0.875l0,0c-0.576-0.405-1.208-0.755-1.431-1.511l0,0
				c0.887,0.703,1.711,1.894,2.625,2.307l0,0c-0.838-0.701-1.646-1.43-2.308-2.307l0,0c1.013,0.552,1.896,1.234,3.183,1.511l0,0
				c-0.47-0.433-1.166-0.692-1.353-1.193l0,0c0.008,0.346-0.398-0.01-0.477-0.08l0,0c0.374-0.524-0.647-1.167-0.557-1.67l0,0
				c-0.967-1.453-1.781-3.077-2.705-4.774l0,0c0-0.102,0.045-0.071,0.088-0.041l0,0c0.052,0.036,0.102,0.072,0.07-0.118l0,0
				c-0.556-0.585-1.09-1.613-1.112-2.467l0,0c1.057,2.4,2.129,4.327,3.58,6.366l0,0c-0.145-0.033-0.104,0.061-0.004,0.155l0,0
				c0.091,0.087,0.231,0.173,0.321,0.162l0,0c-0.21-0.352-0.768-1.44-0.875-1.193l0,0c-0.018-0.15,0.09-0.175,0.079-0.318l0,0
				c-0.287,0.04-0.239-0.388-0.396-0.636l0,0c-0.145-0.229-0.439-0.268-0.478-0.557l0,0c-0.011-0.08,0.089-0.219,0.08-0.238l0,0
				c-0.264-0.555-0.974-1.246-1.194-2.068l0,0c-0.221-0.829-0.73-1.33-0.875-2.068l0,0c-0.084-0.431-0.231-0.766-0.397-1.432l0,0
				c-0.431-1.718-0.91-3.493-1.273-5.33l0,0c-0.083-0.418-0.138-0.265-0.239-0.08l0,0c0.095-0.948,0.07-1.895-0.318-2.546l0,0
				c0.376-0.361,0.038-1.67-0.079-2.545l0,0c-0.001,0.081-0.139,0.1-0.159,0l0,0c0.066-0.208-0.241-0.437,0-0.557l0,0
				c0.112-0.006,0.096,0.116,0.079,0.238l0,0c-0.017,0.123-0.033,0.245,0.08,0.238l0,0c0.311-0.542-0.5-1.022-0.238-1.511l0,0
				c0.237,0.001-0.113,0.589,0.238,0.477l0,0c-0.106-2.318-0.108-4.895,0-7.24l0,0c0.043-0.941,0.285-2.66,0.079-3.181l0,0
				c0.29-0.423,0.333-1.865,0.159-2.229l0,0c-0.11,0.049-0.012,0.307-0.159,0.318l0,0v-0.478c0.118,0.042,0.2,0.118,0.318,0.159l0,0
				c0.263-5.223,0.967-11.628,1.831-16.787l0,0c-0.067-0.198-0.363-0.167-0.318-0.477l0,0c0.125,0.007,0.062,0.203,0.238,0.159l0,0
				c0.383-1.282,0.562-2.747,0.637-3.898l0,0c0.1,0.018,0.163,0.124,0.158-0.08l0,0c0.22-2.752,1.42-6.167,1.672-8.99l0,0
				c0.37-0.05,0.463-0.723,0.317-1.034l0,0c0.729-1.929,1.035-3.985,1.671-6.047l0,0c0.905-2.931,2.222-6.07,3.262-8.831l0,0
				c0.539-1.428,1.112-3.565,0.318-4.932l0,0c-0.027,0.052-0.078,0.043-0.146,0.036l0,0c-0.071-0.008-0.158-0.016-0.252,0.044l0,0
				c0.038-0.529-0.298-0.193-0.397-0.557l0,0c-0.139,0.18,0.031,0.667-0.239,0.716l0,0c-0.174-0.22,0.069-0.86-0.079-0.716l0,0
				c-0.094,0.304-0.313,0.482-0.478,0.716l0,0c-0.031-0.208-0.041-0.437-0.16-0.557l0,0c0.081,0.248-0.164,0.567-0.238,0.398l0,0
				c-0.013-0.094,0.014-0.226-0.08-0.239l0,0c-0.031,0.324-0.153,0.28-0.281,0.236l0,0c-0.103-0.035-0.208-0.071-0.276,0.083l0,0
				c0.056-0.267-0.132-0.291-0.317-0.319l0,0c-0.038,0.705-0.172,1.313-0.478,1.75l0,0v-1.512c-0.085-0.091-0.266-0.085-0.448-0.081
				l0,0c-0.064,0.001-0.129,0.003-0.188,0.001l0,0c-0.112-0.393-0.449-0.56-0.716-0.795l0,0
				C139.945,25.585,139.869,25.699,139.6,25.561"/>
		</defs>
		<clipPath id="SVGID_7_">
			<use xlink:href="#SVGID_6_"  overflow="visible"/>
		</clipPath>
		<g clip-path="url(#SVGID_7_)">
			<g>
				<defs>
					
						<rect id="SVGID_8_" x="87.09" y="41.83" transform="matrix(-0.3894 -0.9211 0.9211 -0.3894 119.4207 220.8263)" width="91.628" height="58.001"/>
				</defs>
				<clipPath id="SVGID_9_">
					<use xlink:href="#SVGID_8_"  overflow="visible"/>
				</clipPath>
				
					<linearGradient id="SVGID_10_" gradientUnits="userSpaceOnUse" x1="-83.2783" y1="-167.8145" x2="-82.2783" y2="-167.8145" gradientTransform="matrix(69.2848 163.8734 163.8734 -69.2848 33383.7188 2036.4844)">
					<stop  offset="0" style="stop-color:#F7931E"/>
					<stop  offset="1" style="stop-color:#F15A22"/>
				</linearGradient>
				<polygon clip-path="url(#SVGID_9_)" fill="url(#SVGID_10_)" points="141.775,17.34 177.457,101.734 124.098,124.294 
					88.417,39.899 				"/>
			</g>
		</g>
	</g>
	<g>
		<defs>
			<path id="SVGID_11_" d="M57.179,33.517c0-0.005,0.001-0.011,0.002-0.017l0,0C57.18,33.505,57.18,33.511,57.179,33.517
				 M57.181,33.5c0.008-0.068,0.021-0.136,0.036-0.203l0,0C57.177,33.336,57.188,33.426,57.181,33.5 M65.931,52.611
				c0.034-0.125,0.25-0.068,0.16-0.319l0,0c0.32-0.045-0.04,0.236,0.079,0.478l0,0C66.065,52.742,66.044,52.63,65.931,52.611
				 M62.749,51.497c0.186,0.243-0.142,0.651-0.16,0.955l0,0C62.406,52.21,62.754,51.824,62.749,51.497 M66.169,39.006
				c0.114,0.106,0.211,0.354,0.079,0.478l0,0C65.96,39.411,66.2,39.249,66.169,39.006 M68.079,34.551
				c-0.045,1-0.845,2.233-0.955,3.183l0,0C66.981,36.822,67.657,35.756,68.079,34.551L68.079,34.551L68.079,34.551 M70.625,28.663
				c0.064,0.042,0.129,0.083,0.238,0.081l0,0c-0.012,0.093-0.145,0.066-0.238,0.08l0,0c0.025,0.184-0.013,0.304-0.079,0.397l0,0
				c-0.021,0.023-0.036,0.032-0.046,0.032l0,0C70.436,29.253,70.615,28.799,70.625,28.663 M64.658,28.027
				c-0.273-0.148-0.13-1.008-0.239-0.875l0,0c-0.186,0.283-0.188-0.281-0.317-0.317l0,0c-0.587,0.395-0.691,1.271-1.273,1.669l0,0
				c-0.117-0.123-0.539-0.062-0.716-0.317l0,0c-0.035-0.177,0.246-0.432,0.08-0.477l0,0c-0.093,0.119-0.099,0.326-0.238,0.398l0,0
				c-0.494-0.173-0.771-0.075-1.114-0.398l0,0c-0.22,0.814-0.805,1.262-1.273,1.829l0,0c-0.013-0.093,0.013-0.225-0.08-0.238l0,0
				c-0.27,0.968-0.99,1.846-0.955,2.864l0,0c-0.15-0.06-0.055-0.238-0.238-0.08l0,0c-0.115,0.442-0.12,0.995-0.478,1.193l0,0
				c0.246-0.281-0.081-0.412-0.08-0.477l0,0c0.004-0.422,0.378-0.73,0.239-1.193l0,0c-0.101,0.471-0.6,1.039-0.758,1.689l0,0
				c0.01-0.009,0.024-0.017,0.042-0.019l0,0c-0.144,0.64-0.368,1.573-0.716,1.353l0,0c0.085,0.323-0.022,0.376,0,0.795l0,0
				c-0.255-0.066-0.165-0.068-0.317,0.08l0,0C49.923,54.319,45.18,74.46,43.178,97.243l0,0C39.701,86.876,35.763,76.97,31.96,66.931
				l0,0c-0.197-0.095-0.311-0.272-0.397-0.478l0,0c-0.943-2.056-2.476-5.336-3.978-7.558l0,0c-0.151-0.224-0.529-0.462-0.795-0.796
				l0,0c-0.26-0.327-0.392-0.77-0.637-1.034l0,0c-0.783-0.846-2.147-1.094-2.546,0.238l0,0c-0.835,0.36-1.535,0.643-2.784,0.716l0,0
				c-0.375,0.42-0.68,0.91-0.955,1.432l0,0c-0.192-0.039-0.288,0.018-0.384,0.076l0,0c-0.087,0.052-0.174,0.103-0.331,0.083l0,0
				c-0.718,1.67-1.87,2.905-3.102,4.058l0,0c0.025,0.954-0.614,1.244-0.797,1.989l0,0c3.25,6.927,6.019,14.575,8.99,21.719l0,0
				c3.875,9.312,7.69,19.253,11.138,28.878l0,0c0.741,2.066,1.383,3.973,1.91,5.569l0,0c0.684,2.076,1.75,5.428,3.022,6.762l0,0
				c0.542-0.069,1.039-0.182,1.512-0.318l0,0c0.429,0.341,0.948,0.589,1.671,0.637l0,0c0.078-0.05-0.034-0.428,0.239-0.478l0,0
				c0.541,0.129,0.572-0.075,0.954-0.239l0,0c0.364,0.114,0.571,0.384,0.875,0.557l0,0c0.448-0.03,0.646-0.308,0.797-0.637l0,0
				c0.992-0.04,1.329-0.738,1.67-1.431l0,0c0.339,1.16,1.96,0.601,3.023,0.954l0,0c-0.014-0.729,0.782-0.649,0.875-1.273l0,0
				c0.195,0.125,0.208,0.429,0.478,0.478l0,0c0.855-1.632,1.583-3.562,1.989-5.41l0,0c-0.005,0.02,0.068-0.137,0.08-0.158l0,0
				c0.454-0.874,1.669-1.519,1.75-2.705l0,0c0.819-10.623,1.372-23.339,3.182-33.574l0,0c-0.062-0.018-0.113,0.007-0.151,0.031l0,0
				c-0.068,0.042-0.097,0.086-0.087-0.109l0,0c0.21-0.004,0.449-0.373,0.16-0.318l0,0c0.284-2.568,1.149-5.616,1.432-8.354l0,0
				c0.286-1.457,1.036-3.362,0.955-4.853l0,0c0.778-1.418,0.726-3.485,1.352-4.774l0,0c0.533-3.078,1.298-5.802,1.989-8.433l0,0
				c0.025-0.156-0.107-0.158-0.159-0.238l0,0c0.505-0.088,0.311-1.064,0.478-1.671l0,0c-0.049,0.177,0.232-0.218,0.239-0.239l0,0
				c0.388-1.224,0.688-2.637,0.795-3.659l0,0c0.498-1.139,0.845-2.538,0.955-3.66l0,0c0.432-0.104,0.287-0.875,0.398-1.273l0,0
				c0.12-0.428,0.508-0.819,0.398-1.353l0,0c1.143-2.824,1.606-5.443,2.784-8.194l0,0v-0.637c0.49-1.319,1.131-2.471,1.114-3.898
				l0,0c0.062-0.018,0.112,0.006,0.15,0.031l0,0c0.067,0.042,0.097,0.084,0.088-0.11l0,0c0.18-0.473,0.201-0.905-0.079-1.272l0,0
				c0.068-0.004,0.229-0.027,0.238-0.08l0,0c0.157-0.782,0.314-1.563,0.08-1.671l0,0c-0.178,0.166-0.444,0.32-0.716,0.398l0,0
				c0.382-0.39-0.021-0.817,0.238-0.955l0,0c-0.17-0.138-0.221,0.059-0.292,0.256l0,0c-0.055,0.152-0.122,0.305-0.266,0.301l0,0
				c0.184-0.176-0.138-0.199-0.239-0.318l0,0c-0.073,0.352-0.216,0.634-0.398,0.875l0,0c-0.035-0.356,0.37-0.688,0.16-0.955l0,0
				c0.011,0.199-0.041,0.33-0.16,0.398l0,0c0.039-0.624,0.258-1.068,0.319-1.671l0,0c-0.071-0.071-0.165-0.042-0.285-0.014l0,0
				c-0.098,0.023-0.215,0.046-0.352,0.014l0,0c-0.381,0.913-0.908,1.845-1.591,2.308l0,0c-0.231-0.677,0.17-1.672,0.397-2.625l0,0
				c-0.072,0.137-0.292,0.219-0.318,0l0,0c0.403-0.394,0.171-1.442-0.478-1.75l0,0c-0.167,0.416-0.473,0.694-0.795,0.955l0,0
				c-0.271,0.059-0.132-0.293-0.318-0.319l0,0c-0.157,0.109-0.051,0.481-0.319,0.478l0,0c-0.018-0.364,0.308-0.802,0.159-1.033l0,0
				c-0.295,0.287-0.411,0.754-0.714,1.033l0,0c0.153-0.354,0.072-0.453,0.159-0.875l0,0c-0.24-0.113-0.414-0.397-0.875-0.478l0,0
				C65.537,26.944,65.333,27.721,64.658,28.027"/>
		</defs>
		<clipPath id="SVGID_12_">
			<use xlink:href="#SVGID_11_"  overflow="visible"/>
		</clipPath>
		<g clip-path="url(#SVGID_12_)">
			<g>
				<defs>
					
						<rect id="SVGID_13_" x="-14.809" y="31.453" transform="matrix(-0.3894 -0.9211 0.9211 -0.3894 -11.1529 148.2092)" width="116.714" height="92.696"/>
				</defs>
				<clipPath id="SVGID_14_">
					<use xlink:href="#SVGID_13_"  overflow="visible"/>
				</clipPath>
				
					<linearGradient id="SVGID_15_" gradientUnits="userSpaceOnUse" x1="-83.2783" y1="-167.8145" x2="-82.2783" y2="-167.8145" gradientTransform="matrix(69.285 163.8737 163.8737 -69.285 33311.7852 2065.9121)">
					<stop  offset="0" style="stop-color:#00B7C6"/>
					<stop  offset="1" style="stop-color:#00458C"/>
				</linearGradient>
				<polygon clip-path="url(#SVGID_14_)" fill="url(#SVGID_15_)" points="63.486,6.051 108.923,113.52 23.584,149.601 
					-21.853,42.131 				"/>
			</g>
		</g>
	</g>
	<g>
		<defs>
			<path id="SVGID_16_" d="M180.96,70.761c0.007-0.026,0.011-0.056,0.01-0.091l0,0C180.966,70.701,180.963,70.731,180.96,70.761
				 M156.813,61.15c0.083-0.023,0.167-0.044,0.13-0.186l0,0C156.9,61.025,156.858,61.088,156.813,61.15 M162.96,55.245
				c0.01-0.003,0.02-0.006,0.03-0.009l0,0c-0.001,0-0.001,0-0.001,0l0,0C162.98,55.236,162.969,55.24,162.96,55.245
				 M165.615,105.119c0.002,0.321-0.566,0.068-0.636,0.317l0,0C164.768,105.221,165.451,105.223,165.615,105.119L165.615,105.119
				L165.615,105.119 M166.093,104.879c0.223,0.152-0.239,0.285-0.398,0.318l0,0v-0.238c0.099,0.019,0.167,0.044,0.224,0.044l0,0
				C165.981,105.004,166.03,104.975,166.093,104.879 M146.442,94.218c0.404-0.603,0.908-1.106,1.511-1.511l0,0
				c0.153,0.378,0.375,0.687,0.637,0.955l0,0c-0.056,0.394-0.362,0.538-0.398,0.955l0,0c-0.005,0-0.011,0-0.017,0l0,0
				C147.464,94.617,147.073,94.297,146.442,94.218 M177.946,92.865c-0.025-0.291,0.089-0.441,0.16-0.636l0,0
				c0.128,0.035-0.18,0.744-0.196,0.744l0,0C177.907,92.974,177.917,92.942,177.946,92.865 M150.817,90.32
				c-0.518,0.993-1.569,2.143-2.227,3.262l0,0c-0.169-0.309-0.368-0.586-0.477-0.955l0,0C148.8,91.644,149.951,91.125,150.817,90.32
				L150.817,90.32L150.817,90.32 M151.375,94.935c-0.255-0.197-0.702-0.201-1.035-0.318l0,0c0.687-1,1.657-1.893,2.626-2.705l0,0
				c2.923-2.452,6.513-4.53,10.263-6.206l0,0c-0.205,2.686-0.803,5.667-1.273,8.354l0,0c-3.005,0.687-7.03,1.261-10.342,1.034l0,0
				c0.02-0.087,0.158-0.054,0.159-0.159l0,0c-0.336,0.087-0.757,0.091-1.194,0.08l0,0c-0.021-0.165-0.351-0.019-0.317-0.239l0,0
				c-0.155-0.09,0.095-0.014,0.412,0.061l0,0c0.214,0.05,0.458,0.102,0.627,0.102l0,0C151.326,94.939,151.352,94.938,151.375,94.935
				 M180.572,67.885c0.232,0.196,0.251,0.449,0.079,0.716l0,0C180.547,68.465,180.701,68.153,180.572,67.885 M180.651,66.533
				c0.165,0.068,0.084,0.554,0,0.636l0,0C180.446,67.06,180.635,66.682,180.651,66.533 M180.572,63.669
				c0.254-0.271,0.192,0.767,0.079,0.875l0,0C180.484,64.474,180.831,63.83,180.572,63.669 M154.794,59.532
				c0.122,0.226-0.551,0.471-0.874,0.716l0,0c-0.985,0.745-2.113,1.795-3.104,2.545l0,0
				C151.702,61.482,153.395,60.562,154.794,59.532 M164.422,54.44c-0.201,0.568-1.069,0.468-1.432,0.875l0,0
				c-0.069-0.012-0.059-0.052-0.03-0.07l0,0c-1.294,0.4-2.62,1.439-4.028,1.98l0,0C160.537,55.913,162.563,55.103,164.422,54.44
				 M155.114,47.36c-0.185,0.107-0.081,0.004,0.095-0.099l0,0c0.144-0.083,0.334-0.167,0.461-0.14l0,0
				C155.874,47.018,155.316,47.358,155.114,47.36 M163.786,43.063c-3.192,0.834-5.748,2-8.752,3.263l0,0
				c-0.089,0.072,0.005,0.178-0.158,0.317l0,0c-0.147-0.208-0.703,0.094-0.558,0.16l0,0c0.044,0,0.1-0.04,0.157-0.08l0,0
				c0.097-0.068,0.196-0.136,0.241,0l0,0c-0.308,0.038-0.636,0.401-0.635,0.08l0,0c-0.126,0.482-1.206,0.892-1.672,1.034l0,0
				c0.174,0.19-0.775,0.638-1.112,0.875l0,0c-1.582,1.106-2.729,2.189-3.82,3.739l0,0c-0.718,1.021-1.381,2.242-1.511,3.739l0,0
				c-0.056,0.648,0.155,1.381,0.08,2.148l0,0c-0.075,0.748-0.456,1.411-0.24,2.307l0,0c0.12,0.493,0.443,0.767,0.637,1.273l0,0
				c-0.15,0.593-0.422,1.482,0,1.989l0,0c0.316-0.324,0.769,0.544,1.113,0.716l0,0c-0.041-0.359-0.389-0.828-0.238-1.114l0,0
				c0.549,0.689,0.492,1.339,0.557,2.308l0,0c0.6,0.566,1.145,1.188,1.512,1.988l0,0c0.159,0.046,0.213-0.013,0.267-0.073l0,0
				c0.047-0.051,0.093-0.104,0.21-0.086l0,0c0.13,0.456,0.493,1.097,0.875,1.034l0,0c-0.453-0.262-0.626-0.806-0.636-1.511l0,0
				c0.443-0.046,0.759,0.036,0.954,0.238l0,0c-0.077-0.393-0.321-0.96,0.081-1.193l0,0c0.198-0.016,0.311,0.061,0.391,0.137l0,0
				c0.102,0.097,0.15,0.193,0.246,0.102l0,0c0.223-0.704-0.425-1.419-0.477-2.148l0,0c-0.064-0.876,0.8-1.524,1.432-2.068l0,0
				c2.573-2.218,6.629-4.608,9.308-5.887l0,0c-3.522,1.703-5.922,4.525-8.274,7.398l0,0c-0.882,1.479-1.909,2.812-2.148,4.932l0,0
				c0.492,0.358,0.696,1.002,1.432,1.114l0,0c0.306-0.401-0.245-0.799-0.158-0.954l0,0c0.048,0.023,0.306,0.198,0.317,0l0,0
				c-0.878-1.173,0.186-2.766,0.955-3.978l0,0c0.939-1.479,1.889-2.627,2.654-3.712l0,0c-0.042,0.012-0.083,0.024-0.108,0.052l0,0
				c2.03-2.213,4.87-3.949,7.796-5.012l0,0c1.858,3.045,1.672,9.015,1.353,12.888l0,0c-8.191,2.604-15.022,6.316-21.161,10.82l0,0
				c-0.092,0.439-0.44,0.621-0.717,0.875l0,0h-0.317c-1.687,1.66-3.971,3.792-4.297,7.161l0,0c-0.055,0.58,0.109,1.157,0.08,1.75
				l0,0c-0.036,0.7-0.279,1.494-0.239,2.308l0,0c0.065,1.348-0.282,2.427-0.08,3.58l0,0c0.188,1.07,1.404,1.798,1.035,2.945l0,0
				c0.439,0.807,0.778,1.714,1.113,2.624l0,0c1.438,1.318,1.146,3.281,2.785,4.456l0,0c0.668,0.479,2.001,1.03,3.022,1.353l0,0
				c2.527,0.796,6.208,1.353,8.832,1.432l0,0c2.432,0.074,4.221-0.428,6.284-0.557l0,0c0.353-0.414,1.494-0.242,2.07-0.637l0,0
				c-0.109-0.052-0.223-0.015-0.32,0.023l0,0c-0.139,0.053-0.241,0.107-0.237-0.103l0,0c1.084-0.215,2.382-0.216,2.943-0.954l0,0
				c-0.167-0.023-0.405,0.014-0.65,0.05l0,0c-0.291,0.043-0.59,0.087-0.782,0.029l0,0c0.318-0.132,0.733-0.168,0.875-0.478l0,0
				c0.032-0.362-0.007-0.333-0.085-0.304l0,0c-0.042,0.016-0.095,0.033-0.154-0.014l0,0c0.102-0.323,0.671-0.177,0.795-0.477l0,0
				c-0.043-0.017-0.11-0.008-0.176,0l0,0c-0.115,0.014-0.23,0.028-0.221-0.081l0,0c0.219-0.205,0.64-0.187,0.556-0.478l0,0
				c-0.293,0.186-0.985,0.392-1.272,0.318l0,0c0.906-0.367,1.933-0.611,2.545-1.273l0,0c-0.553,0.163-1.255,0.598-1.749,0.558l0,0
				c0.528-0.374,1.396-0.407,1.749-0.955l0,0c-0.531,0.052-1.041,0.547-1.511,0.397l0,0c0.546-0.992,1.808-1.268,2.863-1.75l0,0
				c0.012-0.794,0.861-1.342,1.194-2.069l0,0c0.037-0.307-0.241-0.902-0.239-1.113l0,0c0.225,0.123,0.45,0.016,0.653-0.09l0,0
				c0.213-0.111,0.402-0.222,0.542-0.07l0,0c0.302-0.122,0.334-0.514,0.636-0.636l0,0c0.344,0.239,1.08,0.087,1.273,0.477l0,0
				c0.528-0.647,0.966-0.097,1.431,0l0,0c0.142,0.031,0.298-0.005,0.459-0.042l0,0c0.229-0.051,0.462-0.104,0.654,0.042l0,0
				c0.285-0.165,0.511-0.39,0.796-0.556l0,0c2.139-4.517,2.728-10.586,3.66-16.309l0,0c0.78-0.176,1.453-0.458,1.75-1.114l0,0
				c-0.49-0.264-0.093-0.92-0.635-1.114l0,0c0.078-0.241,0.161-0.474,0.24-0.716l0,0c-0.038-0.004-0.081-0.001-0.125,0.001l0,0
				c-0.128,0.009-0.254,0.018-0.196-0.16l0,0c0.413,0.014-0.088-0.229,0.321-0.398l0,0c-0.214-0.08-0.264-0.322-0.399-0.478l0,0
				c0.107-0.025,0.152-0.113,0.318-0.08l0,0c0.061-0.271-0.322-0.101-0.24-0.397l0,0c0.246-0.021,0.359-0.173,0.558-0.238l0,0
				c-0.278-0.669,0.586-0.761,0.477-1.513l0,0c-0.89-0.165-0.439-1.277-0.477-1.75l0,0c0.227,0.016,0.434,0.01,0.397-0.239l0,0
				c-0.43-0.17-0.709-0.028-0.956-0.318l0,0v-0.477c-0.171,0.085-0.277-0.003-0.307-0.091l0,0c-0.035-0.095,0.014-0.189,0.149-0.068
				l0,0c0.078-0.316-0.445-0.033-0.397-0.319l0,0c-0.025-0.39-0.051-0.682-0.01-1.102l0,0c-0.021,0.078-0.077,0.121-0.149,0.147l0,0
				c0.116-0.526-0.114-1.194,0.078-1.511l0,0c0.021-0.034,0.066-0.027,0.111-0.02l0,0c0.059,0.009,0.118,0.018,0.128-0.06l0,0
				c-0.011,0.077-0.236-0.204-0.239-0.239l0,0c-0.014-0.321,0.375-1.059,0.199-1.51l0,0c-0.03-0.008-0.037-0.044-0.04-0.081l0,0
				c0.016,0.026,0.029,0.052,0.04,0.081l0,0c0.01,0.003,0.022,0.003,0.04,0l0,0c-0.069-0.362-0.269-0.776,0-1.034l0,0
				c-0.126-0.428,0-0.792,0-1.114l0,0c0.006-10.905-2.955-22.128-12.808-22.753l0,0c-0.414-0.027-0.804-0.04-1.179-0.04l0,0
				C165.97,42.626,164.945,42.76,163.786,43.063"/>
		</defs>
		<clipPath id="SVGID_17_">
			<use xlink:href="#SVGID_16_"  overflow="visible"/>
		</clipPath>
		<g clip-path="url(#SVGID_17_)">
			<g>
				<defs>
					
						<rect id="SVGID_18_" x="120.929" y="42.56" transform="matrix(-0.3894 -0.9211 0.9211 -0.3894 152.3125 252.0975)" width="77.573" height="66.008"/>
				</defs>
				<clipPath id="SVGID_19_">
					<use xlink:href="#SVGID_18_"  overflow="visible"/>
				</clipPath>
				
					<linearGradient id="SVGID_20_" gradientUnits="userSpaceOnUse" x1="-83.2783" y1="-167.8145" x2="-82.2783" y2="-167.8145" gradientTransform="matrix(69.2854 163.8747 163.8747 -69.2854 33400.6133 2027.9902)">
					<stop  offset="0" style="stop-color:#00B7C6"/>
					<stop  offset="1" style="stop-color:#00458C"/>
				</linearGradient>
				<polygon clip-path="url(#SVGID_19_)" fill="url(#SVGID_20_)" points="174.994,27.019 205.193,98.447 144.471,124.12 
					114.271,52.692 				"/>
			</g>
		</g>
	</g>
	<g>
		<defs>
			<path id="SVGID_21_" d="M181.846,158.183c0.006-0.019,0.012-0.036,0.016-0.051l0,0
				C181.853,158.144,181.848,158.16,181.846,158.183 M194.097,165.58c1.197-0.299,3.042-0.294,4.375-0.556l0,0
				c0.166,0.044,0.168,0.124,0.079,0.237l0,0c-1.631,0.491-3.792,0.284-5.41,0.797l0,0
				C193.261,165.807,193.718,165.676,194.097,165.58 M188.368,164.785c-0.145,0.276-0.803,0.262-1.223,0.245l0,0
				c-0.124-0.005-0.227-0.01-0.289-0.006l0,0C187.263,164.797,187.85,165.012,188.368,164.785L188.368,164.785L188.368,164.785
				 M201.417,150.147c0.128-0.162,0.164-0.46,0.317-0.638l0,0c0.58-0.666,1.422-1.161,1.909-1.988l0,0
				c0.223,0.042,0.415,0.117,0.637,0.159l0,0c0.524,0.836-0.095,1.73-0.637,2.307l0,0c-0.978,1.039-3.169,2.038-4.297,2.625l0,0
				C199.547,151.427,200.761,150.961,201.417,150.147 M204.28,144.101c1.354,0.289,2.128,1.16,3.103,1.83l0,0
				C206.397,145.591,204.929,145.042,204.28,144.101 M203.006,143.544c0.118,0.146,0.412,0.119,0.398,0.397l0,0
				C203.241,143.84,203.001,143.814,203.006,143.544 M187.333,131.848c1.845-3.857,4.601-6.801,7.637-9.466l0,0
				c0.129-0.021,0.138,0.075,0.239,0.079l0,0c-1.493,3.492-4.047,5.926-5.011,9.945l0,0
				C189.18,132.283,188.237,132.086,187.333,131.848 M189.641,109.176c-2.579,1.225-4.781,3.343-6.523,5.33l0,0
				c-2.429,2.769-4.969,6.287-5.251,10.501l0,0c-0.096,1.43,0.243,2.439,0.239,3.5l0,0c-0.005,0.955,0.411,1.826,0.556,2.863l0,0
				c0.208,1.475,0.233,2.438,0.638,3.422l0,0c0.285,0.693,0.854,1.215,1.193,1.987l0,0c0.114,0.262,0.065,0.537,0.159,0.796l0,0
				c0.875,2.412,2.851,3.771,4.695,5.172l0,0c1.115,0.368,1.971,1.268,3.182,1.75l0,0c0.883,0.354,2.092,0.498,3.183,0.717l0,0
				c3.299,0.661,6.768,1.123,9.467,2.307l0,0c-0.236,1.263-1.476,1.92-2.387,2.626l0,0c-3.23,2.502-7.685,4.584-13.048,4.772l0,0
				c-1.701-0.29-3.938-0.023-5.25,0.716l0,0c-0.098,0.602,0.127,0.881,0.239,1.273l0,0c0.337,0.034,0.433,0.309,0.716,0.397l0,0
				c-0.215,0.43,0.506,0.454,0.415,0.825l0,0c0.065-0.094,0.281,0.065,0.301,0.13l0,0c-0.035,0.646,0.667,0.553,0.796,1.034l0,0
				c-0.124,0.508-0.335,0.808-0.159,1.434l0,0c0.734,0.183,1.529,0.171,2.271,0.16l0,0c0.258-0.004,0.512-0.008,0.752-0.003l0,0
				c0.222,0.298-0.146,0.452,0,0.637l0,0c0.413,0.163,0.608,0.529,0.955,0.558l0,0c0.091,0.094,0.089,0.28,0.079,0.477l0,0
				c-0.25,0.081-0.375-0.021-0.464-0.121l0,0c-0.109-0.125-0.165-0.248-0.332-0.038l0,0c0.017,0.473,0.658,0.978,1.114,1.273l0,0
				c-0.094,0.303-0.292,0.504-0.398,0.795l0,0c0.205,0.061,0.336,0.192,0.398,0.397l0,0c-0.388-0.121-0.3,0.23-0.557,0.238l0,0
				c0.205-0.387-0.263-0.173-0.16,0l0,0c-0.284-0.09,0.147-0.524-0.08-0.556l0,0c-0.265,0.264-0.709,0.352-1.113,0.478l0,0
				c0.863,0.573,2.126,0.119,3.263,0.078l0,0c-0.321,0.768-1.446,0.729-2.149,1.114l0,0c0.522-0.007,0.925-0.136,1.354-0.238l0,0
				c-0.266,0.613,0.346,0.744,0.558,1.113l0,0c0.972-0.181,1.63-0.21,2.146-0.556l0,0c0.033,0.136-0.117,0.203,0,0.238l0,0
				c0.258-0.217,0.977-0.106,1.432-0.318l0,0c-0.054-0.102-0.134-0.074-0.201-0.046l0,0c-0.078,0.031-0.137,0.063-0.117-0.113l0,0
				c0.303-0.303,0.57-0.167,0.955-0.08l0,0c0.434-0.143,0.222-0.059,0.635,0l0,0c1.475-0.187,4.541-0.598,6.206-0.557l0,0
				c1.035-0.404,2.34-0.492,3.343-0.875l0,0c0.43-0.164,0.831-0.708,1.272-0.238l0,0c-0.012,0.09-0.118,0.085-0.222,0.081l0,0
				c-0.034-0.002-0.066-0.003-0.097-0.002l0,0c0.008,0.23,0.136,0.147,0.278,0.065l0,0c0.132-0.076,0.277-0.151,0.358,0.015l0,0
				c-1.596,0.912-3.309,1.258-5.568,1.432l0,0c0.021,0.241,0.205,0.181,0.393,0.119l0,0c0.163-0.052,0.332-0.104,0.402,0.04l0,0
				c-1.094,0.193-2.788,0.407-2.863,0l0,0c-0.885,0.035-1.265,0.463-1.99,0.08l0,0c-0.038,0.201-0.252,0.225-0.398,0.318l0,0
				c1.022,0.104,2.086,0,2.704,0l0,0c1.175-0.001,1.963-0.015,2.786-0.079l0,0c2.325-0.187,4.265-1.169,6.046-1.752l0,0
				c0.165-0.055,0.282-0.05,0.392-0.045l0,0c0.104,0.006,0.2,0.01,0.324-0.034l0,0c1.011-0.353,2.278-1.406,3.262-2.148l0,0
				c2.821-2.127,6.201-5.704,7.081-9.148l0,0c0.852-3.341-0.509-6.628-1.591-8.832l0,0c-0.8-1.625-1.724-3.259-2.863-4.455l0,0
				c-2.771-2.907-6.997-4.328-11.139-5.488l0,0c-0.827-0.232-1.685-0.391-2.545-0.637l0,0c-0.289-0.082-0.577-0.318-0.876-0.398l0,0
				c-2.095-0.553-4.105-0.412-6.206-1.191l0,0c2.198-5.993,6.215-10.713,11.696-13.367l0,0c1.833-0.888,4.248-1.411,6.205-1.908l0,0
				c0.511-0.131,1.159-0.078,1.591-0.239l0,0c0.616-0.231,1.103-0.825,1.83-1.114l0,0c0.389-0.405-0.2-0.952-0.318-1.352l0,0
				c-0.639,0.268-0.721-0.497-0.796-0.558l0,0c-0.038-0.03-0.124-0.027-0.214-0.024l0,0c-0.11,0.002-0.226,0.005-0.264-0.055l0,0
				c-0.187-0.305-0.046-0.348-0.477-0.397l0,0c-0.157-0.054,0.049-0.474-0.239-0.398l0,0c-0.16-0.211-0.666-0.075-0.716-0.397l0,0
				c0.231-0.799-0.016-1.485-0.318-2.148l0,0c-0.489-0.167-1.007-0.022-1.591-0.318l0,0c-0.315-0.159-0.428-0.554-0.796-0.636l0,0
				c-0.109-0.025-0.262,0.005-0.408,0.035l0,0c-0.116,0.024-0.228,0.048-0.308,0.044l0,0c-0.854-0.042-1.679-0.718-2.625-0.795l0,0
				c-0.563-0.046-1.061,0.081-1.672,0.159l0,0c-0.673-0.97-2.768-0.521-3.182-1.751l0,0c-0.692,0.083-0.982-0.236-1.272-0.556l0,0
				C194.972,107.149,191.87,108.115,189.641,109.176"/>
		</defs>
		<clipPath id="SVGID_22_">
			<use xlink:href="#SVGID_21_"  overflow="visible"/>
		</clipPath>
		<g clip-path="url(#SVGID_22_)">
			<g>
				<defs>
					
						<rect id="SVGID_23_" x="161.903" y="107.079" transform="matrix(-0.3894 -0.9211 0.9211 -0.3894 148.0291 372.2465)" width="70.99" height="59.959"/>
				</defs>
				<clipPath id="SVGID_24_">
					<use xlink:href="#SVGID_23_"  overflow="visible"/>
				</clipPath>
				
					<linearGradient id="SVGID_25_" gradientUnits="userSpaceOnUse" x1="-83.2783" y1="-167.8145" x2="-82.2783" y2="-167.8145" gradientTransform="matrix(69.2856 163.8752 163.8752 -69.2856 33411.2148 2023.9365)">
					<stop  offset="0" style="stop-color:#F7931E"/>
					<stop  offset="1" style="stop-color:#F15A22"/>
				</linearGradient>
				<polygon clip-path="url(#SVGID_24_)" fill="url(#SVGID_25_)" points="211.188,92.69 238.833,158.076 183.681,181.395 
					156.037,116.008 				"/>
			</g>
		</g>
	</g>
	<g>
		<defs>
			<path id="SVGID_26_" d="M120.427,188.651c0.006-0.094,0.005-0.185,0-0.277l0,0V188.651z M139.521,200.982
				c0.224,0.122,0.613,0.077,0.875,0.16l0,0c-0.218,0.256-0.701,0.247-1.182,0.238l0,0c-0.167-0.004-0.333-0.007-0.489,0.001l0,0
				c0.019-0.341,0.236-0.287,0.439-0.233l0,0c0.075,0.018,0.147,0.038,0.207,0.038l0,0
				C139.462,201.187,139.524,201.141,139.521,200.982 M138.566,195.893c-0.612-0.458-0.901-1.478-1.273-2.387l0,0
				c-0.412-1.007-0.81-1.969-1.034-3.104l0,0c0.915,2.108,1.741,4.305,2.785,6.285l0,0c-0.001,0-0.002,0-0.003,0l0,0
				C138.642,196.688,138.38,196.221,138.566,195.893 M120.824,185.47c0.242-0.21,0.161,0.579,0.24,0.796l0,0
				C120.776,186.209,121.026,185.612,120.824,185.47 M132.997,176.798c0.677,0.251,0.35,1.506,0.636,2.148l0,0
				c-0.086-0.019-0.054-0.159-0.159-0.16l0,0c0.331,1.978,0.843,3.772,1.273,5.649l0,0c-0.441-0.042-0.442-0.705-0.557-1.114l0,0
				c-0.373-1.328-0.95-3.278-0.875-4.852l0,0c-0.013,0.004-0.025,0.005-0.037,0.005l0,0
				C133.006,178.475,133.164,177.402,132.997,176.798 M129.02,173.536c0.083,0.792,0.218,1.532,0.238,2.388l0,0
				C129.014,175.338,128.892,174.231,129.02,173.536 M132.359,115.938c-0.267,0.001-0.535-0.031-0.807-0.063l0,0
				c-0.437-0.051-0.881-0.104-1.34-0.017l0,0c-0.735,0.839-1.967,0.906-2.944,1.432l0,0c-0.349,0.188-0.547,0.572-0.875,0.795l0,0
				c-1.267,0.868-2.692,1.514-4.216,2.068l0,0c-1.974,6.556-2.339,14.206-3.023,21.877l0,0c-0.113,1.265-0.263,2.535-0.317,3.819
				l0,0c-0.223,5.033-0.485,10.501-0.478,15.274l0,0c0.011,8.478-0.077,17.096,1.431,24.901l0,0
				c0.017-0.241,0.044-0.137,0.101-0.032l0,0c0.034,0.064,0.079,0.129,0.139,0.112l0,0c0.043,0.861,0.359,1.541,0.397,2.268l0,0
				v-0.119c0.306,1.152,0.872,2.044,0.955,3.42l0,0c0.312,0.085,0.521,0.77,0.557,1.115l0,0c0.011-0.33,0.053-0.018,0.159,0l0,0
				c-0.055,0.319,0.077,0.453,0.08,0.716l0,0c2.098,3.629,4.375,7.08,9.547,7.637l0,0c1.094,1.062,2.97,1.351,4.693,0.716l0,0
				c0.706,0.478,1.408,0.856,2.466,0.795l0,0c0.173-0.131-0.315-0.213-0.079-0.477l0,0c0.778-0.203,1.227-0.734,1.83-1.113l0,0
				c1.485,0.741,2.596-0.863,4.216-0.956l0,0c-0.042-0.372-0.158-0.211-0.158-0.556l0,0c0.648-0.122,1.616-0.345,1.67-0.797l0,0
				c-0.311,0.447-1.734,0.543-2.068,0.239l0,0c0.001-0.436,0.136-0.901,0.636-1.113l0,0c-0.734,0.045-1.379-0.001-1.591-0.478l0,0
				c0.048-0.403,0.53-0.37,0.557-0.796l0,0c-0.357,0.201-0.535-0.121-0.875-0.158l0,0c-0.391-0.044-0.773-0.019-1.136,0.009l0,0
				c-0.826,0.058-1.552,0.118-2.047-0.646l0,0c-2.164-4.429-4.272-9.981-5.25-15.593l0,0c0.394,1.761,0.979,3.568,1.512,4.854l0,0
				c1.084,2.609,2.783,5.11,4.375,7.079l0,0c1.44,1.778,2.46,3.152,4.296,4.455l0,0c0.506,0.357,1.306,1.01,1.909,0.956l0,0
				c0.232-0.021,0.443-0.354,0.875-0.559l0,0c0.537-0.254,0.932-0.38,0.875-0.874l0,0c-0.179-0.221-0.642-0.199-1.114,0l0,0
				c-0.086-0.203,0.343-0.279,0.08-0.397l0,0c-1.209,0.545-1.978-0.183-2.785-0.796l0,0c-2.297-1.748-4.267-4.585-5.808-6.683l0,0
				c-0.049,0.216,0.36,0.373,0.159,0.477l0,0c-0.219-0.153-0.37-0.373-0.319-0.795l0,0c-1.003-0.822-1.397-2.616-1.908-3.82l0,0
				c-0.532-1.247-0.706-2.863-1.035-4.056l0,0c-0.19-0.688-0.458-1.435-0.239-2.148l0,0c-0.588-2.609-0.993-5.537-1.192-8.512l0,0
				c-0.284-4.229-0.493-8.685-0.399-12.968l0,0c0.057-2.563,0.345-5.73,0.478-8.672l0,0c0.217-4.767,0.845-9.583,1.113-14.321l0,0
				c0.215-3.788,0.397-7.515,0.557-11.137l0,0c0.118-2.678,0.744-5.451-0.477-7.081l0,0c-0.14-0.032-0.274-0.046-0.405-0.046l0,0
				C134.18,115.175,133.422,115.935,132.359,115.938"/>
		</defs>
		<clipPath id="SVGID_27_">
			<use xlink:href="#SVGID_26_"  overflow="visible"/>
		</clipPath>
		<g clip-path="url(#SVGID_27_)">
			<g>
				<defs>
					
						<rect id="SVGID_28_" x="86.651" y="128.127" transform="matrix(-0.3894 -0.9211 0.9211 -0.3894 38.1804 343.1241)" width="92.339" height="61.559"/>
				</defs>
				<clipPath id="SVGID_29_">
					<use xlink:href="#SVGID_28_"  overflow="visible"/>
				</clipPath>
				
					<linearGradient id="SVGID_30_" gradientUnits="userSpaceOnUse" x1="-83.2783" y1="-167.8145" x2="-82.2783" y2="-167.8145" gradientTransform="matrix(69.2845 163.8725 163.8725 -69.2845 33346.168 2050.8965)">
					<stop  offset="0" style="stop-color:#00B7C6"/>
					<stop  offset="1" style="stop-color:#00458C"/>
				</linearGradient>
				<polygon clip-path="url(#SVGID_29_)" fill="url(#SVGID_30_)" points="143.191,104.396 179.14,189.422 122.439,213.395 
					86.491,128.368 				"/>
			</g>
		</g>
	</g>
	<g>
		<defs>
			<path id="SVGID_31_" d="M112.233,164.149c0.143,0.148-0.236,0.448-0.239,0.715l0,0
				C111.778,164.645,112.154,164.339,112.233,164.149 M113.107,162.875c-0.213,0.301,0.33,0.763-0.238,0.876l0,0
				c0.062-0.071,0.086-0.18,0.079-0.318l0,0c-0.192,0.073-0.21,0.32-0.238,0.558l0,0c-0.3-0.559,0.206-0.507,0.079-1.115l0,0
				H113.107L113.107,162.875 M113.188,162.239c0.035-0.15,0.172-0.199,0.159-0.397l0,0c0.24,0.024,0.173,0.41-0.079,0.41l0,0
				C113.242,162.252,113.215,162.248,113.188,162.239 M113.664,161.125c0.286,0.241-0.2,0.377-0.079,0.717l0,0
				C113.26,161.646,113.655,161.435,113.664,161.125 M114.46,160.011c0.242,0.1-0.086,0.275,0,0.478l0,0
				C114.166,160.426,114.396,160.161,114.46,160.011 M114.779,159.693c0.062-0.055,0.176-0.443,0-0.477l0,0
				c0.093-0.131,0.21,0.044,0.226,0.216l0,0c0.01,0.132-0.038,0.263-0.196,0.263l0,0C114.8,159.695,114.789,159.694,114.779,159.693
				 M115.573,156.114c0.291,0.12-0.005,0.411,0.16,0.716l0,0c-0.008,0.001-0.018,0.001-0.025,0.001l0,0
				C115.424,156.831,115.644,156.327,115.573,156.114 M116.21,152.772c0.033,0.191-0.146,0.172-0.078,0.397l0,0
				c0.08-0.149,0.415-0.008,0.078,0l0,0c0.129,0.537,0.178,0.903-0.158,1.193l0,0c-0.058-0.243,0.137-0.233,0.08-0.478l0,0
				c-0.239-0.079-0.142,0.178-0.159,0.318l0,0c-0.073,0.081-0.1-0.135-0.071-0.35l0,0c0.027-0.194,0.1-0.389,0.23-0.366l0,0
				C116.059,153.394,115.908,152.734,116.21,152.772 M116.29,150.863c0.337,0.744,0.292,1.104,0.079,1.988l0,0
				C116.335,152.164,116.435,151.544,116.29,150.863 M115.414,150.067c0.361,0.072,0.072,0.721,0.08,0.955l0,0
				C115.267,150.728,115.58,150.372,115.414,150.067 M115.414,149.192c0.191,0.275,0.223,0.402,0.159,0.795l0,0
				C115.437,149.807,115.403,149.521,115.414,149.192 M85.024,156.033c-0.682-7.143-1.239-13.88,1.75-18.457l0,0
				c0.768-1.175,2.449-2.857,3.739-3.578l0,0c1.055-0.592,3.126-1.307,4.773-1.354l0,0c0.757-0.021,3.002,0.031,3.819,0.397l0,0
				c0.645,0.289,1.115,1.433,1.432,1.989l0,0c0.426,0.749,0.933,1.585,1.193,2.228l0,0c2.747,6.752,0.225,15.179-2.546,19.889l0,0
				c-3.18,5.406-7.483,9.389-11.854,12.729l0,0C86.27,166.249,85.519,161.204,85.024,156.033 M69.829,138.929
				c-0.155,3.276-0.13,6.808,0.08,10.185l0,0c0.688,11.106,3.442,20.863,5.569,30.471l0,0c-1.954,1.652-4.304,2.908-6.604,4.215l0,0
				c0.064,0.276-0.118,0.307-0.079,0.558l0,0c0.6-0.005,0.875-0.326,1.352-0.24l0,0c-0.278,0.119-0.58,0.217-0.716,0.479l0,0
				c0.026,0.076,0.131,0.073,0.236,0.071l0,0c0.112-0.002,0.224-0.005,0.242,0.087l0,0c-0.273,0.059,0.028,0.452-0.319,0.558l0,0
				c0.339,0.536,1.001,0.748,0.956,1.671l0,0c0.482,0.456,1.326,0.263,1.909,0l0,0c0.178,0.197,0.909,0.404,0.478,0.715l0,0
				c0.406-0.157,0.633,0.032,0.955,0.159l0,0c0.888-0.521,1.232,0.199,1.671,0.557l0,0c0.282,0.23,0.684,0.332,0.875,0.557l0,0
				c0.202,0.239,0.263,0.645,0.477,0.876l0,0c0.191,0.206,0.558,0.271,0.715,0.478l0,0c0.344,0.451,0.462,0.837,0.955,1.033l0,0
				c2.405,7.725,4.044,16.219,7.558,22.834l0,0c0.207-0.011,0.339,0.056,0.471,0.119l0,0c0.135,0.064,0.27,0.133,0.483,0.118l0,0
				c0.047,0.167,0.168,0.259,0.239,0.397l0,0c0.402-0.248,0.411,0.245,0.717,0.318l0,0c0.265-0.076,0.477-0.043,0.656-0.009l0,0
				c0.214,0.04,0.382,0.08,0.537-0.07l0,0c0.058,0.182,0.071,0.406,0.159,0.557l0,0c1.256,0.548,2.576-0.3,4.297-0.318l0,0
				c0.099,0.246,0.196,0.494,0.397,0.639l0,0c-0.037-0.305,0.033-0.498,0.238-0.559l0,0c0.551,0.245,0.793,0.8,1.194,1.194l0,0
				c0.437-0.01,0.653-0.313,0.875,0.079l0,0c0.188-0.085-0.171-0.366,0.079-0.477l0,0c0.253,0.119,0.414,0.646,1.035,0.795l0,0
				c0.08-0.127,0.075-0.32,0.239-0.159l0,0c0-0.143-0.215-0.464,0-0.557l0,0c0.14,0.443,0.298,0.866,0.715,1.033l0,0
				c0.013-0.341,0.075-0.226,0.179-0.11l0,0c0.059,0.065,0.132,0.132,0.219,0.11l0,0c0.112-0.381-0.229-0.72,0-0.954l0,0
				c0.297,0.664,0.984,0.364,1.671,0.557l0,0c0.074-0.377,0.054-0.847,0.159-1.193l0,0c-1.646-3.931-3.353-8.063-4.455-12.41l0,0
				c-1.495-5.893-3.762-11.729-5.091-17.821l0,0c6.06-4.096,11.844-8.469,16.546-13.923l0,0c0.023,0.075,0.216,0.075,0.239,0l0,0
				c0.01-0.385,0.362-0.523,0.478-0.875l0,0c0.009-0.028-0.253-0.114-0.239-0.238l0,0c0.022-0.196,0.517-0.41,0.478-0.637l0,0
				c0.048,0.142-0.232,0.331,0,0.397l0,0c0.384-0.067,0.765-0.559,0.638-0.874l0,0c-0.121,0.119-0.024,0.453-0.319,0.397l0,0
				c-0.03-0.61,0.36-0.57,0.557-0.796l0,0c0-0.101-0.046-0.072-0.089-0.041l0,0c-0.052,0.036-0.102,0.072-0.069-0.117l0,0
				c0.168-0.12,0.262-0.626,0.477-0.239l0,0c-0.003-0.828,0.781-1.274,1.114-2.147l0,0c0.025,0.461-0.354,0.72-0.159,1.112l0,0
				c-0.319,0.03-0.196,0.052-0.478,0.16l0,0c0.177,0.509-0.547,0.736-0.159,0.955l0,0c0.237-0.666,1.065-1.162,0.955-1.909l0,0
				c0.003,0.144-0.168,0.508-0.239,0.317l0,0c0.165-0.253,0.612-0.936,0.239-0.796l0,0c0.031-0.26,0.069-0.515,0.317-0.557l0,0
				c0.008,0.125-0.01,0.275,0.159,0.239l0,0c-0.158-0.358-0.034-0.872,0.239-1.035l0,0c0.164,0.248-0.027,0.615,0.318,0.319l0,0
				c-0.095,0.117-0.069,0.354-0.318,0.317l0,0c-0.014-0.119,0.028-0.294-0.08-0.317l0,0c-0.082,0.287-0.077,0.697,0,0.954l0,0
				c0.565-0.544,0.403-1.237,0.796-1.671l0,0c0.018,0.149-0.09,0.176-0.079,0.318l0,0c0.498-0.501,0.922-1.215,0.795-1.91l0,0
				c0.143-0.046,0.194,0.009,0.229,0.064l0,0c0.041,0.066,0.056,0.133,0.168,0.017l0,0c0.123-0.388-0.23-0.3-0.238-0.558l0,0
				c0.232-0.112,0.217-0.472,0.398-0.636l0,0c0.021,0.236-0.224,0.484,0.08,0.557l0,0c0.152-0.697,0.755-1.365,0.795-1.91l0,0
				c0.046,0.004-0.308-0.848,0-1.033l0,0c-0.028,0.318,0.001,0.582,0.238,0.635l0,0c0.4-0.468-0.06-0.752,0.08-1.192l0,0
				c0.16,0.051,0.052,0.372,0.238,0.398l0,0c0.16-0.438-0.22-0.696,0-1.194l0,0c0.075-0.002,0.118,0.014,0.147,0.029l0,0
				c0.056,0.028,0.067,0.058,0.17-0.029l0,0c0.307-1.466,1.014-3.454,0.876-4.614l0,0c0.129,0.023,0.125,0.118,0.159-0.079l0,0
				c0.157-0.911,0.317-2.22,0.078-3.103l0,0c0.198-0.778,0.236-2.28-0.158-2.944l0,0c0.2-0.515,0.045-1.286-0.238-1.75l0,0
				c0.003,0.24,0.214,0.682,0,0.876l0,0c-0.104-0.698,0.156-1.754-0.397-1.83l0,0c-0.075-0.64-0.026-0.537-0.319-1.034l0,0
				c0.047-0.018,0.087,0.029,0.121,0.077l0,0c0.053,0.069,0.092,0.14,0.119,0.002l0,0c-0.739-0.588-0.582-2.071-1.513-2.466l0,0
				c0.247-0.559-0.531-0.728-0.477-1.353l0,0c-0.055-0.1-0.132-0.075-0.197-0.048l0,0c-0.06,0.024-0.111,0.05-0.122-0.031l0,0
				c0.229-0.46-0.54-0.982-0.636-1.114l0,0c0.032-0.003,0.057,0.011,0.077,0.024l0,0c0.037,0.025,0.06,0.051,0.082-0.024l0,0
				c-0.355-0.097-0.364-0.539-0.557-0.796l0,0c-0.02,0.087-0.132,0.191-0.159,0.08l0,0c0.005-0.643-0.74-0.534-0.717-1.194l0,0
				c-0.374-0.043-0.752-0.362-0.874-0.874l0,0c-0.481-0.289-0.803-0.735-1.114-1.194l0,0c-0.089,0.016-0.133-0.015-0.177-0.045l0,0
				c-0.051-0.035-0.101-0.07-0.221-0.035l0,0c-2.463-2.974-6.397-4.475-10.024-6.284l0,0h-0.478c-0.649-0.569-1.5-0.582-2.148-1.035
				l0,0c-3.816-0.924-7.033-2.186-11.376-2.465l0,0c-0.148-0.011-0.308-0.005-0.471,0l0,0c-0.161,0.004-0.325,0.009-0.484,0l0,0
				c-0.371-0.022-0.736-0.033-1.093-0.033l0,0C74.776,124.736,70.223,130.627,69.829,138.929"/>
		</defs>
		<clipPath id="SVGID_32_">
			<use xlink:href="#SVGID_31_"  overflow="visible"/>
		</clipPath>
		<g clip-path="url(#SVGID_32_)">
			<g>
				<defs>
					
						<rect id="SVGID_33_" x="40.216" y="130.571" transform="matrix(-0.3894 -0.9211 0.9211 -0.3894 -29.0739 321.9327)" width="103.905" height="80.064"/>
				</defs>
				<clipPath id="SVGID_34_">
					<use xlink:href="#SVGID_33_"  overflow="visible"/>
				</clipPath>
				
					<linearGradient id="SVGID_35_" gradientUnits="userSpaceOnUse" x1="-83.2783" y1="-167.8145" x2="-82.2783" y2="-167.8145" gradientTransform="matrix(69.2854 163.8745 163.8745 -69.2854 33312.2031 2065.0986)">
					<stop  offset="0" style="stop-color:#00B7C6"/>
					<stop  offset="1" style="stop-color:#00458C"/>
				</linearGradient>
				<polygon clip-path="url(#SVGID_34_)" fill="url(#SVGID_35_)" points="108.829,107.208 149.272,202.865 75.55,234.035 
					35.106,138.378 				"/>
			</g>
		</g>
	</g>
	<g>
		<defs>
			<path id="SVGID_36_" d="M178.503,176.798c0.312-0.073,0.058,0.42,0.239,0.479l0,0c-0.01,0.019-0.022,0.027-0.036,0.027l0,0
				C178.625,177.304,178.487,176.979,178.503,176.798 M178.106,175.207c0.417,0.479,0.165,1.151,0.477,1.113l0,0
				c0.296,0.226-0.214,0.312-0.238,0.478l0,0C178.231,176.192,178.179,175.676,178.106,175.207 M176.515,174.094
				c0.229,0.701,0.699,2.533,0.875,3.818l0,0C176.882,176.854,176.707,175.465,176.515,174.094 M177.151,171.786
				c0.135-0.035,0.176,0.111,0.197,0.257l0,0c0.025,0.171,0.024,0.342,0.121,0.221l0,0c0.215-0.151-0.097,0.178-0.079,0.318l0,0
				C177.292,172.334,177.146,172.137,177.151,171.786 M177.072,170.91c0.139,0.153,0.297,0.286,0.556,0.319l0,0v0.317
				c-0.187,0.002-0.261-0.059-0.315-0.12l0,0c-0.06-0.069-0.096-0.137-0.241-0.117l0,0V170.91z M164.899,129.94
				c-0.783,3.989-1.557,7.887-2.466,11.694l0,0c-1.147,4.798-2.16,9.611-3.739,14.162l0,0c0.197-0.785-0.234-0.246,0,0.158l0,0
				c-0.435,0.366-0.396,1.011-0.557,1.512l0,0c-1.18,3.677-2.64,7.68-3.898,10.979l0,0c-0.211,1.009-0.504,1.937-0.954,2.705l0,0
				c-0.231-4.817-0.441-9.395-0.478-14.319l0,0c0.159-0.244,0.37,0.057,0.397-0.318l0,0c0.009-0.974-0.035-1.889-0.079-2.784l0,0
				c-0.06-1.195-0.485-2.378-0.478-3.263l0,0c0.006-0.626,0.521-1.269-0.159-1.671l0,0c-0.175,0.143-0.194,0.442-0.318,0.637l0,0
				c-0.153-1.146-0.7-1.898-1.433-2.466l0,0c-0.491-0.164-0.746-0.092-1.035-0.398l0,0c-0.467,0.34-0.529-0.124-1.033-0.158l0,0
				c-0.396,0.179-0.589,0.076-0.955,0.238l0,0c-0.521-0.581-1.627-1.289-2.387-0.716l0,0c-0.821-0.257-1.425-0.239-1.751,0.239l0,0
				c-0.101-0.033-0.176-0.033-0.242-0.032l0,0c-0.105,0-0.188,0.001-0.314-0.128l0,0c0.157,0.285-0.037,0.425,0,0.796l0,0
				c-0.476,0.205-0.769,0.187-1.034,0.079l0,0c-0.213,0.292-0.49,0.518-0.638,0.876l0,0c-0.347-0.388-0.583,0.394-0.954,0.477l0,0
				c-0.198-0.368-0.514-0.24-0.825-0.111l0,0c-0.259,0.107-0.512,0.214-0.688,0.032l0,0c-0.102,3.889,0.121,8.456,0.239,11.694l0,0
				c0.139,3.808,0.223,7.687,0.398,11.457l0,0c0.157,3.376,1.203,9.028,2.943,11.694l0,0c0.579,0.885,1.415,1.756,2.625,1.83l0,0
				c1.265,1.235,2.638,3.187,4.934,2.863l0,0c1.266,1.015,3.217,1.343,5.251,1.591l0,0c0.423-0.656,1.512-0.418,2.227-0.159l0,0
				c1.356-0.738,2.269-1.919,3.024-3.262l0,0c0.607-0.266,1.034-0.714,1.59-1.033l0,0c1.222-1.573,2.208-3.508,3.024-5.33l0,0
				c0.285-0.64,0.482-1.321,0.955-1.83l0,0c0.146,0.224,0.41,0.331,0.398,0.715l0,0c-0.226-0.167-0.302,0.007-0.416,0.182l0,0
				c-0.102,0.159-0.236,0.317-0.54,0.216l0,0c0.021,0.271-0.062,0.646,0.08,0.798l0,0c0.657-0.113,0.697-0.842,1.113-1.195l0,0
				c0.583,0.844,1.683,1.435,2.785,1.513l0,0c0.465,0.913,1.547,1.212,2.069,2.068l0,0c0.535-0.417,0.812,0.271,1.272,0.398l0,0
				c0.508-0.189,0.685-0.112,1.114,0.079l0,0c0.126-0.385-0.65-0.927-0.398-1.433l0,0c0.917,0.817,1.217,2.639,2.863,2.466l0,0
				c0.211,0.215,0.333,0.516,0.716,0.557l0,0c0.192-0.099,0.276-0.306,0.636-0.238l0,0c0.745,0.587,1.427,0.852,2.466,1.035l0,0
				c-0.05-0.295-0.216-0.475-0.158-0.876l0,0c0.111-0.114,0.204-0.075,0.318-0.036l0,0c0.068,0.024,0.146,0.047,0.238,0.036l0,0
				c-0.203-0.663-0.775-1.319-1.034-1.669l0,0c0.075-0.63-0.291-1.151-0.396-1.593l0,0c-0.108-0.442,0.041-0.921-0.24-1.192l0,0
				c0.049,0.021,0.307,0.197,0.319,0l0,0c-0.062-0.066-0.118-0.054-0.165-0.04l0,0c-0.062,0.014-0.113,0.031-0.154-0.12l0,0
				c0.216-0.665-0.252-0.775-0.159-1.113l0,0c0.174-0.127,0.265,0.139,0.346,0.403l0,0c0.081,0.271,0.153,0.544,0.291,0.392l0,0
				c-0.263,0.624,0.229,1.137,0.477,1.512l0,0c0.201,0.94,0.518,2.187,1.193,2.387l0,0c-0.571-0.472-0.446-0.994-0.557-1.671l0,0
				c-0.312-1.902-1.134-3.791-1.591-5.728l0,0c-1.147-4.857-1.504-9.692-1.75-15.037l0,0c-0.326-7.11-0.655-14.561,0.08-21.718l0,0
				c0-0.167,0.486-0.491,0.08-0.557l0,0c-0.227-0.144-0.226,0.62-0.399,0.795l0,0c0.023-0.656,0.113-1.13,0.239-1.829l0,0
				c-0.693-0.557-1.646-0.28-2.307-0.559l0,0c-0.261-0.268-0.553-0.506-1.033-0.556l0,0c-0.238-0.836,0.556-1.64,0.318-2.388l0,0
				c-0.229-0.715-1.8-0.829-2.387-1.272l0,0c-0.089-0.067-0.14-0.343-0.238-0.397l0,0c-0.209-0.113-0.682-0.061-0.876-0.16l0,0
				c-0.228-0.113-0.039-0.191-0.239-0.236l0,0c-0.097-0.023-0.204-0.012-0.304,0l0,0c-0.101,0.011-0.192,0.023-0.252,0l0,0
				c-0.351-0.137-0.574-0.632-0.955-0.478l0,0c-0.078-0.189-0.026-0.506-0.319-0.479l0,0c-0.183-0.022-0.286,0.034-0.389,0.089l0,0
				c-0.121,0.065-0.242,0.129-0.485,0.07l0,0c-0.772-0.473-1.348-1.145-2.546-1.193l0,0
				C165.146,129.762,165.04,129.868,164.899,129.94"/>
		</defs>
		<clipPath id="SVGID_37_">
			<use xlink:href="#SVGID_36_"  overflow="visible"/>
		</clipPath>
		<g clip-path="url(#SVGID_37_)">
			<g>
				<defs>
					
						<rect id="SVGID_38_" x="124.033" y="129.49" transform="matrix(-0.3894 -0.9211 0.9211 -0.3894 74.0738 369.8216)" width="71.167" height="61.738"/>
				</defs>
				<clipPath id="SVGID_39_">
					<use xlink:href="#SVGID_38_"  overflow="visible"/>
				</clipPath>
				
					<linearGradient id="SVGID_40_" gradientUnits="userSpaceOnUse" x1="-83.2783" y1="-167.8145" x2="-82.2783" y2="-167.8145" gradientTransform="matrix(69.2848 163.8734 163.8734 -69.2848 33370.7188 2041.7969)">
					<stop  offset="0" style="stop-color:#8CC63F"/>
					<stop  offset="1" style="stop-color:#009445"/>
				</linearGradient>
				<polygon clip-path="url(#SVGID_39_)" fill="url(#SVGID_40_)" points="174.191,115.563 201.895,181.087 145.03,205.129 
					117.327,139.605 				"/>
			</g>
		</g>
	</g>
	<g>
		<defs>
			<path id="SVGID_41_" d="M107.618,102.094c0.176,0.01,0.035,0.338,0.079,0.478l0,0
				C107.479,102.571,107.509,102.197,107.618,102.094 M107.221,98.355c0.136-0.052,0.063,0.782,0.159,1.034l0,0
				C107.074,99.298,107.28,98.692,107.221,98.355 M107.142,97.003c0.184,0.081,0.164,0.366,0.158,0.637l0,0
				C107.053,97.622,107.166,97.243,107.142,97.003 M102.446,32.801c-0.731,0.929-0.762,1.929-0.953,3.42l0,0
				c-1.392,10.779-4.1,20.275-5.331,30.868l0,0c-0.679,5.854-1.726,11.274-2.386,16.866l0,0c-0.673,5.695-1.535,11.709-1.273,17.662
				l0,0c0.337,7.665,1.625,14.797,7.956,16.309l0,0c0.24-0.023-0.28-0.334,0-0.397l0,0c0.486,0.257,1.201,0.284,1.59,0.637l0,0
				c0.458-0.13-0.616-0.412-0.317-0.637l0,0c3.611,1.507,7.617,1.779,11.773,1.432l0,0c-0.001-0.41-0.171-0.693,0.08-0.955l0,0
				c1.463-0.158,3.443,0.185,4.058-1.273l0,0c-0.723-0.513-1.535-0.532-2.229-0.954l0,0c-2.223-1.357-3.396-4.571-5.17-6.286l0,0
				c-0.01-0.321-0.086-0.401-0.16-0.795l0,0c-0.21,0.114-0.509-0.294-0.636-0.557l0,0c-0.562-1.152-0.777-2.958-1.273-4.295l0,0
				c0.107-0.909-0.224-1.479-0.318-2.228l0,0c-0.258-2.059-0.121-4.26-0.159-6.444l0,0c-0.034-2.013,0.039-4.144,0.239-6.046l0,0
				c0.431-4.086,0.779-8.177,1.354-12.013l0,0c0.596-3.997,1.311-7.993,1.829-12.013l0,0c1.051-8.146,2.746-15.869,3.818-23.788l0,0
				c0.422-3.114,0.808-6.33,0.796-9.626l0,0c-0.004-0.93-0.089-2.066-0.637-2.863l0,0C110.248,29.517,106.85,31.662,102.446,32.801"
				/>
		</defs>
		<clipPath id="SVGID_42_">
			<use xlink:href="#SVGID_41_"  overflow="visible"/>
		</clipPath>
		<g clip-path="url(#SVGID_42_)">
			<g>
				<defs>
					
						<rect id="SVGID_43_" x="58.639" y="44.822" transform="matrix(-0.3894 -0.9211 0.9211 -0.3894 77.8772 199.8039)" width="93.051" height="58.535"/>
				</defs>
				<clipPath id="SVGID_44_">
					<use xlink:href="#SVGID_43_"  overflow="visible"/>
				</clipPath>
				
					<linearGradient id="SVGID_45_" gradientUnits="userSpaceOnUse" x1="-83.2783" y1="-167.8145" x2="-82.2783" y2="-167.8145" gradientTransform="matrix(69.2848 163.8732 163.8732 -69.2848 33356.5586 2046.8428)">
					<stop  offset="0" style="stop-color:#8CC63F"/>
					<stop  offset="1" style="stop-color:#009445"/>
				</linearGradient>
				<polygon clip-path="url(#SVGID_44_)" fill="url(#SVGID_45_)" points="113.996,19.842 150.198,105.467 96.292,128.258 
					60.09,42.633 				"/>
			</g>
		</g>
	</g>
	<g>
		<defs>
			<path id="SVGID_46_" d="M73.966,72.102c-0.819-0.226-1.316,0.533-1.831,0.875l0,0c-0.036-0.256-0.045-0.123-0.088,0.009l0,0
				c-0.028,0.089-0.072,0.178-0.149,0.15l0,0c-0.136-0.05-0.132-0.24-0.239-0.318l0,0c-2.392,9.368-4.323,20.249-4.216,31.345l0,0
				c0.097,0.065,0.137-0.001,0.161-0.068l0,0c0.028-0.08,0.031-0.159,0.078-0.012l0,0c-0.126,0.248,0.167,0.32,0.239,0.557l0,0
				c0.283,0.932,0.121,2.478,0.239,3.66l0,0c0.395-0.147,0.622-0.028,0.876,0.093l0,0c0.209,0.098,0.438,0.196,0.794,0.145l0,0
				c0.125,0.194,0.297,0.341,0.239,0.716l0,0c0.23-0.364,0.513-0.972,1.193-0.636l0,0c0.21,1.028-0.032,1.817,0.239,2.625l0,0
				c-0.011-0.03,0.058,0.027,0.125,0.084l0,0c0.071,0.062,0.142,0.123,0.114,0.075l0,0c0.379,0.633,0.487,1.692,0.796,2.546l0,0
				c0.74,0.242,1.035,0.929,1.989,0.955l0,0c0.498,0.669,0.771,1.564,1.273,2.228l0,0c0.249,0.096,0.53,0.159,0.795,0.238l0,0
				c0.583,1.222,2.079,1.527,2.864,2.547l0,0c0.715-0.444,0.372-1.475,0.557-2.388l0,0c0.171,0.175,0.037,0.653,0.239,0.796l0,0
				c0.05-0.582-0.239-1.244,0-1.751l0,0c0.08,0.929-0.061,2.077,0.318,2.706l0,0c-0.133-0.928-0.084-2.707-0.08-3.262l0,0
				c0.336,0.798-0.072,2.347,0.319,3.262l0,0c0.125-2.106-0.017-4.078,0.079-6.126l0,0c0.098-2.103,0.762-4.117,1.034-6.206l0,0
				c0.19-1.459,0.184-2.963,0.239-4.455l0,0c0.201-5.41,0.603-11.036,1.352-16.787l0,0c0.697-5.352,1.156-10.88,2.705-15.195l0,0
				c-0.432-0.543,0.129-2.282-0.795-2.706l0,0C80.859,68.213,77.008,69.787,73.966,72.102"/>
		</defs>
		<clipPath id="SVGID_47_">
			<use xlink:href="#SVGID_46_"  overflow="visible"/>
		</clipPath>
		<g clip-path="url(#SVGID_47_)">
			<g>
				<defs>
					
						<rect id="SVGID_48_" x="49.278" y="74.783" transform="matrix(-0.3894 -0.9211 0.9211 -0.3894 20.8207 200.7301)" width="55.332" height="37.362"/>
				</defs>
				<clipPath id="SVGID_49_">
					<use xlink:href="#SVGID_48_"  overflow="visible"/>
				</clipPath>
				
					<linearGradient id="SVGID_50_" gradientUnits="userSpaceOnUse" x1="-83.2783" y1="-167.8145" x2="-82.2783" y2="-167.8145" gradientTransform="matrix(69.2841 163.8715 163.8715 -69.2841 33326.5898 2059.0674)">
					<stop  offset="0" style="stop-color:#F7931E"/>
					<stop  offset="1" style="stop-color:#F15A22"/>
				</linearGradient>
				<polygon clip-path="url(#SVGID_49_)" fill="url(#SVGID_50_)" points="83.384,60.724 104.868,111.538 70.466,126.083 
					48.982,75.268 				"/>
			</g>
		</g>
	</g>
</g>
<path fill="#0082AF" d="M700.585,114.585c0,4.082-4.184,6.479-7.871,6.479c-3.187,0-6.424-1.645-6.424-5.184
	c0-4.384,3.98-6.176,8.018-6.176c2.191,0,4.037,0.299,6.277,1.542V114.585z M703.376,124.203c0.896,0,1.693-0.898,1.693-1.848
	c0-0.598-0.352-1.194-0.942-1.44c0,0-0.353-0.149-0.353-0.65v-13.598c0-1.399-0.049-2.842-0.496-3.987
	c-1.449-3.738-5.581-4.883-9.716-4.883c-2.393,0-4.831,0.45-6.674,1.145c-0.65,0.248-1.101,0.845-1.101,1.497
	c0,0.896,0.648,1.54,1.548,1.54c0.197,0,0.495-0.049,0.693-0.1c2-0.543,3.539-0.894,5.728-0.894c2.892,0,5.733,0.647,6.527,2.839
	c0.154,0.4,0.301,1.795,0.301,2.94v1.396c-1.596-0.996-3.985-1.644-6.123-1.644c-6.083,0-11.361,2.938-11.361,9.413
	c0,5.382,4.582,8.273,9.516,8.273c2.94,0,6.576-1.548,7.969-4.088c0,0.501,0,1.1,0.104,1.493
	C701.038,122.954,701.932,124.203,703.376,124.203 M666.61,98.048c-0.896,0-1.696,0.647-1.696,1.59c0,0.599,0.35,1.196,0.948,1.447
	c0,0,0.35,0.15,0.35,0.645v18.535c0,0.501-0.35,0.65-0.35,0.65c-0.599,0.247-0.948,0.843-0.948,1.44c0,0.95,0.8,1.597,1.696,1.597
	c1.846,0,2.791-1.597,2.791-3.486v-14.75c0-3.139,2.988-4.632,5.828-4.632c1.146,0,2.39,0.25,3.438,0.596
	c1.043,0.347,2.192-0.297,2.192-1.493c0-0.849-0.45-1.347-1.098-1.594c-1.496-0.546-3.04-0.797-4.533-0.797
	c-2.438,0-4.785,1.145-6.028,3.09c0-0.448-0.098-0.898-0.146-1.047C668.65,98.793,667.806,98.048,666.61,98.048 M648.023,90.571
	c-0.889,0-1.691,0.65-1.691,1.597c0,0.599,0.35,1.193,0.948,1.444c0,0,0.35,0.149,0.35,0.646v3.79h-1.693
	c-0.848,0-1.396,0.793-1.396,1.59c0,0.85,0.597,1.597,1.594,1.597h1.495v13.35c0,5.828,2.043,9.367,7.324,9.367
	c1.393,0,2.688-0.25,3.788-0.599c1.092-0.347,1.292-1.245,1.092-1.99c-0.198-0.799-1.043-1.347-2.04-1.099
	c-0.849,0.25-1.94,0.501-2.84,0.501c-3.639,0-4.141-3.09-4.141-6.18v-13.35h5.484c0.846,0,1.594-0.647,1.594-1.597
	c0-0.797-0.551-1.59-1.398-1.59h-5.68v-3.987C650.813,92.168,649.871,90.571,648.023,90.571 M621.077,101.73l6.825,9.418
	l-6.628,9.019c-0.197,0.299-0.447,0.448-0.797,0.448c-0.894,0-1.492,0.797-1.492,1.691c0,1.047,1.043,1.646,2.043,1.646
	c1.243-0.049,2.089-0.898,2.785-1.844l5.982-7.972l5.978,7.972c0.699,0.945,1.542,1.795,2.791,1.844
	c0.991,0,2.043-0.599,2.043-1.646c0-0.894-0.6-1.691-1.499-1.691c-0.347,0-0.596-0.149-0.796-0.448l-6.628-9.019l6.828-9.418
	c0.2-0.195,0.449-0.395,0.75-0.395c0.892,0,1.542-0.748,1.542-1.548c-0.052-1.092-1-1.739-1.994-1.739
	c-1.246,0-2.144,0.894-2.84,1.841l-6.175,8.218l-6.181-8.218c-0.698-0.947-1.59-1.841-2.839-1.841c-0.997,0-1.94,0.647-1.994,1.739
	c0,0.801,0.652,1.548,1.547,1.548C620.627,101.335,620.876,101.535,621.077,101.73 M613.455,112.595c0.845,0,1.69-0.699,1.69-1.649
	c0-6.824-5.026-13.149-12.258-13.149c-7.167,0-12.149,6.378-12.149,13.149c0,7.077,4.982,13.256,12.149,13.256
	c4.538,0,7.779-1.347,10.02-3.736c0.299-0.299,0.447-0.699,0.447-1.149c0-0.845-0.797-1.493-1.593-1.493
	c-0.453,0-0.897,0.15-1.247,0.499c-1.645,1.642-4.137,2.689-7.627,2.689c-4.68,0-8.267-4.036-8.914-8.417H613.455z M593.974,109.405
	c0.498-4.436,4.338-8.42,8.914-8.42c4.688,0,8.421,3.984,9.02,8.42H593.974z M557.01,101.134c5.33,0,8.819,4.335,8.819,9.165
	c0,5.185-3.636,8.619-8.917,8.619c-5.332,0-8.917-3.583-8.917-8.57C547.995,105.417,551.678,101.134,557.01,101.134 M568.368,98.048
	c-1.845,0-2.785,1.59-2.785,3.487v1.294c0,0-2.892-4.781-8.819-4.781c-7.077,0-12.158,5.679-12.158,12.353
	c0,6.827,5.132,11.559,12.104,11.559c6.479,0,8.874-4.135,8.874-4.135v2.739c0,5.229-2.892,8.819-8.771,8.819
	c-3.938,0-7.723-2.442-7.723-2.442c-0.249-0.149-0.599-0.198-0.848-0.198c-0.948,0-1.594,0.696-1.594,1.593
	c0,0.498,0.198,0.898,0.797,1.295c0,0,3.837,2.79,9.418,2.79c5.929,0,11.906-2.79,11.906-11.857V101.73
	c0-0.495,0.344-0.645,0.344-0.645c0.599-0.25,0.951-0.848,0.951-1.447C570.064,98.695,569.263,98.048,568.368,98.048
	 M538.179,123.952c0.896,0,1.693-0.647,1.693-1.597c0-0.598-0.347-1.194-0.945-1.44c0,0-0.353-0.149-0.353-0.65v-10.46
	c0-7.424-3.736-11.756-11.058-11.756c-4.828,0-7.318,3.682-7.57,4.13v-0.894c0-2.043-1.1-3.236-2.84-3.236
	c-0.896,0-1.65,0.745-1.65,1.69c0,0.599,0.353,1.247,0.951,1.497c0,0,0.353,0.1,0.353,0.595v18.435c0,0.501-0.353,0.65-0.353,0.65
	c-0.599,0.247-0.951,0.843-0.951,1.44c0,0.95,0.803,1.597,1.699,1.597c1.846,0,2.791-1.597,2.791-3.486v-11.81
	c0-4.38,3.289-7.421,7.57-7.421c5.779,0,7.871,3.435,7.871,8.169v11.062C535.388,122.355,536.333,123.952,538.179,123.952
	 M506.35,92.066c1.29,0,2.339-1.047,2.339-2.338c0-1.249-1.101-2.248-2.339-2.248c-1.249,0-2.298,0.999-2.298,2.296
	C504.052,91.019,505.101,92.066,506.35,92.066 M508.041,123.952c0.896,0,1.69-0.647,1.69-1.597c0-0.598-0.35-1.194-0.943-1.44
	c0,0-0.352-0.149-0.352-0.65v-18.73c0-1.896-0.946-3.487-2.791-3.487c-0.897,0-1.693,0.647-1.693,1.59
	c0,0.599,0.352,1.196,0.948,1.447c0,0,0.35,0.15,0.35,0.645v18.736C505.25,122.355,506.195,123.952,508.041,123.952
	 M493.241,110.647c0,5.034-3.287,10.119-8.717,10.119c-5.381,0-8.719-5.133-8.719-10.066c0-5.032,3.39-9.513,8.719-9.513
	C489.708,101.187,493.241,105.62,493.241,110.647 M496.032,123.952c0.896,0,1.696-0.647,1.696-1.597c0-0.598-0.35-1.194-0.948-1.44
	c0,0-0.348-0.149-0.348-0.65V91.169c0-0.497,0.348-0.647,0.348-0.647c0.599-0.25,0.948-0.845,0.948-1.444
	c0-0.945-0.8-1.597-1.696-1.597c-1.84,0-2.791,1.597-2.791,3.49v11.709c-1.493-3.042-5.43-4.632-8.769-4.632
	c-6.871,0-11.854,5.477-11.854,12.652c0,7.073,4.831,13.252,11.409,13.252h0.444c3.39,0,6.929-1.646,8.769-4.784v1.298
	C493.241,122.355,494.192,123.952,496.032,123.952 M463.899,110.647c0,5.034-3.286,10.119-8.719,10.119
	c-5.379,0-8.717-5.133-8.717-10.066c0-5.032,3.39-9.513,8.717-9.513C460.363,101.187,463.899,105.62,463.899,110.647
	 M466.69,123.952c0.896,0,1.69-0.647,1.69-1.597c0-0.598-0.347-1.194-0.942-1.44c0,0-0.347-0.149-0.347-0.65V91.169
	c0-0.497,0.347-0.647,0.347-0.647c0.596-0.25,0.942-0.845,0.942-1.444c0-0.945-0.794-1.597-1.69-1.597
	c-1.846,0-2.791,1.597-2.791,3.49v11.709c-1.495-3.042-5.427-4.632-8.768-4.632c-6.874,0-11.857,5.477-11.857,12.652
	c0,7.073,4.831,13.252,11.413,13.252h0.444c3.39,0,6.923-1.646,8.768-4.784v1.298C463.899,122.355,464.845,123.952,466.69,123.952
	 M434.306,114.585c0,4.082-4.181,6.479-7.868,6.479c-3.191,0-6.427-1.645-6.427-5.184c0-4.384,3.988-6.176,8.022-6.176
	c2.192,0,4.032,0.299,6.272,1.542V114.585z M437.097,124.203c0.899,0,1.696-0.898,1.696-1.848c0-0.598-0.35-1.194-0.948-1.44
	c0,0-0.347-0.149-0.347-0.65v-13.598c0-1.399-0.052-2.842-0.501-3.987c-1.441-3.738-5.582-4.883-9.711-4.883
	c-2.391,0-4.834,0.45-6.677,1.145c-0.647,0.248-1.092,0.845-1.092,1.497c0,0.896,0.642,1.54,1.539,1.54c0.2,0,0.498-0.049,0.702-0.1
	c1.988-0.543,3.533-0.894,5.725-0.894c2.889,0,5.729,0.647,6.524,2.839c0.149,0.4,0.298,1.795,0.298,2.94v1.396
	c-1.587-0.996-3.982-1.644-6.123-1.644c-6.077,0-11.358,2.938-11.358,9.413c0,5.382,4.582,8.273,9.511,8.273
	c2.942,0,6.576-1.548,7.971-4.088c0,0.501,0,1.1,0.104,1.493C434.756,122.954,435.652,124.203,437.097,124.203 M397.644,117.474
	c0-4.186-4.733-6.476-8.419-7.967c-2.395-0.951-5.928-2.294-5.928-4.688c0-2.09,2.59-3.834,5.578-3.834
	c1.794,0,3.634,0.595,5.032,1.695c1.197,0.897,2.639,0,2.639-1.145c0-0.45-0.195-0.947-0.647-1.347
	c-1.788-1.444-4.332-2.391-7.023-2.391c-4.633,0-8.768,2.99-8.768,6.973c0,4.486,5.031,6.625,8.321,7.923
	c2.839,1.145,5.979,2.241,5.979,4.781c0,2.043-2.842,3.539-5.929,3.539c-2.094,0-4.088-0.546-5.532-1.593
	c-1.398-0.947-2.742-0.053-2.742,1.096c0,0.497,0.203,0.994,0.704,1.342c2.038,1.347,4.926,2.345,7.367,2.345
	C392.165,124.203,397.644,122.408,397.644,117.474 M363.069,123.903c-0.1,0.248-0.197,0.495-0.3,0.692
	c-1.144,2.844-2.688,4.088-2.688,4.088c-0.449,0.349-0.994,0.449-1.544,0.449c-1.095,0-2.144-0.699-3.141-0.699
	c-0.846,0-1.642,0.699-1.642,1.593c0,0.647,0.446,1.346,1.043,1.597c1.246,0.45,2.541,0.797,3.837,0.797
	c1.146,0,2.295-0.298,3.338-1.048c2.289-1.642,3.487-4.732,4.487-7.222l8.719-22.272c0.149-0.299,0.393-0.543,0.691-0.595
	c0.802-0.15,1.249-0.796,1.249-1.595c0-1.043-0.849-1.642-1.84-1.642c-1.398,0-2.396,0.842-2.892,2.091l-6.28,15.988l-1.295,4.287
	h-0.049l-1.244-4.335l-6.129-15.939c-0.45-1.197-1.447-2.091-2.791-2.091c-1.046,0-1.939,0.546-1.939,1.69
	c0,0.798,0.495,1.448,1.24,1.597c0.353,0.049,0.6,0.244,0.699,0.595L363.069,123.903z M345.434,114.585
	c0,4.082-4.184,6.479-7.871,6.479c-3.187,0-6.427-1.645-6.427-5.184c0-4.384,3.988-6.176,8.02-6.176
	c2.195,0,4.037,0.299,6.278,1.542V114.585z M348.222,124.203c0.899,0,1.699-0.898,1.699-1.848c0-0.598-0.348-1.194-0.949-1.44
	c0,0-0.349-0.149-0.349-0.65v-13.598c0-1.399-0.052-2.842-0.499-3.987c-1.441-3.738-5.579-4.883-9.714-4.883
	c-2.39,0-4.836,0.45-6.676,1.145c-0.648,0.248-1.098,0.845-1.098,1.497c0,0.896,0.647,1.54,1.547,1.54c0.2,0,0.499-0.049,0.699-0.1
	c1.992-0.543,3.531-0.894,5.731-0.894c2.885,0,5.725,0.647,6.519,2.839c0.154,0.4,0.301,1.795,0.301,2.94v1.396
	c-1.596-0.996-3.983-1.644-6.129-1.644c-6.075,0-11.361,2.938-11.361,9.413c0,5.382,4.587,8.273,9.521,8.273
	c2.938,0,6.576-1.548,7.969-4.088c0,0.501,0,1.1,0.101,1.493C345.884,122.954,346.783,124.203,348.222,124.203 M306.428,98.048
	c-0.801,0-1.398,0.396-1.593,1.044l-5.185,15.841l-1.141,4.133h-0.053l-1.196-4.133l-5.133-14.697
	c-0.347-1.197-1.44-2.189-2.79-2.189c-0.996,0-1.89,0.599-1.89,1.59c0,0.801,0.498,1.447,1.243,1.597
	c0.299,0.049,0.599,0.25,0.699,0.546l7.672,21.075c0.348,0.696,0.796,1.096,1.497,1.096c0.695,0,1.293-0.448,1.489-1.096
	l5.531-16.638l0.75-2.742l0.796,2.742l5.483,16.638c0.195,0.648,0.794,1.096,1.49,1.096c0.699,0,1.147-0.4,1.496-1.096l7.672-21.075
	c0.102-0.295,0.4-0.497,0.699-0.546c0.748-0.15,1.242-0.796,1.242-1.597c0-0.992-0.894-1.59-1.889-1.59
	c-1.344,0-2.442,0.992-2.791,2.189l-5.132,14.697l-1.249,4.133h-0.049l-1.093-4.133l-5.185-15.841
	C307.625,98.444,307.026,98.048,306.428,98.048 M281.269,123.952c0.894,0,1.695-0.647,1.695-1.597c0-0.598-0.353-1.194-0.951-1.44
	c0,0-0.344-0.149-0.344-0.65V90.97c0-1.893-0.945-3.49-2.791-3.49c-0.897,0-1.698,0.652-1.698,1.597c0,0.599,0.351,1.194,0.95,1.444
	c0,0,0.352,0.15,0.352,0.647v29.297C278.481,122.355,279.425,123.952,281.269,123.952 M264.731,111.095h-12.657l5.082-13.298
	l1.197-3.987h0.049l1.248,3.987L264.731,111.095z M258.401,88.827c-0.797,0-1.541,0.401-1.842,1.249l-11.209,30.038
	c-0.1,0.352-0.348,0.55-0.647,0.599c-0.748,0.202-1.247,0.796-1.247,1.593c0,0.999,0.897,1.646,1.846,1.646
	c1.493,0,2.541-1.245,3.04-2.494l2.639-7.172h14.843l2.642,7.172c0.498,1.249,1.547,2.494,3.038,2.494
	c0.95,0,1.847-0.647,1.847-1.646c0-0.797-0.498-1.392-1.249-1.593c-0.298-0.049-0.549-0.247-0.646-0.599l-11.209-30.038
	C259.944,89.228,259.2,88.827,258.401,88.827"/>
<rect x="-65.501" y="-49.93" fill="none" width="713.458" height="301.217"/>
</svg>
