<svg id="Layer_1" data-name="Layer 1" xmlns="http://www.w3.org/2000/svg" xmlns:xlink="http://www.w3.org/1999/xlink" viewBox="0 0 129 127"><defs><style>.cls-1{fill:none;}.cls-2{clip-path:url(#clip-path);}.cls-3{fill:#68767f;}.cls-4{fill:#fff;}.cls-5{fill:#1393d2;}.cls-6{fill:#010101;}.cls-7{clip-path:url(#clip-path-31);}.cls-8{fill:url(#linear-gradient);}.cls-9{clip-path:url(#clip-path-32);}.cls-10{fill:url(#linear-gradient-2);}.cls-11{clip-path:url(#clip-path-33);}.cls-12{fill:url(#radial-gradient);}</style><clipPath id="clip-path"><rect class="cls-1" x="-69.97" y="-27.45" width="276.63" height="195.6"/></clipPath><clipPath id="clip-path-31"><path class="cls-1" d="M22.66,91.82l-6.08,8.38h.26a2.48,2.48,0,0,1,.46,0H38.2c.2,0,.36,0,.53,0h.1c.13,0,.23,0,.33,0a.42.42,0,0,1,.19,0,1.21,1.21,0,0,1,.36.07h0c.13,0,.23,0,.33.06h0c.09,0,.16,0,.23.07h0c.06,0,.13,0,.16.07V83H40.4s0,0,0,0a0,0,0,0,1,0,0h0s-.07,0-.07,0l-.1,0h0l-.13,0c-.07,0-.1,0-.16,0h0c-.1,0-.19,0-.29,0h-.07a.38.38,0,0,1-.2,0,.42.42,0,0,1-.19,0h-.23c-.17,0-.33,0-.5,0h-.19a2.8,2.8,0,0,1-.5,0H17.24a1.75,1.75,0,0,1-.46,0h-.72a.44.44,0,0,1-.2,0Z"/></clipPath><linearGradient id="linear-gradient" x1="340.63" y1="377.43" x2="340.95" y2="377.43" gradientTransform="translate(-80267.52 -25868.61) rotate(-30) scale(165.94)" gradientUnits="userSpaceOnUse"><stop offset="0" stop-color="#df7d26"/><stop offset="0.4" stop-color="#df7d26"/><stop offset="0.51" stop-color="#dc7827"/><stop offset="0.63" stop-color="#d56d27"/><stop offset="0.73" stop-color="#c95c28"/><stop offset="0.9" stop-color="#b24925"/><stop offset="1" stop-color="#b24925"/></linearGradient><clipPath id="clip-path-32"><path class="cls-1" d="M117.82,82.59h-.72a2.48,2.48,0,0,0-.46,0H96.43a2.11,2.11,0,0,0-.5,0h-.19c-.17,0-.33,0-.5,0H95a.42.42,0,0,0-.19,0,.46.46,0,0,0-.2,0h-.07c-.09,0-.19,0-.29,0h0a1.39,1.39,0,0,0-.17,0l-.13,0h0s-.07,0-.1,0-.06,0-.06,0h0s0,0-.06,0,0,0,0,0h-.06v17.58s.1,0,.16-.06h0a1,1,0,0,1,.23-.07h0c.1,0,.2,0,.33-.06h0a2.73,2.73,0,0,1,.37-.07.42.42,0,0,0,.19,0c.1,0,.2,0,.33,0h.1c.16,0,.33,0,.53,0h20.89a2.32,2.32,0,0,0,.46,0h.27l-6.08-8.38,6.7-9.27a.47.47,0,0,1-.26.07"/></clipPath><linearGradient id="linear-gradient-2" x1="347.85" y1="381.6" x2="348.18" y2="381.6" gradientTransform="matrix(-143.71, -82.97, -82.97, 143.71, 81785.94, -25868.61)" gradientUnits="userSpaceOnUse"><stop offset="0" stop-color="#df7d26"/><stop offset="0.4" stop-color="#df7d26"/><stop offset="0.51" stop-color="#dc7827"/><stop offset="0.64" stop-color="#d36b27"/><stop offset="0.73" stop-color="#c95c28"/><stop offset="0.9" stop-color="#b24925"/><stop offset="1" stop-color="#b24925"/></linearGradient><clipPath id="clip-path-33"><rect class="cls-1" x="31.01" y="85.88" width="71.96" height="18.14"/></clipPath><radialGradient id="radial-gradient" cx="333.78" cy="385.58" r="0.33" gradientTransform="matrix(80.31, 0, 0, -73.63, -26740.03, 28484.51)" gradientUnits="userSpaceOnUse"><stop offset="0" stop-color="#df7e27"/><stop offset="0.52" stop-color="#e97c2d"/><stop offset="1" stop-color="#c85c28"/></radialGradient></defs><title>SilverTravel_Mob</title><g id="Layer_1-2" data-name="Layer 1"><g class="cls-2"><path class="cls-3" d="M66.43,42.11c-10.29-11-28.92-8.31-28.92-8.31V73.06s18.63-2.66,28.92,8.31Z"/></g><g class="cls-2"><path class="cls-3" d="M67.51,42.11V81.37c10.29-11,28.92-8.31,28.92-8.31V33.8s-18.6-2.67-28.92,8.31"/></g><g class="cls-2"><path class="cls-4" d="M42.93,54.4c0-3.81,4.64-6.9,10.39-6.9S63.7,50.59,63.7,54.4s-4.63,6.9-10.38,6.9-10.39-3.09-10.39-6.9"/></g><g class="cls-2"><path class="cls-5" d="M47.76,54.4A5.56,5.56,0,1,1,53.32,60a5.57,5.57,0,0,1-5.56-5.55"/></g><g class="cls-2"><path class="cls-6" d="M50.79,54.4a2.53,2.53,0,1,1,2.53,2.53,2.53,2.53,0,0,1-2.53-2.53"/></g><g class="cls-2"><path class="cls-4" d="M70.27,54.4c0-3.81,4.64-6.9,10.39-6.9S91,50.59,91,54.4s-4.63,6.9-10.38,6.9-10.39-3.09-10.39-6.9"/></g><g class="cls-2"><path class="cls-5" d="M75.1,54.4A5.56,5.56,0,1,1,80.66,60,5.57,5.57,0,0,1,75.1,54.4"/></g><g class="cls-2"><path class="cls-6" d="M78.09,54.4a2.53,2.53,0,1,1,2.53,2.53,2.53,2.53,0,0,1-2.53-2.53"/></g><g class="cls-2"><path class="cls-6" d="M53.38,67.15c-7.32,0-13.27-4.37-13.27-9.76v-.82H66.66v.82c0,5.35-5.95,9.76-13.28,9.76M41.85,58.21c.59,4.07,5.55,7.26,11.53,7.26s10.94-3.19,11.54-7.26Z"/></g><g class="cls-2"><path class="cls-6" d="M80.56,67.15c-7.33,0-13.28-4.37-13.28-9.76v-.82H93.83v.82c0,5.35-6,9.76-13.27,9.76M69,58.21c.6,4.07,5.56,7.26,11.54,7.26s10.94-3.19,11.53-7.26Z"/></g><g class="cls-2"><path class="cls-6" d="M67.91,57.81a1.45,1.45,0,0,0-.86-.23,1.5,1.5,0,0,0-.89.23.26.26,0,0,0,0-.13H64.52c0-1,1.09-1.77,2.5-1.77s2.5.75,2.5,1.77H67.84c0,.07,0,.13.07.13"/></g><g class="cls-2"><path class="cls-3" d="M21,74.47a4.67,4.67,0,0,0,.92-3.61c-.23-1-.85-1.81-1.81-1.58-1.93.43-.49,6.28-4,7-2.07.46-3.45-1.18-3.91-3.38-.26-1.31-.3-3.65,1.35-4l1-.23.4,1.87-.53.1c-.65.13-.72,1.15-.59,1.84.26,1.22.86,1.94,1.71,1.74,2.07-.42.36-6.27,4-7,1.93-.43,3.54,1.05,4,3.32a5.67,5.67,0,0,1-1,4.73Z"/></g><g class="cls-2"><path class="cls-3" d="M7,65.24l-.1-1.91,2.2-.09.1,1.9Zm6.67-.3a.45.45,0,0,0-.46.5l0,.88-1.81.1-.1-2.07c0-1,.37-1.41,1.35-1.48l7.39-.36a.43.43,0,0,0,.46-.49l0-.89L22.3,61l.1,2.07c0,1-.36,1.42-1.35,1.48Z"/></g><g class="cls-2"><path class="cls-3" d="M9.22,58.41c-.33,0-.49.13-.52.46l-.07.88-1.81-.13L7,57.52c.07-1,.53-1.38,1.52-1.32L20.23,57c.33,0,.49-.13.52-.46l.07-.88,1.81.13-.13,2.1c-.07,1-.53,1.38-1.52,1.31Z"/></g><g class="cls-2"><path class="cls-3" d="M14,52.79c-.36,0-.49.19-.59.56l-.06.19-1.78-.42.26-1.06a1.48,1.48,0,0,1,1.48-1.38L20,49.93a11.94,11.94,0,0,1,1.51,0v0a14.48,14.48,0,0,1-1.31-.72l-5.55-3.91A1.49,1.49,0,0,1,14,43.32l.26-1,1.77.43L16,43a.67.67,0,0,0,.26.82L24,49.21l-.59,2.39Z"/></g><g class="cls-2"><path class="cls-3" d="M17.5,35c1.45-2.76,4.27-3.15,6.84-1.81.26.14.75.46.75.46l-3.78,7.17a3.72,3.72,0,0,0,5.06-1.65,5.12,5.12,0,0,0,.37-3.48l1.77-.1A6.55,6.55,0,0,1,28,40.14a5.66,5.66,0,0,1-7.89,2.53A5.52,5.52,0,0,1,17.5,35m5.23-.2c-1.68-.78-3.09-.23-3.72,1A3.2,3.2,0,0,0,20,40Z"/></g><g class="cls-2"><path class="cls-3" d="M24.3,29a.45.45,0,0,0-.69.06l-.59.69-1.38-1.18L22.92,27c.63-.76,1.22-.86,1.91-.27l.53.46.55.53,0,0a3.81,3.81,0,0,1,0-4.54,4,4,0,0,1,.39-.39L28,24.13a2.74,2.74,0,0,0-.46.46,3.36,3.36,0,0,0,0,4.08,7.62,7.62,0,0,0,1.35,1.48l3.48,2.92L31,34.72Z"/></g><g class="cls-2"><path class="cls-5" d="M30,21.8l-1.08.95-1.12-1.28,1.12-1-2-2.3,1.58-1.38,2,2.3,2-1.74,1.12,1.28-2,1.74L35,24.23a2.17,2.17,0,0,0,3.42.33,3.26,3.26,0,0,0,.36-.36L40,25.61a7.08,7.08,0,0,1-.53.53c-1,.92-3.48,2.46-5.91-.33Z"/></g><g class="cls-2"><path class="cls-5" d="M36.82,17.07a.4.4,0,0,0-.65-.16l-.76.46-.95-1.55,1.71-1.05c.82-.49,1.41-.43,1.9.36l.36.59a4.5,4.5,0,0,1,.36.69l0,0a3.82,3.82,0,0,1,1.44-4.3,2.31,2.31,0,0,1,.5-.27l1.11,1.81s-.26.1-.59.26A3.39,3.39,0,0,0,40,17.73a6.57,6.57,0,0,0,.82,1.84l2.4,3.87-1.81,1.12Z"/></g><g class="cls-2"><path class="cls-5" d="M50.2,12.5l.46-.16,0-.1C49.93,10.4,49,10,47.4,10.63c-.49.2-1.64.76-1.41,1.45l.23.59-1.87.69-.4-1C43.3,10.63,45.79,9.41,46.81,9c3.35-1.28,4.93.16,5.82,2.46l1.67,4.41a.46.46,0,0,0,.63.29l.85-.33.66,1.71-1.87.69a1.17,1.17,0,0,1-1.75-.69,6,6,0,0,1-.19-.62h0a3.73,3.73,0,0,1-2.53,3.28,3.48,3.48,0,0,1-4.73-1.84C44,15.07,48.45,13.16,50.2,12.5m-.4,6c1.68-.62,2.1-2.82,1.51-4.33l-.13-.37-.52.2c-1.52.56-4.18,1.68-3.45,3.58a1.89,1.89,0,0,0,2.59.92"/></g><g class="cls-2"><path class="cls-5" d="M55.58,8.82a.66.66,0,0,0-.72-.36l-.23,0-.23-1.8,1.09-.13a1.41,1.41,0,0,1,1.8.88l3.19,6.05c.3.59.59,1.38.59,1.38h0a14.61,14.61,0,0,1,.2-1.48l1.55-6.64a1.45,1.45,0,0,1,1.54-1.31l1-.13.23,1.8-.23,0a.67.67,0,0,0-.66.52l-2.23,9.2-2.43.3Z"/></g><g class="cls-2"><path class="cls-5" d="M73.43,5.64c3.09.32,4.5,2.82,4.2,5.68,0,.3-.16.85-.16.85l-8-.88a3.74,3.74,0,0,0,3.38,4.1,5.24,5.24,0,0,0,3.39-.92l.75,1.61a6.38,6.38,0,0,1-4.43,1.15,5.65,5.65,0,0,1-5.23-6.4,5.38,5.38,0,0,1,6.15-5.19M75.5,10.4a2.62,2.62,0,0,0-2.3-3.09,3.2,3.2,0,0,0-3.55,2.47Z"/></g><g class="cls-2"><path class="cls-5" d="M82.5,5.54A.42.42,0,0,0,82.17,5l-.86-.27.53-1.74,2,.59c1,.3,1.22.79,1,1.74L81.41,16.58a.41.41,0,0,0,.33.59l.85.26-.52,1.74-2-.59a1.21,1.21,0,0,1-1-1.74Z"/></g><g class="cls-2"><path class="cls-3" d="M91.73,16l.43.23.06-.1c.89-1.74.56-2.69-1-3.48-.46-.23-1.68-.73-2-.07l-.29.56-1.78-.92.49-1c.83-1.61,3.42-.59,4.37-.09,3.22,1.64,3.22,3.74,2.11,5.94L92,21.31a.44.44,0,0,0,.2.66l.79.39L92.16,24l-1.78-.92c-.89-.46-1-1.05-.66-1.77a5.47,5.47,0,0,1,.33-.56l0,0a3.82,3.82,0,0,1-4.14.37A3.5,3.5,0,0,1,84,16.31c1.61-3.15,6-1.15,7.69-.29m-4.67,3.74c1.61.83,3.49-.32,4.24-1.8l.17-.33-.5-.26c-1.41-.73-4-2-5-.14a1.83,1.83,0,0,0,1,2.53"/></g><g class="cls-2"><path class="cls-3" d="M103.59,18.88A3.7,3.7,0,0,1,105,22.43l0,0s.19-.26.46-.59l1.84-2.07a.43.43,0,0,0,0-.69l-.65-.59,1.21-1.35,1.58,1.41a1.2,1.2,0,0,1,.13,2l-7.82,8.81a.43.43,0,0,0,0,.69l.66.59L101.22,32l-1.51-1.35C99,30,99,29.43,99.48,28.87c.23-.27.4-.43.4-.43l0,0a4,4,0,0,1-4.07-.92c-2.23-2-2.1-5,.2-7.59s5.42-3,7.62-1m-1.25,6.63c1.32-1.47,1.84-3.64.26-5.06-1.28-1.15-3.35-1-5,.86s-1.68,3.84-.3,5.06,3.19,1.28,5.06-.86"/></g><g class="cls-2"><path class="cls-3" d="M108.78,27.59a.65.65,0,0,0,0-.83l-.13-.19,1.51-1,.63.92a1.47,1.47,0,0,1,0,2l-4,5.55c-.39.52-1,1.15-1,1.15l0,0a12.73,12.73,0,0,1,1.41-.49l6.61-1.61a1.44,1.44,0,0,1,1.87.79l.59.85-1.51,1-.13-.2a.7.7,0,0,0-.76-.36l-9.23,2.14-1.38-2Z"/></g><g class="cls-2"><path class="cls-3" d="M115.52,38.89a.45.45,0,0,0,.26-.63l-.36-.82,1.68-.72.82,1.91a1.2,1.2,0,0,1-.73,1.84l-6.77,3a.45.45,0,0,0-.26.63l.36.82-1.67.72-.82-1.9a1.19,1.19,0,0,1,.72-1.84Zm6.14-2.66.76,1.74-2,.89-.75-1.75Z"/></g><g class="cls-2"><path class="cls-3" d="M112.4,46.18a4.58,4.58,0,0,0-.76,3.65c.26,1,.92,1.74,1.87,1.51,1.94-.49.23-6.31,3.68-7.19,2.07-.53,3.49,1,4,3.22.32,1.28.46,3.64-1.19,4.07l-1,.26-.46-1.84.53-.13c.62-.16.66-1.18.49-1.84-.29-1.21-1-1.87-1.77-1.67-2,.52-.1,6.27-3.68,7.19-1.91.49-3.58-.89-4.18-3.15a5.76,5.76,0,0,1,.79-4.77Z"/></g><g class="cls-2"><path class="cls-3" d="M123,60.48a5.82,5.82,0,1,1-5.88-5.89A5.81,5.81,0,0,1,123,60.48m-9.79.13a4,4,0,1,0,3.91-3.88,3.87,3.87,0,0,0-3.91,3.88"/></g><g class="cls-2"><path class="cls-3" d="M119.76,70a.42.42,0,0,0,.56-.36l.19-.89,1.78.36-.43,2c-.2,1-.69,1.32-1.58,1.12l-.69-.13c-.42-.1-.75-.2-.75-.2v0a3.83,3.83,0,0,1,2.1,4c-.07.26-.16.55-.16.55l-2.07-.42a2.59,2.59,0,0,0,.19-.63,3.3,3.3,0,0,0-1.9-3.58,6.76,6.76,0,0,0-1.91-.66l-4.44-1,.43-2.07Z"/></g><g class="cls-7"><polygon class="cls-8" points="22.07 111.28 48.22 96.16 34.29 72.01 8.1 87.09 22.07 111.28"/></g><g class="cls-9"><polygon class="cls-10" points="111.9 111.28 85.72 96.16 99.68 72.01 125.87 87.09 111.9 111.28"/></g><g class="cls-11"><rect class="cls-12" x="31.01" y="85.88" width="71.96" height="18.14"/></g><g class="cls-2"><path class="cls-4" d="M45.17,90.44,48.36,99H46.42l-.66-1.91H42.57L41.92,99H40l3.22-8.55Zm.1,5.26-1.09-3.15h0L43,95.7Z"/></g><g class="cls-2"><polygon class="cls-4" points="55.32 98.99 53.88 93.17 53.88 93.17 52.43 98.99 50.52 98.99 48.26 90.44 50.13 90.44 51.51 96.26 51.51 96.26 53.02 90.44 54.76 90.44 56.24 96.32 56.24 96.32 57.66 90.44 59.49 90.44 57.2 98.99 55.32 98.99"/></g><g class="cls-2"><path class="cls-4" d="M64.59,90.44,67.78,99H65.84l-.66-1.91H62L61.33,99h-1.9l3.22-8.55Zm.1,5.26L63.6,92.55h0L62.45,95.7Z"/></g><g class="cls-2"><path class="cls-4" d="M73.39,90.44a2.78,2.78,0,0,1,1.06.2,3.43,3.43,0,0,1,.78.49,1.9,1.9,0,0,1,.5.76,2.18,2.18,0,0,1,.16.92,2.43,2.43,0,0,1-.33,1.31,2,2,0,0,1-1,.86v0a1.57,1.57,0,0,1,.59.3,1.31,1.31,0,0,1,.36.46,1.47,1.47,0,0,1,.2.59c0,.23.07.42.1.65a3.15,3.15,0,0,0,0,.5c0,.19,0,.36,0,.56l.09.55a.91.91,0,0,0,.2.43H74.25a3.52,3.52,0,0,1-.2-1c0-.4-.06-.73-.1-1.09a1.63,1.63,0,0,0-.39-1,1.45,1.45,0,0,0-1-.3H70.67v3.35H68.79V90.51l4.6-.07Zm-.69,3.88a1.46,1.46,0,0,0,1-.3A1.11,1.11,0,0,0,74,93.1a1.14,1.14,0,0,0-.33-.92,1.46,1.46,0,0,0-1-.29H70.63v2.4H72.7Z"/></g><g class="cls-2"><path class="cls-4" d="M81.35,90.44a4.62,4.62,0,0,1,1.54.27,3.29,3.29,0,0,1,1.25.78A3.69,3.69,0,0,1,85,92.81a5.24,5.24,0,0,1,.3,1.87A6.15,6.15,0,0,1,85,96.42a4,4,0,0,1-.73,1.38,3.36,3.36,0,0,1-1.21.92,4,4,0,0,1-1.71.33H77.7V90.51h3.65Zm-.14,7a2.15,2.15,0,0,0,.79-.13,1.76,1.76,0,0,0,.69-.43,2.44,2.44,0,0,0,.5-.79,3.24,3.24,0,0,0,.16-1.18,4.4,4.4,0,0,0-.13-1.18,2.18,2.18,0,0,0-.43-.89,1.88,1.88,0,0,0-.75-.56,3.11,3.11,0,0,0-1.19-.2H79.51v5.39l1.7,0Z"/></g><g class="cls-2"><path class="cls-4" d="M88.21,96.88a1.28,1.28,0,0,0,.43.5,1.18,1.18,0,0,0,.59.26,2.78,2.78,0,0,0,.72.1,2.32,2.32,0,0,0,.53,0,1.36,1.36,0,0,0,.53-.16,1.46,1.46,0,0,0,.42-.33.9.9,0,0,0,.17-.52.69.69,0,0,0-.23-.56,2,2,0,0,0-.59-.36c-.23-.1-.53-.17-.83-.27s-.62-.16-.92-.23a4.28,4.28,0,0,1-.92-.29,3.62,3.62,0,0,1-.82-.46,3.26,3.26,0,0,1-.59-.69,2,2,0,0,1-.23-1,2.19,2.19,0,0,1,.3-1.15,2.7,2.7,0,0,1,.72-.82,3.7,3.7,0,0,1,1-.49,4.51,4.51,0,0,1,1.15-.17,5.14,5.14,0,0,1,1.28.17,2.69,2.69,0,0,1,1.08.49,2.79,2.79,0,0,1,.76.85,2.51,2.51,0,0,1,.3,1.25H91.27a1.14,1.14,0,0,0-.17-.62,1.27,1.27,0,0,0-.36-.4,1.55,1.55,0,0,0-.52-.19,3.18,3.18,0,0,0-.66-.07,2.37,2.37,0,0,0-.46,0,1.84,1.84,0,0,0-.43.17.58.58,0,0,0-.29.29,1,1,0,0,0-.13.46.76.76,0,0,0,.09.4,1.06,1.06,0,0,0,.37.29,5.28,5.28,0,0,0,.78.27c.33.1.76.19,1.32.33l.66.16a5.79,5.79,0,0,1,.85.39,2.39,2.39,0,0,1,.72.73,2.06,2.06,0,0,1,.3,1.18,2.41,2.41,0,0,1-.23,1.08,2.2,2.2,0,0,1-.69.86,3.27,3.27,0,0,1-1.12.56,5.4,5.4,0,0,1-1.54.19,6.49,6.49,0,0,1-1.38-.16,4.05,4.05,0,0,1-1.19-.56,3,3,0,0,1-.82-1A3.18,3.18,0,0,1,86.08,96h1.8c.17.43.23.66.33.85"/></g><g class="cls-2"><polygon class="cls-6" points="27.43 111.8 29.79 111.8 30.64 118.96 30.68 118.96 31.73 111.8 33.93 111.8 35.08 118.96 35.08 118.96 35.94 111.8 38.23 111.8 36.49 121.86 33.87 121.86 32.81 114.72 32.78 114.72 31.83 121.86 29.2 121.86 27.43 111.8"/></g><g class="cls-2"><rect class="cls-6" x="39.39" y="111.8" width="2.37" height="10.09"/></g><g class="cls-2"><polygon class="cls-6" points="43.53 111.8 46.25 111.8 48.22 118.34 48.26 118.34 48.26 111.8 50.46 111.8 50.46 121.86 47.76 121.86 45.69 114.92 45.66 114.92 45.66 121.86 43.53 121.86 43.53 111.8"/></g><g class="cls-2"><polygon class="cls-6" points="52.2 111.8 54.93 111.8 56.87 118.34 56.9 118.34 56.9 111.8 59.1 111.8 59.1 121.86 56.41 121.86 54.34 114.92 54.3 114.92 54.3 121.86 52.2 121.86 52.2 111.8"/></g><g class="cls-2"><polygon class="cls-6" points="60.84 111.8 66.69 111.8 66.69 113.71 63.24 113.71 63.24 115.74 66.46 115.74 66.46 117.65 63.24 117.65 63.24 119.95 66.86 119.95 66.86 121.86 60.84 121.86 60.84 111.8"/></g><g class="cls-2"><path class="cls-6" d="M68.2,111.8h4a2.45,2.45,0,0,1,2.73,2.63c0,1.48-.6,2.2-1.71,2.46v0c1.51.23,1.57,1.15,1.61,2.49,0,2,.13,2.21.46,2.34v.13H72.7a4.58,4.58,0,0,1-.26-2c0-1.74-.23-2.1-1-2.1h-.92v4.17H68.17l0-10.12ZM70.57,116h.72a1.16,1.16,0,0,0,1.22-1.31c0-.76-.3-1.29-1.22-1.29h-.72Z"/></g><g class="cls-2"><path class="cls-6" d="M78.91,115.22v-.33c0-2,1.09-3,3.22-3,2.44,0,3.09,1.21,3.09,2.79s-.33,2.07-1.57,3.25A9.12,9.12,0,0,0,81.71,120h3.55v1.84H78.88a5.85,5.85,0,0,1,2.27-4.51c1.71-1.51,1.74-1.93,1.74-2.69s-.16-1.32-.82-1.32c-.92,0-.92,1.09-.92,1.85l-2.24,0Z"/></g><g class="cls-2"><path class="cls-6" d="M89.69,122.09c-3,0-3.28-1.88-3.28-5.1,0-2.86.32-5.09,3.28-5.09S93,113.77,93,117c0,2.86-.33,5.1-3.29,5.1m0-1.52c.82,0,.92-.75.92-3.58s-.1-3.61-.92-3.61-.92.75-.92,3.61.1,3.58.92,3.58"/></g><g class="cls-2"><path class="cls-6" d="M95.93,114.92H94v-1.51h.29c1.81,0,2.21-.92,2.34-1.58h1.67v10H96l0-6.9Z"/></g><g class="cls-2"><path class="cls-6" d="M106.35,114.46a1.91,1.91,0,0,1-1.41,2.11v0a2.09,2.09,0,0,1,1.71,2.36c0,1.71-.6,3.13-3.32,3.13S100,120.77,100,119a2.13,2.13,0,0,1,1.64-2.36v0a1.93,1.93,0,0,1-1.38-2.11c0-1.51.82-2.59,3-2.59s3.06,1,3.06,2.59m-4,4.5c0,.89.2,1.61,1,1.61s1-.69,1-1.61-.2-1.57-1-1.57-1,.69-1,1.57m1.78-4.33c0-.69-.2-1.25-.82-1.25s-.82.56-.82,1.25c0,1,.29,1.28.82,1.28s.82-.3.82-1.28"/></g><g class="cls-2"><polygon class="cls-6" points="19.14 112.16 20.26 115.55 23.84 115.55 20.95 117.68 22.07 121.07 19.18 119 16.25 121.1 17.34 117.68 14.45 115.58 18.03 115.55 19.14 112.16"/></g><g class="cls-2"><polygon class="cls-6" points="114.8 112.16 115.94 115.55 119.53 115.55 116.64 117.68 117.75 121.07 114.83 119 111.94 121.1 113.02 117.68 110.13 115.58 113.71 115.55 114.8 112.16"/></g></g></svg>