<svg id="Layer_1" data-name="Layer 1" xmlns="http://www.w3.org/2000/svg" xmlns:xlink="http://www.w3.org/1999/xlink" viewBox="0 0 125 53"><defs><style>.cls-1{fill:url(#linear-gradient);}.cls-2{fill:url(#linear-gradient-2);}.cls-3{fill:#959595;}</style><linearGradient id="linear-gradient" x1="15.37" y1="-29.68" x2="15.49" y2="-57.61" gradientTransform="matrix(1, 0, 0, -1, 0, -20)" gradientUnits="userSpaceOnUse"><stop offset="0" stop-color="#33acc5"/><stop offset="1" stop-color="#136779"/></linearGradient><linearGradient id="linear-gradient-2" x1="9.15" y1="-37" x2="21.32" y2="-37" xlink:href="#linear-gradient"/></defs><title>destination</title><g id="Layer_1-2" data-name="Layer 1-2"><g id="Destinations"><path class="cls-1" d="M15.3,44.8a1.23,1.23,0,0,1-.8-.4h0A85.54,85.54,0,0,1,7.2,33.9a50.26,50.26,0,0,1-4.3-8.7,21.92,21.92,0,0,1-1.7-8.3c.4-8,6.4-14.3,13.7-14.3h1c7.3,0,13.4,6.3,13.7,14.3.4,10-12,25.7-13.4,27.4h0A.86.86,0,0,1,15.3,44.8ZM14.8,4.5C8.5,4.5,3.4,10,3,17c-.2,3.5,1.4,8.1,4.6,13.9a82.87,82.87,0,0,0,7.3,10.9l.4.5.4-.5A99.55,99.55,0,0,0,23,30.9c3.2-5.7,4.8-10.4,4.6-13.9-.3-7-5.5-12.5-11.8-12.5Z"/><path class="cls-2" d="M15.2,23.1A6.1,6.1,0,1,1,21.3,17h0a6.06,6.06,0,0,1-6,6.1Zm0-9.9A3.8,3.8,0,1,0,19,17h0a3.73,3.73,0,0,0-3.68-3.8Z"/></g></g><path d="M45.3,27.38a5.4,5.4,0,0,1-1.44,4.05,5.66,5.66,0,0,1-4.14,1.4h-3V22.13H40a4.85,4.85,0,0,1,5.3,5.25Zm-1.32,0a4.33,4.33,0,0,0-1-3.16,4.24,4.24,0,0,0-3.12-1.06H38v8.56h1.52a4.56,4.56,0,0,0,3.34-1.1A4.34,4.34,0,0,0,44,27.42Z"/><path d="M50.73,33a3.72,3.72,0,0,1-2.81-1.08,4.21,4.21,0,0,1-1-3,4.67,4.67,0,0,1,1-3.09,3.17,3.17,0,0,1,2.57-1.14,3,3,0,0,1,2.39,1,3.84,3.84,0,0,1,.88,2.62V29h-5.6a3.23,3.23,0,0,0,.71,2.15,2.51,2.51,0,0,0,1.91.73,6.46,6.46,0,0,0,2.56-.54v1.08a5.81,5.81,0,0,1-1.22.4A6.54,6.54,0,0,1,50.73,33Zm-.33-7.3a2,2,0,0,0-1.54.63,2.85,2.85,0,0,0-.67,1.74h4.19a2.7,2.7,0,0,0-.51-1.76,1.79,1.79,0,0,0-1.47-.63Z"/><path d="M60.77,30.64a2,2,0,0,1-.83,1.73,3.9,3.9,0,0,1-2.35.61,5.09,5.09,0,0,1-2.49-.51V31.35a6.17,6.17,0,0,0,1.24.46,5.06,5.06,0,0,0,1.28.17,2.87,2.87,0,0,0,1.47-.31,1,1,0,0,0,.1-1.73,6.64,6.64,0,0,0-1.58-.78,8.56,8.56,0,0,1-1.6-.73,2.37,2.37,0,0,1-.7-.71,1.82,1.82,0,0,1-.23-.94,1.78,1.78,0,0,1,.8-1.55,3.75,3.75,0,0,1,2.19-.57,6.31,6.31,0,0,1,2.53.53l-.43,1a5.69,5.69,0,0,0-2.19-.5,2.44,2.44,0,0,0-1.3.27.82.82,0,0,0-.44.75.89.89,0,0,0,.16.55,1.82,1.82,0,0,0,.53.43,14.47,14.47,0,0,0,1.41.59,5.27,5.27,0,0,1,1.93,1A1.85,1.85,0,0,1,60.77,30.64Z"/><path d="M65.18,32A4.32,4.32,0,0,0,65.8,32l.48-.1v.93a2.46,2.46,0,0,1-.59.16A4,4,0,0,1,65,33c-1.55,0-2.33-.82-2.33-2.45v-4.8H61.52v-.59l1.15-.5L63.18,23h.71v1.86h2.33v.94H63.89v4.72a1.62,1.62,0,0,0,.34,1.12A1.21,1.21,0,0,0,65.18,32Z"/><path d="M67.61,22.63a.8.8,0,0,1,.21-.61.75.75,0,0,1,1,0,1,1,0,0,1,0,1.22.7.7,0,0,1-.51.2.65.65,0,0,1-.51-.2A.82.82,0,0,1,67.61,22.63Zm1.32,10.2H67.71v-8h1.22Z"/><path d="M76.84,32.83V27.64a2.07,2.07,0,0,0-.45-1.46,1.76,1.76,0,0,0-1.4-.49,2.3,2.3,0,0,0-1.84.68,3.45,3.45,0,0,0-.59,2.25v4.21H71.34v-8h1l.2,1.09h.06a2.44,2.44,0,0,1,1-.91,3.25,3.25,0,0,1,1.5-.33,3,3,0,0,1,2.18.7A3,3,0,0,1,78,27.62v5.23Z"/><path d="M85.32,32.83l-.24-1.14H85a3.52,3.52,0,0,1-1.2,1,3.46,3.46,0,0,1-1.49.27,2.65,2.65,0,0,1-1.87-.62,2.26,2.26,0,0,1-.68-1.75q0-2.43,3.89-2.54L85,28v-.5a2,2,0,0,0-.41-1.39,1.68,1.68,0,0,0-1.3-.45,5.3,5.3,0,0,0-2.27.61l-.37-.93a5.55,5.55,0,0,1,1.3-.5,5.16,5.16,0,0,1,1.41-.19,3.1,3.1,0,0,1,2.13.64,2.71,2.71,0,0,1,.69,2v5.48ZM82.57,32a2.45,2.45,0,0,0,1.79-.63A2.3,2.3,0,0,0,85,29.61v-.72l-1.22.05a4.34,4.34,0,0,0-2.09.45,1.33,1.33,0,0,0-.64,1.24,1.21,1.21,0,0,0,.4,1A1.62,1.62,0,0,0,82.57,32Z"/><path d="M91.16,32a4.32,4.32,0,0,0,.62-.05,3.56,3.56,0,0,0,.47-.1v.93a2.38,2.38,0,0,1-.58.16A3.79,3.79,0,0,1,91,33c-1.55,0-2.33-.82-2.33-2.45v-4.8H87.5v-.59l1.15-.5L89.16,23h.71v1.86H92.2v.94H89.87v4.72a1.62,1.62,0,0,0,.34,1.12A1.18,1.18,0,0,0,91.16,32Z"/><path d="M93.59,22.63a.81.81,0,0,1,.2-.61.77.77,0,0,1,.52-.2.7.7,0,0,1,.5.2,1,1,0,0,1,0,1.22.7.7,0,0,1-.5.2.68.68,0,0,1-.52-.2A.85.85,0,0,1,93.59,22.63Zm1.32,10.2H93.69v-8h1.22Z"/><path d="M104.25,28.81a4.44,4.44,0,0,1-1,3.07,3.5,3.5,0,0,1-2.73,1.1,3.58,3.58,0,0,1-1.91-.51A3.26,3.26,0,0,1,97.33,31a5.1,5.1,0,0,1-.46-2.21,4.37,4.37,0,0,1,1-3.06,3.45,3.45,0,0,1,2.72-1.09,3.37,3.37,0,0,1,2.68,1.12A4.39,4.39,0,0,1,104.25,28.81Zm-6.12,0a3.84,3.84,0,0,0,.62,2.35,2.45,2.45,0,0,0,3.46.16l.16-.16a3.76,3.76,0,0,0,.62-2.35,3.73,3.73,0,0,0-.62-2.32,2.16,2.16,0,0,0-1.83-.8,2.13,2.13,0,0,0-1.8.79A3.77,3.77,0,0,0,98.13,28.81Z"/><path d="M111.71,32.83V27.64a2.07,2.07,0,0,0-.45-1.46,1.76,1.76,0,0,0-1.4-.49,2.3,2.3,0,0,0-1.84.68,3.45,3.45,0,0,0-.59,2.25v4.21h-1.21v-8h1l.19,1.09h.06a2.5,2.5,0,0,1,1-.91,3.38,3.38,0,0,1,1.5-.33,3,3,0,0,1,2.18.7,3,3,0,0,1,.74,2.24v5.23Z"/><path d="M120.44,30.64a2,2,0,0,1-.84,1.73,3.89,3.89,0,0,1-2.34.61,5,5,0,0,1-2.49-.51V31.35a6.17,6.17,0,0,0,1.24.46,5.06,5.06,0,0,0,1.28.17,2.83,2.83,0,0,0,1.46-.31,1,1,0,0,0,.51-.92,1,1,0,0,0-.4-.81,6.35,6.35,0,0,0-1.59-.78,8.47,8.47,0,0,1-1.59-.73,2.07,2.07,0,0,1-.7-.71,2,2,0,0,1,.56-2.49,3.75,3.75,0,0,1,2.19-.57,6.35,6.35,0,0,1,2.54.53l-.43,1a5.69,5.69,0,0,0-2.19-.5,2.48,2.48,0,0,0-1.31.27.86.86,0,0,0-.44.75,1,1,0,0,0,.17.55,1.48,1.48,0,0,0,.53.43,14.3,14.3,0,0,0,1.4.59,5.27,5.27,0,0,1,1.93,1A1.82,1.82,0,0,1,120.44,30.64Z"/><path class="cls-3" d="M41.85,46.67l-1.07-2.73H37.35l-1.06,2.73h-1l3.39-8.61h.84l3.37,8.61ZM40.47,43l-1-2.65c-.13-.34-.26-.75-.4-1.24a8.81,8.81,0,0,1-.36,1.24L37.7,43Z"/><path class="cls-3" d="M46.34,46.78a2.74,2.74,0,0,1-2.16-.85,3.6,3.6,0,0,1-.76-2.43A3.65,3.65,0,0,1,44.2,41a2.76,2.76,0,0,1,2.21-.88,4.05,4.05,0,0,1,.92.1,2.7,2.7,0,0,1,.73.23l-.3.83a4.37,4.37,0,0,0-.7-.22,3.83,3.83,0,0,0-.68-.08c-1.33,0-2,.83-2,2.49a3,3,0,0,0,.47,1.82,1.66,1.66,0,0,0,1.42.63A4.3,4.3,0,0,0,48,45.59v.86A3.53,3.53,0,0,1,46.34,46.78Z"/><path class="cls-3" d="M52.29,40.13a3.84,3.84,0,0,1,.76.07l-.13.9a2.74,2.74,0,0,0-.7-.09,1.73,1.73,0,0,0-1.34.63,2.33,2.33,0,0,0-.55,1.58v3.45h-1V40.24h.8l.11,1.19h0a2.77,2.77,0,0,1,.86-1A1.92,1.92,0,0,1,52.29,40.13Z"/><path class="cls-3" d="M59.67,43.45a3.56,3.56,0,0,1-.79,2.45,2.78,2.78,0,0,1-2.19.88,2.92,2.92,0,0,1-1.53-.4,2.68,2.68,0,0,1-1-1.16,4.16,4.16,0,0,1-.36-1.77A3.61,3.61,0,0,1,54.55,41a2.75,2.75,0,0,1,2.18-.87,2.72,2.72,0,0,1,2.14.89A3.52,3.52,0,0,1,59.67,43.45Zm-4.9,0a3,3,0,0,0,.5,1.87,1.93,1.93,0,0,0,2.74.15l.15-.15a3.07,3.07,0,0,0,.5-1.88,3,3,0,0,0-.5-1.86A1.76,1.76,0,0,0,56.7,41a1.71,1.71,0,0,0-1.44.63A3,3,0,0,0,54.77,43.45Z"/><path class="cls-3" d="M65.38,44.91a1.61,1.61,0,0,1-.67,1.39,3.16,3.16,0,0,1-1.87.48,4.06,4.06,0,0,1-2-.4v-.9a5.23,5.23,0,0,0,1,.37,4.22,4.22,0,0,0,1,.13A2.33,2.33,0,0,0,64,45.74a.83.83,0,0,0,.41-.74.79.79,0,0,0-.33-.64,5.41,5.41,0,0,0-1.27-.64,6.62,6.62,0,0,1-1.27-.58,1.79,1.79,0,0,1-.57-.56,1.55,1.55,0,0,1-.18-.76,1.42,1.42,0,0,1,.64-1.24,3,3,0,0,1,1.75-.45,5.27,5.27,0,0,1,2,.42l-.35.79a4.61,4.61,0,0,0-1.75-.4,1.93,1.93,0,0,0-1,.22.66.66,0,0,0-.35.6.76.76,0,0,0,.13.44,1.37,1.37,0,0,0,.42.34,11.26,11.26,0,0,0,1.13.48,4.12,4.12,0,0,1,1.54.83A1.45,1.45,0,0,1,65.38,44.91Z"/><path class="cls-3" d="M71,44.91a1.64,1.64,0,0,1-.67,1.39,3.19,3.19,0,0,1-1.88.48,4.06,4.06,0,0,1-2-.4v-.9a5.23,5.23,0,0,0,1,.37,4.22,4.22,0,0,0,1,.13,2.37,2.37,0,0,0,1.17-.24A.82.82,0,0,0,70,45a.79.79,0,0,0-.33-.64,5.05,5.05,0,0,0-1.27-.64,6.62,6.62,0,0,1-1.27-.58,1.67,1.67,0,0,1-.56-.56,1.43,1.43,0,0,1-.19-.76A1.46,1.46,0,0,1,67,40.58a3,3,0,0,1,1.75-.45,5.27,5.27,0,0,1,2,.42l-.34.79a4.62,4.62,0,0,0-1.76-.4,1.93,1.93,0,0,0-1,.22.68.68,0,0,0-.35.6.76.76,0,0,0,.13.44,1.3,1.3,0,0,0,.43.34A9.08,9.08,0,0,0,69,43a4,4,0,0,1,1.54.83A1.47,1.47,0,0,1,71,44.91Z"/><path class="cls-3" d="M80.33,46.67H75.56V38.1h4.77V39H76.55v2.76H80.1v.88H76.55V45.8h3.78Z"/><path class="cls-3" d="M82.87,40.24v4.17a1.69,1.69,0,0,0,.35,1.17,1.45,1.45,0,0,0,1.12.39,1.82,1.82,0,0,0,1.48-.55,2.81,2.81,0,0,0,.46-1.8V40.24h1v6.43h-.8l-.14-.87h0a2,2,0,0,1-.83.73,2.79,2.79,0,0,1-1.21.25,2.48,2.48,0,0,1-1.76-.55A2.4,2.4,0,0,1,82,44.45V40.24Z"/><path class="cls-3" d="M92.12,40.13a3.84,3.84,0,0,1,.76.07l-.13.9A3.22,3.22,0,0,0,92,41a1.71,1.71,0,0,0-1.33.63,2.33,2.33,0,0,0-.55,1.58v3.45h-1V40.24H90l.11,1.19h0a2.67,2.67,0,0,1,.86-1A1.87,1.87,0,0,1,92.12,40.13Z"/><path class="cls-3" d="M99.5,43.45a3.52,3.52,0,0,1-.8,2.45,2.76,2.76,0,0,1-2.18.88,2.92,2.92,0,0,1-1.53-.4,2.62,2.62,0,0,1-1-1.16,4.14,4.14,0,0,1-.37-1.77A3.55,3.55,0,0,1,94.38,41a2.75,2.75,0,0,1,2.18-.87A2.72,2.72,0,0,1,98.7,41,3.52,3.52,0,0,1,99.5,43.45Zm-4.9,0a3.08,3.08,0,0,0,.49,1.87,1.73,1.73,0,0,0,1.45.65A1.7,1.7,0,0,0,98,45.33a3.07,3.07,0,0,0,.5-1.88,3,3,0,0,0-.5-1.86A1.74,1.74,0,0,0,96.53,41a1.71,1.71,0,0,0-1.44.63A3,3,0,0,0,94.6,43.45Z"/><path class="cls-3" d="M104.06,46.78a2.66,2.66,0,0,1-1.15-.23,2.16,2.16,0,0,1-.87-.71h0a7.59,7.59,0,0,1,.07,1.07v2.64h-1V40.24h.79l.13.88h0a2.37,2.37,0,0,1,.87-.76,2.66,2.66,0,0,1,1.15-.23,2.37,2.37,0,0,1,2,.87,3.9,3.9,0,0,1,.69,2.45,3.85,3.85,0,0,1-.7,2.46A2.4,2.4,0,0,1,104.06,46.78ZM103.92,41a1.71,1.71,0,0,0-1.43.55,2.85,2.85,0,0,0-.45,1.73v.22a3.21,3.21,0,0,0,.45,1.94,1.73,1.73,0,0,0,1.45.58,1.49,1.49,0,0,0,1.3-.68,3.09,3.09,0,0,0,.47-1.85,3,3,0,0,0-.47-1.84A1.53,1.53,0,0,0,103.92,41Z"/><path class="cls-3" d="M111,46.78a3,3,0,0,1-2.25-.86,3.38,3.38,0,0,1-.82-2.41A3.73,3.73,0,0,1,108.7,41a2.52,2.52,0,0,1,2-.91,2.4,2.4,0,0,1,1.91.79,3,3,0,0,1,.7,2.1v.61h-4.42a2.57,2.57,0,0,0,.57,1.72,2,2,0,0,0,1.53.58,5.1,5.1,0,0,0,2-.43v.87a5.06,5.06,0,0,1-1,.32A5.6,5.6,0,0,1,111,46.78Zm-.26-5.84a1.61,1.61,0,0,0-1.24.51,2.42,2.42,0,0,0-.54,1.39h3.36a2.17,2.17,0,0,0-.41-1.41A1.48,1.48,0,0,0,110.74,40.94Z"/></svg>