<?xml version="1.0" encoding="utf-8"?>
<!-- Generator: Adobe Illustrator 22.0.1, SVG Export Plug-In . SVG Version: 6.00 Build 0)  -->
<svg version="1.1" id="Layer_1" xmlns="http://www.w3.org/2000/svg" xmlns:xlink="http://www.w3.org/1999/xlink" x="0px" y="0px"
	 viewBox="0 0 515 141" style="enable-background:new 0 0 515 141;" xml:space="preserve">
<style type="text/css">
	.st0{fill:url(#SVGID_2_);}
	.st1{fill:url(#SVGID_3_);}
	.st2{fill:url(#SVGID_5_);}
	.st3{fill:url(#SVGID_6_);}
	.st4{fill:url(#SVGID_8_);}
	.st5{fill:url(#SVGID_9_);}
	.st6{fill:url(#SVGID_11_);}
	.st7{fill:url(#SVGID_12_);}
	.st8{fill:url(#SVGID_14_);}
	.st9{fill:url(#SVGID_15_);}
	.st10{display:none;fill:#0081AE;}
	.st11{font-family:'BandaRegular';}
	.st12{font-size:36px;}
	.st13{fill:#0081AE;}
</style>
<image style="display:none;overflow:visible;" width="515" height="141" xlink:href="Mobile-header.png"  transform="matrix(1 0 0 1 0.6667 0)">
</image>
<g>
	<g>
		<g>
			
				<linearGradient id="SVGID_2_" gradientUnits="userSpaceOnUse" x1="55.8015" y1="-44.5174" x2="50.6744" y2="-30.4305" gradientTransform="matrix(1 0 0 -1 0 -19)">
				<stop  offset="0" style="stop-color:#F58820"/>
				<stop  offset="1" style="stop-color:#F6901F"/>
			</linearGradient>
			<path id="SVGID_1_" class="st0" d="M56.9,9.4c-0.2,0-0.3,0.1-0.5,0l0,0c-0.2,0.3-0.5,0.3-0.8,0.4l0,0c-0.2,0-0.4,0.2-0.5,0.2l0,0
				c-0.1,0-0.2,0-0.3,0l0,0c-0.1,0-0.2,0-0.3,0l0,0c-1,0.2-1.7,1.3-2.7,1.4l0,0c-0.1,0-0.1,0-0.1,0l0,0c0,0-0.1,0-0.2,0l0,0
				c-0.7,0.5-1.2,1.4-1.9,1.8l0,0c-0.1-0.2,0.2-0.5,0-0.6l0,0c-0.1,0.4-0.4,0.1-0.7,0.5l0,0c0-0.1,0.2-0.3,0-0.3l0,0
				c0,0.3-0.2,0.3-0.2,0.1l0,0c-0.1,0.1-0.1,0.4-0.2,0.4l0,0c0-0.1,0.1-0.4-0.1-0.5l0,0c0,0.2-0.1,0.3-0.1,0.4l0,0
				c-0.1-0.1-0.1-0.2-0.3-0.1l0,0c-0.5,0.4-0.9,0.6-1.1,1.5l0,0c-0.3,1.6-0.6,4.1-0.6,5.6l0,0c0.1,0.2,0.3,0.2,0.3,0.4l0,0
				c0.1,0.6,0,1.1,0.1,1.5l0,0c0.7-0.1,1.5-0.3,1.8,0.2l0,0c0.2,0.9,0.7,1.6,1,2.4l0,0c0.8,0.2,1.3,0.8,2.1,1.1l0,0
				c0.4-0.6,0.9-0.4,1.5-0.2l0,0c0.5,0.2,1,0.4,1.3,0l0,0c0.2,0.1,0.2,0.3,0.5,0.3l0,0c0.6-0.8,0.3-2.5,1-3.2l0,0
				c0.8-4.2,1.3-8.6,1.6-13.1l0,0c-0.1-0.1-0.2-0.1-0.3-0.1l0,0C57.2,9.3,57,9.3,56.9,9.4"/>
		</g>
	</g>
	<g>
		<g>
			
				<linearGradient id="SVGID_3_" gradientUnits="userSpaceOnUse" x1="100.98" y1="-81.3608" x2="80.3076" y2="-24.5638" gradientTransform="matrix(1 0 0 -1 0 -19)">
				<stop  offset="0" style="stop-color:#F37721"/>
				<stop  offset="1" style="stop-color:#F68E20"/>
			</linearGradient>
			<path id="SVGID_4_" class="st1" d="M80.8,55.6C80.8,55.6,80.8,55.6,80.8,55.6L80.8,55.6L80.8,55.6C80.8,55.6,80.8,55.6,80.8,55.6
				 M80.8,55.6C80.8,55.6,80.8,55.6,80.8,55.6L80.8,55.6c0-0.1,0-0.1-0.1-0.2l0,0C80.8,55.5,80.8,55.6,80.8,55.6 M79.1,45.4
				c0-0.1,0-0.2,0-0.3l0,0C79.1,45.1,79.1,45.3,79.1,45.4 M79.2,41.4C79.2,41.4,79.2,41.4,79.2,41.4L79.2,41.4
				C79.2,41.4,79.2,41.4,79.2,41.4 M90.8,60.7c-0.1-0.1-0.3-0.1-0.3-0.3l0,0c0.2,0,0.2,0.1,0.3,0.2l0,0
				C90.8,60.7,90.8,60.7,90.8,60.7L90.8,60.7C90.7,60.8,90.7,60.7,90.8,60.7 M90,59.5c0.2,0.1,0.4,0.6,0.6,0.9l0,0
				C90.4,60.1,90.2,59.8,90,59.5 M89.6,58.4c0.2,0,0.1,0.4,0.3,0.5l0,0c0,0,0,0,0,0l0,0C89.7,58.9,89.6,58.5,89.6,58.4 M88.6,57.3
				c0.3,0.5,0.5,1.2,0.7,1.6l0,0C88.9,58.5,88.8,57.9,88.6,57.3 M89.1,57c0.1,0.3,0.3,0.5,0.3,0.8l0,0C89.2,57.7,89.2,57.3,89.1,57
				 M88.4,56.6c0-0.1,0.1,0.4,0.2,0.6l0,0c0,0,0,0,0,0l0,0C88.4,57.2,88.3,56.8,88.4,56.6 M87.9,56.4c0.1-0.2,0.2,0.1,0.2,0.3l0,0
				C87.9,56.6,88,56.4,87.9,56.4 M87.2,52.7c0.2,1.1,0.4,2.4,0.6,3.3l0,0C87.4,55.1,87.3,53.7,87.2,52.7 M90,54
				c-0.3-0.7-0.2-0.9-0.5-1.4l0,0c0.2-0.1,0.2,0,0.2,0.2l0,0c0,0.1,0,0.2,0.1,0.2l0,0c0.2,1.2,0.5,1.7,0.6,2.6l0,0
				c0.2-0.2,0.2,0.4,0.3,0.7l0,0c-0.5-0.3-0.3-1.1-0.7-1.6l0,0c0.1-0.1-0.1-0.3,0.1-0.3l0,0c-0.2-0.1-0.2-0.2-0.3-0.4l0,0
				C89.9,54,89.9,54,90,54L90,54C89.9,54,89.9,54,90,54L90,54C90,54,90,54,90,54 M89.6,52.2v0.2c-0.1,0,0-0.1-0.1-0.1l0,0
				c-0.1,0-0.1,0-0.1,0.1l0,0c-0.1,0,0-0.1-0.1-0.1l0,0c0-0.1,0.1-0.1,0.1-0.1l0,0c0,0,0,0,0,0l0,0C89.5,52.2,89.6,52.2,89.6,52.2
				 M87.1,52c0.1,0,0.1,0.4,0.1,0.6l0,0C87.1,52.5,87.1,52.2,87.1,52 M89.2,50.2c0.1,0.2,0,0.1,0.2,0.1l0,0c-0.1,0.1,0,0.2-0.2,0.2
				l0,0c0.1,0.3,0.5,0.6,0.2,0.8l0,0c0,0.1,0.1,0,0.2,0.1l0,0c0,0.2-0.1,0.3-0.1,0.6l0,0c-0.2-0.1-0.1-0.7-0.3-0.6l0,0
				c0.1-0.2,0.1-0.2,0-0.3l0,0c0.1,0,0.1,0.2,0.2,0.2l0,0c0-0.1-0.2-0.1-0.1-0.2l0,0c-0.1-0.1-0.2-0.1-0.1-0.3l0,0
				c-0.1,0.1-0.1,0-0.1,0l0,0c0,0,0-0.1-0.1-0.1l0,0C89.2,50.4,89.1,50.4,89.2,50.2 M89.2,49.5c0.1,0.1,0.1,0.2,0.1,0.3l0,0
				c-0.1-0.3-0.1,0-0.2,0.2l0,0c-0.1-0.1,0-0.4-0.1-0.5l0,0C89.1,49.5,89.1,49.6,89.2,49.5L89.2,49.5C89.2,49.6,89.2,49.5,89.2,49.5
				 M89,47.8c0-0.1,0.1,0,0.1-0.1l0,0c0.1,0,0,0.1,0,0.1l0,0c0,0.1,0.1,0.2,0.1,0.4l0,0c-0.1-0.1-0.1-0.1-0.2,0l0,0
				c0.3,0.3,0.2,0.7,0.3,1.2l0,0h-0.2C89.2,48.8,88.7,48.3,89,47.8L89,47.8c0,0.1,0,0.2,0.1,0.2l0,0c0,0,0,0,0,0l0,0
				C89.1,48,89.1,47.8,89,47.8 M88.9,46c0.2,0.1,0.1,0.3,0.3,0.3l0,0c0,0,0,0,0,0l0,0c0,0,0,0,0,0l0,0c0,0,0,0,0.1,0l0,0
				c0,0.1,0,0.2,0.1,0.2l0,0c-0.1,0.2-0.1-0.1-0.1-0.2l0,0h0l0,0c-0.1,0.1-0.2,0.2-0.2,0.4l0,0c0,0.1,0,0,0.1,0l0,0c0,0,0.1,0,0.1,0
				l0,0c-0.2,0.2,0.2,0.8-0.2,1l0,0c0-0.2-0.1-0.4,0.1-0.5l0,0c-0.2-0.1-0.3-0.8,0-0.7l0,0C88.9,46.3,88.8,46.2,88.9,46 M89.1,45.2
				c0.1,0.3-0.2,0.2-0.2,0.5l0,0C88.8,45.5,88.8,45.3,89.1,45.2 M91.3,61.1c-2-2.9-3.1-7.2-3.3-11.7l0,0c-0.1-1.9,0-2.9,0-4.9l0,0
				c0.2,3.7,0.7,6.9,1.5,9.9l0,0c0.8,2.9,2.3,5.5,3.3,8.1l0,0C92.2,62.4,91.7,61.7,91.3,61.1 M88.8,44.6c0.2-0.1,0.1,0.1,0.2,0.1
				l0,0c-0.2,0.2,0,0.4-0.2,0.6l0,0C88.7,45.2,88.9,44.9,88.8,44.6 M88.6,44.9c-0.1-0.6,0-0.6,0.1-0.1l0,0c0,0.1-0.2,0.3-0.1,0.5
				l0,0c-0.1,0.1-0.1,0-0.1-0.1l0,0C88.5,45,88.6,44.9,88.6,44.9L88.6,44.9C88.7,44.9,88.6,44.9,88.6,44.9 M88.9,44
				c0.1,0.2,0,0.3,0,0.5l0,0C88.8,44.4,88.8,44.1,88.9,44 M88.4,43.9c0.1-0.1,0.1-0.3,0.1-0.5l0,0c0-0.1,0.1,0.1,0.1,0.2l0,0
				C88.5,43.7,88.5,43.9,88.4,43.9L88.4,43.9C88.4,43.9,88.4,43.9,88.4,43.9 M89,43.1c0.1,0,0.1,0.7,0,0.8l0,0c-0.1,0,0-0.1-0.1-0.1
				l0,0c-0.1,0.2-0.2,0-0.2-0.2l0,0c0.1,0,0.1,0.1,0.2,0.1l0,0c0-0.1-0.3-0.3,0.1-0.3l0,0c0-0.1-0.1-0.1-0.2-0.1l0,0
				c0,0-0.1,0-0.1,0l0,0c0-0.1,0.2-0.2,0-0.2l0,0c0-0.1,0.1-0.1,0.1,0l0,0c0,0,0,0,0.1,0l0,0C89,43.3,89,43.2,89,43.1 M88.9,42.7
				c0.1,0,0,0.3,0.1,0.5l0,0C88.8,43.1,88.8,42.9,88.9,42.7 M88.5,42.7c0.1,0,0.1,0.1,0.2,0.1l0,0c-0.2,0.3,0.1,0.8-0.2,1l0,0
				c0.1-0.3-0.2-0.4-0.1-0.8l0,0c0.1-0.2,0.1,0.2,0.1,0.3l0,0C88.6,43,88.6,42.9,88.5,42.7 M89.2,42.9c0-0.2,0.1-0.2,0.1-0.3l0,0
				C89.3,42.6,89.3,43,89.2,42.9L89.2,42.9C89.2,43,89.2,43,89.2,42.9 M89,42.3c0.2,0,0.1,0.3,0.1,0.5l0,0
				C88.9,42.8,89,42.5,89,42.3 M89,42.2c0,0.2-0.1,0.2-0.1,0.3l0,0C88.9,42.4,88.7,42.1,89,42.2 M89.1,41.1c0.2,0,0,0.4,0.1,0.5l0,0
				C89,41.5,89.1,41.3,89.1,41.1 M89.1,41c0.1,0.1-0.1,0.2-0.1,0.3l0,0c-0.1,0-0.1-0.1-0.1-0.3l0,0c0,0,0,0,0.1,0l0,0
				C89,41,89.1,41,89.1,41 M88.5,40.7c0-0.1,0.1-0.2,0.1-0.3l0,0c0.2,0,0.2,0.2,0.2,0.3l0,0c0,0.2,0,0.4,0.1,0.3l0,0
				c0.1,0.1,0,0.3-0.2,0.2l0,0c0-0.1,0.2-0.2-0.1-0.2l0,0C88.6,40.9,88.7,40.7,88.5,40.7 M88.8,40.5v-0.3c0.1,0.3,0.2,0.1,0.3,0.5
				l0,0C88.9,40.6,89,40.5,88.8,40.5 M88.7,39.7c0.2,0.1,0.1,0.4,0,0.6l0,0C88.5,40.2,88.7,40,88.7,39.7 M87.8,41.9
				c0-0.8,0-1.9,0.3-2.4l0,0C88,40.3,88,41.2,88,42l0,0c0,0.4,0,0.9-0.1,1.3l0,0c-0.1,0.5,0.1,1,0.1,1.4l0,0c0,0.1-0.1,0.3-0.1,0.5
				l0,0c0,0.1,0.1,0.1,0.1,0.1l0,0c-0.1,0.4-0.2,0.8-0.1,1.3l0,0c0,0,0,0.1,0,0.1l0,0c0,0,0-0.1,0-0.1l0,0c-0.1-0.3-0.1,0.9,0,1.1
				l0,0c-0.1,0,0-0.1-0.1-0.1l0,0c-0.2,0.3,0.1,0.7,0.1,1l0,0c0,0.2-0.1,0.7,0.1,0.9l0,0c-0.1,2.6,0.4,4.2,0.8,6.1l0,0
				c0.1,0.2,0.1,0.5,0.1,0.8l0,0C87.5,52.1,87.5,47.1,87.8,41.9 M89.2,39.1c0.2,0.1,0,0.2,0,0.4l0,0h-0.2c0,0.1,0.1,0,0.2,0.1l0,0
				c0,0.1-0.2,0-0.2,0l0,0c0-0.1,0-0.3,0.1-0.3l0,0c0.1,0,0,0.1,0.1,0.2l0,0C89.2,39.4,89.2,39.2,89.2,39.1 M89.3,38
				c-0.1,0.2-0.1,0.3,0.1,0.6l0,0c-0.1,0-0.2-0.1-0.2-0.2l0,0c0-0.1,0-0.2-0.2-0.2l0,0C89.1,38,89.2,37.9,89.3,38 M89.3,37.5
				c-0.2-0.1-0.1-0.4-0.1-0.6l0,0c0,0,0.2,0,0.2-0.1l0,0c0.1,0.1-0.2,0.2-0.1,0.4l0,0c0.1,0.1,0.2,0.2,0.4,0.3l0,0
				c-0.1,0.1-0.1,0.1-0.2,0.1l0,0c-0.1,0-0.1,0-0.2,0.1l0,0c0.1,0.1,0.1,0.1,0.1,0.3l0,0c-0.1,0-0.1,0-0.1-0.1l0,0
				c0-0.1,0-0.1-0.1-0.1l0,0C89.1,37.6,89.1,37.5,89.3,37.5 M89.5,36.1c0-0.1-0.1-0.2-0.1-0.3l0,0c0.2,0.1,0,0.2,0.1,0.5l0,0
				c-0.1,0-0.1,0-0.1-0.1l0,0c0-0.1,0-0.1-0.2-0.1l0,0c0-0.1,0.2-0.2,0.1,0l0,0C89.4,36.1,89.4,36.1,89.5,36.1 M89.8,31.3
				c0-0.2,0-0.1,0-0.3l0,0H90C90,31.2,89.9,31.2,89.8,31.3L89.8,31.3c0.1,0,0.1,0,0.1,0l0,0c0,0,0.1,0,0.1,0l0,0
				c0,0.1,0,0.1-0.1,0.1l0,0C89.9,31.4,89.8,31.3,89.8,31.3 M92.9,1.5c0,0.3,0,0.5-0.2,0.6l0,0c0-0.2-0.2-0.2-0.3-0.2l0,0
				c0-0.1,0-0.5-0.1-0.3l0,0c0,0.4,0,0.7-0.4,0.6l0,0c-0.1-0.1-0.2-0.3-0.3-0.4l0,0C91.6,2,91,2.2,91,1.9l0,0
				c-0.1,0.4-0.2,0.6-0.5,0.8l0,0c-0.1-0.1-0.2-0.1-0.2-0.3l0,0c-0.3,0-0.5,0.6-0.6,0.2l0,0c0,0.4-0.2,0.4-0.3,0.3l0,0
				c-0.1,0-0.1,0-0.2,0l0,0c-0.4,0-1.4,0.7-1.7,0.2l0,0c-0.1,0.4-0.7,0.4-1,0.3l0,0c-0.3,0.3-0.4,1-0.8,1l0,0
				c-0.1,0.3-0.2,0.5-0.3,0.8l0,0c-0.6,1.3-1.2,3.1-1.7,4.8l0,0c-0.4,1.4-1.1,3.3-1.1,4.2l0,0c0.1-0.2,0.1-0.4,0.2-0.6l0,0
				c-1.9,8.4-3.2,18.8-3.6,27.9l0,0c0,0,0-0.1,0.1,0l0,0c0,0.3-0.2,0.4-0.1,0.7l0,0c0,0,0-0.1,0.1-0.1l0,0c0.1,0.2-0.3,0.6,0,0.4
				l0,0c-0.3,0.3-0.1,0.8-0.2,1.2l0,0c0.1,0,0.1,0,0.1-0.1l0,0c0-0.1,0-0.1,0.1-0.1l0,0c0,0.5,0,1.2-0.1,1.7l0,0c0,0,0.1,0,0.1,0
				l0,0c-0.1,0.5-0.1,0.9-0.1,1.1l0,0c-0.2-0.1-0.2,0.3-0.1,0.3l0,0c0-0.1-0.1-0.3,0.1-0.3l0,0c0,2,0.2,5.4,1.1,7.4l0,0
				c-0.2,0.8,0.5,1.4,0.5,2l0,0c0,0,0,0,0,0l0,0c0.2,0.3,0.3,0.8,0.3,0.6l0,0c0.2,0.1,0,0.3,0.1,0.4l0,0c0.1-0.2,0.2,0.5,0.3,0.7
				l0,0c0,0.1,0.2,0,0.2,0.1l0,0c0.2,0.2,0.3,0.5,0.3,0.7l0,0c0.8,0.6,1.6,1.9,2.7,2.1l0,0c0.6,0.9,1.6,1.5,2.4,2.2l0,0
				c0.2-0.2,0.5-0.1,0.8,0l0,0c0.3,0.1,0.6,0.3,0.9,0l0,0c0.3,0.2,0.4,0.4,0.7,0.6l0,0c-0.1-0.4-0.5-0.4-0.5-0.9l0,0
				c0.1,0,0.2,0.3,0.3,0.2l0,0c-0.1,0-0.3-0.2-0.1-0.3l0,0c0.8,0.8,1.5,2,2.6,2.4l0,0c-0.7-0.3-1.1-1.1-1.4-1.6l0,0
				c0.4,0.5,0.9,1.2,1.5,1.5l0,0c-0.6-0.4-1.1-1.2-1.5-1.6l0,0c0.1-0.1,0.2,0,0.3,0.1l0,0c0-0.2-0.2-0.2-0.2-0.4l0,0
				c0.2,0,0-0.1,0.1-0.1l0,0c0.5,0.5,1.2,0.9,1.8,1.3l0,0c0.4,0.3,0.7,0.8,1.1,0.6l0,0c-0.4-0.3-0.9-0.5-1-1.1l0,0
				c0.6,0.5,1.2,1.3,1.9,1.6l0,0c-0.6-0.5-1.2-1-1.7-1.6l0,0c0.7,0.4,1.4,0.9,2.3,1.1l0,0c-0.3-0.3-0.8-0.5-1-0.8l0,0
				c0,0.2-0.3,0-0.3-0.1l0,0c0.3-0.4-0.5-0.8-0.4-1.2l0,0c-0.7-1-1.3-2.2-1.9-3.4l0,0c0-0.1,0-0.1,0.1,0l0,0c0,0,0.1,0.1,0.1-0.1
				l0,0c-0.4-0.4-0.8-1.1-0.8-1.8l0,0c0.8,1.7,1.5,3.1,2.6,4.5l0,0c-0.1,0-0.1,0,0,0.1l0,0c0.1,0.1,0.2,0.1,0.2,0.1l0,0
				c-0.2-0.3-0.6-1-0.6-0.8l0,0c0-0.1,0.1-0.1,0.1-0.2l0,0c-0.2,0-0.2-0.3-0.3-0.5l0,0c-0.1-0.2-0.3-0.2-0.3-0.4l0,0
				c0-0.1,0.1-0.2,0.1-0.2l0,0c-0.2-0.4-0.7-0.9-0.9-1.5l0,0c-0.2-0.6-0.5-0.9-0.6-1.5l0,0c-0.1-0.3-0.2-0.5-0.3-1l0,0
				c-0.3-1.2-0.7-2.5-0.9-3.8l0,0c-0.1-0.3-0.1-0.2-0.2-0.1l0,0c0.1-0.7,0-1.3-0.2-1.8l0,0c0.3-0.3,0-1.2-0.1-1.8l0,0
				c0,0.1-0.1,0.1-0.1,0l0,0c0-0.1-0.2-0.3,0-0.4l0,0c0.1,0,0.1,0.1,0.1,0.2l0,0c0,0.1,0,0.2,0.1,0.2l0,0c0.2-0.4-0.4-0.7-0.2-1.1
				l0,0c0.2,0-0.1,0.4,0.2,0.3l0,0c-0.1-1.6-0.1-3.5,0-5.2l0,0c0-0.7,0.2-1.9,0.1-2.3l0,0c0.2-0.3,0.2-1.3,0.1-1.6l0,0
				c-0.1,0,0,0.2-0.1,0.2l0,0v-0.3c0.1,0,0.1,0.1,0.2,0.1l0,0c0.2-3.7,0.7-8.3,1.3-11.9l0,0c0-0.1-0.3-0.1-0.2-0.3l0,0
				c0.1,0,0,0.1,0.2,0.1l0,0c0.3-0.9,0.4-2,0.5-2.8l0,0c0.1,0,0.1,0.1,0.1-0.1l0,0c0.2-2,1-4.4,1.2-6.4l0,0c0.3,0,0.3-0.5,0.2-0.7
				l0,0c0.5-1.4,0.7-2.8,1.2-4.3l0,0c0.6-2.1,1.6-4.3,2.3-6.3l0,0c0.4-1,0.8-2.5,0.2-3.5l0,0c0,0-0.1,0-0.1,0l0,0
				c-0.1,0-0.1,0-0.2,0l0,0c0-0.4-0.2-0.1-0.3-0.4l0,0c-0.1,0.1,0,0.5-0.2,0.5l0,0c-0.1-0.2,0-0.6-0.1-0.5l0,0
				c-0.1,0.2-0.2,0.3-0.3,0.5l0,0c0-0.1,0-0.3-0.1-0.4l0,0c0.1,0.2-0.1,0.4-0.2,0.3l0,0c0-0.1,0-0.2-0.1-0.2l0,0
				C95.2,2.1,95.1,2,95,2l0,0c-0.1,0-0.1-0.1-0.2,0.1l0,0c0-0.2-0.1-0.2-0.2-0.2l0,0c0,0.5-0.1,0.9-0.3,1.2l0,0V2
				C94.2,1.9,94.1,2,93.9,2l0,0c0,0-0.1,0-0.1,0l0,0c-0.1-0.3-0.3-0.4-0.5-0.6l0,0C93.2,1.5,93.1,1.6,92.9,1.5"/>
		</g>
	</g>
	<g>
		<g>
			
				<linearGradient id="SVGID_5_" gradientUnits="userSpaceOnUse" x1="43.1301" y1="-88.155" x2="21.096" y2="-27.6166" gradientTransform="matrix(1 0 0 -1 0 -19)">
				<stop  offset="0" style="stop-color:#0080AB"/>
				<stop  offset="1" style="stop-color:#04B5C4"/>
			</linearGradient>
			<path id="SVGID_7_" class="st2" d="M33.8,7.2C33.8,7.2,33.8,7.2,33.8,7.2L33.8,7.2C33.8,7.2,33.8,7.2,33.8,7.2 M33.8,7.2
				c0,0,0-0.1,0-0.1l0,0C33.8,7,33.8,7.1,33.8,7.2 M40.1,20.8c0-0.1,0.2,0,0.1-0.2l0,0c0.2,0,0,0.2,0.1,0.3l0,0
				C40.2,20.8,40.2,20.8,40.1,20.8 M37.8,20c0.1,0.2-0.1,0.5-0.1,0.7l0,0C37.6,20.5,37.8,20.2,37.8,20 M40.3,11.1
				c0.1,0.1,0.2,0.3,0.1,0.3l0,0C40.1,11.4,40.3,11.2,40.3,11.1 M41.6,7.9c0,0.7-0.6,1.6-0.7,2.3l0,0C40.9,9.5,41.3,8.8,41.6,7.9
				L41.6,7.9L41.6,7.9 M43.5,3.7c0,0,0.1,0.1,0.2,0.1l0,0c0,0.1-0.1,0-0.2,0.1l0,0c0,0.1,0,0.2-0.1,0.3l0,0c0,0,0,0,0,0l0,0
				C43.3,4.1,43.5,3.8,43.5,3.7 M39.2,3.3C39,3.2,39.1,2.5,39,2.6l0,0c-0.1,0.2-0.1-0.2-0.2-0.2l0,0c-0.4,0.3-0.5,0.9-0.9,1.2l0,0
				c-0.1-0.1-0.4,0-0.5-0.2l0,0c0-0.1,0.2-0.3,0.1-0.3l0,0c-0.1,0.1-0.1,0.2-0.2,0.3l0,0c-0.4-0.1-0.6-0.1-0.8-0.3l0,0
				c-0.2,0.6-0.6,0.9-0.9,1.3l0,0c0-0.1,0-0.2-0.1-0.2l0,0c-0.2,0.7-0.7,1.3-0.7,2l0,0c-0.1,0,0-0.2-0.2-0.1l0,0
				c-0.1,0.3-0.1,0.7-0.3,0.8l0,0c0.2-0.2-0.1-0.3-0.1-0.3l0,0c0-0.3,0.3-0.5,0.2-0.8l0,0C34.3,6.1,34,6.5,33.8,7l0,0c0,0,0,0,0,0
				l0,0c-0.1,0.5-0.3,1.1-0.5,1l0,0c0.1,0.2,0,0.3,0,0.6l0,0c-0.2,0-0.1,0-0.2,0.1l0,0c-4.5,13.4-7.9,27.7-9.4,43.9l0,0
				c-2.5-7.4-5.3-14.4-8-21.6l0,0c-0.1-0.1-0.2-0.2-0.3-0.3l0,0c-0.7-1.5-1.8-3.8-2.9-5.4l0,0c-0.1-0.2-0.4-0.3-0.6-0.6l0,0
				c-0.2-0.2-0.3-0.5-0.5-0.7l0,0c-0.6-0.6-1.5-0.8-1.8,0.2l0,0c-0.6,0.3-1.1,0.5-2,0.5l0,0c-0.3,0.3-0.5,0.6-0.7,1l0,0
				c-0.1,0-0.2,0-0.3,0.1l0,0c-0.1,0-0.1,0.1-0.2,0.1l0,0c-0.5,1.2-1.3,2.1-2.2,2.9l0,0c0,0.7-0.4,0.9-0.6,1.4l0,0
				c2.3,4.9,4.3,10.4,6.4,15.5l0,0c2.8,6.6,5.5,13.7,8,20.6l0,0c0.5,1.5,1,2.8,1.4,4l0,0c0.5,1.5,1.3,3.9,2.2,4.8l0,0
				c0.4,0,0.7-0.1,1.1-0.2l0,0c0.3,0.2,0.7,0.4,1.2,0.5l0,0c0.1,0,0-0.3,0.2-0.3l0,0c0.4,0.1,0.4-0.1,0.7-0.2l0,0
				c0.3,0.1,0.4,0.3,0.6,0.4l0,0c0.3,0,0.5-0.2,0.6-0.5l0,0c0.7,0,1-0.5,1.2-1l0,0c0.2,0.8,1.4,0.4,2.2,0.7l0,0
				c0-0.5,0.6-0.5,0.6-0.9l0,0c0.1,0.1,0.1,0.3,0.3,0.3l0,0c0.6-1.2,1.1-2.5,1.4-3.8l0,0c0,0,0-0.1,0.1-0.1l0,0
				c0.3-0.6,1.2-1.1,1.3-1.9l0,0c0.6-7.6,1-16.6,2.3-23.9l0,0c0,0-0.1,0-0.1,0l0,0c0,0-0.1,0.1-0.1-0.1l0,0c0.2,0,0.3-0.3,0.1-0.2
				l0,0c0.2-1.8,0.8-4,1-5.9l0,0c0.2-1,0.7-2.4,0.7-3.5l0,0c0.6-1,0.5-2.5,1-3.4l0,0c0.4-2.2,0.9-4.1,1.4-6l0,0
				c0-0.1-0.1-0.1-0.1-0.2l0,0c0.4-0.1,0.2-0.8,0.3-1.2l0,0c0,0.1,0.2-0.2,0.2-0.2l0,0c0.3-0.9,0.5-1.9,0.6-2.6l0,0
				c0.4-0.8,0.6-1.8,0.7-2.6l0,0c0.3-0.1,0.2-0.6,0.3-0.9l0,0c0.1-0.3,0.4-0.6,0.3-1l0,0c0.8-2,1.2-3.9,2-5.8l0,0V9.8
				c0.4-0.9,0.8-1.8,0.8-2.8l0,0c0,0,0.1,0,0.1,0l0,0c0,0,0.1,0.1,0.1-0.1l0,0c0.1-0.3,0.1-0.6-0.1-0.9l0,0c0,0,0.2,0,0.2-0.1l0,0
				c0.1-0.6,0.2-1.1,0.1-1.2l0,0c-0.1,0.1-0.3,0.2-0.5,0.3l0,0c0.3-0.3,0-0.6,0.2-0.7l0,0c-0.1-0.1-0.2,0-0.2,0.2l0,0
				c0,0.1-0.1,0.2-0.2,0.2l0,0c0.1-0.1-0.1-0.1-0.2-0.2l0,0c-0.1,0.3-0.2,0.5-0.3,0.6l0,0c0-0.3,0.3-0.5,0.1-0.7l0,0
				c0,0.1,0,0.2-0.1,0.3l0,0c0-0.4,0.2-0.8,0.2-1.2l0,0c-0.1-0.1-0.1,0-0.2,0l0,0c-0.1,0-0.2,0-0.3,0l0,0c-0.3,0.6-0.7,1.3-1.1,1.6
				l0,0c-0.2-0.5,0.1-1.2,0.3-1.9l0,0c-0.1,0.1-0.2,0.2-0.2,0l0,0c0.3-0.3,0.1-1-0.3-1.2l0,0c-0.1,0.3-0.3,0.5-0.6,0.7l0,0
				c-0.2,0-0.1-0.2-0.2-0.2l0,0C41.1,2.7,41.1,3,41,3l0,0c0-0.3,0.2-0.6,0.1-0.7l0,0c-0.2,0.2-0.3,0.5-0.5,0.7l0,0
				c0.1-0.3,0.1-0.3,0.1-0.6l0,0C40.5,2.3,40.4,2.1,40,2l0,0C39.8,2.5,39.7,3,39.2,3.3"/>
		</g>
	</g>
	<g>
		<g>
			
				<linearGradient id="SVGID_6_" gradientUnits="userSpaceOnUse" x1="115.0347" y1="-77.0488" x2="100.2687" y2="-36.4797" gradientTransform="matrix(1 0 0 -1 0 -19)">
				<stop  offset="0" style="stop-color:#026FA1"/>
				<stop  offset="1" style="stop-color:#0293B4"/>
			</linearGradient>
			<path id="SVGID_10_" class="st3" d="M122.6,33.7C122.6,33.7,122.6,33.6,122.6,33.7L122.6,33.7C122.6,33.6,122.6,33.6,122.6,33.7
				 M105.3,26.8c0.1,0,0.1,0,0.1-0.1l0,0C105.3,26.7,105.3,26.8,105.3,26.8 M109.7,22.6C109.7,22.6,109.7,22.6,109.7,22.6
				L109.7,22.6L109.7,22.6L109.7,22.6C109.7,22.6,109.7,22.6,109.7,22.6 M111.6,58.1c0,0.2-0.4,0-0.5,0.2l0,0
				C111,58.2,111.5,58.2,111.6,58.1L111.6,58.1L111.6,58.1 M111.9,57.9c0.2,0.1-0.2,0.2-0.3,0.2l0,0V58c0.1,0,0.1,0,0.2,0l0,0
				C111.9,58,111.9,58,111.9,57.9 M97.8,50.4c0.3-0.4,0.7-0.8,1.1-1.1l0,0c0.1,0.3,0.3,0.5,0.5,0.7l0,0c0,0.3-0.3,0.4-0.3,0.7l0,0
				c0,0,0,0,0,0l0,0C98.6,50.6,98.3,50.4,97.8,50.4 M120.4,49.4c0-0.2,0.1-0.3,0.1-0.5l0,0C120.6,49,120.4,49.5,120.4,49.4
				L120.4,49.4C120.4,49.5,120.4,49.5,120.4,49.4 M101,47.6c-0.4,0.7-1.1,1.5-1.6,2.3l0,0c-0.1-0.2-0.3-0.4-0.3-0.7l0,0
				C99.5,48.5,100.4,48.2,101,47.6L101,47.6L101,47.6 M101.4,50.9c-0.2-0.1-0.5-0.1-0.7-0.2l0,0c0.5-0.7,1.2-1.3,1.9-1.9l0,0
				c2.1-1.7,4.7-3.2,7.4-4.4l0,0c-0.1,1.9-0.6,4-0.9,5.9l0,0c-2.2,0.5-5,0.9-7.4,0.7l0,0c0-0.1,0.1,0,0.1-0.1l0,0
				c-0.2,0.1-0.5,0.1-0.9,0.1l0,0c0-0.1-0.3,0-0.2-0.2l0,0c-0.1-0.1,0.1,0,0.3,0l0,0C101,50.8,101.2,50.9,101.4,50.9L101.4,50.9
				C101.3,50.9,101.4,50.9,101.4,50.9 M122.3,31.6c0.2,0.1,0.2,0.3,0.1,0.5l0,0C122.3,32,122.4,31.8,122.3,31.6 M122.4,30.7
				c0.1,0,0.1,0.4,0,0.5l0,0C122.2,31,122.4,30.8,122.4,30.7 M122.3,28.6c0.2-0.2,0.1,0.5,0.1,0.6l0,0
				C122.3,29.2,122.5,28.7,122.3,28.6 M103.8,25.7c0.1,0.2-0.4,0.3-0.6,0.5l0,0c-0.7,0.5-1.5,1.3-2.2,1.8l0,0
				C101.6,27.1,102.8,26.4,103.8,25.7 M110.7,22.1c-0.1,0.4-0.8,0.3-1,0.6l0,0c0,0,0,0,0-0.1l0,0c-0.9,0.3-1.9,1-2.9,1.4l0,0
				C108,23.1,109.4,22.5,110.7,22.1 M104.1,17C103.9,17.1,104,17,104.1,17L104.1,17c0.2-0.1,0.3-0.2,0.4-0.2l0,0
				C104.6,16.8,104.2,17,104.1,17 M110.3,14c-2.3,0.6-4.1,1.4-6.3,2.3l0,0c-0.1,0.1,0,0.1-0.1,0.2l0,0c-0.1-0.1-0.5,0.1-0.4,0.1l0,0
				c0,0,0.1,0,0.1-0.1l0,0c0.1,0,0.1-0.1,0.2,0l0,0c-0.2,0-0.5,0.3-0.5,0.1l0,0c-0.1,0.3-0.9,0.6-1.2,0.7l0,0
				c0.1,0.1-0.6,0.5-0.8,0.6l0,0c-1.1,0.8-2,1.6-2.7,2.7l0,0c-0.5,0.7-1,1.6-1.1,2.7l0,0c0,0.5,0.1,1,0.1,1.5l0,0
				c-0.1,0.5-0.3,1-0.2,1.6l0,0c0.1,0.4,0.3,0.5,0.5,0.9l0,0c-0.1,0.4-0.3,1.1,0,1.4l0,0c0.2-0.2,0.6,0.4,0.8,0.5l0,0
				c0-0.3-0.3-0.6-0.2-0.8l0,0c0.4,0.5,0.4,1,0.4,1.6l0,0c0.4,0.4,0.8,0.8,1.1,1.4l0,0c0.1,0,0.2,0,0.2-0.1l0,0c0,0,0.1-0.1,0.2-0.1
				l0,0c0.1,0.3,0.4,0.8,0.6,0.7l0,0c-0.3-0.2-0.4-0.6-0.5-1.1l0,0c0.3,0,0.5,0,0.7,0.2l0,0c-0.1-0.3-0.2-0.7,0.1-0.8l0,0
				c0.1,0,0.2,0,0.3,0.1l0,0c0.1,0.1,0.1,0.1,0.2,0.1l0,0c0.2-0.5-0.3-1-0.3-1.5l0,0c0-0.6,0.6-1.1,1-1.5l0,0
				c1.8-1.6,4.8-3.3,6.7-4.2l0,0c-2.5,1.2-4.2,3.2-5.9,5.3l0,0c-0.6,1.1-1.4,2-1.5,3.5l0,0c0.4,0.3,0.5,0.7,1,0.8l0,0
				c0.2-0.3-0.2-0.6-0.1-0.7l0,0c0,0,0.2,0.1,0.2,0l0,0c-0.6-0.8,0.1-2,0.7-2.8l0,0c0.7-1.1,1.4-1.9,1.9-2.6l0,0c0,0-0.1,0-0.1,0
				l0,0c1.5-1.6,3.5-2.8,5.6-3.6l0,0c1.3,2.2,1.2,6.4,1,9.2l0,0c-5.9,1.9-10.8,4.5-15.2,7.7l0,0c-0.1,0.3-0.3,0.4-0.5,0.6l0,0h-0.2
				c-1.2,1.2-2.8,2.7-3.1,5.1l0,0c0,0.4,0.1,0.8,0.1,1.2l0,0c0,0.5-0.2,1.1-0.2,1.6l0,0c0,1-0.2,1.7-0.1,2.5l0,0
				c0.1,0.8,1,1.3,0.7,2.1l0,0c0.3,0.6,0.6,1.2,0.8,1.9l0,0c1,0.9,0.8,2.3,2,3.2l0,0c0.5,0.3,1.4,0.7,2.2,1l0,0c1.8,0.6,4.5,1,6.3,1
				l0,0c1.7,0.1,3-0.3,4.5-0.4l0,0c0.3-0.3,1.1-0.2,1.5-0.5l0,0c-0.1,0-0.2,0-0.2,0l0,0c-0.1,0-0.2,0.1-0.2-0.1l0,0
				c0.8-0.2,1.7-0.2,2.1-0.7l0,0c-0.1,0-0.3,0-0.5,0l0,0c-0.2,0-0.4,0.1-0.6,0l0,0c0.2-0.1,0.5-0.1,0.6-0.3l0,0c0-0.3,0-0.2-0.1-0.2
				l0,0c0,0-0.1,0-0.1,0l0,0c0.1-0.2,0.5-0.1,0.6-0.3l0,0c0,0-0.1,0-0.1,0l0,0c-0.1,0-0.2,0-0.2-0.1l0,0c0.2-0.1,0.5-0.1,0.4-0.3
				l0,0c-0.2,0.1-0.7,0.3-0.9,0.2l0,0c0.6-0.3,1.4-0.4,1.8-0.9l0,0c-0.4,0.1-0.9,0.4-1.3,0.4l0,0c0.4-0.3,1-0.3,1.3-0.7l0,0
				c-0.4,0-0.7,0.4-1.1,0.3l0,0c0.4-0.7,1.3-0.9,2.1-1.2l0,0c0-0.6,0.6-1,0.9-1.5l0,0c0-0.2-0.2-0.6-0.2-0.8l0,0
				c0.2,0.1,0.3,0,0.5-0.1l0,0c0.2-0.1,0.3-0.2,0.4-0.1l0,0c0.2-0.1,0.2-0.4,0.5-0.5l0,0c0.2,0.2,0.8,0.1,0.9,0.3l0,0
				c0.4-0.5,0.7-0.1,1,0l0,0c0.1,0,0.2,0,0.3,0l0,0c0.2,0,0.3-0.1,0.5,0l0,0c0.2-0.1,0.4-0.3,0.6-0.4l0,0c1.5-3.2,2-7.5,2.6-11.6
				l0,0c0.6-0.1,1-0.3,1.3-0.8l0,0c-0.4-0.2-0.1-0.7-0.5-0.8l0,0c0.1-0.2,0.1-0.3,0.2-0.5l0,0c0,0-0.1,0-0.1,0l0,0
				c-0.1,0-0.2,0-0.1-0.1l0,0c0.3,0-0.1-0.2,0.2-0.3l0,0c-0.2-0.1-0.2-0.2-0.3-0.3l0,0c0.1,0,0.1-0.1,0.2-0.1l0,0
				c0-0.2-0.2-0.1-0.2-0.3l0,0c0.2,0,0.3-0.1,0.4-0.2l0,0c-0.2-0.5,0.4-0.5,0.3-1.1l0,0c-0.6-0.1-0.3-0.9-0.3-1.2l0,0
				c0.2,0,0.3,0,0.3-0.2l0,0c-0.3-0.1-0.5,0-0.7-0.2l0,0v-0.3c-0.1,0.1-0.2,0-0.2-0.1l0,0c0-0.1,0-0.1,0.1,0l0,0
				c0.1-0.2-0.3,0-0.3-0.2l0,0c0-0.3,0-0.5,0-0.8l0,0c0,0.1-0.1,0.1-0.1,0.1l0,0c0.1-0.4-0.1-0.8,0.1-1.1l0,0c0,0,0,0,0.1,0l0,0
				c0,0,0.1,0,0.1,0l0,0c0,0.1-0.2-0.1-0.2-0.2l0,0c0-0.2,0.3-0.8,0.1-1.1l0,0c0,0,0,0,0-0.1l0,0c0,0,0,0,0,0.1l0,0c0,0,0,0,0,0l0,0
				c0-0.3-0.2-0.6,0-0.7l0,0c-0.1-0.3,0-0.6,0-0.8l0,0c0-7.8-2.1-15.7-9.2-16.2l0,0c-0.3,0-0.6,0-0.8,0l0,0
				C111.9,13.6,111.1,13.7,110.3,14"/>
		</g>
	</g>
	<g>
		<g>
			
				<linearGradient id="SVGID_8_" gradientUnits="userSpaceOnUse" x1="142.5005" y1="-119.2519" x2="125.8174" y2="-79.7265" gradientTransform="matrix(1 0 0 -1 0 -19)">
				<stop  offset="0" style="stop-color:#F05D24"/>
				<stop  offset="1" style="stop-color:#F26F24"/>
			</linearGradient>
			<path id="SVGID_13_" class="st4" d="M123.2,95.9C123.2,95.9,123.2,95.9,123.2,95.9L123.2,95.9C123.2,95.9,123.2,95.9,123.2,95.9
				 M132,101.1c0.9-0.2,2.2-0.2,3.1-0.4l0,0c0.1,0,0.1,0.1,0.1,0.2l0,0c-1.2,0.3-2.7,0.2-3.9,0.6l0,0
				C131.4,101.3,131.8,101.2,132,101.1 M127.9,100.6c-0.1,0.2-0.6,0.2-0.9,0.2l0,0c-0.1,0-0.2,0-0.2,0l0,0
				C127.1,100.6,127.5,100.7,127.9,100.6L127.9,100.6L127.9,100.6 M137.3,90.2c0.1-0.1,0.1-0.3,0.2-0.5l0,0c0.4-0.5,1-0.8,1.4-1.4
				l0,0c0.2,0,0.3,0.1,0.5,0.1l0,0c0.4,0.6-0.1,1.2-0.5,1.6l0,0c-0.7,0.7-2.3,1.5-3.1,1.9l0,0C135.9,91.1,136.8,90.7,137.3,90.2
				 M139.3,85.9c1,0.2,1.5,0.8,2.2,1.3l0,0C140.8,86.9,139.8,86.5,139.3,85.9 M138.4,85.5c0.1,0.1,0.3,0.1,0.3,0.3l0,0
				C138.6,85.7,138.4,85.7,138.4,85.5 M127.2,77.1c1.3-2.7,3.3-4.8,5.5-6.7l0,0c0.1,0,0.1,0.1,0.2,0.1l0,0c-1.1,2.5-2.9,4.2-3.6,7.1
				l0,0C128.5,77.5,127.8,77.3,127.2,77.1 M128.8,61c-1.8,0.9-3.4,2.4-4.7,3.8l0,0c-1.7,2-3.6,4.5-3.8,7.5l0,0
				c-0.1,1,0.2,1.7,0.2,2.5l0,0c0,0.7,0.3,1.3,0.4,2l0,0c0.1,1,0.2,1.7,0.5,2.4l0,0c0.2,0.5,0.6,0.9,0.9,1.4l0,0
				c0.1,0.2,0,0.4,0.1,0.6l0,0c0.6,1.7,2,2.7,3.4,3.7l0,0c0.8,0.3,1.4,0.9,2.3,1.2l0,0c0.6,0.3,1.5,0.4,2.3,0.5l0,0
				c2.4,0.5,4.9,0.8,6.8,1.6l0,0c-0.2,0.9-1.1,1.4-1.7,1.9l0,0c-2.3,1.8-5.5,3.3-9.4,3.4l0,0c-1.2-0.2-2.8,0-3.8,0.5l0,0
				c-0.1,0.4,0.1,0.6,0.2,0.9l0,0c0.2,0,0.3,0.2,0.5,0.3l0,0c-0.2,0.3,0.4,0.3,0.3,0.6l0,0c0-0.1,0.2,0,0.2,0.1l0,0
				c0,0.5,0.5,0.4,0.6,0.7l0,0c-0.1,0.4-0.2,0.6-0.1,1l0,0c0.5,0.1,1.1,0.1,1.6,0.1l0,0c0.2,0,0.4,0,0.5,0l0,0
				c0.2,0.2-0.1,0.3,0,0.5l0,0c0.3,0.1,0.4,0.4,0.7,0.4l0,0c0.1,0.1,0.1,0.2,0.1,0.3l0,0c-0.2,0.1-0.3,0-0.3-0.1l0,0
				c-0.1-0.1-0.1-0.2-0.2,0l0,0c0,0.3,0.5,0.7,0.8,0.9l0,0c-0.1,0.2-0.2,0.4-0.3,0.6l0,0c0.1,0,0.2,0.1,0.3,0.3l0,0
				c-0.3-0.1-0.2,0.2-0.4,0.2l0,0c0.1-0.3-0.2-0.1-0.1,0l0,0c-0.2-0.1,0.1-0.4-0.1-0.4l0,0c-0.2,0.2-0.5,0.3-0.8,0.3l0,0
				c0.6,0.4,1.5,0.1,2.3,0.1l0,0c-0.2,0.5-1,0.5-1.5,0.8l0,0c0.4,0,0.7-0.1,1-0.2l0,0c-0.2,0.4,0.2,0.5,0.4,0.8l0,0
				c0.7-0.1,1.2-0.1,1.5-0.4l0,0c0,0.1-0.1,0.1,0,0.2l0,0c0.2-0.2,0.7-0.1,1-0.2l0,0c0-0.1-0.1-0.1-0.1,0l0,0c-0.1,0-0.1,0-0.1-0.1
				l0,0c0.2-0.2,0.4-0.1,0.7-0.1l0,0c0.3-0.1,0.2,0,0.5,0l0,0c1.1-0.1,3.3-0.4,4.5-0.4l0,0c0.7-0.3,1.7-0.4,2.4-0.6l0,0
				c0.3-0.1,0.6-0.5,0.9-0.2l0,0c0,0.1-0.1,0.1-0.2,0.1l0,0c0,0,0,0-0.1,0l0,0c0,0.2,0.1,0.1,0.2,0l0,0c0.1-0.1,0.2-0.1,0.3,0l0,0
				c-1.1,0.6-2.4,0.9-4,1l0,0c0,0.2,0.1,0.1,0.3,0.1l0,0c0.1,0,0.2-0.1,0.3,0l0,0c-0.8,0.1-2,0.3-2.1,0l0,0c-0.6,0-0.9,0.3-1.4,0.1
				l0,0c0,0.1-0.2,0.2-0.3,0.2l0,0c0.7,0.1,1.5,0,1.9,0l0,0c0.8,0,1.4,0,2-0.1l0,0c1.7-0.1,3.1-0.8,4.3-1.2l0,0c0.1,0,0.2,0,0.3,0
				l0,0c0.1,0,0.1,0,0.2,0l0,0c0.7-0.3,1.6-1,2.3-1.5l0,0c2-1.5,4.4-4.1,5.1-6.5l0,0c0.6-2.4-0.4-4.7-1.1-6.3l0,0
				c-0.6-1.2-1.2-2.3-2.1-3.2l0,0c-2-2.1-5-3.1-8-3.9l0,0c-0.6-0.2-1.2-0.3-1.8-0.5l0,0c-0.2-0.1-0.4-0.2-0.6-0.3l0,0
				c-1.5-0.4-2.9-0.3-4.5-0.8l0,0c1.6-4.3,4.5-7.6,8.4-9.5l0,0c1.3-0.6,3-1,4.5-1.4l0,0c0.4-0.1,0.8-0.1,1.1-0.2l0,0
				c0.4-0.2,0.8-0.6,1.3-0.8l0,0c0.3-0.3-0.1-0.7-0.2-1l0,0c-0.5,0.2-0.5-0.4-0.6-0.4l0,0c0,0-0.1,0-0.2,0l0,0c-0.1,0-0.2,0-0.2,0
				l0,0c-0.1-0.2,0-0.2-0.3-0.3l0,0c-0.1,0,0-0.3-0.2-0.3l0,0c-0.1-0.2-0.5-0.1-0.5-0.3l0,0c0.2-0.6,0-1.1-0.2-1.5l0,0
				c-0.4-0.1-0.7,0-1.1-0.2l0,0c-0.2-0.1-0.3-0.4-0.6-0.5l0,0c-0.1,0-0.2,0-0.3,0l0,0c-0.1,0-0.2,0-0.2,0l0,0
				c-0.6,0-1.2-0.5-1.9-0.6l0,0c-0.4,0-0.8,0.1-1.2,0.1l0,0c-0.5-0.7-2-0.4-2.3-1.2l0,0c-0.5,0.1-0.7-0.2-0.9-0.4l0,0
				C132.7,59.6,130.4,60.3,128.8,61"/>
		</g>
	</g>
	<g>
		<g>
			
				<linearGradient id="SVGID_9_" gradientUnits="userSpaceOnUse" x1="97.123" y1="-144.8228" x2="76.543" y2="-88.2796" gradientTransform="matrix(1 0 0 -1 0 -19)">
				<stop  offset="0" style="stop-color:#184889"/>
				<stop  offset="1" style="stop-color:#0071A2"/>
			</linearGradient>
			<path id="SVGID_16_" class="st5" d="M79.2,117.6c0-0.1,0-0.1,0-0.2l0,0V117.6z M92.9,126.3c0.2,0.1,0.4,0.1,0.6,0.1l0,0
				c-0.2,0.2-0.5,0.2-0.8,0.2l0,0c-0.1,0-0.2,0-0.4,0l0,0c0-0.2,0.2-0.2,0.3-0.2l0,0c0.1,0,0.1,0,0.1,0l0,0
				C92.8,126.5,92.9,126.5,92.9,126.3 M92.2,122.7c-0.4-0.3-0.6-1.1-0.9-1.7l0,0c-0.3-0.7-0.6-1.4-0.7-2.2l0,0
				c0.7,1.5,1.2,3.1,2,4.5l0,0c0,0,0,0,0,0l0,0C92.3,123.3,92.1,123,92.2,122.7 M79.5,115.3c0.2-0.1,0.1,0.4,0.2,0.6l0,0
				C79.4,115.8,79.6,115.4,79.5,115.3 M88.2,109.1c0.5,0.2,0.3,1.1,0.5,1.5l0,0c-0.1,0,0-0.1-0.1-0.1l0,0c0.2,1.4,0.6,2.7,0.9,4l0,0
				c-0.3,0-0.3-0.5-0.4-0.8l0,0c-0.3-0.9-0.7-2.3-0.6-3.5l0,0c0,0,0,0,0,0l0,0C88.2,110.3,88.3,109.6,88.2,109.1 M85.3,106.8
				c0.1,0.6,0.2,1.1,0.2,1.7l0,0C85.3,108.1,85.3,107.3,85.3,106.8 M87.7,65.8c-0.2,0-0.4,0-0.6,0l0,0c-0.3,0-0.6-0.1-1,0l0,0
				c-0.5,0.6-1.4,0.6-2.1,1l0,0c-0.3,0.1-0.4,0.4-0.6,0.6l0,0c-0.9,0.6-1.9,1.1-3,1.5l0,0c-1.4,4.7-1.7,10.1-2.2,15.6l0,0
				c-0.1,0.9-0.2,1.8-0.2,2.7l0,0c-0.2,3.6-0.3,7.5-0.3,10.9l0,0c0,6-0.1,12.2,1,17.7l0,0c0-0.2,0-0.1,0.1,0l0,0
				c0,0,0.1,0.1,0.1,0.1l0,0c0,0.6,0.3,1.1,0.3,1.6l0,0v-0.1c0.2,0.8,0.6,1.5,0.7,2.4l0,0c0.2,0.1,0.4,0.5,0.4,0.8l0,0
				c0-0.2,0,0,0.1,0l0,0c0,0.2,0.1,0.3,0.1,0.5l0,0c1.5,2.6,3.1,5,6.8,5.4l0,0c0.8,0.8,2.1,1,3.4,0.5l0,0c0.5,0.3,1,0.6,1.8,0.6l0,0
				c0.1-0.1-0.2-0.2-0.1-0.3l0,0c0.6-0.1,0.9-0.5,1.3-0.8l0,0c1.1,0.5,1.9-0.6,3-0.7l0,0c0-0.3-0.1-0.2-0.1-0.4l0,0
				c0.5-0.1,1.2-0.2,1.2-0.6l0,0c-0.2,0.3-1.2,0.4-1.5,0.2l0,0c0-0.3,0.1-0.6,0.5-0.8l0,0c-0.5,0-1,0-1.1-0.3l0,0
				c0-0.3,0.4-0.3,0.4-0.6l0,0c-0.3,0.1-0.4-0.1-0.6-0.1l0,0c-0.3,0-0.6,0-0.8,0l0,0c-0.6,0-1.1,0.1-1.5-0.5l0,0
				c-1.6-3.2-3.1-7.1-3.8-11.1l0,0c0.3,1.3,0.7,2.5,1.1,3.5l0,0c0.8,1.9,2,3.6,3.1,5l0,0c1,1.3,1.8,2.2,3.1,3.2l0,0
				c0.4,0.3,0.9,0.7,1.4,0.7l0,0c0.2,0,0.3-0.3,0.6-0.4l0,0c0.4-0.2,0.7-0.3,0.6-0.6l0,0c-0.1-0.2-0.5-0.1-0.8,0l0,0
				c-0.1-0.1,0.2-0.2,0.1-0.3l0,0c-0.9,0.4-1.4-0.1-2-0.6l0,0c-1.6-1.2-3.1-3.3-4.2-4.8l0,0c0,0.2,0.3,0.3,0.1,0.3l0,0
				c-0.2-0.1-0.3-0.3-0.2-0.6l0,0c-0.7-0.6-1-1.9-1.4-2.7l0,0c-0.4-0.9-0.5-2-0.7-2.9l0,0c-0.1-0.5-0.3-1-0.2-1.5l0,0
				c-0.4-1.9-0.7-3.9-0.9-6.1l0,0c-0.2-3-0.4-6.2-0.3-9.2l0,0c0-1.8,0.2-4.1,0.3-6.2l0,0c0.2-3.4,0.6-6.8,0.8-10.2l0,0
				c0.2-2.7,0.3-5.3,0.4-7.9l0,0c0.1-1.9,0.5-3.9-0.3-5l0,0c-0.1,0-0.2,0-0.3,0l0,0C89.1,65.3,88.5,65.8,87.7,65.8"/>
		</g>
	</g>
	<g>
		<g>
			
				<linearGradient id="SVGID_11_" gradientUnits="userSpaceOnUse" x1="71.8045" y1="-154.161" x2="49.0364" y2="-91.6061" gradientTransform="matrix(1 0 0 -1 0 -19)">
				<stop  offset="0" style="stop-color:#184889"/>
				<stop  offset="1" style="stop-color:#0078A7"/>
			</linearGradient>
			<path id="SVGID_19_" class="st6" d="M73.3,100.1c0.1,0.1-0.2,0.3-0.2,0.5l0,0C73,100.5,73.3,100.3,73.3,100.1 M73.9,99.2
				c-0.2,0.2,0.2,0.5-0.2,0.6l0,0c0-0.1,0.1-0.1,0.1-0.2l0,0c-0.1,0.1-0.2,0.2-0.2,0.4l0,0c-0.2-0.4,0.1-0.4,0.1-0.8l0,0H73.9
				L73.9,99.2 M74,98.8c0-0.1,0.1-0.1,0.1-0.3l0,0C74.3,98.5,74.2,98.8,74,98.8L74,98.8C74,98.8,74,98.8,74,98.8 M74.3,98
				c0.2,0.2-0.1,0.3-0.1,0.5l0,0C74,98.3,74.3,98.2,74.3,98 M74.9,97.2c0.2,0.1-0.1,0.2,0,0.3l0,0C74.7,97.5,74.9,97.3,74.9,97.2
				 M75.1,97c0,0,0.1-0.3,0-0.3l0,0c0.1-0.1,0.2,0,0.2,0.2l0,0C75.3,96.9,75.3,97,75.1,97L75.1,97C75.1,97,75.1,97,75.1,97
				 M75.7,94.4c0.2,0.1,0,0.3,0.1,0.5l0,0c0,0,0,0,0,0l0,0C75.6,94.9,75.8,94.6,75.7,94.4 M76.2,92c0,0.1-0.1,0.1-0.1,0.3l0,0
				c0.1-0.1,0.3,0,0.1,0l0,0c0.1,0.4,0.1,0.6-0.1,0.8l0,0c0-0.2,0.1-0.2,0.1-0.3l0,0C75.9,92.8,76,93,76,93.1l0,0
				c-0.1,0.1-0.1-0.1-0.1-0.2l0,0c0-0.1,0.1-0.3,0.2-0.3l0,0C76.1,92.5,75.9,92,76.2,92 M76.2,90.7c0.2,0.5,0.2,0.8,0.1,1.4l0,0
				C76.3,91.6,76.3,91.2,76.2,90.7 M75.6,90.1c0.3,0.1,0.1,0.5,0.1,0.7l0,0C75.5,90.6,75.7,90.3,75.6,90.1 M75.6,89.5
				c0.1,0.2,0.2,0.3,0.1,0.6l0,0C75.6,89.9,75.6,89.7,75.6,89.5 M53.8,94.4c-0.5-5.1-0.9-9.9,1.3-13.1l0,0c0.6-0.8,1.8-2,2.7-2.5
				l0,0c0.8-0.4,2.2-0.9,3.4-1l0,0c0.5,0,2.2,0,2.7,0.3l0,0c0.5,0.2,0.8,1,1,1.4l0,0c0.3,0.5,0.7,1.1,0.9,1.6l0,0
				c2,4.8,0.2,10.8-1.8,14.2l0,0c-2.3,3.8-5.4,6.7-8.5,9.1l0,0C54.7,101.6,54.1,98,53.8,94.4 M42.9,82.2c-0.1,2.3-0.1,4.8,0.1,7.2
				l0,0c0.5,7.9,2.5,14.8,4,21.7l0,0c-1.4,1.2-3.1,2.1-4.7,3l0,0c0,0.2-0.1,0.2-0.1,0.4l0,0c0.4,0,0.6-0.2,1-0.2l0,0
				c-0.2,0.1-0.4,0.2-0.5,0.3l0,0c0,0.1,0.1,0.1,0.2,0.1l0,0c0.1,0,0.2,0,0.2,0.1l0,0c-0.2,0,0,0.3-0.2,0.4l0,0
				c0.2,0.4,0.7,0.5,0.7,1.2l0,0c0.3,0.3,1,0.2,1.4,0l0,0c0.1,0.1,0.7,0.3,0.3,0.5l0,0c0.3-0.1,0.5,0,0.7,0.1l0,0
				c0.6-0.4,0.9,0.1,1.2,0.4l0,0c0.2,0.2,0.5,0.2,0.6,0.4l0,0c0.1,0.2,0.2,0.5,0.3,0.6l0,0c0.1,0.1,0.4,0.2,0.5,0.3l0,0
				c0.2,0.3,0.3,0.6,0.7,0.7l0,0c1.7,5.5,2.9,11.5,5.4,16.2l0,0c0.1,0,0.2,0,0.3,0.1l0,0c0.1,0,0.2,0.1,0.3,0.1l0,0
				c0,0.1,0.1,0.2,0.2,0.3l0,0c0.3-0.2,0.3,0.2,0.5,0.2l0,0c0.2-0.1,0.3,0,0.5,0l0,0c0.2,0,0.3,0.1,0.4,0l0,0c0,0.1,0.1,0.3,0.1,0.4
				l0,0c0.9,0.4,1.8-0.2,3.1-0.2l0,0c0.1,0.2,0.1,0.4,0.3,0.5l0,0c0-0.2,0-0.4,0.2-0.4l0,0c0.4,0.2,0.6,0.6,0.9,0.8l0,0
				c0.3,0,0.5-0.2,0.6,0.1l0,0c0.1-0.1-0.1-0.3,0.1-0.3l0,0c0.2,0.1,0.3,0.5,0.7,0.6l0,0c0.1-0.1,0.1-0.2,0.2-0.1l0,0
				c0-0.1-0.2-0.3,0-0.4l0,0c0.1,0.3,0.2,0.6,0.5,0.7l0,0c0-0.2,0.1-0.2,0.1-0.1l0,0c0,0,0.1,0.1,0.2,0.1l0,0c0.1-0.3-0.2-0.5,0-0.7
				l0,0c0.2,0.5,0.7,0.3,1.2,0.4l0,0c0.1-0.3,0-0.6,0.1-0.8l0,0c-1.2-2.8-2.4-5.7-3.2-8.8l0,0c-1.1-4.2-2.7-8.3-3.7-12.7l0,0
				c4.3-2.9,8.5-6,11.9-9.9l0,0c0,0.1,0.2,0.1,0.2,0l0,0c0-0.3,0.3-0.4,0.3-0.6l0,0c0,0-0.2-0.1-0.2-0.2l0,0c0-0.1,0.4-0.3,0.3-0.5
				l0,0c0,0.1-0.2,0.2,0,0.3l0,0c0.3,0,0.5-0.4,0.5-0.6l0,0c-0.1,0.1,0,0.3-0.2,0.3l0,0c0-0.4,0.3-0.4,0.4-0.6l0,0
				c0-0.1,0-0.1-0.1,0l0,0c0,0-0.1,0.1,0-0.1l0,0c0.1-0.1,0.2-0.4,0.3-0.2l0,0c0-0.6,0.6-0.9,0.8-1.5l0,0c0,0.3-0.3,0.5-0.1,0.8l0,0
				c-0.2,0-0.1,0-0.3,0.1l0,0c0.1,0.4-0.4,0.5-0.1,0.7l0,0c0.2-0.5,0.8-0.8,0.7-1.4l0,0c0,0.1-0.1,0.4-0.2,0.2l0,0
				c0.1-0.2,0.4-0.7,0.2-0.6l0,0c0-0.2,0-0.4,0.2-0.4l0,0c0,0.1,0,0.2,0.1,0.2l0,0c-0.1-0.3,0-0.6,0.2-0.7l0,0
				c0.1,0.2,0,0.4,0.2,0.2l0,0c-0.1,0.1-0.1,0.3-0.2,0.2l0,0c0-0.1,0-0.2-0.1-0.2l0,0c-0.1,0.2-0.1,0.5,0,0.7l0,0
				c0.4-0.4,0.3-0.9,0.6-1.2l0,0c0,0.1-0.1,0.1-0.1,0.2l0,0c0.4-0.4,0.7-0.9,0.6-1.4l0,0c0.1,0,0.1,0,0.2,0l0,0c0,0,0,0.1,0.1,0l0,0
				c0.1-0.3-0.2-0.2-0.2-0.4l0,0c0.2-0.1,0.2-0.3,0.3-0.5l0,0c0,0.2-0.2,0.3,0.1,0.4l0,0c0.1-0.5,0.5-1,0.6-1.4l0,0
				c0,0-0.2-0.6,0-0.7l0,0c0,0.2,0,0.4,0.2,0.5l0,0c0.3-0.3,0-0.5,0.1-0.8l0,0c0.1,0,0,0.3,0.2,0.3l0,0c0.1-0.3-0.2-0.5,0-0.8l0,0
				c0.1,0,0.1,0,0.1,0l0,0c0,0,0,0,0.1,0l0,0c0.2-1,0.7-2.5,0.6-3.3l0,0c0.1,0,0.1,0.1,0.1-0.1l0,0c0.1-0.6,0.2-1.6,0.1-2.2l0,0
				c0.1-0.6,0.2-1.6-0.1-2.1l0,0c0.1-0.4,0-0.9-0.2-1.2l0,0c0,0.2,0.2,0.5,0,0.6l0,0c-0.1-0.5,0.1-1.2-0.3-1.3l0,0
				c-0.1-0.5,0-0.4-0.2-0.7l0,0c0,0,0.1,0,0.1,0.1l0,0c0,0,0.1,0.1,0.1,0l0,0c-0.5-0.4-0.4-1.5-1.1-1.8l0,0c0.2-0.4-0.4-0.5-0.3-1
				l0,0c0-0.1-0.1-0.1-0.1,0l0,0c0,0-0.1,0-0.1,0l0,0c0.2-0.3-0.4-0.7-0.5-0.8l0,0c0,0,0,0,0.1,0l0,0c0,0,0,0,0.1,0l0,0
				c-0.3-0.1-0.3-0.4-0.4-0.6l0,0c0,0.1-0.1,0.1-0.1,0.1l0,0c0-0.5-0.5-0.4-0.5-0.8l0,0c-0.3,0-0.5-0.3-0.6-0.6l0,0
				c-0.3-0.2-0.6-0.5-0.8-0.8l0,0c-0.1,0-0.1,0-0.1,0l0,0c0,0-0.1,0-0.2,0l0,0c-1.8-2.1-4.6-3.2-7.2-4.5l0,0h-0.3
				c-0.5-0.4-1.1-0.4-1.5-0.7l0,0c-2.7-0.7-5-1.6-8.2-1.8l0,0c-0.1,0-0.2,0-0.3,0l0,0c-0.1,0-0.2,0-0.3,0l0,0c-0.3,0-0.5,0-0.8,0
				l0,0C46.4,72.1,43.2,76.3,42.9,82.2"/>
		</g>
	</g>
	<g>
		<g>
			
				<linearGradient id="SVGID_12_" gradientUnits="userSpaceOnUse" x1="113.767" y1="-133.8388" x2="100.4923" y2="-97.367" gradientTransform="matrix(1 0 0 -1 0 -19)">
				<stop  offset="0" style="stop-color:#009348"/>
				<stop  offset="1" style="stop-color:#3D9F47"/>
			</linearGradient>
			<path id="SVGID_22_" class="st7" d="M120.8,109.1c0.2-0.1,0,0.3,0.2,0.3l0,0c0,0,0,0,0,0l0,0
				C120.9,109.5,120.8,109.3,120.8,109.1 M120.6,108c0.3,0.3,0.1,0.8,0.3,0.8l0,0c0.2,0.2-0.2,0.2-0.2,0.3l0,0
				C120.6,108.7,120.6,108.3,120.6,108 M119.4,107.2c0.2,0.5,0.5,1.8,0.6,2.7l0,0C119.7,109.2,119.6,108.2,119.4,107.2 M119.9,105.6
				c0.1,0,0.1,0.1,0.1,0.2l0,0c0,0.1,0,0.2,0.1,0.2l0,0c0.2-0.1-0.1,0.1-0.1,0.2l0,0C120,106,119.9,105.8,119.9,105.6 M119.8,104.9
				c0.1,0.1,0.2,0.2,0.4,0.2l0,0v0.2c-0.1,0-0.2,0-0.2-0.1l0,0c0,0-0.1-0.1-0.2-0.1l0,0V104.9z M111.1,75.8
				c-0.6,2.8-1.1,5.6-1.8,8.3l0,0c-0.8,3.4-1.5,6.8-2.7,10.1l0,0c0.1-0.6-0.2-0.2,0,0.1l0,0c-0.3,0.3-0.3,0.7-0.4,1.1l0,0
				c-0.8,2.6-1.9,5.5-2.8,7.8l0,0c-0.2,0.7-0.4,1.4-0.7,1.9l0,0c-0.2-3.4-0.3-6.7-0.3-10.2l0,0c0.1-0.2,0.3,0,0.3-0.2l0,0
				c0-0.7,0-1.3-0.1-2l0,0c0-0.8-0.3-1.7-0.3-2.3l0,0c0-0.4,0.4-0.9-0.1-1.2l0,0c-0.1,0.1-0.1,0.3-0.2,0.5l0,0
				c-0.1-0.8-0.5-1.4-1-1.8l0,0c-0.4-0.1-0.5-0.1-0.7-0.3l0,0c-0.3,0.2-0.4-0.1-0.7-0.1l0,0c-0.3,0.1-0.4,0.1-0.7,0.2l0,0
				c-0.4-0.4-1.2-0.9-1.7-0.5l0,0c-0.6-0.2-1-0.2-1.3,0.2l0,0c-0.1,0-0.1,0-0.2,0l0,0c-0.1,0-0.1,0-0.2-0.1l0,0c0.1,0.2,0,0.3,0,0.6
				l0,0c-0.3,0.1-0.6,0.1-0.7,0.1l0,0c-0.2,0.2-0.4,0.4-0.5,0.6l0,0c-0.2-0.3-0.4,0.3-0.7,0.3l0,0c-0.1-0.3-0.4-0.2-0.6-0.1l0,0
				c-0.2,0.1-0.4,0.2-0.5,0l0,0c-0.1,2.8,0.1,6,0.2,8.3l0,0c0.1,2.7,0.2,5.5,0.3,8.2l0,0c0.1,2.4,0.9,6.4,2.1,8.3l0,0
				c0.4,0.6,1,1.2,1.9,1.3l0,0c0.9,0.9,1.9,2.3,3.5,2l0,0c0.9,0.7,2.3,1,3.8,1.1l0,0c0.3-0.5,1.1-0.3,1.6-0.1l0,0
				c1-0.5,1.6-1.4,2.2-2.3l0,0c0.4-0.2,0.7-0.5,1.1-0.7l0,0c0.9-1.1,1.6-2.5,2.2-3.8l0,0c0.2-0.5,0.3-0.9,0.7-1.3l0,0
				c0.1,0.2,0.3,0.2,0.3,0.5l0,0c-0.2-0.1-0.2,0-0.3,0.1l0,0c-0.1,0.1-0.2,0.2-0.4,0.2l0,0c0,0.2,0,0.5,0.1,0.6l0,0
				c0.5-0.1,0.5-0.6,0.8-0.8l0,0c0.4,0.6,1.2,1,2,1.1l0,0c0.3,0.7,1.1,0.9,1.5,1.5l0,0c0.4-0.3,0.6,0.2,0.9,0.3l0,0
				c0.4-0.1,0.5-0.1,0.8,0.1l0,0c0.1-0.3-0.5-0.7-0.3-1l0,0c0.7,0.6,0.9,1.9,2.1,1.8l0,0c0.2,0.2,0.2,0.4,0.5,0.4l0,0
				c0.1-0.1,0.2-0.2,0.5-0.2l0,0c0.5,0.4,1,0.6,1.8,0.7l0,0c0-0.2-0.2-0.3-0.1-0.6l0,0c0.1-0.1,0.1-0.1,0.2,0l0,0c0,0,0.1,0,0.2,0
				l0,0c-0.1-0.5-0.6-0.9-0.7-1.2l0,0c0.1-0.4-0.2-0.8-0.3-1.1l0,0c-0.1-0.3,0-0.7-0.2-0.8l0,0c0,0,0.2,0.1,0.2,0l0,0
				c0,0-0.1,0-0.1,0l0,0c0,0-0.1,0-0.1-0.1l0,0c0.2-0.5-0.2-0.6-0.1-0.8l0,0c0.1-0.1,0.2,0.1,0.2,0.3l0,0c0.1,0.2,0.1,0.4,0.2,0.3
				l0,0c-0.2,0.4,0.2,0.8,0.3,1.1l0,0c0.1,0.7,0.4,1.6,0.9,1.7l0,0c-0.4-0.3-0.3-0.7-0.4-1.2l0,0c-0.2-1.4-0.8-2.7-1.1-4.1l0,0
				c-0.8-3.5-1.1-6.9-1.3-10.7l0,0c-0.2-5.1-0.5-10.4,0.1-15.5l0,0c0-0.1,0.3-0.3,0.1-0.4l0,0c-0.2-0.1-0.2,0.4-0.3,0.6l0,0
				c0-0.5,0.1-0.8,0.2-1.3l0,0c-0.5-0.4-1.2-0.2-1.7-0.4l0,0c-0.2-0.2-0.4-0.4-0.7-0.4l0,0c-0.2-0.6,0.4-1.2,0.2-1.7l0,0
				c-0.2-0.5-1.3-0.6-1.7-0.9l0,0c-0.1,0-0.1-0.2-0.2-0.3l0,0c-0.1-0.1-0.5,0-0.6-0.1l0,0c-0.2-0.1,0-0.1-0.2-0.2l0,0
				c-0.1,0-0.1,0-0.2,0l0,0c-0.1,0-0.1,0-0.2,0l0,0c-0.3-0.1-0.4-0.4-0.7-0.3l0,0c-0.1-0.1,0-0.4-0.2-0.3l0,0c-0.1,0-0.2,0-0.3,0.1
				l0,0c-0.1,0-0.2,0.1-0.3,0.1l0,0c-0.6-0.3-1-0.8-1.8-0.8l0,0C111.3,75.7,111.2,75.7,111.1,75.8"/>
		</g>
	</g>
	<g>
		<g>
			
				<linearGradient id="SVGID_14_" gradientUnits="userSpaceOnUse" x1="79.7448" y1="-84.9609" x2="59.1098" y2="-28.2667" gradientTransform="matrix(1 0 0 -1 0 -19)">
				<stop  offset="0" style="stop-color:#56A646"/>
				<stop  offset="1" style="stop-color:#84BF41"/>
			</linearGradient>
			<path id="SVGID_25_" class="st8" d="M70,56c0.1,0,0,0.2,0.1,0.3l0,0C69.9,56.3,69.9,56,70,56 M69.7,53.3c0.1,0,0,0.6,0.1,0.7l0,0
				C69.6,54,69.8,53.5,69.7,53.3 M69.7,52.3c0.1,0.1,0.1,0.3,0.1,0.5l0,0C69.6,52.8,69.7,52.5,69.7,52.3 M66.3,6.7
				c-0.5,0.7-0.5,1.4-0.7,2.4l0,0c-1,7.7-2.9,14.4-3.8,22l0,0c-0.5,4.2-1.2,8-1.7,12l0,0c-0.5,4.1-1.1,8.3-0.9,12.6l0,0
				c0.2,5.5,1.2,10.5,5.7,11.6l0,0c0.2,0-0.2-0.2,0-0.3l0,0c0.3,0.2,0.9,0.2,1.1,0.5l0,0c0.3-0.1-0.4-0.3-0.2-0.5l0,0
				c2.6,1.1,5.5,1.3,8.4,1l0,0c0-0.3-0.1-0.5,0.1-0.7l0,0c1-0.1,2.5,0.1,2.9-0.9l0,0c-0.5-0.4-1.1-0.4-1.6-0.7l0,0
				c-1.6-1-2.4-3.3-3.7-4.5l0,0c0-0.2-0.1-0.3-0.1-0.6l0,0c-0.2,0.1-0.4-0.2-0.5-0.4l0,0c-0.4-0.8-0.6-2.1-0.9-3.1l0,0
				c0.1-0.6-0.2-1.1-0.2-1.6l0,0c-0.2-1.5-0.1-3-0.1-4.6l0,0c0-1.4,0-2.9,0.2-4.3l0,0c0.3-2.9,0.6-5.8,1-8.5l0,0
				c0.4-2.8,0.9-5.7,1.3-8.5l0,0c0.8-5.8,2-11.3,2.7-16.9l0,0c0.3-2.2,0.6-4.5,0.6-6.9l0,0c0-0.7-0.1-1.5-0.5-2l0,0
				C71.9,4.3,69.4,5.8,66.3,6.7"/>
		</g>
	</g>
	<g>
		<g>
			
				<linearGradient id="SVGID_15_" gradientUnits="userSpaceOnUse" x1="55.4811" y1="-85.5826" x2="43.8613" y2="-53.6574" gradientTransform="matrix(1 0 0 -1 0 -19)">
				<stop  offset="0" style="stop-color:#F37B20"/>
				<stop  offset="1" style="stop-color:#F58720"/>
			</linearGradient>
			<path id="SVGID_28_" class="st9" d="M45.9,34.6c-0.6-0.2-0.9,0.4-1.3,0.6l0,0c0-0.2,0-0.1-0.1,0l0,0c0,0.1-0.1,0.1-0.1,0.1l0,0
				c-0.1,0-0.1-0.2-0.2-0.2l0,0c-1.7,6.7-3.1,14.4-3,22.3l0,0c0.1,0,0.1,0,0.1,0l0,0c0-0.1,0-0.1,0.1,0l0,0
				c-0.1,0.2,0.1,0.2,0.2,0.4l0,0c0.2,0.7,0.1,1.8,0.2,2.6l0,0c0.3-0.1,0.4,0,0.6,0.1l0,0c0.2,0.1,0.3,0.1,0.6,0.1l0,0
				c0.1,0.1,0.2,0.2,0.2,0.5l0,0c0.2-0.3,0.4-0.7,0.9-0.5l0,0c0.2,0.7,0,1.3,0.2,1.9l0,0c0,0,0,0,0.1,0.1l0,0c0.1,0,0.1,0.1,0.1,0.1
				l0,0c0.3,0.4,0.3,1.2,0.6,1.8l0,0c0.5,0.2,0.7,0.7,1.4,0.7l0,0c0.4,0.5,0.6,1.1,0.9,1.6l0,0c0.2,0.1,0.4,0.1,0.6,0.2l0,0
				c0.4,0.9,1.5,1.1,2.1,1.8l0,0c0.5-0.3,0.3-1.1,0.4-1.7l0,0c0.1,0.1,0,0.5,0.2,0.6l0,0c0-0.4-0.2-0.9,0-1.2l0,0
				c0.1,0.7,0,1.5,0.2,1.9l0,0c-0.1-0.7-0.1-1.9-0.1-2.3l0,0c0.2,0.6-0.1,1.7,0.2,2.3l0,0c0.1-1.5,0-2.9,0.1-4.4l0,0
				c0.1-1.5,0.5-2.9,0.7-4.4l0,0c0.1-1,0.1-2.1,0.2-3.2l0,0c0.1-3.8,0.4-7.9,1-11.9l0,0c0.5-3.8,0.8-7.7,1.9-10.8l0,0
				c-0.3-0.4,0.1-1.6-0.6-1.9l0,0C50.8,31.9,48,33,45.9,34.6"/>
		</g>
	</g>
</g>
<text transform="matrix(1 0 0 1 168.8198 75.5397)" class="st10 st11 st12">Always adding extra</text>
<g>
	<path class="st13" d="M182.6,51.1l8.1,21.7c0.1,0.3,0.3,0.4,0.5,0.4c0.5,0.1,0.9,0.6,0.9,1.2c0,0.7-0.6,1.2-1.3,1.2
		c-1.1,0-1.8-0.9-2.2-1.8l-1.9-5.2h-10.7l-1.9,5.2c-0.4,0.9-1.1,1.8-2.2,1.8c-0.7,0-1.3-0.5-1.3-1.2c0-0.6,0.4-1,0.9-1.2
		c0.2,0,0.4-0.2,0.5-0.4l8.1-21.7c0.2-0.6,0.8-0.9,1.3-0.9C181.9,50.2,182.4,50.5,182.6,51.1z M182.2,56.6l-0.9-2.9h0l-0.9,2.9
		l-3.7,9.6h9.1L182.2,56.6z"/>
	<path class="st13" d="M196.3,73V51.9c0-0.4-0.3-0.5-0.3-0.5c-0.4-0.2-0.7-0.6-0.7-1c0-0.7,0.6-1.2,1.2-1.2c1.3,0,2,1.2,2,2.5v21.2
		c0,0.4,0.3,0.5,0.3,0.5c0.4,0.2,0.7,0.6,0.7,1c0,0.7-0.6,1.2-1.2,1.2C196.9,75.5,196.3,74.4,196.3,73z"/>
	<path class="st13" d="M217.9,57.6l3.7,11.4l0.8,3h0l0.9-3l3.7-10.6c0.3-0.9,1-1.6,2-1.6c0.7,0,1.4,0.4,1.4,1.2c0,0.6-0.4,1-0.9,1.2
		c-0.2,0-0.4,0.2-0.5,0.4l-5.5,15.2c-0.3,0.5-0.6,0.8-1.1,0.8s-0.9-0.3-1.1-0.8l-4-12l-0.6-2l-0.5,2l-4,12c-0.1,0.5-0.6,0.8-1.1,0.8
		s-0.8-0.3-1.1-0.8l-5.5-15.2c-0.1-0.2-0.3-0.4-0.5-0.4c-0.5-0.1-0.9-0.6-0.9-1.2c0-0.7,0.6-1.2,1.4-1.2c1,0,1.8,0.7,2,1.6l3.7,10.6
		l0.9,3h0l0.8-3l3.7-11.4c0.1-0.5,0.6-0.8,1.2-0.8C217.3,56.8,217.7,57.1,217.9,57.6z"/>
	<path class="st13" d="M245.6,73.8c-0.1-0.3-0.1-0.7-0.1-1.1c-1,1.8-3.6,3-5.8,3c-3.6,0-6.9-2.1-6.9-6c0-4.7,3.8-6.8,8.2-6.8
		c1.5,0,3.3,0.5,4.4,1.2c0-0.2,0-0.6,0-1c0-0.8-0.1-1.8-0.2-2.1c-0.6-1.6-2.6-2.1-4.7-2.1c-1.6,0-2.7,0.3-4.1,0.6
		c-0.1,0-0.4,0.1-0.5,0.1c-0.6,0-1.1-0.5-1.1-1.1c0-0.5,0.3-0.9,0.8-1.1c1.3-0.5,3.1-0.8,4.8-0.8c3,0,6,0.8,7,3.5
		c0.3,0.8,0.4,1.9,0.4,2.9v9.8c0,0.4,0.3,0.5,0.3,0.5c0.4,0.2,0.7,0.6,0.7,1c0,0.7-0.6,1.3-1.2,1.3
		C246.5,75.7,245.8,74.8,245.6,73.8z M245.5,66.4c-1.6-0.9-3-1.1-4.5-1.1c-2.9,0-5.8,1.3-5.8,4.5c0,2.6,2.3,3.7,4.6,3.7
		c2.7,0,5.7-1.7,5.7-4.7V66.4z"/>
	<path class="st13" d="M252.6,59.6c-0.1-0.3-0.3-0.4-0.5-0.4c-0.5-0.1-0.9-0.6-0.9-1.2c0-0.8,0.6-1.2,1.4-1.2c1,0,1.7,0.6,2,1.5
		l4.4,11.5l0.9,3.1h0l0.9-3.1l4.5-11.6c0.4-0.9,1.1-1.5,2.1-1.5c0.7,0,1.3,0.4,1.3,1.2c0,0.6-0.3,1-0.9,1.2c-0.2,0-0.4,0.2-0.5,0.4
		l-6.3,16.1c-0.7,1.8-1.6,4-3.2,5.2c-0.8,0.5-1.6,0.8-2.4,0.8c-0.9,0-1.9-0.3-2.8-0.6c-0.4-0.2-0.8-0.7-0.8-1.2
		c0-0.6,0.6-1.2,1.2-1.2c0.7,0,1.5,0.5,2.3,0.5c0.4,0,0.8-0.1,1.1-0.3c0,0,1.1-0.9,1.9-3c0.1-0.1,0.1-0.3,0.2-0.5L252.6,59.6z"/>
	<path class="st13" d="M277.3,75.7c-1.8,0-3.9-0.7-5.3-1.7c-0.4-0.3-0.5-0.6-0.5-1c0-0.8,1-1.5,2-0.8c1,0.8,2.5,1.2,4,1.2
		c2.2,0,4.3-1.1,4.3-2.6c0-1.8-2.3-2.6-4.3-3.5c-2.4-0.9-6-2.5-6-5.7c0-2.9,3-5,6.3-5c1.9,0,3.8,0.7,5.1,1.7c0.3,0.3,0.5,0.6,0.5,1
		c0,0.8-1,1.5-1.9,0.8c-1-0.8-2.3-1.2-3.6-1.2c-2.2,0-4,1.3-4,2.8c0,1.7,2.6,2.7,4.3,3.4c2.7,1.1,6.1,2.7,6.1,5.8
		C284.1,74.4,280.1,75.7,277.3,75.7z"/>
	<path class="st13" d="M311.5,73.8c-0.1-0.3-0.1-0.7-0.1-1.1c-1,1.8-3.6,3-5.8,3c-3.6,0-6.9-2.1-6.9-6c0-4.7,3.8-6.8,8.2-6.8
		c1.5,0,3.3,0.5,4.4,1.2c0-0.2,0-0.6,0-1c0-0.8-0.1-1.8-0.2-2.1c-0.6-1.6-2.6-2.1-4.7-2.1c-1.6,0-2.7,0.3-4.1,0.6
		c-0.1,0-0.4,0.1-0.5,0.1c-0.6,0-1.1-0.5-1.1-1.1c0-0.5,0.3-0.9,0.8-1.1c1.3-0.5,3.1-0.8,4.8-0.8c3,0,6,0.8,7,3.5
		c0.3,0.8,0.4,1.9,0.4,2.9v9.8c0,0.4,0.3,0.5,0.3,0.5c0.4,0.2,0.7,0.6,0.7,1c0,0.7-0.6,1.3-1.2,1.3
		C312.4,75.7,311.8,74.8,311.5,73.8z M311.4,66.4c-1.6-0.9-3-1.1-4.5-1.1c-2.9,0-5.8,1.3-5.8,4.5c0,2.6,2.3,3.7,4.6,3.7
		c2.7,0,5.7-1.7,5.7-4.7V66.4z"/>
	<path class="st13" d="M333.3,73v-0.9c-1.3,2.3-3.9,3.5-6.3,3.5h-0.3c-4.8,0-8.2-4.5-8.2-9.6c0-5.2,3.6-9.1,8.6-9.1
		c2.4,0,5.3,1.2,6.3,3.3v-8.5c0-1.4,0.7-2.5,2-2.5c0.6,0,1.2,0.5,1.2,1.2c0,0.4-0.3,0.9-0.7,1c0,0-0.3,0.1-0.3,0.5v21
		c0,0.4,0.3,0.5,0.3,0.5c0.4,0.2,0.7,0.6,0.7,1c0,0.7-0.6,1.2-1.2,1.2C333.9,75.5,333.3,74.4,333.3,73z M327,59.1
		c-3.9,0-6.3,3.2-6.3,6.9c0,3.6,2.4,7.3,6.3,7.3c3.9,0,6.3-3.7,6.3-7.3C333.3,62.3,330.7,59.1,327,59.1z"/>
	<path class="st13" d="M354.9,73v-0.9c-1.3,2.3-3.9,3.5-6.3,3.5h-0.3c-4.8,0-8.2-4.5-8.2-9.6c0-5.2,3.6-9.1,8.6-9.1
		c2.4,0,5.3,1.2,6.3,3.3v-8.5c0-1.4,0.7-2.5,2-2.5c0.6,0,1.2,0.5,1.2,1.2c0,0.4-0.3,0.9-0.7,1c0,0-0.3,0.1-0.3,0.5v21
		c0,0.4,0.3,0.5,0.3,0.5c0.4,0.2,0.7,0.6,0.7,1c0,0.7-0.6,1.2-1.2,1.2C355.6,75.5,354.9,74.4,354.9,73z M348.6,59.1
		c-3.9,0-6.3,3.2-6.3,6.9c0,3.6,2.4,7.3,6.3,7.3c3.9,0,6.3-3.7,6.3-7.3C354.9,62.3,352.3,59.1,348.6,59.1z"/>
	<path class="st13" d="M364,73V59.5c0-0.4-0.3-0.5-0.3-0.5c-0.4-0.2-0.7-0.6-0.7-1c0-0.7,0.6-1.2,1.2-1.2c1.3,0,2,1.2,2,2.5v13.5
		c0,0.4,0.3,0.5,0.3,0.5c0.4,0.2,0.7,0.6,0.7,1c0,0.7-0.6,1.2-1.2,1.2C364.7,75.5,364,74.4,364,73z M363.1,50.8
		c0-0.9,0.8-1.7,1.7-1.7s1.7,0.7,1.7,1.6c0,0.9-0.8,1.7-1.7,1.7C363.9,52.5,363.1,51.7,363.1,50.8z"/>
	<path class="st13" d="M386.2,73v-8c0-3.4-1.5-5.9-5.7-5.9c-3.1,0-5.5,2.2-5.5,5.4V73c0,1.4-0.7,2.5-2,2.5c-0.6,0-1.2-0.5-1.2-1.2
		c0-0.4,0.3-0.9,0.7-1c0,0,0.3-0.1,0.3-0.5V59.6c0-0.4-0.3-0.4-0.3-0.4c-0.4-0.2-0.7-0.6-0.7-1.1c0-0.7,0.5-1.2,1.2-1.2
		c1.3,0,2.1,0.9,2.1,2.3v0.6c0.2-0.3,2-3,5.5-3c5.3,0,8,3.1,8,8.5v7.6c0,0.4,0.3,0.5,0.3,0.5c0.4,0.2,0.7,0.6,0.7,1
		c0,0.7-0.6,1.2-1.2,1.2C386.9,75.5,386.2,74.4,386.2,73z"/>
	<path class="st13" d="M411.7,58c0,0.4-0.3,0.9-0.7,1c0,0-0.3,0.1-0.3,0.5v13.6c0,6.6-4.3,8.6-8.6,8.6c-4,0-6.8-2-6.8-2
		c-0.4-0.3-0.6-0.6-0.6-0.9c0-0.6,0.5-1.2,1.2-1.2c0.2,0,0.4,0,0.6,0.1c0,0,2.7,1.8,5.6,1.8c4.2,0,6.3-2.6,6.3-6.4v-2
		c0,0-1.7,3-6.4,3c-5,0-8.7-3.4-8.7-8.4c0-4.8,3.7-8.9,8.8-8.9c4.3,0,6.4,3.5,6.4,3.5v-0.9c0-1.4,0.7-2.5,2-2.5
		C411.1,56.8,411.7,57.3,411.7,58z M395.8,65.7c0,3.6,2.6,6.2,6.4,6.2c3.8,0,6.4-2.5,6.4-6.2c0-3.5-2.5-6.6-6.4-6.6
		S395.8,62.1,395.8,65.7z"/>
	<path class="st13" d="M429.9,67.3c0.5,3.2,3.1,6.1,6.4,6.1c2.5,0,4.3-0.8,5.5-1.9c0.3-0.3,0.6-0.4,0.9-0.4c0.6,0,1.2,0.5,1.2,1.1
		c0,0.3-0.1,0.6-0.3,0.8c-1.6,1.7-4,2.7-7.2,2.7c-5.2,0-8.8-4.5-8.8-9.6c0-4.9,3.6-9.5,8.8-9.5c5.2,0,8.9,4.6,8.9,9.5
		c0,0.7-0.6,1.2-1.2,1.2H429.9z M442.8,65c-0.4-3.2-3.1-6.1-6.5-6.1c-3.3,0-6.1,2.9-6.4,6.1H442.8z"/>
	<path class="st13" d="M449.3,59.2c-0.6,0-1.1-0.5-1.1-1.1c0-0.8,0.7-1.3,1.4-1.3c0.9,0,1.5,0.6,2.1,1.3l4.5,5.9l4.5-5.9
		c0.5-0.7,1.2-1.3,2.1-1.3c0.7,0,1.4,0.5,1.4,1.3c0,0.6-0.5,1.1-1.1,1.1c-0.2,0-0.4,0.1-0.5,0.3l-4.9,6.8l4.8,6.5
		c0.1,0.2,0.3,0.3,0.6,0.3c0.6,0,1.1,0.6,1.1,1.2c0,0.8-0.8,1.2-1.5,1.2c-0.9,0-1.5-0.6-2-1.3l-4.3-5.8l-4.3,5.8
		c-0.5,0.7-1.1,1.3-2,1.3c-0.7,0-1.5-0.4-1.5-1.2c0-0.6,0.4-1.2,1.1-1.2c0.3,0,0.4-0.1,0.6-0.3l4.8-6.5l-4.9-6.8
		C449.7,59.3,449.5,59.2,449.3,59.2z"/>
	<path class="st13" d="M471.8,53.9v2.9h4.1c0.6,0,1,0.6,1,1.2c0,0.7-0.5,1.2-1.2,1.2h-4v9.6c0,2.2,0.4,4.5,3,4.5
		c0.6,0,1.4-0.2,2.1-0.4c0.7-0.2,1.3,0.2,1.5,0.8c0.1,0.5,0,1.2-0.8,1.4c-0.8,0.3-1.7,0.4-2.7,0.4c-3.8,0-5.3-2.6-5.3-6.8v-9.6h-1.1
		c-0.7,0-1.2-0.5-1.2-1.2c0-0.6,0.4-1.2,1-1.2h1.2v-2.7c0-0.4-0.3-0.5-0.3-0.5c-0.4-0.2-0.7-0.6-0.7-1c0-0.7,0.6-1.2,1.2-1.2
		C471.1,51.4,471.8,52.6,471.8,53.9z"/>
	<path class="st13" d="M485.4,58.1c0,0.1,0.1,0.4,0.1,0.8c0.9-1.4,2.6-2.2,4.4-2.2c1.1,0,2.2,0.2,3.3,0.6c0.5,0.2,0.8,0.5,0.8,1.2
		c0,0.9-0.8,1.3-1.6,1.1s-1.7-0.4-2.5-0.4c-2.1,0-4.2,1.1-4.2,3.3V73c0,1.4-0.7,2.5-2,2.5c-0.6,0-1.2-0.5-1.2-1.2
		c0-0.4,0.3-0.9,0.7-1c0,0,0.3-0.1,0.3-0.5V59.5c0-0.4-0.3-0.5-0.3-0.5c-0.4-0.2-0.7-0.6-0.7-1c0-0.7,0.6-1.2,1.2-1.2
		C484.5,56.8,485.1,57.4,485.4,58.1z"/>
	<path class="st13" d="M508.7,73.8c-0.1-0.3-0.1-0.7-0.1-1.1c-1,1.8-3.6,3-5.8,3c-3.6,0-6.9-2.1-6.9-6c0-4.7,3.8-6.8,8.2-6.8
		c1.5,0,3.3,0.5,4.4,1.2c0-0.2,0-0.6,0-1c0-0.8-0.1-1.8-0.2-2.1c-0.6-1.6-2.6-2.1-4.7-2.1c-1.6,0-2.7,0.3-4.1,0.6
		c-0.1,0-0.4,0.1-0.5,0.1c-0.6,0-1.1-0.5-1.1-1.1c0-0.5,0.3-0.9,0.8-1.1c1.3-0.5,3.1-0.8,4.8-0.8c3,0,6,0.8,7,3.5
		c0.3,0.8,0.4,1.9,0.4,2.9v9.8c0,0.4,0.3,0.5,0.3,0.5c0.4,0.2,0.7,0.6,0.7,1c0,0.7-0.6,1.3-1.2,1.3
		C509.6,75.7,508.9,74.8,508.7,73.8z M508.6,66.4c-1.6-0.9-3-1.1-4.5-1.1c-2.9,0-5.8,1.3-5.8,4.5c0,2.6,2.3,3.7,4.6,3.7
		c2.7,0,5.7-1.7,5.7-4.7V66.4z"/>
</g>
</svg>
