<svg xmlns="http://www.w3.org/2000/svg" xmlns:xlink="http://www.w3.org/1999/xlink" viewBox="0 0 129 129"><defs><style>.cls-1{fill:none;}.cls-2{fill:#fff;}.cls-3{clip-path:url(#clip-path);}.cls-4{fill:#68767f;}.cls-5{fill:#1393d2;}.cls-6{fill:#010101;}.cls-7{clip-path:url(#clip-path-31);}.cls-8{fill:url(#linear-gradient);}.cls-9{clip-path:url(#clip-path-32);}.cls-10{fill:url(#linear-gradient-2);}.cls-11{clip-path:url(#clip-path-33);}.cls-12{fill:url(#radial-gradient);}</style><clipPath id="clip-path"><rect class="cls-1" x="-48.63" y="-15.25" width="227.97" height="161.19"/></clipPath><clipPath id="clip-path-31"><path class="cls-1" d="M27.7,83.05l-5,6.9h.22a1.67,1.67,0,0,1,.37,0H40.51l.43,0H41c.11,0,.19,0,.27,0a.29.29,0,0,1,.16,0,1.25,1.25,0,0,1,.3,0h0c.11,0,.19,0,.27.06h0a.74.74,0,0,1,.19,0h0s.11,0,.13,0V75.79h0a0,0,0,0,1,0,0s0,0,0,0h0s-.05,0-.05,0l-.09,0h0l-.1,0-.14,0h0c-.08,0-.16,0-.24,0h-.05a.34.34,0,0,1-.17,0,.3.3,0,0,1-.16,0H41l-.41,0h-.16a1.8,1.8,0,0,1-.4,0H23.23a1.67,1.67,0,0,1-.38,0h-.59a.5.5,0,0,1-.17,0Z"/></clipPath><linearGradient id="linear-gradient" x1="340.71" y1="378.39" x2="340.98" y2="378.39" gradientTransform="translate(-80350.49 -26011.32) rotate(-30) scale(165.94)" gradientUnits="userSpaceOnUse"><stop offset="0" stop-color="#df7d26"/><stop offset="0.4" stop-color="#df7d26"/><stop offset="0.51" stop-color="#dc7827"/><stop offset="0.63" stop-color="#d56d27"/><stop offset="0.73" stop-color="#c95c28"/><stop offset="0.9" stop-color="#b24925"/><stop offset="1" stop-color="#b24925"/></linearGradient><clipPath id="clip-path-32"><path class="cls-1" d="M106.12,75.44h-.6a2.62,2.62,0,0,0-.38,0H88.49a1.89,1.89,0,0,0-.41,0h-.16c-.14,0-.27,0-.41,0h-.19a.47.47,0,0,0-.16,0,.3.3,0,0,0-.16,0h-.06c-.08,0-.16,0-.24,0h0a1.3,1.3,0,0,0-.13,0l-.11,0h0s-.05,0-.08,0-.06,0-.06,0h0a.07.07,0,0,0-.06,0s0,0,0,0h-.06V90.25s.08,0,.14-.06h0l.19,0h0a1.64,1.64,0,0,1,.27,0h0c.09,0,.19,0,.3-.06a.34.34,0,0,0,.17,0l.27,0h.08c.13,0,.27,0,.43,0h17.22a1.58,1.58,0,0,0,.38,0h.22l-5-6.9,5.52-7.64a.37.37,0,0,1-.21.06"/></clipPath><linearGradient id="linear-gradient-2" x1="347.97" y1="382.58" x2="348.24" y2="382.58" gradientTransform="matrix(-143.71, -82.97, -82.97, 143.71, 81868.91, -26011.32)" gradientUnits="userSpaceOnUse"><stop offset="0" stop-color="#df7d26"/><stop offset="0.4" stop-color="#df7d26"/><stop offset="0.51" stop-color="#dc7827"/><stop offset="0.64" stop-color="#d36b27"/><stop offset="0.73" stop-color="#c95c28"/><stop offset="0.9" stop-color="#b24925"/><stop offset="1" stop-color="#b24925"/></linearGradient><clipPath id="clip-path-33"><rect class="cls-1" x="34.58" y="78.14" width="59.3" height="14.95"/></clipPath><radialGradient id="radial-gradient" cx="333.74" cy="386.72" r="0.27" gradientTransform="matrix(80.31, 0, 0, -73.63, -26740.03, 28559.14)" gradientUnits="userSpaceOnUse"><stop offset="0" stop-color="#df7e27"/><stop offset="0.52" stop-color="#e97c2d"/><stop offset="1" stop-color="#c85c28"/></radialGradient></defs><title>SilverTravel_DskTp-Footer</title><g id="Layer_2" data-name="Layer 2"><circle class="cls-2" cx="64.5" cy="64.83" r="61"/></g><g id="Layer_1" data-name="Layer 1"><g id="Layer_1-2" data-name="Layer 1"><g class="cls-3"><path class="cls-4" d="M63.77,42.08c-8.48-9-23.83-6.85-23.83-6.85V67.58s15.35-2.19,23.83,6.85Z"/></g><g class="cls-3"><path class="cls-4" d="M64.66,42.08V74.43c8.47-9,23.83-6.85,23.83-6.85V35.23S73.16,33,64.66,42.08"/></g><g class="cls-3"><path class="cls-2" d="M44.41,52.2c0-3.14,3.81-5.68,8.55-5.68s8.56,2.54,8.56,5.68S57.7,57.89,53,57.89s-8.55-2.55-8.55-5.69"/></g><g class="cls-3"><path class="cls-5" d="M48.39,52.2A4.58,4.58,0,1,1,53,56.78a4.58,4.58,0,0,1-4.57-4.58"/></g><g class="cls-3"><path class="cls-6" d="M50.88,52.2A2.09,2.09,0,1,1,53,54.29a2.07,2.07,0,0,1-2.08-2.09"/></g><g class="cls-3"><path class="cls-2" d="M66.93,52.2c0-3.14,3.82-5.68,8.56-5.68s8.56,2.54,8.56,5.68-3.82,5.69-8.56,5.69-8.56-2.55-8.56-5.69"/></g><g class="cls-3"><path class="cls-5" d="M70.91,52.2a4.58,4.58,0,1,1,4.58,4.58,4.59,4.59,0,0,1-4.58-4.58"/></g><g class="cls-3"><path class="cls-6" d="M73.38,52.2a2.09,2.09,0,1,1,2.08,2.09,2.08,2.08,0,0,1-2.08-2.09"/></g><g class="cls-3"><path class="cls-6" d="M53,62.71c-6,0-10.94-3.6-10.94-8V54H64v.68c0,4.41-4.91,8-10.94,8m-9.51-7.37c.49,3.36,4.58,6,9.51,6s9-2.63,9.5-6Z"/></g><g class="cls-3"><path class="cls-6" d="M75.41,62.71c-6,0-10.94-3.6-10.94-8V54H86.35v.68c0,4.41-4.9,8-10.94,8m-9.5-7.37c.48,3.36,4.57,6,9.5,6s9-2.63,9.5-6Z"/></g><g class="cls-3"><path class="cls-6" d="M65,55a1.12,1.12,0,0,0-.7-.19,1.19,1.19,0,0,0-.73.19.24.24,0,0,0,0-.11H62.2c0-.84.89-1.46,2-1.46s2.06.62,2.06,1.46H64.93C65,55,65,55,65,55"/></g><g class="cls-3"><path class="cls-4" d="M26.29,68.75a3.88,3.88,0,0,0,.76-3c-.19-.84-.71-1.49-1.49-1.3-1.6.35-.41,5.17-3.28,5.79-1.7.38-2.84-1-3.22-2.78-.22-1.09-.24-3,1.11-3.31L21,64l.33,1.55-.44.08c-.54.11-.59.94-.49,1.51.22,1,.71,1.6,1.41,1.44,1.71-.35.3-5.17,3.28-5.8,1.6-.35,2.92.87,3.33,2.74a4.69,4.69,0,0,1-.81,3.9Z"/></g><g class="cls-3"><path class="cls-4" d="M14.78,61.14l-.08-1.57,1.82-.08.08,1.57Zm5.5-.24a.36.36,0,0,0-.38.4l0,.73-1.49.08-.08-1.7c0-.81.29-1.17,1.11-1.22l6.09-.3c.27,0,.38-.16.38-.4l0-.74,1.49-.08.08,1.71c0,.81-.3,1.16-1.11,1.22Z"/></g><g class="cls-3"><path class="cls-4" d="M16.62,55.51c-.27,0-.4.11-.43.38l-.05.73-1.49-.11.11-1.73c.05-.82.43-1.14,1.24-1.09l9.69.65c.28,0,.41-.11.44-.38l.05-.73,1.49.11-.11,1.73c0,.82-.43,1.14-1.24,1.09Z"/></g><g class="cls-3"><path class="cls-4" d="M20.52,50.88c-.29,0-.4.16-.48.46L20,51.5l-1.46-.35.22-.87c.19-.78.46-1,1.21-1.14l5.58-.62c.54-.05,1.25,0,1.25,0v0s-.62-.3-1.09-.6l-4.57-3.22a1.23,1.23,0,0,1-.57-1.57l.22-.81,1.46.35-.06.16a.57.57,0,0,0,.22.68l6.39,4.47-.49,2Z"/></g><g class="cls-3"><path class="cls-4" d="M23.45,36.23c1.19-2.28,3.52-2.6,5.63-1.49.22.11.62.38.62.38L26.59,41a3.07,3.07,0,0,0,4.17-1.35,4.23,4.23,0,0,0,.3-2.87l1.46-.08a5.39,5.39,0,0,1-.46,3.73,4.67,4.67,0,0,1-6.5,2.09,4.55,4.55,0,0,1-2.11-6.31m4.3-.16a2.17,2.17,0,0,0-3.06.81,2.62,2.62,0,0,0,.82,3.46Z"/></g><g class="cls-3"><path class="cls-4" d="M29.05,31.27a.38.38,0,0,0-.57.06L28,31.9l-1.14-1,1.06-1.27c.51-.62,1-.71,1.57-.22l.43.38c.27.24.46.43.46.43l0,0a3.13,3.13,0,0,1,0-3.74,3.23,3.23,0,0,1,.33-.32l1.33,1.11a2,2,0,0,0-.38.37,2.74,2.74,0,0,0,0,3.36,5.6,5.6,0,0,0,1.11,1.22l2.87,2.41L34.55,36Z"/></g><g class="cls-3"><path class="cls-5" d="M33.76,25.34l-.89.79L32,25.07l.92-.81-1.65-1.9,1.3-1.13,1.65,1.89,1.65-1.43.92,1-1.65,1.44,2.76,3.17a1.8,1.8,0,0,0,2.82.27,3.39,3.39,0,0,0,.3-.3l1,1.16s-.17.19-.44.44a3.14,3.14,0,0,1-4.87-.27Z"/></g><g class="cls-3"><path class="cls-5" d="M39.37,21.44a.34.34,0,0,0-.54-.13l-.63.38-.78-1.28,1.41-.86c.67-.41,1.16-.35,1.57.3l.3.48a3.4,3.4,0,0,1,.29.57l0,0a3.16,3.16,0,0,1,1.19-3.54,1.86,1.86,0,0,1,.41-.22l.92,1.49a4.61,4.61,0,0,0-.49.22A2.77,2.77,0,0,0,42,22a5.21,5.21,0,0,0,.67,1.51l2,3.2-1.49.92Z"/></g><g class="cls-3"><path class="cls-5" d="M50.39,17.68l.38-.14,0-.08c-.57-1.51-1.33-1.84-2.65-1.32-.41.16-1.36.62-1.17,1.19l.19.49-1.54.56-.33-.84c-.54-1.4,1.52-2.41,2.36-2.73,2.76-1.06,4.06.13,4.79,2l1.38,3.63a.38.38,0,0,0,.52.24l.7-.27.54,1.41L54,22.42c-.76.3-1.22,0-1.43-.57-.11-.3-.17-.51-.17-.51h0A3.08,3.08,0,0,1,50.28,24a2.87,2.87,0,0,1-3.9-1.51c-1.08-2.74,2.57-4.31,4-4.85m-.33,4.93c1.39-.52,1.74-2.33,1.25-3.58l-.11-.29-.43.16c-1.25.46-3.44,1.38-2.84,3a1.55,1.55,0,0,0,2.13.76"/></g><g class="cls-3"><path class="cls-5" d="M54.83,14.65a.54.54,0,0,0-.6-.3l-.18,0-.19-1.49.89-.11a1.18,1.18,0,0,1,1.49.73l2.62,5c.25.49.49,1.14.49,1.14h0a10.92,10.92,0,0,1,.16-1.22l1.27-5.47a1.2,1.2,0,0,1,1.28-1.08l.84-.11.19,1.49-.19,0a.56.56,0,0,0-.55.43l-1.84,7.58-2,.24Z"/></g><g class="cls-3"><path class="cls-5" d="M69.53,12c2.55.27,3.71,2.33,3.47,4.69,0,.24-.14.7-.14.7l-6.63-.73A3.08,3.08,0,0,0,69,20.06a4.27,4.27,0,0,0,2.79-.76l.62,1.33a5.31,5.31,0,0,1-3.65.95,4.67,4.67,0,0,1-4.31-5.28A4.43,4.43,0,0,1,69.53,12M71.24,16a2.16,2.16,0,0,0-1.9-2.55,2.64,2.64,0,0,0-2.92,2Z"/></g><g class="cls-3"><path class="cls-5" d="M77,11.94a.34.34,0,0,0-.27-.49L76,11.24l.44-1.44,1.65.49a1,1,0,0,1,.78,1.43L76.11,21a.33.33,0,0,0,.27.48l.71.22-.44,1.44L75,22.69a1,1,0,0,1-.78-1.44Z"/></g><g class="cls-3"><path class="cls-4" d="M84.62,20.58l.35.19,0-.08c.73-1.44.46-2.22-.81-2.87-.38-.19-1.38-.6-1.65-.06l-.25.46-1.46-.76.41-.81c.68-1.33,2.81-.49,3.6-.08,2.65,1.35,2.65,3.09,1.73,4.9l-1.76,3.47a.36.36,0,0,0,.16.54l.65.32L85,27.13l-1.46-.76c-.74-.38-.84-.86-.55-1.46a4.87,4.87,0,0,1,.27-.46l0,0a3.16,3.16,0,0,1-3.41.3,2.88,2.88,0,0,1-1.52-3.9c1.33-2.6,5-.95,6.34-.24m-3.85,3.08c1.33.68,2.87-.27,3.49-1.49l.14-.27L84,21.69c-1.16-.6-3.33-1.63-4.09-.11a1.51,1.51,0,0,0,.87,2.08"/></g><g class="cls-3"><path class="cls-4" d="M94.39,22.93a3.09,3.09,0,0,1,1.17,2.93l0,0L96,25.4l1.52-1.71a.36.36,0,0,0,0-.57l-.54-.48,1-1.12,1.3,1.17a1,1,0,0,1,.11,1.62l-6.45,7.26a.36.36,0,0,0,0,.57l.54.49-1,1.11L91.2,32.63c-.6-.52-.6-1-.19-1.47l.32-.35,0,0A3.25,3.25,0,0,1,88,30c-1.84-1.65-1.74-4.15.16-6.26s4.47-2.46,6.28-.84m-1,5.47c1.08-1.22,1.52-3,.22-4.17-1.06-.95-2.76-.84-4.14.71s-1.39,3.16-.25,4.17,2.63,1.05,4.17-.71"/></g><g class="cls-3"><path class="cls-4" d="M98.67,30.11a.54.54,0,0,0,0-.68l-.11-.16,1.25-.84.51.76a1.2,1.2,0,0,1,0,1.68L97,35.44a11.07,11.07,0,0,1-.81,1l0,0A11.93,11.93,0,0,1,97.42,36l5.45-1.33a1.2,1.2,0,0,1,1.54.65l.49.71-1.25.84-.11-.16a.54.54,0,0,0-.62-.3l-7.61,1.76L94.17,36.5Z"/></g><g class="cls-3"><path class="cls-4" d="M104.22,39.42a.37.37,0,0,0,.22-.51l-.3-.68,1.38-.59.68,1.57a1,1,0,0,1-.6,1.51L100,43.16a.37.37,0,0,0-.21.51l.29.68-1.38.6-.67-1.57a1,1,0,0,1,.59-1.52Zm5.06-2.19.63,1.43-1.68.74L107.6,38Z"/></g><g class="cls-3"><path class="cls-4" d="M101.65,45.43a3.81,3.81,0,0,0-.63,3c.22.81.76,1.44,1.55,1.25,1.6-.41.19-5.2,3-5.93,1.71-.44,2.87.83,3.33,2.65.27,1.06.38,3-1,3.36l-.84.21-.38-1.51.43-.11c.52-.14.54-1,.41-1.52-.25-1-.79-1.54-1.46-1.38-1.68.43-.09,5.17-3,5.93-1.57.41-3-.73-3.44-2.6a4.74,4.74,0,0,1,.65-3.92Z"/></g><g class="cls-3"><path class="cls-4" d="M110.37,57.21a4.8,4.8,0,1,1-4.85-4.84,4.79,4.79,0,0,1,4.85,4.84m-8.07.11a3.26,3.26,0,1,0,3.22-3.19,3.18,3.18,0,0,0-3.22,3.19"/></g><g class="cls-3"><path class="cls-4" d="M107.71,65.09a.34.34,0,0,0,.46-.3l.17-.73,1.46.3L109.45,66c-.17.78-.57,1.08-1.3.92l-.57-.11-.63-.16v0A3.15,3.15,0,0,1,108.69,70c-.06.22-.14.46-.14.46l-1.7-.35a2.4,2.4,0,0,0,.16-.51,2.73,2.73,0,0,0-1.57-3,5.54,5.54,0,0,0-1.57-.55l-3.66-.78.35-1.71Z"/></g><g class="cls-7"><polygon class="cls-8" points="27.21 99.08 48.77 86.62 37.28 66.72 15.7 79.15 27.21 99.08"/></g><g class="cls-9"><polygon class="cls-10" points="101.24 99.08 79.66 86.62 91.17 66.72 112.75 79.15 101.24 99.08"/></g><g class="cls-11"><rect class="cls-12" x="34.58" y="78.14" width="59.3" height="14.95"/></g><g class="cls-3"><path class="cls-2" d="M46.25,81.91l2.62,7H47.28l-.55-1.57H44.11L43.57,89H42l2.65-7Zm.08,4.33-.9-2.6h0l-.92,2.6Z"/></g><g class="cls-3"><polygon class="cls-2" points="54.61 88.95 53.42 84.16 53.42 84.16 52.23 88.95 50.66 88.95 48.79 81.91 50.34 81.91 51.47 86.7 51.47 86.7 52.72 81.91 54.15 81.91 55.37 86.75 55.37 86.75 56.54 81.91 58.05 81.91 56.16 88.95 54.61 88.95"/></g><g class="cls-3"><path class="cls-2" d="M62.25,81.91l2.63,7h-1.6l-.54-1.57H60.11L59.57,89H58l2.65-7Zm.08,4.33-.89-2.6h0l-.92,2.6Z"/></g><g class="cls-3"><path class="cls-2" d="M69.51,81.91a2.2,2.2,0,0,1,.86.16,2.39,2.39,0,0,1,.65.41,1.57,1.57,0,0,1,.41.62,1.77,1.77,0,0,1,.13.76,2,2,0,0,1-.27,1.08,1.62,1.62,0,0,1-.86.7v0a1.37,1.37,0,0,1,.48.25,1.17,1.17,0,0,1,.3.37,1.23,1.23,0,0,1,.16.49c0,.19.06.35.09.54a3.18,3.18,0,0,0,0,.41c0,.16,0,.3,0,.46s0,.3.08.46a.71.71,0,0,0,.16.35H70.21a3.22,3.22,0,0,1-.16-.81c0-.32-.06-.6-.08-.89a1.53,1.53,0,0,0-.33-.82,1.2,1.2,0,0,0-.84-.24H67.26V89H65.72V82l3.79,0Zm-.57,3.19a1.22,1.22,0,0,0,.81-.24A.93.93,0,0,0,70,84.1a.94.94,0,0,0-.27-.76,1.17,1.17,0,0,0-.81-.24H67.23v2h1.71Z"/></g><g class="cls-3"><path class="cls-2" d="M76.06,81.91a4,4,0,0,1,1.27.21,3,3,0,0,1,1,.65A2.89,2.89,0,0,1,79,83.86a4.45,4.45,0,0,1,.24,1.54,4.82,4.82,0,0,1-.19,1.44A3.13,3.13,0,0,1,78.5,88a2.75,2.75,0,0,1-1,.76,3.21,3.21,0,0,1-1.4.27h-3V82h3ZM76,87.65a1.85,1.85,0,0,0,.65-.11,1.52,1.52,0,0,0,.57-.35,2,2,0,0,0,.41-.65,2.87,2.87,0,0,0,.13-1,3.74,3.74,0,0,0-.11-1,1.84,1.84,0,0,0-.35-.73,1.49,1.49,0,0,0-.62-.46,2.5,2.5,0,0,0-1-.17H74.54v4.45l1.41,0Z"/></g><g class="cls-3"><path class="cls-2" d="M81.72,87.22a1,1,0,0,0,.35.4,1,1,0,0,0,.49.22,2.27,2.27,0,0,0,.59.08,2.17,2.17,0,0,0,.44,0,1.08,1.08,0,0,0,.43-.13,1.31,1.31,0,0,0,.35-.27.77.77,0,0,0,.14-.44.58.58,0,0,0-.19-.46,1.87,1.87,0,0,0-.49-.3c-.19-.08-.43-.13-.68-.21s-.51-.14-.75-.19a3.57,3.57,0,0,1-.76-.25,2.47,2.47,0,0,1-.68-.37,3,3,0,0,1-.49-.57,1.66,1.66,0,0,1-.19-.82,1.74,1.74,0,0,1,.25-.94,2.42,2.42,0,0,1,.59-.68,3.12,3.12,0,0,1,.84-.41,3.88,3.88,0,0,1,1-.13,4.46,4.46,0,0,1,1.06.13,2.36,2.36,0,0,1,.89.41,2.18,2.18,0,0,1,.62.7,2.12,2.12,0,0,1,.25,1H84.24a1,1,0,0,0-.14-.51,1.07,1.07,0,0,0-.3-.33,1.23,1.23,0,0,0-.43-.16,2.76,2.76,0,0,0-.54,0,2.36,2.36,0,0,0-.38,0,1.6,1.6,0,0,0-.35.14.53.53,0,0,0-.25.24.85.85,0,0,0-.1.38.54.54,0,0,0,.08.33.92.92,0,0,0,.29.24,4.85,4.85,0,0,0,.65.22c.28.08.63.16,1.09.27l.54.13a3.69,3.69,0,0,1,.7.33,2,2,0,0,1,.6.59,1.78,1.78,0,0,1,.24,1,1.9,1.9,0,0,1-.19.89,1.68,1.68,0,0,1-.57.71,2.64,2.64,0,0,1-.92.46A4.31,4.31,0,0,1,83,89a4.94,4.94,0,0,1-1.14-.14,3,3,0,0,1-1-.46,2.33,2.33,0,0,1-.68-.78A2.58,2.58,0,0,1,80,86.51h1.49c.13.35.19.54.27.71"/></g><g class="cls-3"><polygon class="cls-6" points="31.63 99.51 33.57 99.51 34.28 105.41 34.31 105.41 35.17 99.51 36.99 99.51 37.93 105.41 37.93 105.41 38.64 99.51 40.53 99.51 39.1 107.79 36.93 107.79 36.07 101.92 36.04 101.92 35.25 107.79 33.09 107.79 31.63 99.51"/></g><g class="cls-3"><rect class="cls-6" x="41.48" y="99.51" width="1.95" height="8.31"/></g><g class="cls-3"><polygon class="cls-6" points="44.89 99.51 47.14 99.51 48.77 104.9 48.79 104.9 48.79 99.51 50.61 99.51 50.61 107.79 48.39 107.79 46.68 102.08 46.65 102.08 46.65 107.79 44.89 107.79 44.89 99.51"/></g><g class="cls-3"><polygon class="cls-6" points="52.04 99.51 54.29 99.51 55.89 104.9 55.91 104.9 55.91 99.51 57.73 99.51 57.73 107.79 55.51 107.79 53.8 102.08 53.77 102.08 53.77 107.79 52.04 107.79 52.04 99.51"/></g><g class="cls-3"><polygon class="cls-6" points="59.16 99.51 63.98 99.51 63.98 101.08 61.14 101.08 61.14 102.76 63.79 102.76 63.79 104.33 61.14 104.33 61.14 106.22 64.12 106.22 64.12 107.79 59.16 107.79 59.16 99.51"/></g><g class="cls-3"><path class="cls-6" d="M65.23,99.51H68.5a2,2,0,0,1,2.25,2.16c0,1.22-.49,1.82-1.41,2v0c1.25.19,1.3,1,1.33,2.06,0,1.65.11,1.81.38,1.92v.11H68.94a3.69,3.69,0,0,1-.22-1.68c0-1.43-.19-1.73-.81-1.73h-.76v3.44h-2l0-8.34Zm2,3.49h.59a1,1,0,0,0,1-1.08c0-.62-.25-1.06-1-1.06h-.59Z"/></g><g class="cls-3"><path class="cls-6" d="M74.06,102.32v-.27c0-1.65.89-2.49,2.65-2.49,2,0,2.54,1,2.54,2.3a3,3,0,0,1-1.3,2.68,7.58,7.58,0,0,0-1.59,1.74h2.92v1.51H74a4.81,4.81,0,0,1,1.87-3.71c1.4-1.24,1.43-1.59,1.43-2.22s-.13-1.08-.68-1.08c-.75,0-.75.89-.75,1.52l-1.84,0Z"/></g><g class="cls-3"><path class="cls-6" d="M82.94,108c-2.47,0-2.71-1.54-2.71-4.19,0-2.36.27-4.2,2.71-4.2s2.7,1.54,2.7,4.2c0,2.35-.27,4.19-2.7,4.19m0-1.24c.67,0,.76-.62.76-2.95s-.09-3-.76-3-.76.62-.76,3,.08,2.95.76,2.95"/></g><g class="cls-3"><path class="cls-6" d="M88.08,102.08H86.51v-1.24h.24c1.49,0,1.82-.76,1.93-1.3h1.38v8.23h-2l0-5.69Z"/></g><g class="cls-3"><path class="cls-6" d="M96.67,101.7a1.57,1.57,0,0,1-1.17,1.73v0a1.73,1.73,0,0,1,1.41,2c0,1.41-.49,2.57-2.74,2.57s-2.73-1.08-2.73-2.57a1.75,1.75,0,0,1,1.35-2v0a1.57,1.57,0,0,1-1.13-1.73c0-1.24.67-2.14,2.49-2.14s2.52.84,2.52,2.14m-3.28,3.71c0,.73.16,1.33.78,1.33s.79-.57.79-1.33-.16-1.3-.79-1.3-.78.57-.78,1.3m1.46-3.57c0-.57-.16-1-.68-1s-.67.46-.67,1c0,.81.24,1,.67,1s.68-.24.68-1"/></g><g class="cls-3"><polygon class="cls-6" points="24.8 99.81 25.72 102.59 28.67 102.59 26.29 104.36 27.21 107.14 24.83 105.44 22.42 107.17 23.31 104.36 20.93 102.62 23.88 102.59 24.8 99.81"/></g><g class="cls-3"><polygon class="cls-6" points="103.62 99.81 104.57 102.59 107.52 102.59 105.14 104.36 106.06 107.14 103.65 105.44 101.27 107.17 102.16 104.36 99.78 102.62 102.73 102.59 103.62 99.81"/></g></g></g></svg>