<?xml version="1.0" encoding="UTF-8" standalone="no"?>
<svg viewBox="0 0 2560 1600" xmlns="http://www.w3.org/2000/svg">
  <path d="M700.86 894.6H1742.86V1346.56H700.86zM1770.47 893.87H2098.86V1345.83H1770.47z" style="fill:#f7f7f7"/>
  <path d="M701.86 892.83 1741.86 892.83M323 804 2246 804M1770.86 892.83 2097.86 892.83M722 750 1110 750" style="fill:none;stroke-miterlimit:10;stroke:#000;stroke-width:2px"/>
  <path d="M1086.87 899.86H1741.86V1347.83H1086.87zM701.03 1367.47H1028.85V1569.34H701.03zM1057.9 1367.91H1385.72V1569.78H1057.9zM1414.46 1367.69H1742.28V1569.56H1414.46zM1771.33 1368.13H2099.15V1570H1771.33z" style="fill:#eaeaea"/>
  <path d="M1043.86 1370.56 1043.86 1569.34M324 805 324 1518M1400.86 1369.25 1400.86 1568.03M1757.86 1367.94 1757.86 1566.72M1757.86 890.83 1757.86 1350.83M2246 803 2246 1518" style="fill:none;stroke-miterlimit:10;stroke:#ddd;stroke-width:2px"/>
  <g style="fill:#ddd">
    <path d="M0-1H2560V305H0zM712.86 903.73H1022.86V939.05H712.86zM712.86 943.7H1022.86V979.02H712.86zM712.86 983.73H959.95V993.83H712.86zM722.22 750.37H1109.74V795.22H722.22zM1118.16 749.79H1505.68V794.64H1118.16zM1514 750.02H2246V794.87H1514zM1784.86 903.52H2055.86V938.84H1784.86zM1784.86 943.49H2055.86V978.81H1784.86zM1784.86 983.53H2000.87V991.83H1784.86zM324.48 750H712V794.85H324.48z"/>
    <circle cx="395" cy="1002" r="56"/>
    <circle cx="1986.36" cy="1241.33" r="86.5"/>
  </g>
  <g style="fill:#f3f3f3">
    <path d="M576 304H2002V358H576zM338.79 899.48H494.85V934.8H338.79zM338.32 1069.48H593.86V1088.83H338.32zM338.95 830.41H934V849.76H338.95zM338.58 1093.46H594.12V1112.81H338.58zM338.58 1117.46H624.86V1136.81H338.58z"/>
    <rect x="1630.0601" y="66.309998" width="512.15002" height="107.42" rx="53.709999"/>
    <rect x="1679.0601" y="187.31" width="288.94" height="82.690002" rx="35.389999"/>
  </g>
  <text style="font-size:14px;line-height:1.25;font-family:sans-serif;text-align:center;fill:#a4a4a4" x="1230.1221" y="336.09619">ADVERTISEMENT</text>
</svg>
