<?xml version="1.0" encoding="UTF-8" standalone="no"?>
<svg viewBox="0 0 2560 1600" xmlns="http://www.w3.org/2000/svg">
  <path class="cls-4" d="M1831 342.926H2347V1376.646H1831zM997.11 282.52H1618V317.84H997.11zM997.11 322.49H1618V357.81H997.11zM997.11 361.53H1354.96V396.85H997.11zM1152.34 506.52H1260.16V528.83H1152.34zM997.11 565.08H1119.8V592.96H997.11zM997.11 606.91H1618V642.23H997.11zM997.11 646.87H1618V682.19H997.11zM997.11 685.91H1354.96V721.23H997.11zM1152.34 830.91H1260.16V853.22H1152.34zM996.18 890.4H1118.87V918.28H996.18zM996.18 932.22H1617.07V967.54H996.18zM996.18 972.19H1617.07V1007.51H996.18zM996.18 1011.23H1354.03V1046.55H996.18zM996.18 1156.22H1117.01V1178.53H996.18zM1151.41 1156.22H1259.23V1178.53H1151.41zM996.18 1253.82H1617.07V1289.14H996.18zM996.18 1293.79H1617.07V1329.11H996.18zM996.18 1332.82H1354.03V1368.14H996.18zM996.18 1477.82H1117.01V1500.13H996.18zM1151.41 1477.82H1259.23V1500.13H1151.41z" style="fill:#f3f3f3"/>
  <text style="font-size:14px;line-height:1.25;font-family:sans-serif;text-align:center;text-anchor:middle;fill:#a4a4a4" x="2088.9248" y="372.38434">ADVERTISEMENT</text>
  <path d="M511 236.05H977.59V547.42H511zM511 558.57H977.59V869.94H511zM511 1203.63H977.59V1515H511zM511 881.1H977.59V1192.47H511zM1824 55.926H2344V288.926H1824z" style="fill:#eaeaea"/>
  <g style="fill:#ddd">
    <path d="M997.11 240.7H1119.8V268.58H997.11zM997.11 506.52H1117.94V528.83H997.11zM997.11 830.91H1117.94V853.22H997.11zM996.18 1211.99H1118.87V1239.87H996.18z"/>
    <rect x="216.85001" y="73.580002" width="512.15002" height="107.42" rx="53.709999"/>
    <path d="M1081.18 109H1547.77V162H1081.18z"/>
  </g>
</svg>
