<svg xmlns="http://www.w3.org/2000/svg" viewBox="0 0 753.786 117.1365">
  <g fill="#1d1d1b">
    <path d="M187.84 57.25h15.45v25.46c-7.16 5.08-16.95 7.8-25.96 7.8-19.7 0-34.08-13.25-34.08-31.94 0-18.7 14.38-31.95 34.43-31.95 11.57 0 20.93 3.95 27.02 11.24l-11.12 10A19.35 19.35 0 00178.56 41c-10.6 0-17.65 6.94-17.65 17.56 0 10.35 7.06 17.55 17.48 17.55a22.34 22.34 0 009.45-2.02z"/>
    <path d="M262.3 58.57c0-10.62-7.32-17.55-16.68-17.55s-16.68 6.93-16.68 17.55c0 10.62 7.32 17.56 16.68 17.56s16.69-6.94 16.69-17.56m-51.03 0c0-18.43 14.56-31.95 34.34-31.95s34.35 13.52 34.35 31.95-14.57 31.95-34.35 31.95S211.28 77 211.28 58.57"/>
    <path d="M337.05 58.57c0-10.62-7.33-17.55-16.69-17.55-9.36 0-16.68 6.93-16.68 17.55 0 10.62 7.32 17.56 16.68 17.56 9.37 0 16.69-6.94 16.69-17.56m-51.03 0c0-18.43 14.57-31.95 34.34-31.95 19.78 0 34.35 13.52 34.35 31.95s-14.57 31.95-34.35 31.95c-19.77 0-34.34-13.52-34.34-31.95"/>
    <path d="M392.46 75.42c10.5 0 17.57-6.23 17.57-16.85 0-10.62-7.06-16.85-17.56-16.85h-11.05v33.7zm-28.52-47.57h29.23c20.48 0 34.52 11.85 34.52 30.72 0 18.87-14.04 30.72-34.52 30.72h-29.23z"/>
  </g>
  <path fill="#1d1d1b" d="M513.14 75.51h29.5v13.78h-46.98V27.85h17.48z"/>
  <g fill="#1d1d1b">
    <path d="M596.44 58.57c0-10.62-7.33-17.55-16.69-17.55-9.36 0-16.69 6.93-16.69 17.55 0 10.62 7.33 17.56 16.7 17.56 9.35 0 16.68-6.94 16.68-17.56m-51.04 0c0-18.43 14.57-31.95 34.35-31.95s34.35 13.52 34.35 31.95-14.57 31.95-34.35 31.95S545.4 77 545.4 58.57"/>
    <path d="M671.18 58.57c0-10.62-7.32-17.55-16.68-17.55s-16.7 6.93-16.7 17.55c0 10.62 7.33 17.56 16.7 17.56 9.36 0 16.68-6.94 16.68-17.56m-51.03 0c0-18.43 14.57-31.95 34.35-31.95 19.77 0 34.34 13.52 34.34 31.95s-14.57 31.95-34.34 31.95c-19.78 0-34.35-13.52-34.35-31.95"/>
    <path d="M736.13 50.58c0-5.7-3.63-9.04-10.87-9.04h-9.71v18h9.71c7.25 0 10.87-3.34 10.87-8.96m17.66 0c0 13.95-10.6 22.64-27.46 22.64h-10.78V89.3h-17.48V27.85h28.26c16.86 0 27.46 8.69 27.46 22.73"/>
  </g>
  <path fill="#1d1d1b" d="M442.53 48.67h32.72v18.12h-32.72z"/>
  <path fill="#af2009" d="M93.83 11.39c1.81 8.4-.97 19.23-4.04 25.26a67.42 67.42 0 01-8.44 12.5c-1.06 1.26-2.15 2.5-3.26 3.72a48.74 48.74 0 01-1.35-4.11c-1.14 1.4-2.34 2.82-3.66 4.28a46.08 46.08 0 002.3 6.25c1.57 3.4 4.35 9.6 8.47 10.54 1.55.35 2.94-.61 3.88-3.77a22.89 22.89 0 00.65-3.05 3.12 3.12 0 013.64-2.82 4.58 4.58 0 011.36.34 4.24 4.24 0 012.68 4.59 18.42 18.42 0 01-2.72 7.43c-3 4.56-7.9 6.45-12.85 4.67a16.05 16.05 0 01-6.13-4.16c-3.27-3.44-5.43-7.85-7.08-12.24-.17-.44-.31-.89-.47-1.33-1.2 1.17-2.39 2.3-3.54 3.4a49.8 49.8 0 001.61 3.5c-1.13 1.13-2.28 2.26-3.37 3.4a204.8 204.8 0 00-6.4 6.9 47.14 47.14 0 00-3.7-2.92L47.82 77a30.84 30.84 0 018.63 9.73 23.96 23.96 0 011.96 4.44c2.97 9.27-.2 21.56-9.9 25.03a59.45 59.45 0 0010.4.94 58.5 58.5 0 0034.9-105.75"/>
  <path fill="#770f00" d="M75.5 43.45a74.63 74.63 0 003.4-4.34c4.37-6.1 7.15-12.56 7.26-20.2.06-3.52-.67-9.04-3.68-10.45a4.77 4.77 0 00-4.3.4c-.13.06-.25.15-.37.22-6.6 3.73-7.33 15.02-7.47 21.5-.06 2.5.03 5.02.21 7.54a3.47 3.47 0 00.04.67 71.2 71.2 0 002.49 14.25c1.31-1.46 2.52-2.88 3.66-4.28q-.75-2.62-1.24-5.31"/>
  <path fill="#770f00" d="M50.89 73.39q-1.06-.75-2.14-1.47c1.48-1.69 2.98-3.33 4.42-4.88 2.72-2.92 5.57-5.75 8.43-8.59.26.8.54 1.59.83 2.37.26.69.55 1.38.84 2.06l3.55-3.39A85.77 85.77 0 0162.8 40.3c-1-9.71-.76-20.45 3.5-29.34a21.76 21.76 0 016.23-7.68 17.91 17.91 0 011.84-1.23A58.97 58.97 0 000 58.57a58.47 58.47 0 0029.17 50.54c-4.43-8.13-.7-19.45 5.65-25.6l1.06-.98a31.71 31.71 0 013.48 2.53c.88-.91 1.83-1.86 2.84-2.83a103.78 103.78 0 00-6.36-4.65c-2.9-1.95-5.98-3.94-8.26-6.63-7.12-8.38-8.02-22.12-1.06-30.85a19.94 19.94 0 012-2.19 16.4 16.4 0 0111.72-4.66c6.07.14 11.98 3.74 15.68 9.54A3.56 3.56 0 0154.56 48a4.61 4.61 0 01-1.42.54 3.8 3.8 0 01-4.09-1.76c-3.17-4.97-8.39-6.98-12.86-4.63a11.1 11.1 0 00-3.7 3.23l-.36.54c-4.04 5.97-2.94 14.64 1.57 20 3.78 4.49 9.04 7.44 13.84 10.84l.29.24 3.57-3.23-.51-.38"/>
  <path fill="#af2009" d="M39.36 85.06a19.6 19.6 0 012.54 2.5c.11.14-2.88 3.23-3.18 3.6a15.71 15.71 0 00-3 5.96c-1.01 4.07-.2 9.62 3.9 11.78 6.27 3.3 12.22-4.32 12.01-10.44-.18-5.35-2.16-10.28-6.23-13.66-1.07-.89-2.13-1.74-3.2-2.58-1 .98-1.96 1.92-2.84 2.83"/>
</svg>
