<svg xmlns="http://www.w3.org/2000/svg" width="100%" viewBox="0 0 841.89 595.276" preserveAspectRatio="xMidYMid slice">
  <title>GoodLoopLogos</title>
  <g>
    <g>
      <path d="M231.888,296.323h15.449v25.451c-7.153,5.089-16.952,7.812-25.961,7.812-19.694,0-34.08-13.253-34.08-31.947s14.386-31.95,34.434-31.95c11.567,0,20.927,3.952,27.017,11.235l-11.121,10a19.349,19.349,0,0,0-15.014-6.842c-10.6,0-17.656,6.932-17.656,17.553,0,10.357,7.06,17.553,17.484,17.553a22.344,22.344,0,0,0,9.448-2.018Z" fill="#1d1d1b"/>
      <path d="M306.358,297.638c0-10.621-7.326-17.553-16.686-17.553s-16.686,6.932-16.686,17.553,7.326,17.556,16.686,17.556,16.686-6.938,16.686-17.556m-51.032,0c0-18.431,14.567-31.947,34.346-31.947s34.346,13.516,34.346,31.947-14.567,31.947-34.346,31.947-34.346-13.516-34.346-31.947" fill="#1d1d1b"/>
      <path d="M381.1,297.638c0-10.621-7.326-17.553-16.686-17.553s-16.689,6.932-16.689,17.553,7.326,17.556,16.689,17.556,16.686-6.938,16.686-17.556m-51.032,0c0-18.431,14.567-31.947,34.346-31.947s34.345,13.516,34.345,31.947-14.566,31.947-34.345,31.947-34.346-13.516-34.346-31.947" fill="#1d1d1b"/>
      <path d="M436.515,314.489c10.5,0,17.564-6.231,17.564-16.851s-7.06-16.852-17.564-16.852H425.472v33.7Zm-28.522-47.57H437.22c20.483,0,34.524,11.849,34.524,30.719S457.7,328.356,437.22,328.356H407.993Z" fill="#1d1d1b"/>
    </g>
    <polygon points="539.71 266.919 557.188 266.919 557.188 314.579 586.681 314.579 586.681 328.356 539.71 328.356 539.71 266.919" fill="#1d1d1b"/>
    <g>
      <path d="M640.487,297.638c0-10.621-7.326-17.553-16.686-17.553s-16.686,6.932-16.686,17.553,7.326,17.556,16.686,17.556,16.686-6.938,16.686-17.556m-51.032,0c0-18.431,14.567-31.947,34.346-31.947s34.346,13.516,34.346,31.947S643.58,329.585,623.8,329.585s-34.346-13.516-34.346-31.947" fill="#1d1d1b"/>
      <path d="M715.232,297.638c0-10.621-7.326-17.553-16.686-17.553s-16.689,6.932-16.689,17.553,7.326,17.556,16.689,17.556,16.686-6.938,16.686-17.556m-51.032,0c0-18.431,14.567-31.947,34.346-31.947s34.343,13.516,34.343,31.947-14.564,31.947-34.343,31.947S664.2,316.069,664.2,297.638" fill="#1d1d1b"/>
      <path d="M780.178,289.651c0-5.706-3.624-9.041-10.865-9.041H759.6V298.6h9.714c7.241,0,10.865-3.334,10.865-8.951m17.657,0c0,13.953-10.6,22.643-27.458,22.643H759.6v16.062H742.123V266.918h28.254c16.861,0,27.458,8.69,27.458,22.733" fill="#1d1d1b"/>
    </g>
    <rect x="486.581" y="287.738" width="32.718" height="18.117" fill="#1d1d1b"/>
    <g>
      <path d="M137.881,250.457c1.811,8.4-.97,19.228-4.042,25.265a67.422,67.422,0,0,1-8.443,12.49c-1.053,1.265-2.143,2.507-3.257,3.731-.516-1.351-.955-2.729-1.348-4.117-1.138,1.4-2.343,2.827-3.657,4.281a46.084,46.084,0,0,0,2.3,6.252c1.564,3.4,4.343,9.6,8.462,10.538,1.55.354,2.946-.611,3.882-3.765a22.889,22.889,0,0,0,.654-3.05,3.123,3.123,0,0,1,3.641-2.821,4.582,4.582,0,0,1,1.353.335,4.236,4.236,0,0,1,2.681,4.589,18.418,18.418,0,0,1-2.713,7.43c-3.01,4.566-7.9,6.457-12.859,4.67a16.051,16.051,0,0,1-6.127-4.159c-3.266-3.439-5.425-7.85-7.079-12.238-.165-.439-.311-.885-.465-1.329-1.213,1.172-2.391,2.3-3.548,3.393.5,1.18,1.024,2.356,1.617,3.5-1.138,1.133-2.279,2.265-3.374,3.4-2.154,2.234-4.321,4.534-6.406,6.906a47.139,47.139,0,0,0-3.7-2.92c-1.247,1.122-2.433,2.191-3.574,3.226a30.838,30.838,0,0,1,8.627,9.732,23.959,23.959,0,0,1,1.967,4.446c2.968,9.262-.21,21.558-9.91,25.031a59.454,59.454,0,0,0,10.416.931,58.5,58.5,0,0,0,34.9-105.75" fill="#af2009"/>
      <path d="M119.551,282.518c1.178-1.415,2.332-2.848,3.4-4.343,4.371-6.089,7.145-12.561,7.262-20.2.053-3.516-.678-9.036-3.681-10.451a4.767,4.767,0,0,0-4.305.4c-.13.064-.244.152-.369.224-6.6,3.731-7.329,15.021-7.47,21.5-.056,2.5.029,5.023.215,7.544a3.468,3.468,0,0,0,.04.67,71.2,71.2,0,0,0,2.487,14.245c1.313-1.455,2.52-2.877,3.656-4.281q-.743-2.62-1.239-5.308" fill="#770f00"/>
      <path d="M94.935,312.457q-1.058-.747-2.135-1.471c1.481-1.686,2.975-3.332,4.419-4.877,2.726-2.917,5.574-5.752,8.43-8.586.263.8.537,1.585.83,2.364.26.691.55,1.377.84,2.063,1.157-1.093,2.335-2.217,3.547-3.39a85.772,85.772,0,0,1-4.018-19.191c-1-9.712-.763-20.449,3.5-29.342a21.757,21.757,0,0,1,6.236-7.674,17.913,17.913,0,0,1,1.835-1.237,58.968,58.968,0,0,0-74.369,56.521A58.466,58.466,0,0,0,73.22,348.183c-4.427-8.137-.7-19.458,5.654-25.6.287-.279,1.061-.983,1.061-.983a31.71,31.71,0,0,1,3.475,2.526c.878-.912,1.832-1.859,2.84-2.83-2.058-1.616-4.143-3.161-6.358-4.645-2.909-1.949-5.98-3.938-8.265-6.629-7.113-8.385-8.02-22.119-1.055-30.857a19.937,19.937,0,0,1,1.989-2.184,16.4,16.4,0,0,1,11.724-4.661c6.079.138,11.982,3.736,15.689,9.536a3.558,3.558,0,0,1-1.367,5.214,4.61,4.61,0,0,1-1.414.537,3.809,3.809,0,0,1-4.093-1.76c-3.175-4.97-8.389-6.98-12.865-4.627a11.1,11.1,0,0,0-3.691,3.231c-.133.175-.244.362-.367.542-4.036,5.962-2.935,14.631,1.572,19.987,3.776,4.494,9.036,7.451,13.841,10.852.1.072.191.159.29.234,1.141-1.035,2.327-2.106,3.574-3.228-.176-.125-.343-.258-.519-.383" fill="#770f00"/>
      <path d="M83.411,324.128a19.592,19.592,0,0,1,2.539,2.5c.114.138-2.88,3.226-3.18,3.6a15.711,15.711,0,0,0-3,5.957c-1.011,4.076-.2,9.626,3.9,11.785,6.273,3.308,12.217-4.324,12.012-10.445-.181-5.348-2.165-10.278-6.233-13.658-1.066-.885-2.13-1.736-3.2-2.574-1.008.971-1.963,1.915-2.84,2.83" fill="#af2009"/>
    </g>
  </g>
</svg>
