<svg xmlns="http://www.w3.org/2000/svg" xmlns:xlink="http://www.w3.org/1999/xlink" viewBox="0 0 1000 575">
  <defs>
    <linearGradient id="b">
      <stop offset="0" stop-color="#5e5f60"/>
      <stop offset=".04" stop-color="#e5e5e6"/>
      <stop offset=".96" stop-color="#e5e5e6"/>
      <stop offset="1" stop-color="#616264"/>
    </linearGradient>
    <linearGradient id="a">
      <stop offset="0" stop-color="#5e5f60"/>
      <stop offset=".1" stop-color="#e5e5e6"/>
      <stop offset=".9" stop-color="#e5e5e6"/>
      <stop offset="1" stop-color="#616264"/>
    </linearGradient>
    <linearGradient gradientTransform="translate(0 -6)" gradientUnits="userSpaceOnUse" y2="129.04" x2="620.66" y1="129.04" x1="400.66" id="d" xlink:href="#a"/>
    <linearGradient gradientTransform="translate(0 -6)" gradientUnits="userSpaceOnUse" y2="129.04" x2="1010.66" y1="129.04" x1="10.66" id="c" xlink:href="#b"/>
  </defs>
  <g transform="translate(-10.66 430.96)">
    <rect ry="0" y="119.04" x="10.66" height="8" width="1000" fill="url(#c)"/>
    <path d="M139.15-387.28c-1.15 21.93-.16 44.24-.5 66.32v405c3.6 4.4 11.65.85 17 2h725c4.42-3.6.86-11.65 2-17v-455c-3.59-4.41-11.64-.86-17-2h-725l-.9.41z" fill="#fff"/>
    <path d="M10.66 127.04l50 11h900l50-11z" fill="#414046"/>
    <path fill="#e5e5e6" d="M200.66 46.04h355v23h-355zM200.66 11.04h550v23h-550zM200.66-363.96h400v23h-400zM200.66-385.96v15h550v-15z"/>
    <path d="M120.35-430.96a19.65 19.65 0 00-19.7 19.68v530.32h820v-530.32c0-10.9-8.78-19.68-19.69-19.68zm20.3 45h740v470h-740z"/>
    <rect width="220" height="8" x="400.66" y="119.04" ry="0" fill="url(#d)"/>
  </g>
</svg>
