<svg xmlns="http://www.w3.org/2000/svg" viewBox="0 0 584 111.7202">
  <defs>
    <filter id="b" color-interpolation-filters="sRGB">
      <feGaussianBlur result="blur" stdDeviation="2 2"/>
    </filter>
    <filter id="a" color-interpolation-filters="sRGB">
      <feGaussianBlur result="blur" stdDeviation="2 2"/>
    </filter>
  </defs>
  <g aria-label="ADS FOR GOOD BY" style="line-height:1.25;-inkscape-font-specification:'Montserrat SemiBold, '" font-weight="400" font-size="119.86px" font-family="'Montserrat SemiBold'" letter-spacing="0" word-spacing="0" stroke-width="2.997" transform="translate(7 7)" filter="url(#a)" fill-opacity=".5">
    <path d="M138.38 23.28h-14.8l-2.91 6.85H115L128.32.53h5.41l13.36 29.6h-5.75zm-1.81-4.31l-5.59-12.94-5.54 12.94zM150.81.53h12.94q4.73 0 8.41 1.86 3.68 1.82 5.7 5.2 2.04 3.34 2.04 7.74t-2.03 7.78q-2.03 3.34-5.71 5.2-3.68 1.82-8.41 1.82h-12.94zm12.68 24.95q3.26 0 5.71-1.23 2.5-1.26 3.8-3.55 1.36-2.32 1.36-5.37 0-3.04-1.35-5.33-1.31-2.32-3.81-3.55-2.45-1.27-5.7-1.27h-7.2v20.3zm31.43 5.08q-3.43 0-6.64-.98-3.17-.97-5.03-2.58l1.9-4.27q1.82 1.44 4.44 2.37 2.66.89 5.33.89 3.3 0 4.9-1.06 1.65-1.05 1.65-2.79 0-1.27-.93-2.07-.89-.85-2.28-1.31-1.4-.47-3.8-1.06-3.4-.8-5.5-1.6-2.08-.8-3.6-2.5-1.48-1.73-1.48-4.65 0-2.45 1.31-4.44 1.35-2.03 4.02-3.21 2.7-1.19 6.6-1.19 2.7 0 5.32.68 2.62.67 4.53 1.94L203.93 7q-1.94-1.14-4.06-1.73-2.11-.6-4.1-.6-3.25 0-4.86 1.1-1.56 1.1-1.56 2.93 0 1.26.88 2.07.93.8 2.33 1.27 1.4.46 3.8 1.05 3.3.76 5.42 1.6 2.11.81 3.59 2.5 1.52 1.7 1.52 4.57 0 2.45-1.35 4.44-1.31 1.99-4.02 3.17-2.7 1.19-6.6 1.19zm34.56-25.42v9h14.29v4.66h-14.3v11.33h-5.5V.53h21.62v4.61zm34.92 25.42q-4.53 0-8.16-1.95-3.64-1.99-5.71-5.45-2.07-3.51-2.07-7.83 0-4.31 2.07-7.78 2.07-3.5 5.7-5.45Q259.89.1 264.42.1q4.52 0 8.16 1.99 3.64 1.94 5.7 5.41 2.08 3.47 2.08 7.82 0 4.36-2.07 7.83-2.07 3.46-5.71 5.45-3.64 1.95-8.16 1.95zm0-4.82q2.96 0 5.32-1.32 2.37-1.35 3.73-3.72 1.35-2.4 1.35-5.37 0-2.96-1.35-5.33-1.36-2.4-3.72-3.72-2.37-1.35-5.33-1.35t-5.33 1.35q-2.37 1.31-3.72 3.72-1.35 2.37-1.35 5.33t1.35 5.37q1.35 2.37 3.72 3.72 2.37 1.31 5.33 1.31zm41.13 4.4l-6.05-8.68q-.38.05-1.14.05h-6.68v8.62h-5.5V.53h12.18q3.85 0 6.68 1.27 2.88 1.27 4.4 3.64 1.52 2.37 1.52 5.62 0 3.34-1.65 5.75-1.6 2.41-4.65 3.6l6.81 9.72zm-.13-19.08q0-2.83-1.86-4.35-1.86-1.52-5.45-1.52h-6.43v11.8h6.43q3.6 0 5.45-1.53 1.86-1.56 1.86-4.4zm43.5 3.94h5.2v11.8q-2.27 1.81-5.32 2.78-3.04.98-6.26.98-4.52 0-8.16-1.95-3.63-1.99-5.7-5.45-2.08-3.47-2.08-7.83 0-4.35 2.08-7.82 2.07-3.47 5.7-5.41Q338.05.1 342.62.1q3.72 0 6.77 1.23 3.04 1.22 5.11 3.6l-3.47 3.37q-3.38-3.38-8.16-3.38-3.13 0-5.58 1.31-2.4 1.31-3.8 3.68-1.36 2.37-1.36 5.41 0 2.96 1.36 5.33 1.4 2.37 3.8 3.72 2.45 1.35 5.54 1.35 3.47 0 6.09-1.52zm26.25 15.56q-4.53 0-8.16-1.95-3.64-1.99-5.71-5.45-2.08-3.51-2.08-7.83 0-4.31 2.08-7.78 2.07-3.5 5.7-5.45Q370.64.1 375.17.1q4.52 0 8.16 1.99 3.63 1.94 5.7 5.41 2.08 3.47 2.08 7.82 0 4.36-2.07 7.83-2.08 3.46-5.71 5.45-3.64 1.95-8.16 1.95zm0-4.82q2.96 0 5.32-1.32 2.37-1.35 3.72-3.72 1.36-2.4 1.36-5.37 0-2.96-1.36-5.32-1.35-2.41-3.72-3.72-2.36-1.36-5.32-1.36-2.96 0-5.33 1.35-2.37 1.32-3.72 3.73-1.36 2.36-1.36 5.32 0 2.96 1.36 5.37 1.35 2.37 3.72 3.72 2.37 1.32 5.33 1.32zm35.59 4.82q-4.52 0-8.16-1.95-3.64-1.99-5.7-5.45-2.08-3.51-2.08-7.83 0-4.31 2.07-7.78 2.07-3.5 5.7-5.45Q406.24.1 410.76.1q4.53 0 8.16 1.99 3.64 1.94 5.7 5.41 2.08 3.47 2.08 7.82 0 4.36-2.07 7.83-2.07 3.46-5.7 5.45-3.64 1.95-8.17 1.95zm0-4.82q2.96 0 5.33-1.32 2.37-1.35 3.72-3.72 1.35-2.4 1.35-5.37 0-2.96-1.35-5.32-1.35-2.41-3.72-3.72-2.37-1.36-5.33-1.36t-5.33 1.35q-2.37 1.32-3.72 3.73-1.35 2.36-1.35 5.32 0 2.96 1.35 5.37 1.35 2.37 3.72 3.72 2.37 1.32 5.33 1.32zM432.52.54h12.94q4.73 0 8.41 1.85 3.68 1.82 5.71 5.2 2.03 3.34 2.03 7.74t-2.03 7.78q-2.03 3.34-5.7 5.2-3.69 1.82-8.42 1.82h-12.94zm12.68 24.94q3.26 0 5.71-1.23 2.5-1.26 3.8-3.55 1.36-2.32 1.36-5.37 0-3.04-1.35-5.33-1.31-2.32-3.8-3.55-2.46-1.27-5.72-1.27h-7.19v20.3zm54.87-10.74q2.45.8 3.89 2.7 1.44 1.87 1.44 4.66 0 3.85-2.96 5.96-2.96 2.07-8.63 2.07H479.1V.53h13.87q5.24 0 8.07 2.08 2.84 2.03 2.84 5.62 0 2.2-1.02 3.89-1.01 1.7-2.79 2.62zm-15.48-9.9v8.17h7.78q2.88 0 4.4-1.02 1.57-1.05 1.57-3.04 0-2.03-1.57-3.05-1.52-1.05-4.4-1.05zm8.88 20.98q6.39 0 6.39-4.27t-6.39-4.27h-8.88v8.54zm29.94-6.13v10.44h-5.5V19.77L506.3.53h5.88l8.67 14.42L529.59.53H535z"/>
  </g>
  <g aria-label="GOOD-LOOP" style="line-height:1.25;-inkscape-font-specification:'Montserrat SemiBold, '" font-weight="400" font-size="179.468px" font-family="'Montserrat ExtraBold'" letter-spacing="0" word-spacing="0" stroke-width="4.487" transform="translate(7 7)" filter="url(#b)" fill-opacity=".5">
    <path d="M146.97 76.11h11.08v18.36q-3.8 2.73-8.73 4.18-4.94 1.46-9.88 1.46-6.97 0-12.54-2.91-5.57-2.98-8.73-8.23Q115 83.7 115 77.07q0-6.65 3.17-11.9 3.16-5.26 8.8-8.18 5.63-2.97 12.72-2.97 6.2 0 11.15 2.09 4.93 2.09 8.23 6.01l-7.98 7.22q-4.5-4.94-10.77-4.94-5.7 0-9.18 3.48-3.48 3.42-3.48 9.18 0 3.68 1.58 6.59 1.59 2.85 4.44 4.5 2.85 1.58 6.52 1.58 3.6 0 6.77-1.46zm41.38 24q-7.03 0-12.66-2.98-5.57-2.97-8.8-8.22-3.17-5.26-3.17-11.84 0-6.59 3.17-11.84 3.23-5.26 8.8-8.24 5.63-2.97 12.66-2.97t12.6 2.97q5.63 2.98 8.8 8.23 3.23 5.26 3.23 11.84 0 6.59-3.23 11.84-3.17 5.26-8.8 8.23-5.57 2.98-12.6 2.98zm0-10.38q3.36 0 6.08-1.59 2.72-1.58 4.3-4.43 1.59-2.91 1.59-6.64 0-3.74-1.59-6.59-1.58-2.91-4.3-4.5-2.72-1.58-6.08-1.58T182.27 66q-2.72 1.58-4.3 4.49-1.59 2.85-1.59 6.59 0 3.73 1.59 6.64 1.58 2.85 4.3 4.44 2.72 1.58 6.08 1.58zm53.54 10.38q-7.02 0-12.66-2.98-5.57-2.97-8.8-8.22-3.17-5.26-3.17-11.84 0-6.59 3.17-11.84 3.23-5.26 8.8-8.24 5.64-2.97 12.66-2.97 7.03 0 12.6 2.97 5.64 2.98 8.8 8.23 3.23 5.26 3.23 11.84 0 6.59-3.23 11.84-3.16 5.26-8.8 8.23-5.57 2.98-12.6 2.98zm0-10.38q3.36 0 6.08-1.59 2.72-1.58 4.3-4.43 1.59-2.91 1.59-6.64 0-3.74-1.58-6.59-1.59-2.91-4.31-4.5-2.72-1.58-6.08-1.58-3.35 0-6.08 1.59-2.72 1.58-4.3 4.49-1.58 2.85-1.58 6.59 0 3.73 1.58 6.64 1.58 2.85 4.3 4.44 2.73 1.58 6.08 1.58zm31.2-34.82h20.95q7.28 0 12.92 2.72 5.63 2.72 8.74 7.72 3.1 5 3.1 11.72 0 6.7-3.1 11.7-3.1 5-8.74 7.73-5.64 2.72-12.92 2.72H273.1zm20.45 34.31q5.7 0 9.11-3.23 3.49-3.23 3.49-8.92 0-5.7-3.49-8.93-3.42-3.23-9.11-3.23h-7.92v24.31zm30.58-12.66h18.5v9.24h-18.5zm26-21.65h12.54v34.37h21.15v9.94h-33.68zm60.2 45.2q-7.04 0-12.67-2.97-5.57-2.98-8.8-8.23-3.17-5.26-3.17-11.84 0-6.59 3.17-11.84 3.23-5.26 8.8-8.23 5.63-2.98 12.66-2.98t12.6 2.98q5.64 2.97 8.8 8.23 3.23 5.25 3.23 11.84 0 6.58-3.23 11.84-3.16 5.25-8.8 8.23-5.57 2.97-12.6 2.97zm0-10.38q3.35 0 6.07-1.58 2.72-1.59 4.3-4.44 1.59-2.91 1.59-6.64 0-3.74-1.58-6.59-1.59-2.91-4.3-4.5-2.73-1.58-6.09-1.58-3.35 0-6.08 1.59-2.72 1.58-4.3 4.49-1.58 2.85-1.58 6.59 0 3.73 1.58 6.64 1.58 2.85 4.3 4.44 2.73 1.58 6.08 1.58zm53.54 10.38q-7.03 0-12.67-2.97-5.57-2.98-8.8-8.23-3.16-5.26-3.16-11.84 0-6.59 3.16-11.84 3.23-5.26 8.8-8.23 5.64-2.98 12.67-2.98 7.02 0 12.6 2.98 5.63 2.97 8.8 8.23 3.23 5.25 3.23 11.84 0 6.58-3.23 11.84-3.17 5.25-8.8 8.23-5.58 2.97-12.6 2.97zm0-10.38q3.35 0 6.07-1.58 2.73-1.59 4.3-4.44 1.6-2.91 1.6-6.64 0-3.74-1.6-6.59-1.57-2.91-4.3-4.5-2.72-1.58-6.07-1.58-3.36 0-6.08 1.59-2.72 1.58-4.3 4.49-1.59 2.85-1.59 6.59 0 3.73 1.58 6.64 1.59 2.85 4.3 4.44 2.73 1.58 6.09 1.58zM515.3 54.9q6.01 0 10.45 2.02 4.43 1.96 6.83 5.7Q535 66.3 535 71.3t-2.4 8.68q-2.41 3.67-6.84 5.7-4.44 1.96-10.45 1.96h-7.72v11.58h-12.54V54.91zm-.76 22.85q3.86 0 5.83-1.65 1.96-1.7 1.96-4.8 0-3.1-1.97-4.82-1.96-1.7-5.82-1.7h-6.96v12.97z" style="-inkscape-font-specification:'Montserrat ExtraBold, '"/>
  </g>
  <circle r="55" cy="55" cx="55" fill="#fff"/>
  <path fill="#fff" d="M55.3 5.11C27.52 5.11 5 27.5 5 55.11c0 18.4 10 34.47 24.9 43.15 4.5 2.35 12.26 4.91 16.51 6.06 2.94.52 5.91.79 8.9.8 27.77 0 50.3-22.4 50.3-50.01A49.83 49.83 0 0085.1 14.83c-6.22-4.2-11.42-6.18-16.61-7.97A50.62 50.62 0 0055.3 5.1z"/>
  <path fill="#af2009" d="M85.1 14.83c1.54 7.17-.83 16.42-3.45 21.57a57.64 57.64 0 01-7.2 10.66q-1.36 1.62-2.79 3.19a41.38 41.38 0 01-1.15-3.52c-.97 1.2-2 2.42-3.12 3.66a39.36 39.36 0 001.96 5.34c1.34 2.9 3.71 8.2 7.23 9 1.32.3 2.51-.53 3.31-3.22a19.27 19.27 0 00.56-2.6c.28-1.87 1.68-2.56 3.11-2.42a3.99 3.99 0 011.15.3 3.62 3.62 0 012.3 3.9 15.71 15.71 0 01-2.32 6.35c-2.57 3.9-6.75 5.51-10.98 3.99a13.72 13.72 0 01-5.23-3.55c-2.79-2.94-4.63-6.7-6.04-10.45l-.4-1.13L59 58.8c.42 1 .87 2 1.38 2.98l-2.88 2.9c-1.84 1.91-3.7 3.88-5.47 5.9a40.18 40.18 0 00-3.16-2.5l-3.05 2.76a26.33 26.33 0 017.36 8.31 20.56 20.56 0 011.68 3.8c2.54 7.9-.18 18.4-8.46 21.37a50.87 50.87 0 008.9.8c27.77 0 50.3-22.4 50.3-50A49.83 49.83 0 0085.1 14.82"/>
  <path fill="#770f00" d="M69.45 42.2c1-1.2 2-2.43 2.9-3.7 3.74-5.2 6.1-10.73 6.2-17.25.05-3-.57-7.72-3.14-8.92-.94-.45-2.14-.43-3.67.34l-.32.2c-5.63 3.18-6.25 12.82-6.37 18.35a67.35 67.35 0 00.18 6.44 3.14 3.14 0 00.03.57c.34 4.11.96 8.21 2.13 12.16a88 88 0 003.12-3.66q-.63-2.23-1.06-4.53"/>
  <path fill="#770f00" d="M48.44 67.76c-.6-.43-1.22-.84-1.83-1.26a187.98 187.98 0 013.78-4.16c2.32-2.49 4.76-4.9 7.2-7.33A53.46 53.46 0 0059 58.8c.99-.93 2-1.9 3.03-2.9a73.1 73.1 0 01-3.43-16.38c-.86-8.29-.65-17.45 2.99-25.04a18.58 18.58 0 015.32-6.56 15.63 15.63 0 011.57-1.05A50.62 50.62 0 0055.3 5.1C27.52 5.11 5 27.5 5 55.11c0 18.4 10 34.47 24.9 43.15-3.78-6.95-.6-16.61 4.82-21.85l.9-.84a27.09 27.09 0 012.98 2.15 89.63 89.63 0 012.42-2.41 87.92 87.92 0 00-5.43-3.97c-2.48-1.66-5.1-3.36-7.05-5.66-6.07-7.15-6.85-18.88-.9-26.34a16.93 16.93 0 011.7-1.86 14 14 0 0110-3.98c5.2.12 10.23 3.19 13.4 8.14 1.17 1.84.3 3.6-1.17 4.45a3.97 3.97 0 01-1.2.46 3.25 3.25 0 01-3.5-1.5c-2.71-4.25-7.16-5.96-10.98-3.95a9.48 9.48 0 00-3.15 2.75c-.12.15-.21.31-.32.47-3.44 5.09-2.5 12.49 1.34 17.06 3.23 3.83 7.72 6.36 11.82 9.27l.25.2 3.05-2.76-.44-.33"/>
  <path fill="#af2009" d="M38.6 77.72a16.68 16.68 0 012.17 2.14c.1.12-2.46 2.75-2.72 3.08a13.4 13.4 0 00-2.56 5.08c-.86 3.48-.17 8.22 3.33 10.07 5.35 2.82 10.43-3.7 10.25-8.92-.15-4.57-1.85-8.78-5.32-11.66a126.95 126.95 0 00-2.73-2.2 89.4 89.4 0 00-2.42 2.42"/>
  <path d="M143.38 28.28h-14.8l-2.91 6.85H120l13.32-29.6h5.41l13.36 29.6h-5.75zm-1.81-4.31l-5.59-12.94-5.54 12.94zm14.25-18.44h12.94q4.73 0 8.41 1.86 3.68 1.82 5.7 5.2 2.04 3.34 2.04 7.74t-2.03 7.78q-2.03 3.34-5.71 5.2-3.68 1.82-8.41 1.82h-12.94zm12.68 24.95q3.26 0 5.71-1.23 2.5-1.26 3.8-3.55 1.36-2.32 1.36-5.37 0-3.04-1.35-5.33-1.31-2.32-3.81-3.55-2.45-1.27-5.7-1.27h-7.2v20.3zm31.43 5.08q-3.43 0-6.64-.98-3.17-.97-5.03-2.58l1.9-4.27q1.82 1.44 4.44 2.37 2.66.89 5.33.89 3.3 0 4.9-1.06 1.65-1.05 1.65-2.79 0-1.27-.93-2.07-.89-.85-2.28-1.31-1.4-.47-3.8-1.06-3.4-.8-5.5-1.6-2.08-.8-3.6-2.5-1.48-1.73-1.48-4.65 0-2.45 1.31-4.44 1.35-2.03 4.02-3.21 2.7-1.19 6.6-1.19 2.7 0 5.32.68 2.62.67 4.53 1.94L208.93 12q-1.94-1.14-4.06-1.73-2.11-.6-4.1-.6-3.25 0-4.86 1.1-1.56 1.1-1.56 2.93 0 1.26.88 2.07.93.8 2.33 1.26 1.4.47 3.8 1.06 3.3.76 5.42 1.6 2.11.81 3.59 2.5 1.52 1.7 1.52 4.57 0 2.45-1.35 4.44-1.31 1.99-4.02 3.17-2.7 1.19-6.6 1.19zm34.56-25.42v9h14.29v4.66h-14.3v11.33h-5.5V5.53h21.62v4.61zm34.92 25.42q-4.53 0-8.16-1.95-3.64-1.99-5.71-5.45-2.07-3.51-2.07-7.83 0-4.31 2.07-7.78 2.07-3.5 5.7-5.45 3.64-1.99 8.17-1.99 4.52 0 8.16 1.99 3.64 1.94 5.7 5.41 2.08 3.47 2.08 7.82 0 4.36-2.07 7.83-2.07 3.46-5.71 5.45-3.64 1.95-8.16 1.95zm0-4.82q2.96 0 5.32-1.32 2.37-1.35 3.73-3.72 1.35-2.4 1.35-5.37 0-2.96-1.35-5.33-1.36-2.4-3.72-3.72-2.37-1.35-5.33-1.35t-5.33 1.35q-2.37 1.31-3.72 3.72-1.35 2.37-1.35 5.33t1.35 5.37q1.35 2.37 3.72 3.72 2.37 1.31 5.33 1.31zm41.13 4.4l-6.05-8.68q-.38.05-1.14.05h-6.68v8.62h-5.5V5.53h12.18q3.85 0 6.68 1.27 2.88 1.27 4.4 3.64 1.52 2.37 1.52 5.62 0 3.34-1.65 5.75-1.6 2.41-4.65 3.6l6.81 9.72zm-.13-19.08q0-2.83-1.86-4.35-1.86-1.53-5.45-1.53h-6.43v11.8h6.43q3.6 0 5.45-1.52 1.86-1.56 1.86-4.4zm43.5 3.93h5.2v11.8q-2.27 1.82-5.32 2.8-3.04.97-6.26.97-4.52 0-8.16-1.95-3.63-1.99-5.7-5.45-2.08-3.47-2.08-7.83 0-4.35 2.08-7.82 2.07-3.47 5.7-5.41 3.68-1.99 8.25-1.99 3.72 0 6.77 1.23 3.04 1.22 5.11 3.6l-3.47 3.37q-3.38-3.38-8.16-3.38-3.13 0-5.58 1.31-2.4 1.31-3.8 3.68-1.36 2.37-1.36 5.41 0 2.96 1.36 5.33 1.4 2.37 3.8 3.72 2.45 1.35 5.54 1.35 3.47 0 6.09-1.52zm26.25 15.57q-4.53 0-8.16-1.95-3.64-1.99-5.71-5.45-2.08-3.51-2.08-7.83 0-4.31 2.08-7.78 2.07-3.5 5.7-5.45 3.64-1.99 8.17-1.99 4.52 0 8.16 1.99 3.63 1.94 5.7 5.41 2.08 3.47 2.08 7.82 0 4.36-2.07 7.83-2.08 3.46-5.71 5.45-3.64 1.95-8.16 1.95zm0-4.82q2.96 0 5.32-1.32 2.37-1.35 3.72-3.72 1.36-2.4 1.36-5.37 0-2.96-1.36-5.33-1.35-2.4-3.72-3.72-2.36-1.35-5.32-1.35-2.96 0-5.33 1.35-2.37 1.31-3.72 3.72-1.36 2.37-1.36 5.33t1.36 5.37q1.35 2.37 3.72 3.72 2.37 1.31 5.33 1.31zm35.59 4.82q-4.52 0-8.16-1.95-3.64-1.99-5.7-5.45-2.08-3.51-2.08-7.83 0-4.31 2.07-7.78 2.07-3.5 5.7-5.45 3.65-1.99 8.17-1.99 4.53 0 8.16 1.99 3.64 1.94 5.7 5.41 2.08 3.47 2.08 7.82 0 4.36-2.07 7.83-2.07 3.46-5.7 5.45-3.64 1.95-8.17 1.95zm0-4.82q2.96 0 5.33-1.32 2.37-1.35 3.72-3.72 1.35-2.4 1.35-5.37 0-2.96-1.35-5.33-1.35-2.4-3.72-3.72-2.37-1.35-5.33-1.35t-5.33 1.35q-2.37 1.31-3.72 3.72-1.35 2.37-1.35 5.33t1.35 5.37q1.35 2.37 3.72 3.72 2.37 1.31 5.33 1.31zm21.77-25.2h12.94q4.73 0 8.41 1.85 3.68 1.82 5.71 5.2 2.03 3.34 2.03 7.74t-2.03 7.78q-2.03 3.34-5.7 5.2-3.69 1.82-8.42 1.82h-12.94zm12.68 24.94q3.26 0 5.71-1.23 2.5-1.26 3.8-3.55 1.36-2.32 1.36-5.37 0-3.04-1.35-5.33-1.31-2.32-3.8-3.55-2.46-1.27-5.72-1.27h-7.19v20.3zm54.87-10.74q2.45.8 3.89 2.7 1.44 1.87 1.44 4.66 0 3.85-2.96 5.96-2.96 2.07-8.63 2.07H484.1V5.53h13.87q5.24 0 8.07 2.08 2.84 2.03 2.84 5.62 0 2.2-1.02 3.89-1.01 1.7-2.79 2.62zm-15.48-9.9v8.17h7.78q2.88 0 4.4-1.02 1.57-1.05 1.57-3.04 0-2.03-1.57-3.05-1.52-1.05-4.4-1.05zm8.88 20.98q6.39 0 6.39-4.27t-6.39-4.27h-8.88v8.54zm29.94-6.13v10.44h-5.5V24.77L511.3 5.53h5.88l8.67 14.42 8.75-14.42H540z" stroke-width="2.997" word-spacing="0" letter-spacing="0" font-family="'Montserrat SemiBold'" font-size="119.86px" font-weight="400" style="fill:#ffffff" aria-label="ADS FOR GOOD BY" fill="#fff"/>
  <g style="line-height:1.25;-inkscape-font-specification:'Montserrat SemiBold, '">
    <path style="-inkscape-font-specification:'Montserrat ExtraBold, '" d="M151.97 81.11h11.08v18.36q-3.8 2.73-8.73 4.18-4.94 1.46-9.88 1.46-6.97 0-12.54-2.91-5.57-2.98-8.73-8.23Q120 88.7 120 82.07q0-6.65 3.17-11.9 3.16-5.26 8.8-8.18 5.63-2.97 12.72-2.97 6.2 0 11.15 2.09 4.93 2.09 8.23 6.01l-7.98 7.22q-4.5-4.94-10.77-4.94-5.7 0-9.18 3.48-3.48 3.42-3.48 9.18 0 3.68 1.58 6.59 1.59 2.85 4.44 4.5 2.85 1.58 6.52 1.58 3.6 0 6.77-1.46zm41.38 24q-7.03 0-12.66-2.98-5.57-2.97-8.8-8.22-3.17-5.26-3.17-11.84 0-6.59 3.17-11.84 3.23-5.26 8.8-8.24 5.63-2.97 12.66-2.97t12.6 2.97q5.63 2.98 8.8 8.23 3.23 5.26 3.23 11.84 0 6.59-3.23 11.84-3.17 5.26-8.8 8.23-5.57 2.98-12.6 2.98zm0-10.38q3.36 0 6.08-1.59 2.72-1.58 4.3-4.43 1.59-2.91 1.59-6.64 0-3.74-1.59-6.59-1.58-2.91-4.3-4.5-2.72-1.58-6.08-1.58T187.27 71q-2.72 1.58-4.3 4.49-1.59 2.85-1.59 6.59 0 3.73 1.59 6.64 1.58 2.85 4.3 4.44 2.72 1.58 6.08 1.58zm53.54 10.38q-7.02 0-12.66-2.98-5.57-2.97-8.8-8.22-3.17-5.26-3.17-11.84 0-6.59 3.17-11.84 3.23-5.26 8.8-8.24 5.64-2.97 12.66-2.97 7.03 0 12.6 2.97 5.64 2.98 8.8 8.23 3.23 5.26 3.23 11.84 0 6.59-3.23 11.84-3.16 5.26-8.8 8.23-5.57 2.98-12.6 2.98zm0-10.38q3.36 0 6.08-1.59 2.72-1.58 4.3-4.43 1.59-2.91 1.59-6.64 0-3.74-1.58-6.59-1.59-2.91-4.31-4.5-2.72-1.58-6.08-1.58-3.35 0-6.08 1.59-2.72 1.58-4.3 4.49-1.58 2.85-1.58 6.59 0 3.73 1.58 6.64 1.58 2.85 4.3 4.44 2.73 1.58 6.08 1.58zm31.2-34.82h20.95q7.28 0 12.92 2.72 5.63 2.72 8.74 7.72 3.1 5 3.1 11.72 0 6.7-3.1 11.7-3.1 5-8.74 7.73-5.64 2.72-12.92 2.72H278.1zm20.45 34.31q5.7 0 9.11-3.23 3.49-3.23 3.49-8.92 0-5.7-3.49-8.93-3.42-3.23-9.11-3.23h-7.92v24.31zm30.58-12.66h18.5v9.24h-18.5zm26-21.65h12.54v34.37h21.15v9.94h-33.68zm60.2 45.2q-7.04 0-12.67-2.97-5.57-2.98-8.8-8.23-3.17-5.26-3.17-11.84 0-6.59 3.17-11.84 3.23-5.26 8.8-8.23 5.63-2.98 12.66-2.98t12.6 2.98q5.64 2.97 8.8 8.23 3.23 5.25 3.23 11.84 0 6.58-3.23 11.84-3.16 5.25-8.8 8.23-5.57 2.97-12.6 2.97zm0-10.38q3.35 0 6.07-1.58 2.72-1.59 4.3-4.44 1.59-2.91 1.59-6.64 0-3.74-1.58-6.59-1.59-2.91-4.3-4.5-2.73-1.58-6.09-1.58-3.35 0-6.08 1.59-2.72 1.58-4.3 4.49-1.58 2.85-1.58 6.59 0 3.73 1.58 6.64 1.58 2.85 4.3 4.44 2.73 1.58 6.08 1.58zm53.54 10.38q-7.03 0-12.67-2.97-5.57-2.98-8.8-8.23-3.16-5.26-3.16-11.84 0-6.59 3.16-11.84 3.23-5.26 8.8-8.23 5.64-2.98 12.67-2.98 7.02 0 12.6 2.98 5.63 2.97 8.8 8.23 3.23 5.25 3.23 11.84 0 6.58-3.23 11.84-3.17 5.25-8.8 8.23-5.58 2.97-12.6 2.97zm0-10.38q3.35 0 6.07-1.58 2.73-1.59 4.3-4.44 1.6-2.91 1.6-6.64 0-3.74-1.6-6.59-1.57-2.91-4.3-4.5-2.72-1.58-6.07-1.58-3.36 0-6.08 1.59-2.72 1.58-4.3 4.49-1.59 2.85-1.59 6.59 0 3.73 1.58 6.64 1.59 2.85 4.3 4.44 2.73 1.58 6.09 1.58zM520.3 59.9q6.01 0 10.45 2.02 4.43 1.96 6.83 5.7Q540 71.3 540 76.3t-2.4 8.68q-2.41 3.67-6.84 5.7-4.44 1.96-10.45 1.96h-7.72v11.58h-12.54V59.91zm-.76 22.85q3.86 0 5.83-1.65 1.96-1.7 1.96-4.8 0-3.1-1.97-4.82-1.96-1.7-5.82-1.7h-6.96v12.97z" stroke-width="4.487" word-spacing="0" letter-spacing="0" font-family="'Montserrat ExtraBold'" font-size="179.468px" font-weight="400" aria-label="GOOD-LOOP" fill="#fff"/>
  </g>
</svg>

