<?xml version="1.0" encoding="UTF-8" standalone="no"?>
<svg
   xmlns:dc="http://purl.org/dc/elements/1.1/"
   xmlns:cc="http://creativecommons.org/ns#"
   xmlns:rdf="http://www.w3.org/1999/02/22-rdf-syntax-ns#"
   xmlns:svg="http://www.w3.org/2000/svg"
   xmlns="http://www.w3.org/2000/svg"
   xmlns:sodipodi="http://sodipodi.sourceforge.net/DTD/sodipodi-0.dtd"
   xmlns:inkscape="http://www.inkscape.org/namespaces/inkscape"
   width="100"
   height="100"
   viewBox="0 0 75.000024 75.000055"
   version="1.1"
   id="svg38"
   sodipodi:docname="new-gl-logo-tweaked.svg"
   inkscape:version="0.92.4 (5da689c313, 2019-01-14)">
  <metadata
     id="metadata44">
    <rdf:RDF>
      <cc:Work
         rdf:about="">
        <dc:format>image/svg+xml</dc:format>
        <dc:type
           rdf:resource="http://purl.org/dc/dcmitype/StillImage" />
        <dc:title>GoodLoopLogos</dc:title>
      </cc:Work>
    </rdf:RDF>
  </metadata>
  <defs
     id="defs42" />
  <sodipodi:namedview
     pagecolor="#ffffff"
     bordercolor="#666666"
     borderopacity="1"
     objecttolerance="10"
     gridtolerance="10"
     guidetolerance="10"
     inkscape:pageopacity="0"
     inkscape:pageshadow="2"
     inkscape:window-width="1920"
     inkscape:window-height="1163"
     id="namedview40"
     showgrid="false"
     fit-margin-top="0"
     fit-margin-left="0"
     fit-margin-right="0"
     fit-margin-bottom="0"
     inkscape:zoom="4"
     inkscape:cx="62.395026"
     inkscape:cy="32.061149"
     inkscape:window-x="0"
     inkscape:window-y="0"
     inkscape:window-maximized="1"
     inkscape:current-layer="svg38"
     units="px" />
  <title
     id="title2">GoodLoopLogos</title>
  <circle
     style="opacity:1;fill:#af2009;fill-opacity:1;stroke:none;stroke-width:4.62878609;stroke-linecap:round;stroke-linejoin:round;stroke-miterlimit:4;stroke-dasharray:none;stroke-dashoffset:0;stroke-opacity:1"
     id="path1509"
     cx="37.500019"
     cy="37.500023"
     r="37.500019" />
  <path
     style="opacity:1;fill:#770f00;fill-opacity:1;stroke:none;stroke-width:4.62878609;stroke-linecap:round;stroke-linejoin:round;stroke-miterlimit:4;stroke-dasharray:none;stroke-dashoffset:0;stroke-opacity:1"
     d="M 37.500019,0 C 16.789331,0 0,16.789329 0,37.500019 4.8300025e-4,51.209067 7.4816956,63.825296 19.510264,70.401892 15.63315,57.904673 28.298185,53.187545 35.890677,43.730655 44.514419,36.055016 60.134674,20.262251 56.636748,5.3012728 50.850095,1.8466885 44.239404,0.01539001 37.500019,0 Z"
     id="circle1532"
     inkscape:connector-curvature="0"
     sodipodi:nodetypes="cccccc" />
  <path
     style="opacity:1;fill:#ffffff;fill-opacity:1;stroke:none;stroke-width:2.76192665;stroke-linecap:round;stroke-linejoin:round;stroke-miterlimit:4;stroke-dasharray:none;stroke-dashoffset:0;stroke-opacity:1"
     d="m 25.324699,21.207058 c -2.800229,-0.04637 -5.502933,1.029236 -7.507327,2.987718 -0.458327,0.434746 -0.883811,0.902935 -1.272951,1.400715 -4.459542,5.60194 -3.87901,14.40609 0.675294,19.78172 1.463037,1.72521 3.428448,3.00106 5.291018,4.25057 1.417889,0.95117 2.751942,1.94169 4.069339,2.97745 h 0.0015 c 0.716344,0.56408 1.448522,1.14935 2.049317,1.64806 2.604656,2.16693 3.874346,5.32774 3.990236,8.75635 0.131257,3.92417 -3.673963,8.81636 -7.690433,6.6956 -2.625144,-1.38413 -3.144883,-4.94196 -2.49756,-7.55509 0.359752,-1.39607 1.014645,-2.69854 1.920411,-3.81936 0.192084,-0.23977 2.109124,-2.21868 2.036134,-2.30716 -1.137901,-1.3103 -2.48881,-2.36299 -3.851111,-3.22439 0,0 -0.495928,0.45182 -0.679688,0.63069 -4.015091,3.88611 -6.375078,11.00125 -3.711916,16.20144 3.817673,2.34744 8.00402,3.89701 12.505378,4.74191 6.153624,-2.26196 8.210756,-10.11968 6.317874,-16.03423 -0.32234,-0.99025 -0.744434,-1.94511 -1.259766,-2.84984 -3.278734,-6.35001 -10.41962,-8.5343 -14.570844,-13.34473 -2.885737,-3.43373 -3.309263,-8.6644 -1.541355,-11.8112 0.947596,-1.95148 2.20021,-2.91689 3.132176,-3.4222 2.865889,-1.50851 6.205401,-0.21909 8.238286,2.96718 1.155812,1.25136 2.204195,1.34772 3.525881,0.78323 1.250143,-0.61275 1.664069,-2.19491 0.874512,-3.34266 -2.373515,-3.718384 -6.152183,-6.024836 -10.044439,-6.113309 z"
     id="path1516"
     inkscape:connector-curvature="0"
     sodipodi:nodetypes="ccccccccccccccccccccccccccc" />
  <path
     style="opacity:1;fill:#ffffff;fill-opacity:1;stroke:none;stroke-width:2.76192665;stroke-linecap:round;stroke-linejoin:round;stroke-miterlimit:4;stroke-dasharray:none;stroke-dashoffset:0;stroke-opacity:1"
     d="M 47.123545,1.2412206 C 44.945531,2.6199764 43.014345,4.89778 42.011741,6.9155286 39.282232,12.616837 39.13025,19.49923 39.770529,25.725598 c 0.384955,4.185933 1.248015,8.314197 2.572266,12.303232 0.09405,0.288795 0.20382,0.59058 0.295863,0.851108 1.059023,2.813146 2.442543,5.64097 4.533694,7.845709 1.082174,1.18284 2.42554,2.096956 3.922854,2.667481 3.175142,1.145648 6.305187,-0.06682 8.232427,-2.994144 0.916874,-1.443226 1.509649,-3.068454 1.737305,-4.763672 0.189911,-1.262956 -0.524751,-2.488352 -1.716798,-2.942874 -0.275991,-0.115125 -0.567936,-0.187073 -0.865723,-0.213863 -1.156795,-0.199395 -2.235494,0.637748 -2.332032,1.809083 -0.09461,0.660466 -0.23409,1.312644 -0.417481,1.954104 -0.5993,2.022024 -1.493408,2.642476 -2.485841,2.415526 -2.637308,-0.60135 -4.417064,-4.576127 -5.41846,-6.755861 -0.586664,-1.29888 -1.078672,-2.639281 -1.696372,-4.815497 -0.617701,-2.176216 -1.151213,-5.236443 -1.371012,-8.32709 -0.02266,-0.142057 -0.03148,-0.285435 -0.02637,-0.429202 -0.11909,-1.616214 -0.172089,-3.232697 -0.13623,-4.835448 0.09032,-4.153697 0.556876,-11.3922433 4.782717,-13.7841895 4.075,-2.1024611 5.297827,2.7608039 5.349612,6.3002955 -0.07491,4.897375 -1.852222,9.04703 -4.650881,12.950692 -0.683819,0.95844 -1.422511,1.876043 -2.176759,2.783206 h -0.0015 c 0.405728,2.109707 0.950738,4.175898 1.658204,6.042484 0.713272,-0.784703 1.411725,-1.581106 2.085938,-2.392089 2.095022,-2.458239 3.90811,-5.143968 5.405276,-8.006847 C 59.011825,19.52989 60.790954,12.604964 59.654004,7.2271163 55.88889,4.4646998 51.706807,2.4501763 47.123545,1.2412206 Z"
     id="path1520"
     inkscape:connector-curvature="0"
     sodipodi:nodetypes="ccccccccccccccccccccccccccccc" />
  <path
     style="opacity:1;fill:#ffffff;fill-opacity:1;stroke:none;stroke-width:2.76192665;stroke-linecap:round;stroke-linejoin:round;stroke-miterlimit:4;stroke-dasharray:none;stroke-dashoffset:0;stroke-opacity:1"
     d="m 39.003418,37.364491 c -2.997628,2.96673 -5.665978,5.71487 -8.228032,8.63168 1.440446,0.97726 2.798621,1.95244 4.067908,3.06005 2.137215,-2.41496 4.159491,-4.51165 6.26221,-6.60759 -0.869868,-1.79475 -1.462531,-3.23774 -2.102086,-5.08364 z"
     id="path1511"
     inkscape:connector-curvature="0"
     sodipodi:nodetypes="cccccc" />
</svg>
