<svg xmlns="http://www.w3.org/2000/svg" viewBox="0 0 379.19974 585.38275">
  <defs>
    <filter id="a" x="-0.050044168" width="1.1000884" y="-0.032134179" height="1.0642684" color-interpolation-filters="sRGB">
      <feGaussianBlur stdDeviation="7.1875797"/>
    </filter>
  </defs>
  <path style="shape-padding:0;shape-margin:0;inline-size:0;isolation:auto;mix-blend-mode:normal;solid-color:#000;solid-opacity:1" d="m 48.980661,31.344632 c -4.43199,-0.194791 -8.8357,0.573014 -12.76953,2.207031 -10.49022,4.357377 -18.96094,15.187989 -18.96094,28.449219 V 491.67861 c 0,12.79829 7.84844,23.4811 18.1875,28.125 10.33906,4.64389 24.30465,2.95604 33.55274,-6.55469 l 73.382809,-75.47656 45.83984,111.58203 0.0293,0.0703 c 6.40658,15.06182 24.33115,23.0443 39.83594,16.27735 l 49.22656,-21.45313 0.0664,-0.0312 c 14.98218,-6.74189 22.29487,-24.58644 15.8711,-40.16211 L 244.50019,385.32705 h 87.43945 c 26.23442,0 40.22473,-34.07891 21.22461,-52.59375 l 0.23828,0.24023 -284.412099,-292.542961 0.33984,0.365235 c -5.49855,-6.126671 -12.96297,-9.126521 -20.34961,-9.451172 z" color="#000" font-weight="400" font-family="sans-serif" overflow="visible" fill-opacity=".6" filter="url(#a)" enable-background="accumulate"/>
  <path d="m 318.76362,341.51309 h -106.084 l 55.831,135.993 c 3.889,9.428 -0.555,19.999 -9.444,23.999 l -49.165,21.427 c -9.165,4 -19.443,-0.571 -23.332,-9.714 l -53.053,-129.136 -86.663994,89.138 c -11.549,11.877 -30.278,2.721 -30.278,-12.856 V 30.686091 c 0,-16.4 19.921,-24.3950002 30.277,-12.856 L 331.26362,310.37209 c 11.472,11.179 3.007,31.141 -12.5,31.141 z" fill="#fff" stroke="#000" stroke-width="25"/>
</svg>

