<svg xmlns="http://www.w3.org/2000/svg" xmlns:xlink="http://www.w3.org/1999/xlink" width="1920" height="1080" viewBox="0 0 1920 1080">
  <defs>
    <linearGradient id="linear-gradient" y1="1.25" x2="1" y2="1.25" gradientUnits="objectBoundingBox">
      <stop offset="0" stop-color="#5e5f60"/>
      <stop offset="0.04" stop-color="#e5e5e6"/>
      <stop offset="0.96" stop-color="#e5e5e6"/>
      <stop offset="1" stop-color="#616264"/>
    </linearGradient>
    <linearGradient id="linear-gradient-2" y1="1.25" x2="1" y2="1.25" gradientUnits="objectBoundingBox">
      <stop offset="0" stop-color="#5e5f60"/>
      <stop offset="0.1" stop-color="#e5e5e6"/>
      <stop offset="0.9" stop-color="#e5e5e6"/>
      <stop offset="1" stop-color="#616264"/>
    </linearGradient>
    <clipPath id="clip-responsive-laptop-2">
      <rect width="1920" height="1080"/>
    </clipPath>
  </defs>
  <g id="responsive-laptop-2" clip-path="url(#clip-responsive-laptop-2)">
    <rect id="rect56" width="740" height="462.5" transform="translate(589.99 304.289)" fill="#fff"/>
    <g id="g32" transform="translate(449.34 686.96)">
      <rect id="rect24" width="1000" height="8" transform="translate(10.66 119.04)" fill="url(#linear-gradient)"/>
      <path id="path26" d="M10.66,127.04l50,11h900l50-11Z" fill="#414046"/>
      <path id="path28" d="M120.35-430.96a19.65,19.65,0,0,0-13.938,5.748,19.65,19.65,0,0,0-5.762,13.932V119.04h820V-411.28a19.643,19.643,0,0,0-19.69-19.68Zm20.3,45h740v470h-740Z"/>
      <rect id="rect30" width="220" height="8" transform="translate(400.66 119.04)" fill="url(#linear-gradient-2)"/>
    </g>
    <rect id="Rectangle_2" data-name="Rectangle 2" width="740" height="88" transform="translate(590 301.289)" fill="#eaeaea"/>
    <path id="path28-2" data-name="path28" d="M120.35-430.96a19.65,19.65,0,0,0-13.938,5.748,19.65,19.65,0,0,0-5.762,13.932V119.04h820V-411.28a19.643,19.643,0,0,0-19.69-19.68Zm20.3,45h740v470h-740Z" transform="translate(449.34 686.96)"/>
    <rect id="rect20" width="148.042" height="31.051" rx="15.525" transform="translate(1061.188 320.746)" fill="#f3f3f3"/>
    <rect id="rect22" width="83.521" height="23.902" rx="10.23" transform="translate(1075.352 355.722)" fill="#f3f3f3"/>
    <path id="path2" d="M332.582,303.85h301.2v109.5h-301.2Zm309.184-.177h94.925v109.5H641.766Z" transform="translate(460 154.289)" fill="#f7f7f7"/>
    <path id="path4" d="M332.871,303.373H633.5M223.357,277.7H779.224M641.879,303.373H736.4m-397.71-41.287H450.849" transform="translate(460 154.289)" fill="none" stroke="#000" stroke-miterlimit="10" stroke-width="0.578"/>
    <path id="Subtraction_3" data-name="Subtraction 3" d="M-3671.5,107.942h-189.333V0H-3671.5V107.941Z" transform="translate(4765 459.694)" fill="#eaeaea"/>
    <path id="Subtraction_1" data-name="Subtraction 1" d="M379.473,392.566H308.049v-2.92h71.424v2.919Zm300.888-.578H617.922v-2.4h62.439v2.4Zm-282.7-3.7H308.049v-10.21h89.608v10.209Zm298.6-.06H617.922v-10.21h78.335v10.209Zm-298.6-11.493H308.049v-10.21h89.608V376.73Zm298.6-.061H617.922V366.46h78.335v10.209ZM422.771,335.156H310.755V322.191H422.771v12.964Zm328.447-.1H539.627V322.09H751.218v12.963ZM307.8,335.048H195.784V322.084H307.8v12.964Zm229.421-.06H425.205V322.024H537.222v12.964Z" transform="translate(488 94.289)" fill="#ddd"/>
    <circle id="circle12" cx="16.187" cy="16.187" r="16.187" transform="translate(687.981 473.029)" fill="#ddd"/>
    <circle id="circle14" cx="25.004" cy="25.004" r="25.004" transform="translate(1137.688 507.535)" fill="#ddd"/>
    <path id="Subtraction_2" data-name="Subtraction 2" d="M152.612,277.9H69.86V272.3h82.752v5.592Zm-8.886-6.938H69.86v-5.593h73.867v5.592Zm-.076-6.931H69.785v-5.594h73.866v5.592ZM115.032,219.5H69.921v-10.21h45.111V219.5Zm126.941-24.582H69.967v-5.593H241.972v5.593Z" transform="translate(618 250.289)" fill="#f3f3f3"/>
    <line id="Line_1" data-name="Line 1" y2="310" transform="translate(683.5 432.5)" fill="none" stroke="#ddd" stroke-width="0.5"/>
    <line id="Line_2" data-name="Line 2" y2="310" transform="translate(1239.225 432.5)" fill="none" stroke="#ddd" stroke-width="0.5"/>
    <rect id="responsive-ad-space" width="282" height="148" transform="translate(854 597)" fill="#fff"/>
  </g>
</svg>
