<svg id="Layer_1" data-name="Layer 1" xmlns="http://www.w3.org/2000/svg" viewBox="0 0 168 55"><defs><style>.cls-1{fill:#0e79bf;}.cls-2{fill:#ec2227;}.cls-3{fill:#010101;}.cls-4{fill:#0593b3;}.cls-5{fill:#fafdfd;}</style></defs><title>ABTA</title><path class="cls-1" d="M75.76,2.33c-.45,0-.9,0-1.34.06v2.3h0V29.92h0v.9c.44,0,.89.06,1.34.06a14.28,14.28,0,0,0,0-28.55ZM81,17.91a19.14,19.14,0,0,1-.36,2.66H77.28V17.91Zm-3.7-2.67V12.57h3.33A19.49,19.49,0,0,1,81,15.24Zm6.5,2.67h3.35a11.32,11.32,0,0,1-.62,2.66H83.43A19.14,19.14,0,0,0,83.78,17.91Zm0-2.67a19.5,19.5,0,0,0-.37-2.67h3.07a10.85,10.85,0,0,1,.64,2.67Zm1.27-5.33H82.64a17.71,17.71,0,0,0-1.82-3.58A11.53,11.53,0,0,1,85.05,9.91Zm-5.21,0H77.28V5.26A17.17,17.17,0,0,1,79.84,9.91ZM77.28,28V23.24h2.59A17.18,17.18,0,0,1,77.28,28Zm3.57-1.09a17.53,17.53,0,0,0,1.82-3.62h2.42A11.5,11.5,0,0,1,80.85,26.86Z"/><path class="cls-1" d="M121.76,29.16h-7.5V5.54h7.38c4.77,0,7,3.26,7,6.13a5.28,5.28,0,0,1-2.83,4.91v.07A5.18,5.18,0,0,1,130.14,22C130.14,25.4,127.7,29.16,121.76,29.16ZM121,9.2H118.6v6.16h2.29a3.14,3.14,0,0,0,3.37-3.23C124.26,10.45,123.12,9.2,121,9.2Zm.82,9.78H118.6v6.53h2.76c2.9,0,4.33-1.3,4.33-3.44C125.69,20.23,124.29,19,121.86,19Z"/><path class="cls-1" d="M147.54,9.16h-6.29v20h-4.37v-20H130V5.54H149Z"/><path class="cls-1" d="M107.66,29.16l-2.33-5.92H96.89L94.7,29.16H90.36L99.5,5.53h3.25l9.47,23.63Zm-5.6-14.89a26.15,26.15,0,0,1-.9-2.94h0a19.38,19.38,0,0,1-.86,2.87l-2,5.5H104Z"/><path class="cls-1" d="M161.78,29.16l-2.33-5.92H151l-2.18,5.92h-4.35l9.14-23.63h3.26l9.46,23.63Zm-5.59-14.89a24.21,24.21,0,0,1-.9-2.94h0a18.24,18.24,0,0,1-.86,2.87l-2,5.5h5.75Z"/><path class="cls-2" d="M73.07,13.91V12.83L66.23,6a13.76,13.76,0,0,0-1.08,1.08L72,13.91Z"/><path class="cls-2" d="M73.07,19.22V20.3l-6.84,6.84a13.76,13.76,0,0,1-1.08-1.08L72,19.22Z"/><path class="cls-2" d="M73.07,15.27H61.54c0,.44-.06.88-.06,1.33s0,.89.06,1.33H73.07Z"/><path class="cls-1" d="M64.4,8a14.06,14.06,0,0,0-2.64,5.93h8.58Z"/><path class="cls-1" d="M73.07,11.17V2.6a14.24,14.24,0,0,0-5.93,2.64Z"/><path class="cls-1" d="M67.14,27.89a14.24,14.24,0,0,0,5.93,2.64V22Z"/><path class="cls-1" d="M70.34,19.22H61.76a14.19,14.19,0,0,0,2.64,5.93Z"/><path class="cls-3" d="M66.81,43l4,10.21H69.3l-1.11-3.08H63.87l-1.15,3.08H61.33l4-10.21Zm1,6-1.71-4.76h0L64.29,49Z"/><path class="cls-3" d="M75.71,43h.71c.25,0,.5,0,.75,0a6.34,6.34,0,0,1,.69.1,1.62,1.62,0,0,1,.55.22,2.72,2.72,0,0,1,.86.83,2.31,2.31,0,0,1,.35,1.3,2.46,2.46,0,0,1-.4,1.41,2.31,2.31,0,0,1-1.12.88v0a2.36,2.36,0,0,1,1.45.86,2.57,2.57,0,0,1,.5,1.6,3.18,3.18,0,0,1-.2,1.09,2.86,2.86,0,0,1-.6.93,3,3,0,0,1-1,.66,3.3,3.3,0,0,1-1.34.25H72V43Zm.37,4.39A2.69,2.69,0,0,0,77.75,47a1.47,1.47,0,0,0,.51-1.22,1.85,1.85,0,0,0-.17-.86,1.33,1.33,0,0,0-.48-.49,1.87,1.87,0,0,0-.69-.22,7.3,7.3,0,0,0-.84,0H73.36v3.25Zm.69,4.68a2,2,0,0,0,1.41-.49,1.76,1.76,0,0,0,.51-1.35,1.66,1.66,0,0,0-.19-.82,1.47,1.47,0,0,0-.49-.53,2,2,0,0,0-.71-.27,4.49,4.49,0,0,0-.83-.08H73.36v3.54Z"/><path class="cls-3" d="M80.92,44.14V43h8.17v1.14H85.68v9.07H84.32V44.14Z"/><path class="cls-3" d="M93.38,43l4,10.21h-1.5l-1.12-3.08H90.43l-1.14,3.08H87.9l4-10.21Zm.94,6-1.7-4.76h0L90.86,49Z"/><path class="cls-3" d="M104.18,43l5.38,8.28h0V43h1.29V53.21h-1.49L104.05,45h0v8.2h-1.28V43Z"/><path class="cls-3" d="M112.91,48a3.27,3.27,0,0,1,1.81-2.06,3.79,3.79,0,0,1,1.55-.3,3.73,3.73,0,0,1,1.55.3A3.35,3.35,0,0,1,119.63,48a5.14,5.14,0,0,1,0,3,3.42,3.42,0,0,1-.69,1.22,3,3,0,0,1-1.12.81,3.73,3.73,0,0,1-1.55.3,3.79,3.79,0,0,1-1.55-.3,3.17,3.17,0,0,1-1.13-.81,3.56,3.56,0,0,1-.68-1.22,5.14,5.14,0,0,1,0-3Zm1.23,2.71a2.6,2.6,0,0,0,.5.88,2.23,2.23,0,0,0,1.63.72,2.09,2.09,0,0,0,.89-.19,2.15,2.15,0,0,0,.74-.53,2.58,2.58,0,0,0,.49-.88,4,4,0,0,0,0-2.38,2.49,2.49,0,0,0-.49-.88,2.2,2.2,0,0,0-.74-.55,2.25,2.25,0,0,0-.89-.18,2.21,2.21,0,0,0-.89.18,2.11,2.11,0,0,0-.74.55,2.5,2.5,0,0,0-.5.88,4.25,4.25,0,0,0,0,2.38Z"/><path class="cls-3" d="M123.35,51.62v1.59h-1.59V51.62Z"/><path class="cls-3" d="M130.09,53.21h-1.36V49l-3.95-6h1.62l3.06,4.86,3-4.86H134l-3.9,6v4.18Z"/><path class="cls-3" d="M139.62,44.56a1.65,1.65,0,0,0-1.18-.42,1.93,1.93,0,0,0-1.24.38,2.53,2.53,0,0,0-.74,1,4.53,4.53,0,0,0-.36,1.25A9.88,9.88,0,0,0,136,48l0,0a2.61,2.61,0,0,1,1.07-1,3.23,3.23,0,0,1,1.46-.31,3.19,3.19,0,0,1,1.31.25,2.76,2.76,0,0,1,1,.69,3.1,3.1,0,0,1,.6,1,3.66,3.66,0,0,1,.22,1.3,4.4,4.4,0,0,1-.17,1.16,3.25,3.25,0,0,1-.57,1.09,3.08,3.08,0,0,1-1,.82,3.69,3.69,0,0,1-1.61.32,3.19,3.19,0,0,1-1.82-.46,3.13,3.13,0,0,1-1.06-1.17,4.79,4.79,0,0,1-.49-1.58,11.91,11.91,0,0,1-.12-1.66,11.16,11.16,0,0,1,.18-2,5.51,5.51,0,0,1,.6-1.74,3.42,3.42,0,0,1,1.15-1.21,3.25,3.25,0,0,1,1.8-.46,2.89,2.89,0,0,1,2,.66,2.79,2.79,0,0,1,.86,1.93h-1.21A1.77,1.77,0,0,0,139.62,44.56Zm-2.21,3.38a2,2,0,0,0-.65.49,1.83,1.83,0,0,0-.41.72,3,3,0,0,0-.14.9,2.64,2.64,0,0,0,.15.89,2.15,2.15,0,0,0,.4.71,2,2,0,0,0,.66.48,2.11,2.11,0,0,0,.89.18,2,2,0,0,0,.88-.18,1.74,1.74,0,0,0,.64-.49,2.22,2.22,0,0,0,.39-.73,2.41,2.41,0,0,0,.14-.85,3.24,3.24,0,0,0-.12-.89,2,2,0,0,0-.38-.73,1.83,1.83,0,0,0-.64-.49,2,2,0,0,0-.9-.19A2.14,2.14,0,0,0,137.41,47.94Z"/><path class="cls-3" d="M143,47.07a7.48,7.48,0,0,1,.14-1.17,6.55,6.55,0,0,1,.33-1.09,2.87,2.87,0,0,1,.59-.9,2.55,2.55,0,0,1,.93-.61,4.11,4.11,0,0,1,2.71,0,2.55,2.55,0,0,1,.93.61,2.87,2.87,0,0,1,.59.9,6.55,6.55,0,0,1,.33,1.09,7.48,7.48,0,0,1,.14,1.17c0,.4,0,.79,0,1.16s0,.76,0,1.16a7.48,7.48,0,0,1-.14,1.17,5.68,5.68,0,0,1-.33,1.08,2.87,2.87,0,0,1-.59.9,2.47,2.47,0,0,1-.93.61,3.83,3.83,0,0,1-1.36.22,3.9,3.9,0,0,1-1.35-.22,2.55,2.55,0,0,1-.93-.61,2.87,2.87,0,0,1-.59-.9,5.68,5.68,0,0,1-.33-1.08,7.48,7.48,0,0,1-.14-1.17c0-.4,0-.79,0-1.16S143,47.47,143,47.07Zm1.29,2.43a5.69,5.69,0,0,0,.23,1.33,2.64,2.64,0,0,0,.62,1.05,1.9,1.9,0,0,0,2.41,0,2.64,2.64,0,0,0,.62-1.05,5.69,5.69,0,0,0,.23-1.33c0-.47,0-.9,0-1.28V47.4a9.06,9.06,0,0,0-.07-.91,8.6,8.6,0,0,0-.19-.88,2.37,2.37,0,0,0-.36-.75,1.85,1.85,0,0,0-.59-.52,2,2,0,0,0-1.75,0,1.85,1.85,0,0,0-.59.52,2.37,2.37,0,0,0-.36.75,6.54,6.54,0,0,0-.18.88,6.84,6.84,0,0,0-.08.91v.82C144.27,48.6,144.28,49,144.3,49.5Z"/><path class="cls-3" d="M153.05,51.91a2,2,0,0,0,1.26.4,1.8,1.8,0,0,0,1.67-1,6.33,6.33,0,0,0,.62-3l0,0a2.65,2.65,0,0,1-2.35,1.4,3.49,3.49,0,0,1-1.37-.25,2.79,2.79,0,0,1-1-.69,2.83,2.83,0,0,1-.61-1.07,4.34,4.34,0,0,1-.21-1.38,3.67,3.67,0,0,1,.24-1.34,3,3,0,0,1,.69-1,3.07,3.07,0,0,1,1.06-.68,3.67,3.67,0,0,1,1.34-.24,4,4,0,0,1,1.35.22,2.64,2.64,0,0,1,1.1.76,4.16,4.16,0,0,1,.75,1.49,8.3,8.3,0,0,1,.28,2.38,8,8,0,0,1-.84,4,2.88,2.88,0,0,1-2.68,1.41,3.39,3.39,0,0,1-2.12-.65,2.61,2.61,0,0,1-1-2h1.22A1.57,1.57,0,0,0,153.05,51.91Zm3.2-6.34a2.4,2.4,0,0,0-.4-.74,2.14,2.14,0,0,0-2.48-.49,1.59,1.59,0,0,0-.61.54,2.2,2.2,0,0,0-.35.76,3.82,3.82,0,0,0-.1.9,2.24,2.24,0,0,0,.15.81,2.47,2.47,0,0,0,.41.68,2.11,2.11,0,0,0,.63.48,1.79,1.79,0,0,0,.81.18,2,2,0,0,0,.86-.18,2,2,0,0,0,1.07-1.2,2.45,2.45,0,0,0,.14-.85A2.86,2.86,0,0,0,156.25,45.57Z"/><path class="cls-3" d="M161.93,47.43h.4a2.25,2.25,0,0,0,.74-.11,1.81,1.81,0,0,0,.62-.31,1.54,1.54,0,0,0,.58-1.24,1.47,1.47,0,0,0-.52-1.22,2,2,0,0,0-1.29-.41,1.93,1.93,0,0,0-.85.18,1.77,1.77,0,0,0-.6.48,2,2,0,0,0-.35.7,2.94,2.94,0,0,0-.11.84h-1.22a4.62,4.62,0,0,1,.24-1.33,2.83,2.83,0,0,1,.59-1,2.71,2.71,0,0,1,1-.67,3.43,3.43,0,0,1,1.33-.24,4.41,4.41,0,0,1,1.23.16,2.93,2.93,0,0,1,1,.5,2.37,2.37,0,0,1,.65.84,3,3,0,0,1,.23,1.22,1.94,1.94,0,0,1-.4,1.21,2.44,2.44,0,0,1-1,.8v0a2.16,2.16,0,0,1,1.38.87,2.8,2.8,0,0,1,.45,1.59,3,3,0,0,1-.28,1.34,2.67,2.67,0,0,1-.75,1,3.26,3.26,0,0,1-1.11.58,4.89,4.89,0,0,1-1.35.19,4.15,4.15,0,0,1-1.4-.22,2.79,2.79,0,0,1-1.07-.63,2.65,2.65,0,0,1-.68-1,3.65,3.65,0,0,1-.22-1.4h1.21a2.5,2.5,0,0,0,.57,1.61,2,2,0,0,0,1.59.62,2.66,2.66,0,0,0,.85-.14,2.36,2.36,0,0,0,.7-.38,1.85,1.85,0,0,0,.48-.62,1.94,1.94,0,0,0,.17-.82,1.88,1.88,0,0,0-.17-.84,1.73,1.73,0,0,0-.45-.61,1.87,1.87,0,0,0-.68-.37,2.67,2.67,0,0,0-.86-.13,5.43,5.43,0,0,0-.72.05v-1Z"/><path class="cls-4" d="M36.05,30.42a10.52,10.52,0,0,1-8.74-5.85c-4-8,4.33-12.26,4.33-12.26L39,13.63Z"/><path class="cls-4" d="M1.14,22.52a25.4,25.4,0,0,0,50,8.82,25.73,25.73,0,0,0,.39-4.42,25.4,25.4,0,0,0-50.42-4.4ZM22,50.33A23.77,23.77,0,1,1,49.56,31.05h0A23.8,23.8,0,0,1,22,50.33Zm29.14-19Z"/><path class="cls-4" d="M4.37,32.4c0-.19-.07-.38-.12-.57a5.1,5.1,0,0,0-.19-.55l5.16-1.41.5,1.85c.29,1,0,1.72-.83,2C7.55,34,7,33.14,6.63,31.79ZM7,31.67a3.43,3.43,0,0,0,.19.48,1,1,0,0,0,1.21.39c.6-.16.91-.58.81-1l-.13-.46Z"/><path class="cls-4" d="M10.49,34l.84,1.43a3.27,3.27,0,0,1,.5,1.17,1.17,1.17,0,0,1-.62,1.15,1.39,1.39,0,0,1-1.82-.34c-.43.75-.8,1.53-1.19,2.3l-.27.51c-.1-.21-.2-.43-.32-.63s-.26-.4-.39-.59l.94-1.63c.12-.21.32-.58.49-.87l0-.05L6.46,37.74c-.08-.17-.16-.35-.26-.52a5.11,5.11,0,0,0-.33-.48ZM8.91,36.31a1,1,0,0,0,1.58.49,1.78,1.78,0,0,0,.32-.23c.5-.44.14-.91-.1-1.32Z"/><path class="cls-4" d="M11.24,43.85a2.64,2.64,0,0,1-.34-4,2.82,2.82,0,0,1,4.17-.09,2.64,2.64,0,0,1,.34,4A2.84,2.84,0,0,1,11.24,43.85Zm.49-3c-.67.77-1,1.88-.15,2.65s2.1.24,2.95-.73c.66-.76,1.07-1.93.19-2.71S12.88,39.57,11.73,40.88Z"/><path class="cls-4" d="M17.78,47.78a5.12,5.12,0,0,0-.52-.27c-.18-.08-.37-.13-.56-.2l1.91-4.4a10.28,10.28,0,0,0-1.38-.47,1.78,1.78,0,0,0,.17-.3,1.86,1.86,0,0,0,.1-.31l3.68,1.59c-.05.1-.12.19-.16.29a1.7,1.7,0,0,0-.1.32,10.41,10.41,0,0,0-1.24-.65Z"/><path class="cls-4" d="M24.91,44.07a1.7,1.7,0,0,0-.1.32c0,.11,0,.23,0,.34A10.39,10.39,0,0,0,23,44.32L22.75,46l.8.14a7,7,0,0,0,1,.09,3,3,0,0,0-.09.32,1.94,1.94,0,0,0,0,.34,6.81,6.81,0,0,0-.94-.23l-.79-.14-.34,2a16.05,16.05,0,0,0,1.8.19c0,.11-.08.22-.1.32s0,.23,0,.34l-2.93-.5L22,43.57Z"/><path class="cls-4" d="M30.49,48.17l-.11.68a3.44,3.44,0,0,1-1.5.48A2.68,2.68,0,0,1,25.7,47a2.83,2.83,0,0,1,2.81-3.25,3.4,3.4,0,0,1,1.61.23L30,44.8h-.11a1.64,1.64,0,0,0-1.36-.59c-1.29.12-1.69,1.41-1.58,2.55.13,1.32.87,2.19,2.07,2.08a2.2,2.2,0,0,0,1.33-.72Z"/><path class="cls-4" d="M34.91,47.62c-.19.06-.38.11-.56.18a5.12,5.12,0,0,0-.53.25l-1.75-4.47a12.58,12.58,0,0,0-1.31.63c0-.1-.05-.21-.09-.32a1.64,1.64,0,0,0-.16-.29l3.74-1.47a3,3,0,0,0,.08.32,2.91,2.91,0,0,0,.17.3,9.51,9.51,0,0,0-1.35.41Z"/><path class="cls-4" d="M37.35,40a1.64,1.64,0,0,0,.16.29,2.75,2.75,0,0,0,.22.26,10.81,10.81,0,0,0-1.53.94l1,1.37.66-.46a7.09,7.09,0,0,0,.74-.61,2.69,2.69,0,0,0,.16.29,2.73,2.73,0,0,0,.23.25,8.7,8.7,0,0,0-.83.5l-.66.47,1.14,1.62A15.15,15.15,0,0,0,40,43.76c0,.1.1.2.16.3a2.61,2.61,0,0,0,.23.25L38,46l-3.06-4.34Z"/><path class="cls-4" d="M39.77,37.29A2.3,2.3,0,0,1,43.2,37a2.67,2.67,0,0,1,.44,4l-1.36,1.72-4.16-3.3Zm2.89,4.19.41-.52c.67-.85.75-1.82-.68-3-1.15-.91-2-.73-2.72.14l-.47.6Z"/><path class="cls-4" d="M20.9,9.63l.16-.86.64-.42c.28-.18.56-.38.85-.61a5.68,5.68,0,0,0,.8-.71,1.46,1.46,0,0,0,.4-.72.62.62,0,0,0-.16-.58,1.05,1.05,0,0,0-.54-.26,2,2,0,0,0-.64,0,2.91,2.91,0,0,0-.61.2l.07-.86a3.3,3.3,0,0,1,1.56-.1,1.39,1.39,0,0,1,1.31,1.77,2,2,0,0,1-.31.76,3.4,3.4,0,0,1-.6.67,14.22,14.22,0,0,1-1.52,1.13l2.08.37-.14.8Z"/><path class="cls-4" d="M25.28,9.43a3,3,0,0,0,1.06.43,2,2,0,0,0,.35,0,2.29,2.29,0,0,0,.36-.07.67.67,0,0,0,.3-.19.61.61,0,0,0,.16-.31.75.75,0,0,0-.19-.69,1.61,1.61,0,0,0-.76-.3l-.48-.09.14-.79.45.07a1.6,1.6,0,0,0,.83,0A.56.56,0,0,0,27.89,7a.75.75,0,0,0,0-.34.58.58,0,0,0-.15-.25,1.23,1.23,0,0,0-.57-.24A2.4,2.4,0,0,0,26,6.27l.09-.82a3.6,3.6,0,0,1,1.43,0,2.85,2.85,0,0,1,.5.13,1.92,1.92,0,0,1,.5.29,1.14,1.14,0,0,1,.34.47,1.32,1.32,0,0,1,.05.7,1.2,1.2,0,0,1-.41.75,1.77,1.77,0,0,1-.76.31h0a1.06,1.06,0,0,1,.66.53,1.3,1.3,0,0,1,.1.86,1.76,1.76,0,0,1-.3.72,1.47,1.47,0,0,1-.55.38l-.31.08-.34.05a3.6,3.6,0,0,1-.66,0,5.1,5.1,0,0,1-1.27-.4Z"/><path class="cls-4" d="M29,11.06l.15-.86.65-.42a8.34,8.34,0,0,0,.85-.6,6.41,6.41,0,0,0,.8-.72,1.54,1.54,0,0,0,.4-.72.65.65,0,0,0-.16-.57,1,1,0,0,0-.55-.27,2,2,0,0,0-.64,0,3.84,3.84,0,0,0-.6.2L30,6.25a3.26,3.26,0,0,1,1.55-.1,1.4,1.4,0,0,1,1.32,1.77,2,2,0,0,1-.32.76,3.75,3.75,0,0,1-.6.68,15.61,15.61,0,0,1-1.51,1.13l2.08.36-.15.8Z"/><path class="cls-4" d="M33.41,10.86a2.82,2.82,0,0,0,1.06.43,1.32,1.32,0,0,0,.35,0,1.53,1.53,0,0,0,.36-.07.73.73,0,0,0,.3-.19.51.51,0,0,0,.15-.3.7.7,0,0,0-.19-.69,1.62,1.62,0,0,0-.75-.31l-.49-.09.15-.79L34.8,9a1.49,1.49,0,0,0,.83,0A.6.6,0,0,0,36,8.46a.76.76,0,0,0,0-.34.45.45,0,0,0-.16-.24,1.07,1.07,0,0,0-.57-.25,2.36,2.36,0,0,0-1.15.08l.08-.83A3.83,3.83,0,0,1,36.15,7a1.66,1.66,0,0,1,.49.3,1.07,1.07,0,0,1,.35.46,1.47,1.47,0,0,1,0,.71,1.22,1.22,0,0,1-.41.74,1.77,1.77,0,0,1-.76.31v0a1.07,1.07,0,0,1,.66.52,1.37,1.37,0,0,1,.09.86A1.33,1.33,0,0,1,35.78,12l-.31.07a2,2,0,0,1-.34.05,2.86,2.86,0,0,1-.66,0,4.6,4.6,0,0,1-1.27-.4Z"/><path class="cls-4" d="M34.18,36.24l.08-.45-2.43-.43.36-2-1-.18-.44,2.48Zm-13-4.42,1.47.27-.36,2,1,.18.36-2,1.47.26.08-.44-4-.71Zm-2.57-.32.45,1.09-1.31-.24-.34.39,1.86.33.22.56,1.11.2L19.33,31l-1.17-.21L16,33l1.08.19Zm5.67-4.13a14.7,14.7,0,0,0,11.54,4.27l-1.37,7.68L13.86,35.7,18.39,10l4.06.72C19.39,16.24,19.43,22.29,24.3,27.37Z"/><ellipse class="cls-5" cx="27.93" cy="33.99" rx="1.26" ry="2.35" transform="translate(-10.22 55.91) rotate(-80.47)"/><ellipse class="cls-4" cx="27.91" cy="33.97" rx="0.87" ry="1.35" transform="translate(-10.21 55.88) rotate(-80.47)"/></svg>