<svg id="Layer_1" data-name="Layer 1" xmlns="http://www.w3.org/2000/svg" viewBox="0 0 68.56 33.35"><defs><style>.cls-1{fill:#f9f9fa;}</style></defs><title>ABTA_W</title><path class="cls-1" d="M11,1.19a6.26,6.26,0,0,0-.87,0v1.5h0V19.21h0v.58c.28,0,.58,0,.87,0A9.32,9.32,0,0,0,11,1.19Zm3.42,10.17a11.2,11.2,0,0,1-.23,1.74H12V11.36ZM12,9.62V7.88h2.17a12.77,12.77,0,0,1,.24,1.74Zm4.24,1.74h2.19A7.35,7.35,0,0,1,18,13.1H16a12.55,12.55,0,0,0,.23-1.74Zm0-1.74A12.77,12.77,0,0,0,16,7.88h2a6.6,6.6,0,0,1,.42,1.74Zm.83-3.48H15.46A11.67,11.67,0,0,0,14.28,3.8,7.7,7.7,0,0,1,17,6.14Zm-3.4,0H12v-3a11,11,0,0,1,1.68,3ZM12,18v-3.1h1.7A11.3,11.3,0,0,1,12,18Zm2.34-.71a11.57,11.57,0,0,0,1.18-2.36h1.58a7.49,7.49,0,0,1-2.76,2.33Z" transform="translate(-1.55 -1.19)"/><path class="cls-1" d="M41,18.71h-4.9V3.29h4.82c3.11,0,4.57,2.13,4.57,4a3.44,3.44,0,0,1-1.85,3.21v0A3.39,3.39,0,0,1,46.48,14C46.48,16.26,44.89,18.71,41,18.71Zm-.5-13H38.94v4h1.5a2.06,2.06,0,0,0,2.2-1.89V7.59A1.88,1.88,0,0,0,40.51,5.68Zm.54,6.38H38.94v4.27h1.81c1.89,0,2.82-.85,2.82-2.25,0-1.2-.91-2-2.5-2Z" transform="translate(-1.55 -1.19)"/><path class="cls-1" d="M57.84,5.65H53.73V18.71H50.88V5.65H46.39V3.29h12.4Z" transform="translate(-1.55 -1.19)"/><path class="cls-1" d="M31.8,18.71l-1.52-3.86H24.77l-1.43,3.86H20.51l6-15.43H28.6l6.18,15.43ZM28.14,9a18.43,18.43,0,0,1-.58-1.92h0A13.41,13.41,0,0,1,27,8.94l-1.31,3.59h3.72Z" transform="translate(-1.55 -1.19)"/><path class="cls-1" d="M67.14,18.71l-1.52-3.86H60.1l-1.42,3.86H55.84l6-15.43h2.13l6.18,15.43ZM63.49,9a16.35,16.35,0,0,1-.59-1.92h0a11.16,11.16,0,0,1-.56,1.87L61,12.53h3.76Z" transform="translate(-1.55 -1.19)"/><path class="cls-1" d="M9.22,8.75v-.7L4.75,3.59c-.25.22-.48.46-.71.7L8.52,8.75Z" transform="translate(-1.55 -1.19)"/><path class="cls-1" d="M9.22,12.22v.71L4.75,17.39c-.25-.22-.48-.46-.71-.7l4.48-4.47Z" transform="translate(-1.55 -1.19)"/><path class="cls-1" d="M9.22,9.64H1.69c0,.29,0,.58,0,.87a6.33,6.33,0,0,0,0,.87H9.22Z" transform="translate(-1.55 -1.19)"/><path class="cls-1" d="M3.55,4.89A9.38,9.38,0,0,0,1.83,8.77h5.6Z" transform="translate(-1.55 -1.19)"/><path class="cls-1" d="M9.22,7V1.37A9.38,9.38,0,0,0,5.34,3.09Z" transform="translate(-1.55 -1.19)"/><path class="cls-1" d="M5.34,17.88a9.27,9.27,0,0,0,3.88,1.73V14Z" transform="translate(-1.55 -1.19)"/><path class="cls-1" d="M7.43,12.22H1.83a9.34,9.34,0,0,0,1.72,3.87Z" transform="translate(-1.55 -1.19)"/><path class="cls-1" d="M5.13,27.75l2.61,6.66h-1L6,32.4H3.21l-.75,2H1.55l2.61-6.66Zm.65,3.92L4.66,28.56h0L3.48,31.67Z" transform="translate(-1.55 -1.19)"/><path class="cls-1" d="M10.94,27.75h1l.45.06a1.14,1.14,0,0,1,.36.15,1.61,1.61,0,0,1,.56.54,1.49,1.49,0,0,1,.23.85,1.61,1.61,0,0,1-.26.92,1.52,1.52,0,0,1-.73.57h0a1.63,1.63,0,0,1,.95.56,1.72,1.72,0,0,1,.32,1.05,1.94,1.94,0,0,1-.13.71,1.87,1.87,0,0,1-.39.61,2.16,2.16,0,0,1-.65.43,2.22,2.22,0,0,1-.88.16H8.52V27.75Zm.24,2.86a1.73,1.73,0,0,0,1.09-.25.94.94,0,0,0,.33-.8,1.22,1.22,0,0,0-.11-.56.86.86,0,0,0-.31-.32,1.18,1.18,0,0,0-.45-.14H9.41v2.12Zm.45,3.06a1.28,1.28,0,0,0,.92-.32,1.15,1.15,0,0,0,.34-.88,1.13,1.13,0,0,0-.13-.54.87.87,0,0,0-.32-.34,1.3,1.3,0,0,0-.46-.18,3.29,3.29,0,0,0-.54-.05h-2v2.31Z" transform="translate(-1.55 -1.19)"/><path class="cls-1" d="M14.34,28.49v-.74h5.34v.74H17.45v5.92h-.89V28.49Z" transform="translate(-1.55 -1.19)"/><path class="cls-1" d="M22.48,27.75l2.61,6.66h-1l-.73-2H20.55l-.74,2H18.9l2.61-6.66Zm.61,3.92L22,28.56h0l-1.15,3.11Z" transform="translate(-1.55 -1.19)"/><path class="cls-1" d="M29.53,27.75,33,33.15h0v-5.4h.84v6.66h-1l-3.47-5.36h0v5.36h-.83V27.75Z" transform="translate(-1.55 -1.19)"/><path class="cls-1" d="M35.23,31a2.13,2.13,0,0,1,1.18-1.34,2.68,2.68,0,0,1,2,0A2.24,2.24,0,0,1,39.62,31a3.44,3.44,0,0,1,0,2,2.43,2.43,0,0,1-.45.8,2,2,0,0,1-.73.53,2.81,2.81,0,0,1-2,0,2.15,2.15,0,0,1-.74-.53,2.33,2.33,0,0,1-.44-.8,3.28,3.28,0,0,1,0-2Zm.8,1.77a1.68,1.68,0,0,0,.33.58,1.51,1.51,0,0,0,1.06.47A1.29,1.29,0,0,0,38,33.7a1.54,1.54,0,0,0,.49-.34,1.83,1.83,0,0,0,.32-.58,2.56,2.56,0,0,0,0-1.55,1.83,1.83,0,0,0-.32-.58,1.6,1.6,0,0,0-.49-.36,1.62,1.62,0,0,0-.58-.11,1.66,1.66,0,0,0-.58.11,1.55,1.55,0,0,0-.48.36,1.68,1.68,0,0,0-.33.58A2.73,2.73,0,0,0,36,32.78Z" transform="translate(-1.55 -1.19)"/><path class="cls-1" d="M42.05,33.38v1H41v-1Z" transform="translate(-1.55 -1.19)"/><path class="cls-1" d="M46.45,34.41h-.89V31.67L43,27.75H44l2,3.17,2-3.17h1l-2.55,3.92v2.74Z" transform="translate(-1.55 -1.19)"/><path class="cls-1" d="M52.67,28.77a1.1,1.1,0,0,0-.77-.28,1.3,1.3,0,0,0-.81.25,1.63,1.63,0,0,0-.48.65,3,3,0,0,0-.24.82,5.39,5.39,0,0,0-.06.8h0a1.66,1.66,0,0,1,.69-.65,2.12,2.12,0,0,1,1-.2,2.07,2.07,0,0,1,.85.16,1.85,1.85,0,0,1,.66.45,2,2,0,0,1,.39.65,2.27,2.27,0,0,1,.14.85,2.79,2.79,0,0,1-.11.76,2.09,2.09,0,0,1-1,1.25,2.54,2.54,0,0,1-1.06.21,2.12,2.12,0,0,1-1.18-.3,2.15,2.15,0,0,1-.7-.77,3.34,3.34,0,0,1-.32-1,7.83,7.83,0,0,1-.07-1.08A7.17,7.17,0,0,1,49.65,30,3.85,3.85,0,0,1,50,28.86a2.3,2.3,0,0,1,.76-.79,2.18,2.18,0,0,1,1.17-.3,1.94,1.94,0,0,1,1.31.43,1.88,1.88,0,0,1,.56,1.26h-.79A1.16,1.16,0,0,0,52.67,28.77ZM51.23,31a1.38,1.38,0,0,0-.43.32,1.47,1.47,0,0,0-.27.47,2,2,0,0,0-.09.59,1.86,1.86,0,0,0,.1.58,1.66,1.66,0,0,0,.26.47,1.31,1.31,0,0,0,.43.31,1.47,1.47,0,0,0,.58.12,1.43,1.43,0,0,0,.58-.12,1.18,1.18,0,0,0,.42-.32,1.38,1.38,0,0,0,.25-.48,1.48,1.48,0,0,0,.09-.55,1.89,1.89,0,0,0-.08-.58,1.21,1.21,0,0,0-.24-.48,1.18,1.18,0,0,0-.42-.32,1.23,1.23,0,0,0-.59-.12,1.32,1.32,0,0,0-.59.11Z" transform="translate(-1.55 -1.19)"/><path class="cls-1" d="M54.88,30.41a4.91,4.91,0,0,1,.09-.77,4.44,4.44,0,0,1,.21-.71,1.78,1.78,0,0,1,1-1,2.69,2.69,0,0,1,1.77,0,1.86,1.86,0,0,1,.6.4,1.79,1.79,0,0,1,.39.59,4.44,4.44,0,0,1,.21.71,4.91,4.91,0,0,1,.09.77v1.51a4.78,4.78,0,0,1-.09.76,3.42,3.42,0,0,1-.21.71,1.79,1.79,0,0,1-.39.59,1.6,1.6,0,0,1-.6.39,2.49,2.49,0,0,1-.89.15,2.62,2.62,0,0,1-.88-.15,1.64,1.64,0,0,1-.61-.39,1.79,1.79,0,0,1-.39-.59,4.16,4.16,0,0,1-.21-.71,4.78,4.78,0,0,1-.09-.76V30.41ZM55.72,32a3.17,3.17,0,0,0,.15.87,1.84,1.84,0,0,0,.4.69,1.26,1.26,0,0,0,1.58,0,1.84,1.84,0,0,0,.4-.69A3.17,3.17,0,0,0,58.4,32V30.62a5.65,5.65,0,0,0,0-.59,5.43,5.43,0,0,0-.13-.58A1.83,1.83,0,0,0,58,29a1.28,1.28,0,0,0-.39-.34,1.34,1.34,0,0,0-1.14,0,1.41,1.41,0,0,0-.39.34,1.83,1.83,0,0,0-.23.49,5.41,5.41,0,0,0-.12.58,3.81,3.81,0,0,0,0,.59v.54c0,.24,0,.51,0,.83Z" transform="translate(-1.55 -1.19)"/><path class="cls-1" d="M61.44,33.57a1.36,1.36,0,0,0,.82.26,1.17,1.17,0,0,0,1.09-.66,4.14,4.14,0,0,0,.41-2h0a1.75,1.75,0,0,1-1.54.92,2.26,2.26,0,0,1-.89-.16,2,2,0,0,1-.66-.45,1.94,1.94,0,0,1-.39-.7,2.77,2.77,0,0,1-.14-.9A2.41,2.41,0,0,1,60.3,29a1.73,1.73,0,0,1,.45-.65,1.88,1.88,0,0,1,.69-.45,2.34,2.34,0,0,1,.87-.15,2.48,2.48,0,0,1,.89.14,1.68,1.68,0,0,1,.71.5,2.54,2.54,0,0,1,.49,1A5.44,5.44,0,0,1,64.59,31,5.38,5.38,0,0,1,64,33.57a1.88,1.88,0,0,1-1.75.92,2.29,2.29,0,0,1-1.39-.43,1.69,1.69,0,0,1-.65-1.3h.8A1,1,0,0,0,61.44,33.57Zm2.09-4.14a1.77,1.77,0,0,0-.26-.49,1.39,1.39,0,0,0-1.62-.32,1,1,0,0,0-.4.36,1.23,1.23,0,0,0-.23.49,2.32,2.32,0,0,0-.06.59,1.6,1.6,0,0,0,.09.53,1.79,1.79,0,0,0,.27.44,1.57,1.57,0,0,0,.41.32,1.1,1.1,0,0,0,.53.11,1.17,1.17,0,0,0,.56-.11,1.3,1.3,0,0,0,.7-.79,1.48,1.48,0,0,0,.09-.55A1.6,1.6,0,0,0,63.53,29.43Z" transform="translate(-1.55 -1.19)"/><path class="cls-1" d="M67.24,30.64h.26a1.55,1.55,0,0,0,.48-.07,1.2,1.2,0,0,0,.41-.2,1,1,0,0,0,.37-.81,1,1,0,0,0-.33-.8,1.37,1.37,0,0,0-.85-.27,1.3,1.3,0,0,0-.55.12,1.07,1.07,0,0,0-.39.31,1.17,1.17,0,0,0-.23.46,1.7,1.7,0,0,0-.07.55h-.8a2.85,2.85,0,0,1,.16-.87,1.86,1.86,0,0,1,.38-.65,1.67,1.67,0,0,1,.65-.44,2.39,2.39,0,0,1,.87-.16,2.82,2.82,0,0,1,.81.11,1.88,1.88,0,0,1,.65.32,1.62,1.62,0,0,1,.42.55,1.84,1.84,0,0,1,.15.8,1.21,1.21,0,0,1-.26.79,1.57,1.57,0,0,1-.65.52h0a1.43,1.43,0,0,1,.9.57,1.82,1.82,0,0,1,.29,1,1.86,1.86,0,0,1-.18.87,1.78,1.78,0,0,1-.49.66,2,2,0,0,1-.72.37,3,3,0,0,1-.88.13,2.86,2.86,0,0,1-.92-.15A1.78,1.78,0,0,1,66,34a1.71,1.71,0,0,1-.44-.65,2.35,2.35,0,0,1-.15-.91h.79a1.63,1.63,0,0,0,.38,1,1.31,1.31,0,0,0,1,.4,1.76,1.76,0,0,0,.55-.09,1.58,1.58,0,0,0,.46-.25,1.2,1.2,0,0,0,.31-.4,1.24,1.24,0,0,0,.11-.54A1.18,1.18,0,0,0,69,32a1.19,1.19,0,0,0-.74-.64,2.1,2.1,0,0,0-.56-.08,3.71,3.71,0,0,0-.47,0V30.7Z" transform="translate(-1.55 -1.19)"/></svg>