<svg id="Layer_1" data-name="Layer 1" xmlns="http://www.w3.org/2000/svg" viewBox="0 0 47 47"><defs><style>.cls-1{fill:#f9f9fa;}</style></defs><title>ATOL</title><path class="cls-1" d="M32,27a9.36,9.36,0,0,1-7.78-5.21C20.63,14.66,28,10.87,28,10.87l6.55,1.18Z"/><path class="cls-1" d="M.9,20a22.6,22.6,0,0,0,44.49,7.85A22.6,22.6,0,1,0,.87,20ZM19.46,44.71A21.16,21.16,0,1,1,44,27.55h0A21.19,21.19,0,0,1,19.46,44.71Z"/><path class="cls-1" d="M3.77,28.75a2.3,2.3,0,0,0-.1-.51c0-.16-.11-.33-.17-.49L8.09,26.5l.45,1.65c.25.89,0,1.53-.74,1.77-1.2.25-1.69-.51-2-1.71Zm2.34-.65c0,.15.11.29.17.43a.88.88,0,0,0,1.08.34c.53-.14.81-.51.72-.88L8,27.58Z"/><path class="cls-1" d="M9.22,30.17,10,31.45a3,3,0,0,1,.44,1,1,1,0,0,1-.55,1,1.23,1.23,0,0,1-1.62-.3c-.38.67-.71,1.36-1.06,2l-.24.45c-.09-.19-.18-.38-.28-.56s-.23-.36-.35-.53l.84-1.45.43-.77v0L5.63,33.5A4.93,4.93,0,0,0,5.4,33a4,4,0,0,0-.29-.43ZM7.81,32.23a.9.9,0,0,0,1.12.59.89.89,0,0,0,.29-.15,1.94,1.94,0,0,0,.29-.21c.44-.39.12-.81-.09-1.17Z"/><path class="cls-1" d="M9.89,38.94a2.34,2.34,0,0,1-.54-3.28,2.09,2.09,0,0,1,.24-.28,2.51,2.51,0,0,1,3.54-.24l.17.16a2.36,2.36,0,0,1,.54,3.28,3.22,3.22,0,0,1-.24.28,2.54,2.54,0,0,1-3.57.22A1.85,1.85,0,0,1,9.89,38.94Zm.43-2.67a1.63,1.63,0,0,0-.13,2.36c.76.68,1.87.21,2.63-.65.58-.68.95-1.72.16-2.41s-1.63-.44-2.66.73Z"/><path class="cls-1" d="M15.71,42.44a5.06,5.06,0,0,0-.46-.24l-.5-.18,1.7-3.92a10.48,10.48,0,0,0-1.23-.42,1.35,1.35,0,0,0,.15-.26,1.31,1.31,0,0,0,.09-.28l3.27,1.42c0,.09-.1.17-.14.26a1.31,1.31,0,0,0-.09.28,8.86,8.86,0,0,0-1.1-.58Z"/><path class="cls-1" d="M22.05,39.14a1.31,1.31,0,0,0-.09.28v.3a8.73,8.73,0,0,0-1.61-.36l-.22,1.49.71.13a6.69,6.69,0,0,0,.89.08c0,.09-.06.19-.08.28a1.5,1.5,0,0,0,0,.3,7.72,7.72,0,0,0-.83-.2l-.71-.12-.3,1.78a14.45,14.45,0,0,0,1.6.16,1.4,1.4,0,0,1-.09.29c0,.09,0,.2,0,.3l-2.6-.44.74-4.72Z"/><path class="cls-1" d="M27,42.78l-.1.61a3.16,3.16,0,0,1-1.33.43,2.38,2.38,0,0,1-2.8-1.88.69.69,0,0,1,0-.2,2.51,2.51,0,0,1,2.11-2.86,2.56,2.56,0,0,1,.39,0,2.92,2.92,0,0,1,1.43.21l-.11.73h-.1a1.43,1.43,0,0,0-1.21-.53c-1.14.11-1.5,1.25-1.4,2.27s.77,1.95,1.84,1.85a1.92,1.92,0,0,0,1.18-.64Z"/><path class="cls-1" d="M31,42.29l-.5.16a4.09,4.09,0,0,0-.47.23l-1.56-4a11.21,11.21,0,0,0-1.16.56,1,1,0,0,0-.08-.28,1.59,1.59,0,0,0-.14-.26l3.32-1.31a2.29,2.29,0,0,0,.08.28,1.43,1.43,0,0,0,.15.27,7.24,7.24,0,0,0-1.2.37Z"/><path class="cls-1" d="M33.12,35.51a1.35,1.35,0,0,0,.15.26,2.11,2.11,0,0,0,.19.23,9,9,0,0,0-1.36.84L33,38.06l.59-.41q.35-.26.66-.54a2,2,0,0,0,.14.25,2.2,2.2,0,0,0,.2.23,8,8,0,0,0-.74.44l-.58.42,1,1.44a13.16,13.16,0,0,0,1.21-1c0,.09.09.18.14.27l.21.22-2.13,1.5L31,37Z"/><path class="cls-1" d="M35.28,33.1a2,2,0,0,1,2.86-.41,1.39,1.39,0,0,1,.19.15,2.38,2.38,0,0,1,.59,3.31,2.43,2.43,0,0,1-.2.25l-1.21,1.53L33.81,35Zm2.57,3.73.36-.46c.6-.76.67-1.62-.6-2.67-1-.81-1.78-.65-2.42.12l-.42.54Z"/><path class="cls-1" d="M18.48,8.49l.15-.77.57-.37c.25-.16.49-.34.75-.54a4.33,4.33,0,0,0,.71-.64A1.21,1.21,0,0,0,21,5.53.53.53,0,0,0,20.88,5a.83.83,0,0,0-.48-.23,1.37,1.37,0,0,0-.57,0,2,2,0,0,0-.54.17l.06-.76a3,3,0,0,1,1.39-.09A1.24,1.24,0,0,1,22,5.37a1.06,1.06,0,0,1-.05.31,1.77,1.77,0,0,1-.27.68,3.41,3.41,0,0,1-.54.6,13.08,13.08,0,0,1-1.35,1l1.85.33L21.47,9Z"/><path class="cls-1" d="M22.38,8.31a2.53,2.53,0,0,0,.95.38h.31A1.8,1.8,0,0,0,24,8.63a.56.56,0,0,0,.26-.17.51.51,0,0,0,.15-.28.68.68,0,0,0-.17-.61,1.5,1.5,0,0,0-.68-.27l-.43-.08.13-.7.4.06a1.33,1.33,0,0,0,.74,0,.48.48,0,0,0,.34-.43.55.55,0,0,0,0-.31.5.5,0,0,0-.13-.22,1.15,1.15,0,0,0-.51-.21,2,2,0,0,0-1,.09l.08-.73a3.07,3.07,0,0,1,1.28,0,2.18,2.18,0,0,1,.44.11,2,2,0,0,1,.45.26,1.15,1.15,0,0,1,.3.42,1.19,1.19,0,0,1,0,.62,1,1,0,0,1-.36.67,1.64,1.64,0,0,1-.68.28h0a.93.93,0,0,1,.59.47,1.17,1.17,0,0,1,.09.76A1.51,1.51,0,0,1,25,9a1.21,1.21,0,0,1-.49.34l-.27.07-.31.05a2.81,2.81,0,0,1-.58,0A4.26,4.26,0,0,1,22.2,9.1Z"/><path class="cls-1" d="M25.69,9.76,25.83,9l.57-.37a6.86,6.86,0,0,0,.76-.53,6.22,6.22,0,0,0,.71-.64,1.37,1.37,0,0,0,.36-.64.58.58,0,0,0-.14-.51.87.87,0,0,0-.49-.24,1.82,1.82,0,0,0-.57,0,2.63,2.63,0,0,0-.54.18l.09-.76A2.94,2.94,0,0,1,28,5.39a1.25,1.25,0,0,1,1.22,1.27,1.55,1.55,0,0,1,0,.31,1.82,1.82,0,0,1-.29.67,3.41,3.41,0,0,1-.53.61,14.72,14.72,0,0,1-1.35,1l1.85.32-.13.72Z"/><path class="cls-1" d="M29.62,9.58a2.42,2.42,0,0,0,.94.38.81.81,0,0,0,.31,0,.87.87,0,0,0,.32-.06.59.59,0,0,0,.27-.17.43.43,0,0,0,.13-.26.62.62,0,0,0-.17-.62,1.43,1.43,0,0,0-.66-.27l-.44-.08.13-.71.4.14a1.33,1.33,0,0,0,.74,0,.52.52,0,0,0,.33-.48.81.81,0,0,0,0-.31.38.38,0,0,0-.14-.21.94.94,0,0,0-.51-.22,2.08,2.08,0,0,0-1,.07L30.32,6a3.43,3.43,0,0,1,1.74.11,1.59,1.59,0,0,1,.43.26,1,1,0,0,1,.31.41,1.38,1.38,0,0,1,0,.64,1.11,1.11,0,0,1-.36.65,1.52,1.52,0,0,1-.68.28h0a1,1,0,0,1,.59.46,1.2,1.2,0,0,1,.08.77,1.2,1.2,0,0,1-.7,1l-.28.06a1.54,1.54,0,0,1-.3,0,2,2,0,0,1-.59,0,4.11,4.11,0,0,1-1.13-.35Z"/><path class="cls-1" d="M30.3,32.17l.07-.4-2.16-.39.32-1.78-.89-.16-.39,2.21ZM18.73,28.23l1.31.24-.32,1.78.89.16.32-1.78,1.31.24.07-.4-3.56-.63ZM16.45,28l.4,1-1.17-.21-.3.34,1.65.3.2.49,1,.18L17.09,27.5l-1-.18-1.93,2,1,.17Zm5-3.68a13.06,13.06,0,0,0,10.27,3.8l-1.22,6.84L12.22,31.69l4-22.87,3.61.64c-2.72,4.91-2.68,10.29,1.65,14.81Z"/><ellipse class="cls-1" cx="24.74" cy="30.17" rx="1.12" ry="2.09" transform="translate(-9.11 49.57) rotate(-80.47)"/><ellipse class="cls-1" cx="24.72" cy="30.16" rx="0.77" ry="1.2" transform="translate(-9.11 49.55) rotate(-80.47)"/></svg>