<svg xmlns="http://www.w3.org/2000/svg" xmlns:xlink="http://www.w3.org/1999/xlink" viewBox="0 0 788.37 458.05"><defs><style>.cls-1{fill:none;}.cls-2{clip-path:url(#clip-path);}.cls-3{fill:#68757e;}.cls-4{fill:#fff;}.cls-5{fill:#0d93d2;}.cls-6{clip-path:url(#clip-path-31);}.cls-7{fill:url(#linear-gradient);}.cls-8{clip-path:url(#clip-path-32);}.cls-9{fill:url(#linear-gradient-2);}.cls-10{clip-path:url(#clip-path-33);}.cls-11{fill:url(#radial-gradient);}.cls-12,.cls-13{fill:#a39161;}.cls-12{stroke:#a39161;stroke-miterlimit:3.86;stroke-width:1.09px;}.cls-14{fill:#333334;stroke:#000;stroke-miterlimit:10;}</style><clipPath id="clip-path" transform="translate(-18.98 -15.2)"><rect class="cls-1" x="211.4" y="-77.28" width="841.89" height="595.28"/></clipPath><clipPath id="clip-path-31" transform="translate(-18.98 -15.2)"><path class="cls-1" d="M493.25,285.71l-18.46,25.55.69,0h.16c.43,0,.89.05,1.37.06h.38l1.52.05h.42l1.48,0h.48l1.9,0h52.26l2.06,0h.82l1.47.05.52,0,1.63.1.31,0,1,.09.63.06,1.12.15.06,0c.36.06.67.11,1,.18h0c.28.07.52.13.72.2h0a3.79,3.79,0,0,1,.48.22V259.17h0l-.08-.05-.1,0-.12-.06-.14-.05h0l-.14-.05-.24-.07-.33-.08h0l-.41-.09c-.16,0-.34-.07-.54-.1H545l-.93-.12-.18,0c-.18,0-.38,0-.58-.06l-.63-.07-.38,0-.31,0-1.51-.09h-.63l-1.5,0-.73,0H483.19l-1.9,0h-.48l-1.48,0h-.42l-1.52,0-.38,0-1.37-.05h-.16l-.84-.05-.3,0-.65-.05h-.22l-.57-.06Z"/></clipPath><linearGradient id="linear-gradient" x1="342.13" y1="-252.89" x2="343.13" y2="-252.89" gradientTransform="matrix(143.71, -82.97, -82.97, -143.71, -69749.37, -7632.97)" gradientUnits="userSpaceOnUse"><stop offset="0" stop-color="#e07b00"/><stop offset="0.4" stop-color="#e07b00"/><stop offset="0.51" stop-color="#d70"/><stop offset="0.63" stop-color="#d56b00"/><stop offset="0.73" stop-color="#ca5905"/><stop offset="0.9" stop-color="#b24605"/><stop offset="1" stop-color="#b24605"/></linearGradient><clipPath id="clip-path-32" transform="translate(-18.98 -15.2)"><path class="cls-1" d="M782.9,257.62h-.22l-.66.05-.29,0-.85.05h-.16l-1.36.06H779l-1.51,0H777l-1.48,0h-.48l-1.91,0H718.79l-.73,0-1.5,0-.51,0h-.12l-1.51.09-.31,0-.38,0-.63.07c-.2,0-.4,0-.58.06l-.18,0-.93.12h-.09l-.54.1-.4.09h0l-.33.08-.24.07-.14.05h0l-.15.07-.12.05-.09.05a.2.2,0,0,0-.08,0h0v53.54a3.23,3.23,0,0,1,.48-.22h0a5.83,5.83,0,0,1,.72-.21h0l1-.18h.07c.33-.06.71-.11,1.11-.16l.63-.06,1-.09.31,0,1.63-.1.52,0,1.47-.05h.82l2.06,0h16.83l1.68,0h33.75l1.9,0h.48l1.48,0h.42l1.52-.05h.38c.48,0,.94,0,1.37-.06h.16l.69,0-18.46-25.54,20.35-28.16-.57.06"/></clipPath><linearGradient id="linear-gradient-2" x1="343.49" y1="-253.68" x2="344.49" y2="-253.68" gradientTransform="translate(71229.83 -7632.97) rotate(-150) scale(165.94)" gradientUnits="userSpaceOnUse"><stop offset="0" stop-color="#e07b00"/><stop offset="0.4" stop-color="#e07b00"/><stop offset="0.51" stop-color="#d70"/><stop offset="0.64" stop-color="#d46901"/><stop offset="0.73" stop-color="#ca5905"/><stop offset="0.9" stop-color="#b24605"/><stop offset="1" stop-color="#b24605"/></linearGradient><clipPath id="clip-path-33" transform="translate(-18.98 -15.2)"><rect class="cls-1" x="518.66" y="267.59" width="219.05" height="55.15"/></clipPath><radialGradient id="radial-gradient" cx="340.77" cy="-255.86" r="1" gradientTransform="translate(-26759.01 19118.55) scale(80.31 73.63)" gradientUnits="userSpaceOnUse"><stop offset="0" stop-color="#e07c00"/><stop offset="0.52" stop-color="#e97c2d"/><stop offset="1" stop-color="#ca5a05"/></radialGradient></defs><title>BTA&amp;amp;STA-01</title><g id="Layer_1" data-name="Layer 1"><g class="cls-2"><path class="cls-3" d="M626.52,134.37c-31.34-33.38-88-25.31-88-25.31V228.58s56.66-8.07,88,25.32Z" transform="translate(-18.98 -15.2)"/></g><g class="cls-2"><path class="cls-3" d="M629.85,134.37V253.89c31.34-33.38,88-25.31,88-25.31V109.06s-56.66-8.07-88,25.31" transform="translate(-18.98 -15.2)"/></g><g class="cls-2"><path class="cls-4" d="M555,171.84c0-11.58,14.13-21,31.58-21s31.58,9.38,31.58,21-14.14,21-31.58,21-31.58-9.38-31.58-21" transform="translate(-18.98 -15.2)"/></g><g class="cls-2"><path class="cls-5" d="M569.74,171.84a16.88,16.88,0,1,1,16.88,16.87,16.87,16.87,0,0,1-16.88-16.87" transform="translate(-18.98 -15.2)"/></g><g class="cls-2"><path d="M578.91,171.84a7.71,7.71,0,1,1,7.71,7.71,7.71,7.71,0,0,1-7.71-7.71" transform="translate(-18.98 -15.2)"/></g><g class="cls-2"><path class="cls-4" d="M638.17,171.84c0-11.58,14.14-21,31.58-21s31.58,9.38,31.58,21-14.13,21-31.58,21-31.58-9.38-31.58-21" transform="translate(-18.98 -15.2)"/></g><g class="cls-2"><path class="cls-5" d="M652.88,171.84a16.88,16.88,0,1,1,16.87,16.87,16.87,16.87,0,0,1-16.87-16.87" transform="translate(-18.98 -15.2)"/></g><g class="cls-2"><path d="M662,171.84a7.71,7.71,0,1,1,7.71,7.71,7.71,7.71,0,0,1-7.71-7.71" transform="translate(-18.98 -15.2)"/></g><g class="cls-2"><path d="M586.83,210.58c-22.27,0-40.38-13.34-40.38-29.72v-2.54h80.77v2.54c0,16.38-18.12,29.72-40.39,29.72M551.72,183.4c1.83,12.4,16.88,22.1,35.11,22.1s33.29-9.7,35.11-22.1Z" transform="translate(-18.98 -15.2)"/></g><g class="cls-2"><path d="M669.53,210.58c-22.26,0-40.38-13.34-40.38-29.72v-2.54h80.77v2.54c0,16.38-18.12,29.72-40.39,29.72M634.42,183.4c1.83,12.4,16.88,22.1,35.11,22.1s33.29-9.7,35.12-22.1Z" transform="translate(-18.98 -15.2)"/></g><g class="cls-2"><path d="M631,182.2a5.13,5.13,0,0,0-5.31,0,.74.74,0,0,0,.11-.41H620.7c0-3.09,3.28-5.41,7.63-5.41s7.62,2.32,7.62,5.41h-5.08a.74.74,0,0,0,.11.41" transform="translate(-18.98 -15.2)"/></g><g class="cls-2"><path class="cls-3" d="M488.14,232.85s4.06-5,2.77-11c-.66-3.07-2.6-5.46-5.47-4.85-5.94,1.27-1.45,19.15-12.1,21.42-6.33,1.35-10.45-3.57-11.89-10.3-.84-4-.93-11.13,4.1-12.2l3.13-.67,1.21,5.68-1.63.35c-2,.41-2.18,3.53-1.75,5.56.79,3.72,2.61,5.86,5.22,5.3,6.27-1.33,1.06-19.06,12.1-21.41,5.87-1.26,10.78,3.16,12.25,10.08a17.36,17.36,0,0,1-3,14.43Z" transform="translate(-18.98 -15.2)"/></g><g class="cls-2"><path class="cls-3" d="M445.57,204.81l-.29-5.8,6.73-.33.29,5.8Zm20.35-.88a1.32,1.32,0,0,0-1.4,1.55l.14,2.73-5.54.28-.31-6.34c-.15-3,1.05-4.33,4.05-4.48l22.48-1.12a1.3,1.3,0,0,0,1.39-1.54l-.13-2.73,5.53-.28.32,6.33c.15,3-1.06,4.34-4.06,4.49Z" transform="translate(-18.98 -15.2)"/></g><g class="cls-2"><path class="cls-3" d="M452.38,184a1.31,1.31,0,0,0-1.57,1.36l-.18,2.73-5.53-.37.44-6.4c.2-3,1.55-4.18,4.55-4l35.77,2.45a1.31,1.31,0,0,0,1.57-1.37l.19-2.73,5.53.38-.44,6.4c-.21,3-1.56,4.17-4.56,4Z" transform="translate(-18.98 -15.2)"/></g><g class="cls-2"><path class="cls-3" d="M466.85,166.87a1.9,1.9,0,0,0-1.8,1.68l-.16.65-5.38-1.35.81-3.24c.73-2.91,1.72-3.83,4.55-4.16l20.62-2.35a41.1,41.1,0,0,1,4.56-.09l0-.13a41.68,41.68,0,0,1-4-2.24L469,143.93c-2.35-1.61-2.77-3-2.06-5.81l.77-3,5.37,1.34-.16.65a2,2,0,0,0,.76,2.46L497.29,156l-1.81,7.26Z" transform="translate(-18.98 -15.2)"/></g><g class="cls-2"><path class="cls-3" d="M477.63,112.76c4.41-8.4,13-9.6,20.78-5.53.77.4,2.27,1.42,2.27,1.42l-11.45,21.81c6.57,3,12.6.28,15.39-5a15.55,15.55,0,0,0,1.11-10.58l5.38-.34a19.73,19.73,0,0,1-1.68,13.82c-5,9.46-15.15,12.34-24,7.68-9.52-5-12.26-14.73-7.79-23.24m15.85-.58c-5.06-2.43-9.37-.7-11.32,3-2.3,4.37-1.5,9.32,3,12.81Z" transform="translate(-18.98 -15.2)"/></g><g class="cls-2"><path class="cls-3" d="M498.28,94.53a1.3,1.3,0,0,0-2.06.18l-1.77,2.1-4.24-3.56,4-4.71c1.89-2.25,3.71-2.55,5.81-.79l1.63,1.38a19.71,19.71,0,0,1,1.71,1.6l.08-.1c-2.75-4.41-3.22-9.86.12-13.85a13.66,13.66,0,0,1,1.22-1.24l4.91,4.12a10.12,10.12,0,0,0-1.4,1.35c-2.66,3.17-2.86,8,0,12.37a20.38,20.38,0,0,0,4.14,4.52L523,106.79l-4.16,5Z" transform="translate(-18.98 -15.2)"/></g><g class="cls-2"><path class="cls-5" d="M515.74,72.59l-3.32,2.9L509,71.57l3.42-3-6.11-7,4.78-4.17,6.1,7,6.09-5.32L526.7,63l-6.08,5.32L530.81,80c4.44,5.08,8.53,2.66,10.39,1a7.86,7.86,0,0,0,1.07-1.11L546,84.23a15.09,15.09,0,0,1-1.62,1.6c-3.22,2.81-10.58,7.47-18-1Z" transform="translate(-18.98 -15.2)"/></g><g class="cls-2"><path class="cls-5" d="M536.44,58.2a1.31,1.31,0,0,0-2-.48l-2.33,1.45-2.92-4.72,5.23-3.23c2.49-1.55,4.32-1.26,5.76,1.06l1.13,1.82a19.77,19.77,0,0,1,1.11,2.06l.11-.07C541.28,51,542.53,45.71,547,43a12.6,12.6,0,0,1,1.55-.8l3.37,5.45a9.92,9.92,0,0,0-1.75.85c-3.52,2.18-5.21,6.68-3.88,11.75a20.3,20.3,0,0,0,2.51,5.59L556,77.56,550.53,81Z" transform="translate(-18.98 -15.2)"/></g><g class="cls-2"><path class="cls-5" d="M577.07,44.3l1.38-.52-.12-.31c-2.1-5.56-4.91-6.78-9.85-4.92-1.5.57-5,2.33-4.26,4.39l.68,1.81-5.68,2.15L558,43.77c-2-5.18,5.63-8.9,8.69-10.05,10.25-3.87,15,.47,17.66,7.46l5.07,13.44a1.3,1.3,0,0,0,1.89.85l2.56-1,2,5.18-5.69,2.15c-2.81,1.06-4.45.11-5.3-2.14a14.44,14.44,0,0,1-.58-1.92l-.13,0a11.53,11.53,0,0,1-7.7,10c-5.44,2-12,.74-14.37-5.57-3.84-10.18,9.66-16,15-18m-1.13,18.2c5.13-1.94,6.41-8.56,4.65-13.24l-.41-1.07-1.56.59c-4.56,1.72-12.71,5.08-10.52,10.89,1,2.57,3.85,4.33,7.84,2.83" transform="translate(-18.98 -15.2)"/></g><g class="cls-2"><path class="cls-5" d="M593.52,33.06A1.91,1.91,0,0,0,591.29,32l-.66.08-.7-5.5,3.31-.42c3-.38,4.2.21,5.53,2.73l9.68,18.35a40.61,40.61,0,0,1,1.75,4.22h.13a40.46,40.46,0,0,1,.64-4.53l4.69-20.18c.66-2.78,1.76-3.66,4.67-4l3.12-.4.7,5.5-.66.08a2,2,0,0,0-2,1.61l-6.8,28-7.42.95Z" transform="translate(-18.98 -15.2)"/></g><g class="cls-2"><path class="cls-5" d="M647.75,23.39c9.43,1,13.7,8.61,12.75,17.31-.09.86-.49,2.63-.49,2.63l-24.49-2.67c-.38,7.21,4.35,11.82,10.32,12.48a15.54,15.54,0,0,0,10.26-2.85l2.28,4.89a19.76,19.76,0,0,1-13.48,3.5c-10.62-1.16-17-9.59-15.93-19.55,1.17-10.68,9.22-16.79,18.78-15.74m6.34,14.53c.41-5.6-2.78-9-7-9.43-4.91-.54-9.22,2-10.82,7.48Z" transform="translate(-18.98 -15.2)"/></g><g class="cls-2"><path class="cls-5" d="M675.39,23.12a1.31,1.31,0,0,0-1-1.83l-2.63-.78,1.59-5.31L679.51,17c2.88.86,3.73,2.44,2.87,5.32L672.11,56.7a1.32,1.32,0,0,0,1,1.83l2.62.78-1.58,5.32L668,62.79c-2.87-.86-3.73-2.44-2.86-5.32Z" transform="translate(-18.98 -15.2)"/></g><g class="cls-2"><path class="cls-3" d="M703.49,55l1.31.67.15-.3c2.7-5.29,1.71-8.2-3-10.59-1.43-.73-5.12-2.16-6.12-.2L695,46.29l-5.41-2.76,1.51-3c2.52-4.93,10.38-1.83,13.29-.34,9.76,5,9.77,11.42,6.37,18.08L704.2,71.08a1.31,1.31,0,0,0,.65,2l2.43,1.24-2.51,4.94-5.42-2.76c-2.67-1.36-3.08-3.22-2-5.36a14.32,14.32,0,0,1,1-1.72l-.12-.06a11.54,11.54,0,0,1-12.61,1.06C680.49,67.76,677,62,680.1,56c4.94-9.7,18.34-3.63,23.39-1.05M689.28,66.4c4.88,2.49,10.64-1,12.91-5.48l.52-1-1.49-.75c-4.34-2.22-12.32-6-15.14-.45-1.24,2.44-.61,5.76,3.2,7.7" transform="translate(-18.98 -15.2)"/></g><g class="cls-2"><path class="cls-3" d="M739.56,63.68c5.85,5.18,4.34,10.81,4.34,10.81l.1.09a17.89,17.89,0,0,1,1.41-1.79L751,66.44a1.3,1.3,0,0,0-.12-2.07l-2-1.81,3.68-4.15,4.8,4.25c2.24,2,2.35,3.79.36,6L733.9,95.52a1.3,1.3,0,0,0,.12,2.07l2.05,1.82-3.68,4.15-4.64-4.13c-2.2-2-2.21-3.74-.71-5.44.67-.75,1.2-1.26,1.2-1.26l-.09-.08s-6.18,2.73-12.37-2.76c-6.85-6.08-6.36-15.28.6-23.12,7.14-8,16.49-9,23.18-3.09m-3.75,20.23c4-4.49,5.63-11.07.78-15.37-3.94-3.5-10.17-3.13-15.26,2.61-4.88,5.5-5.08,11.66-.88,15.38,3.74,3.32,9.64,3.82,15.36-2.62" transform="translate(-18.98 -15.2)"/></g><g class="cls-2"><path class="cls-3" d="M755.44,90.22a1.91,1.91,0,0,0-.05-2.47L755,87.2l4.6-3.09,1.86,2.77c1.68,2.49,1.7,3.85,0,6.17l-12.06,16.87a40.69,40.69,0,0,1-3,3.46l.07.11a41.79,41.79,0,0,1,4.33-1.46L771,107.18c2.77-.66,4.05-.07,5.69,2.37l1.75,2.6-4.6,3.09-.37-.55a2,2,0,0,0-2.34-1.09l-28.06,6.47-4.18-6.2Z" transform="translate(-18.98 -15.2)"/></g><g class="cls-2"><path class="cls-3" d="M775.91,124.56a1.31,1.31,0,0,0,.75-1.94l-1.09-2.51,5.08-2.22,2.54,5.82c1.2,2.75.55,4.42-2.21,5.62l-20.62,9a1.3,1.3,0,0,0-.76,1.93l1.1,2.51L755.62,145l-2.54-5.81c-1.2-2.76-.55-4.43,2.21-5.63Zm18.71-8,2.33,5.32-6.18,2.7-2.33-5.32Z" transform="translate(-18.98 -15.2)"/></g><g class="cls-2"><path class="cls-3" d="M766.44,146.78s-3.85,5.12-2.31,11.14c.78,3,2.82,5.34,5.67,4.61,5.88-1.51.65-19.2,11.2-21.9,6.27-1.61,10.59,3.14,12.3,9.8,1,3.95,1.4,11.09-3.58,12.37l-3.11.79L785.17,158l1.62-.41c1.94-.5,2-3.62,1.52-5.63-.95-3.68-2.86-5.75-5.44-5.08-6.21,1.59-.27,19.09-11.2,21.9-5.83,1.49-10.9-2.72-12.66-9.58a17.38,17.38,0,0,1,2.4-14.54Z" transform="translate(-18.98 -15.2)"/></g><g class="cls-2"><path class="cls-3" d="M798.61,190.3c.14,10.08-7.15,18.33-17.37,18.48s-17.87-7.89-18-18,7.22-18.27,17.5-18.42,17.74,7.83,17.89,17.91m-29.78.43c.09,6.41,5.24,11.54,12.32,11.44s11.94-5.38,11.85-11.79S787.82,178.9,780.81,179s-12.07,5.38-12,11.73" transform="translate(-18.98 -15.2)"/></g><g class="cls-2"><path class="cls-3" d="M788.79,219.41a1.31,1.31,0,0,0,1.74-1.13l.56-2.68,5.43,1.15-1.28,6c-.6,2.87-2.07,4-4.75,3.43l-2.09-.44a19.55,19.55,0,0,1-2.26-.62l0,.13c4.51,2.59,7.49,7.19,6.41,12.28a13.07,13.07,0,0,1-.49,1.67l-6.27-1.33a9.45,9.45,0,0,0,.6-1.85c.86-4.05-1.23-8.38-5.81-10.92a20.49,20.49,0,0,0-5.78-2l-13.52-2.87,1.34-6.33Z" transform="translate(-18.98 -15.2)"/></g><g class="cls-6"><polygon class="cls-7" points="472.51 329.71 552.16 283.73 509.69 210.16 430.03 256.15 472.51 329.71"/></g><g class="cls-8"><polygon class="cls-9" points="745.9 329.71 666.25 283.73 708.72 210.16 788.37 256.15 745.9 329.71"/></g><g class="cls-10"><rect class="cls-11" x="499.68" y="252.39" width="219.05" height="55.15"/></g><g class="cls-2"><path class="cls-4" d="M561.78,281.49l9.73,26h-5.94l-2-5.8h-9.74l-2,5.8h-5.76l9.85-26Zm.33,16-3.29-9.56h-.07l-3.39,9.56Z" transform="translate(-18.98 -15.2)"/></g><g class="cls-2"><polygon class="cls-4" points="573.76 292.33 569.35 274.61 569.27 274.61 564.93 292.33 559.14 292.33 552.24 266.3 557.97 266.3 562.09 284.02 562.16 284.02 566.68 266.3 572.04 266.3 576.49 284.24 576.57 284.24 580.83 266.3 586.45 266.3 579.45 292.33 573.76 292.33"/></g><g class="cls-2"><path class="cls-4" d="M620.89,281.49l9.74,26h-6l-2-5.8H613l-2,5.8h-5.77l9.85-26Zm.33,16-3.28-9.56h-.07l-3.4,9.56Z" transform="translate(-18.98 -15.2)"/></g><g class="cls-2"><path class="cls-4" d="M647.66,281.49a8.26,8.26,0,0,1,3.15.57,7.24,7.24,0,0,1,2.41,1.55,6.64,6.64,0,0,1,1.53,2.28,7.33,7.33,0,0,1,.53,2.79,7.76,7.76,0,0,1-1,4,6.07,6.07,0,0,1-3.15,2.56v.07a4.39,4.39,0,0,1,1.75.89,5,5,0,0,1,1.13,1.42,6.58,6.58,0,0,1,.64,1.81,16.64,16.64,0,0,1,.27,2c0,.41,0,.9.08,1.46s.06,1.13.12,1.71a11.69,11.69,0,0,0,.29,1.66,3.8,3.8,0,0,0,.61,1.33h-5.73a10.15,10.15,0,0,1-.58-2.95c-.08-1.14-.19-2.24-.33-3.28a5.15,5.15,0,0,0-1.24-3,4.23,4.23,0,0,0-3.1-.95h-5.73v10.17h-5.72v-26h14Zm-2,11.78a4.33,4.33,0,0,0,3-.87,3.63,3.63,0,0,0,1-2.85,3.45,3.45,0,0,0-1-2.75,4.38,4.38,0,0,0-3-.86h-6.27v7.33Z" transform="translate(-18.98 -15.2)"/></g><g class="cls-2"><path class="cls-4" d="M671.91,281.49a13.32,13.32,0,0,1,4.69.81,10.14,10.14,0,0,1,3.75,2.4,11,11,0,0,1,2.48,4,16.16,16.16,0,0,1,.9,5.66,18.3,18.3,0,0,1-.73,5.25,11.77,11.77,0,0,1-2.21,4.16,10.38,10.38,0,0,1-3.68,2.75,12.47,12.47,0,0,1-5.2,1H660.68v-26Zm-.4,21.23a7.51,7.51,0,0,0,2.4-.4A5.26,5.26,0,0,0,676,301a6.59,6.59,0,0,0,1.46-2.43,10.49,10.49,0,0,0,.55-3.64,15.49,15.49,0,0,0-.38-3.56,7.26,7.26,0,0,0-1.26-2.72,5.66,5.66,0,0,0-2.32-1.73,9.24,9.24,0,0,0-3.55-.6H666.4v16.41Z" transform="translate(-18.98 -15.2)"/></g><g class="cls-2"><path class="cls-4" d="M692.81,301.11a4.11,4.11,0,0,0,1.25,1.48,5.41,5.41,0,0,0,1.85.84,8.74,8.74,0,0,0,2.18.27,12.07,12.07,0,0,0,1.64-.12,5.65,5.65,0,0,0,1.65-.5,3.47,3.47,0,0,0,1.27-1,2.51,2.51,0,0,0,.51-1.62,2.29,2.29,0,0,0-.67-1.72,5.45,5.45,0,0,0-1.77-1.09,18.23,18.23,0,0,0-2.48-.77c-.93-.22-1.86-.46-2.81-.73a24.64,24.64,0,0,1-2.84-.89,9.59,9.59,0,0,1-2.48-1.37,6.51,6.51,0,0,1-1.77-2.09,6.39,6.39,0,0,1-.68-3.05,6.8,6.8,0,0,1,.86-3.48,7.66,7.66,0,0,1,2.24-2.46,9.63,9.63,0,0,1,3.14-1.46,13.18,13.18,0,0,1,3.5-.48,16.76,16.76,0,0,1,3.92.46,9.82,9.82,0,0,1,3.34,1.48,7.5,7.5,0,0,1,2.31,2.6,8,8,0,0,1,.86,3.85h-5.54a4.59,4.59,0,0,0-.5-1.93,3.22,3.22,0,0,0-1.11-1.2,4.48,4.48,0,0,0-1.59-.62,9.08,9.08,0,0,0-2-.19,6.48,6.48,0,0,0-1.38.15,3.88,3.88,0,0,0-1.26.51,3.11,3.11,0,0,0-.93.91,2.5,2.5,0,0,0-.36,1.39,2.3,2.3,0,0,0,.29,1.24,2.59,2.59,0,0,0,1.15.87,13.7,13.7,0,0,0,2.37.8l4,1c.49.09,1.16.27,2,.52a9.88,9.88,0,0,1,2.57,1.23,7.71,7.71,0,0,1,2.2,2.24,6.38,6.38,0,0,1,.93,3.59,8,8,0,0,1-.69,3.32,7.19,7.19,0,0,1-2.06,2.64,9.86,9.86,0,0,1-3.39,1.74,16.17,16.17,0,0,1-4.69.61,16.49,16.49,0,0,1-4.17-.52,10.71,10.71,0,0,1-3.58-1.66,8.37,8.37,0,0,1-2.46-2.88,8.65,8.65,0,0,1-.88-4.16h5.55a4.7,4.7,0,0,0,.48,2.22" transform="translate(-18.98 -15.2)"/></g><g class="cls-2"><polygon points="488.77 331.26 496 331.26 498.66 353.1 498.75 353.1 501.93 331.26 508.63 331.26 512.07 353.1 512.16 353.1 514.74 331.26 521.7 331.26 516.37 361.95 508.38 361.95 505.24 340.16 505.15 340.16 502.19 361.95 494.19 361.95 488.77 331.26"/></g><g class="cls-2"><rect x="525.18" y="331.26" width="7.22" height="30.69"/></g><g class="cls-2"><polygon points="537.86 331.26 546.15 331.26 552.09 351.2 552.17 351.2 552.17 331.26 558.88 331.26 558.88 361.95 550.71 361.95 544.39 340.8 544.3 340.8 544.3 361.95 537.86 361.95 537.86 331.26"/></g><g class="cls-2"><polygon points="564.21 331.26 572.5 331.26 578.43 351.2 578.52 351.2 578.52 331.26 585.22 331.26 585.22 361.95 577.06 361.95 570.74 340.8 570.65 340.8 570.65 361.95 564.21 361.95 564.21 331.26"/></g><g class="cls-2"><polygon points="590.55 331.26 608.3 331.26 608.3 337.11 597.77 337.11 597.77 343.25 607.66 343.25 607.66 349.1 597.77 349.1 597.77 356.11 608.78 356.11 608.78 361.95 590.55 361.95 590.55 331.26"/></g><g class="cls-2"><path d="M631.88,346.46H644c6.15,0,8.26,3.78,8.26,8,0,4.47-1.77,6.67-5.16,7.48V362c4.64.69,4.81,3.52,4.94,7.65.13,6.06.39,6.66,1.38,7.09v.39h-7.78c-.56-1-.78-2.75-.78-6.23,0-5.33-.73-6.45-3-6.45H639.1v12.68h-7.22V346.46Zm7.22,12.94h2.24c2.92,0,3.69-2.15,3.69-4,0-2.28-.86-3.87-3.74-3.87H639.1Z" transform="translate(-18.98 -15.2)"/></g><g class="cls-2"><path d="M664.54,356.86v-1q0-9.15,9.8-9.15c7.4,0,9.42,3.74,9.42,8.51,0,4.55-1,6.32-4.82,9.88-3,2.88-5.2,4.73-5.93,6.45H683.8v5.59H664.37c0-7.22,4.3-11.39,6.88-13.71,5.2-4.6,5.29-5.89,5.29-8.17s-.48-4-2.54-4c-2.75,0-2.75,3.27-2.75,5.59Z" transform="translate(-18.98 -15.2)"/></g><g class="cls-2"><path d="M697.29,377.75c-9.11,0-10-5.72-10-15.52,0-8.72,1-15.52,10-15.52s10,5.72,10,15.52c0,8.73-1,15.52-10,15.52m0-4.55c2.45,0,2.8-2.33,2.8-10.92s-.35-11-2.8-11-2.79,2.28-2.79,11,.34,10.92,2.79,10.92" transform="translate(-18.98 -15.2)"/></g><g class="cls-2"><path d="M716.29,356h-5.84v-4.55h.9c5.46,0,6.75-2.84,7.09-4.77h5.07v30.43h-7.22V356Z" transform="translate(-18.98 -15.2)"/></g><g class="cls-2"><path d="M748,354.58c0,3.44-1.5,5.76-4.3,6.41v.08c3.27.52,5.16,3.05,5.16,7.18,0,5.16-1.81,9.5-10.1,9.5s-10.1-4-10.1-9.5c0-3.44,1.42-6.62,5-7.18V361c-2.58-.69-4.17-2.84-4.17-6.41,0-4.6,2.49-7.86,9.24-7.86s9.24,3.09,9.24,7.86m-12.12,13.76c0,2.71.6,4.86,2.88,4.86s2.88-2.15,2.88-4.86-.6-4.77-2.88-4.77-2.88,2.06-2.88,4.77m5.42-13.24c0-2.11-.61-3.83-2.54-3.83s-2.54,1.72-2.54,3.83c0,3,.86,3.91,2.54,3.91s2.54-.95,2.54-3.91" transform="translate(-18.98 -15.2)"/></g><g class="cls-2"><polygon points="463.59 332.38 467.03 342.73 477.93 342.71 469.15 349.19 472.54 359.54 463.67 353.2 454.86 359.61 458.15 349.23 449.33 342.83 460.23 342.75 463.59 332.38"/></g><g class="cls-2"><polygon points="754.73 332.38 758.18 342.73 769.08 342.71 760.3 349.19 763.68 359.54 754.82 353.2 746 359.61 749.3 349.23 740.47 342.83 751.38 342.75 754.73 332.38"/></g></g><g id="Layer_2" data-name="Layer 2"><path class="cls-12" d="M205,350.68c-85.18-.43-154.1-69.86-154.1-155.46A153.83,153.83,0,0,1,56.77,153c-3.82,13.41-6.86,27.57-6.86,42.2,0,85.6,69.93,157.09,155.12,157.53" transform="translate(-18.98 -15.2)"/><path class="cls-12" d="M204.56,350.65c85.18-.42,154.11-69.85,154.11-155.45A153.58,153.58,0,0,0,352.82,153c3.82,13.42,6.86,27.58,6.86,42.21,0,85.6-69.93,157.08-155.12,157.52" transform="translate(-18.98 -15.2)"/><path class="cls-13" d="M50.91,209C52,193.48,61.33,190.24,68,188.32a24.13,24.13,0,0,0,4.88-2.07c.5-.28,1.25-.78,1.94-1.26a21.77,21.77,0,0,1-.28,3.4,25.87,25.87,0,0,1-2.47,7.69C69.19,201.7,63.3,207.75,50.91,209Z" transform="translate(-18.98 -15.2)"/><path class="cls-13" d="M60,240.34l.94.51.15.57c-.51.53-1.07,1.09-1.68,1.7A1,1,0,0,1,58,241.67c1-1,1.86-1.88,2.62-2.72a3.48,3.48,0,0,0,.39-.43l-1,1.82Zm4.51-6.27a1,1,0,0,1,1.43-.23,1,1,0,0,1,.24,1.44c-1.23,1.7-2.23,3-3.33,4.24l-.55-.29-1.33-.7a46.67,46.67,0,0,0,3.54-4.46Z" transform="translate(-18.98 -15.2)"/><path class="cls-13" d="M101.47,304c7-1.75,10.92-5,13.14-8.5l.22.09a41.14,41.14,0,0,1-8.76,15.3,42.3,42.3,0,0,1-4.6-6.89Zm6.75-37.6a34.09,34.09,0,0,1,7.14,14.35,18.49,18.49,0,0,1-1.72,1.28,18.72,18.72,0,0,1-4,2c-3.81,1.3-8.81,3.22-11.4,8.08-.07-5.71,2-10.52,4.22-14.55a16.06,16.06,0,0,0,5.77-11.12Z" transform="translate(-18.98 -15.2)"/><path class="cls-13" d="M101.47,304c7-1.75,10.92-5,13.14-8.5l.22.09a41.14,41.14,0,0,1-8.76,15.3,42.3,42.3,0,0,1-4.6-6.89Z" transform="translate(-18.98 -15.2)"/><path class="cls-13" d="M107.11,313.76c-12.12,11.34-23.37,12-31.55,10a34.26,34.26,0,0,1-9.85-4.27,30.71,30.71,0,0,1-2.71-1.9,1.33,1.33,0,0,0-1.62,0l.7-.76c1-.25,2.1-.59,2.93-.88a32,32,0,0,0,6.36-3.1c6.13-4,14.53-8.87,25.94-4.61l.29.61,3.45,2.78,1.22-1a44.41,44.41,0,0,1,4.84,3.21Z" transform="translate(-18.98 -15.2)"/><path class="cls-13" d="M69.49,292.91A30,30,0,0,1,45,287.72,35.58,35.58,0,0,1,38.92,282c-.68-.81-1.19-1.5-1.54-2s-.5-.76-.51-.77c1,0,2.19,0,3.07-.05a31.81,31.81,0,0,0,7-1.22c8.44-2.53,20.41-5.5,32.32,8.59a46.61,46.61,0,0,0-6-.92,25.34,25.34,0,0,1-4.94-1c-.53-.16-1.33-.47-2.09-.76l-2-.78.65,2a15.82,15.82,0,0,0,1,2.44,27.77,27.77,0,0,0,3.57,5.4Z" transform="translate(-18.98 -15.2)"/><path class="cls-13" d="M71.47,254.84a43.09,43.09,0,0,1-6.37,4.46,32.09,32.09,0,0,1-2.21-12.92,23.72,23.72,0,0,0,8.58,8.46Zm10.28-18.07A26,26,0,0,1,79,245.55c-3.66-2.63-7.74-3.59-11-4.27a21.9,21.9,0,0,1-3.81-1.16c1.82-4.83,5.21-8.25,8.3-11a22.79,22.79,0,0,0,9.23,7.61Z" transform="translate(-18.98 -15.2)"/><path class="cls-13" d="M71.47,254.84a43.09,43.09,0,0,1-6.37,4.46,32.09,32.09,0,0,1-2.21-12.92,23.72,23.72,0,0,0,8.58,8.46Z" transform="translate(-18.98 -15.2)"/><path class="cls-13" d="M81.75,236.77A26,26,0,0,1,79,245.55c-3.66-2.63-7.74-3.59-11-4.27a21.9,21.9,0,0,1-3.81-1.16,27.24,27.24,0,0,1,7.91-11.4A38.51,38.51,0,0,0,79,220.11a35.4,35.4,0,0,1,2.71,16.66Z" transform="translate(-18.98 -15.2)"/><path class="cls-13" d="M62.18,258.11C35.1,270.21,23,247.44,23,247.44a26.78,26.78,0,0,0,2.75.1,28,28,0,0,0,6.32-.77c8.08-2,19.69-4.19,30.13,11.34Z" transform="translate(-18.98 -15.2)"/><path class="cls-13" d="M73.71,200.53a30.37,30.37,0,0,1,.88,5.9,26,26,0,0,1-2.94,12.9,36.78,36.78,0,0,1-2.16,3.3,33.3,33.3,0,0,1-13.89,9.7c-3.21-16.55,5.59-22.56,12-26.46a25,25,0,0,0,4.51-3.56c.48-.45,1.09-1.16,1.62-1.78Z" transform="translate(-18.98 -15.2)"/><path class="cls-13" d="M53.3,229.77c-13,3.49-21.27-.32-26.34-4.92a28,28,0,0,1-5.43-6.8c-.56-1-1-1.82-1.22-2.41a1.1,1.1,0,0,0-1.33-.56l1-.34c.84.2,1.77.38,2.43.48a26.79,26.79,0,0,0,5.73.22c7.46-.62,18.09-.95,25.19,14.33Z" transform="translate(-18.98 -15.2)"/><path class="cls-13" d="M48.79,205.9c-12.1-.42-18.23-5.9-21.38-11.18a25.39,25.39,0,0,1-2.89-7.3,19.85,19.85,0,0,1-.49-3.26c.69.41,1.44.81,2,1.06a23.07,23.07,0,0,0,4.88,1.69c6.57,1.44,15.82,4,17.92,19Z" transform="translate(-18.98 -15.2)"/><path class="cls-13" d="M52.77,185.2c2.13-13.49,10.48-15.62,16.43-16.81a20.5,20.5,0,0,0,4.41-1.45c.46-.2,1.14-.58,1.79-.95a17.77,17.77,0,0,1-.5,2.95,22.71,22.71,0,0,1-2.71,6.53c-2.92,4.7-8.51,9.54-19.42,9.73Z" transform="translate(-18.98 -15.2)"/><path class="cls-13" d="M51.43,183c-21.53-1.89-21.24-20.71-21.24-20.71.62.42,1.28.81,1.72,1a20.61,20.61,0,0,0,4.3,1.75c5.85,1.61,14,4.31,15.22,17.91Z" transform="translate(-18.98 -15.2)"/><path class="cls-13" d="M51.39,166c-17.41-10.92-9.08-26.73-9.08-26.73.35.63.74,1.24,1,1.63a19.26,19.26,0,0,0,2.89,3.34c4.26,3.89,10,9.73,5.18,21.76Z" transform="translate(-18.98 -15.2)"/><path class="cls-13" d="M53.71,164.43c7.6-10.49,15.59-8.68,21.13-7.11a19.92,19.92,0,0,0,4.36.68c.45,0,1.21,0,1.92,0,.28.18.39.24.38.26a1.05,1.05,0,0,0-.8.39,20.63,20.63,0,0,1-1.27,1.64,21.77,21.77,0,0,1-5.11,4.35c-4.48,2.72-11.29,4.39-20.61-.17Z" transform="translate(-18.98 -15.2)"/><path class="cls-13" d="M69,133.42a18.84,18.84,0,0,1,.37,2.4,18.41,18.41,0,0,1-.58,5.71c-1.17,4.4-4.44,9.49-12.81,12.22-1.54-11,4.46-14.67,8.81-17a17.24,17.24,0,0,0,3.09-2.18c.29-.26.72-.7,1.12-1.13Z" transform="translate(-18.98 -15.2)"/><path class="cls-13" d="M129.35,330.81c-14.91-14.47-10.26-26.81-6.55-35.3a31.84,31.84,0,0,0,2.07-6.79c.16-.87.29-2.06.38-3.07.66-.78.17.12.93.82a31.1,31.1,0,0,1,2.3,2.39,34.23,34.23,0,0,1,5.74,9.09c3.31,7.81,4.4,19.05-4.87,32.86Z" transform="translate(-18.98 -15.2)"/><path class="cls-13" d="M130.73,333.53c-21.17,25.34-44.33,8.52-44.33,8.52.94-.37,2-.84,2.8-1.25A31.87,31.87,0,0,0,95.14,337c7.11-5.93,17.64-13.82,35.59-3.42Z" transform="translate(-18.98 -15.2)"/><path class="cls-13" d="M158.82,343c-16.55-12.51-13.43-25.33-10.78-34.21a31,31,0,0,0,1.22-7c.06-.89,0-2.09,0-3.1.56-.86.18.09,1,.69a29.22,29.22,0,0,1,2.57,2.1,34.14,34.14,0,0,1,6.81,8.33c4.22,7.33,6.67,18.37-.86,33.18Z" transform="translate(-18.98 -15.2)"/><path class="cls-13" d="M160.54,345.58c-9,14-19.78,17.35-28.22,17.34a34.46,34.46,0,0,1-10.59-1.74,29.92,29.92,0,0,1-3.09-1.2,1.34,1.34,0,0,0-1.57.38l.49-.9c.89-.48,1.9-1.08,2.63-1.58a31.93,31.93,0,0,0,5.43-4.55c6.33-6.75,15.83-15.87,34.92-7.75Z" transform="translate(-18.98 -15.2)"/><path class="cls-13" d="M133.94,323.92a1,1,0,0,1,1.1.95c.35,5.14,2,9.24,6.6,11.51a1,1,0,0,1-.9,1.85c-5.36-2.62-7.34-7.28-7.75-13.2a1,1,0,0,1,.95-1.11Z" transform="translate(-18.98 -15.2)"/><path class="cls-13" d="M127.93,338.71a1,1,0,0,1,.57-1.33,25.61,25.61,0,0,1,9.58-2.14,1,1,0,0,1,1.06,1,1,1,0,0,1-1,1.08,23.49,23.49,0,0,0-8.88,2,1,1,0,0,1-1.34-.58Z" transform="translate(-18.98 -15.2)"/><path class="cls-13" d="M113.42,310a1,1,0,0,1,1.1,1c.37,5,.83,8.38,3.89,12.32a1,1,0,0,1-.18,1.44,1,1,0,0,1-1.44-.18c-3.35-4.29-3.92-7.92-4.32-13.43a1,1,0,0,1,1-1.11Z" transform="translate(-18.98 -15.2)"/><path class="cls-13" d="M105.94,324.43a1,1,0,0,1,.38-1.41,16.59,16.59,0,0,1,9.22-2.19,1,1,0,0,1,1,1,1,1,0,0,1-1,1,14.87,14.87,0,0,0-8.21,1.91,1,1,0,0,1-1.39-.37Z" transform="translate(-18.98 -15.2)"/><path class="cls-13" d="M73.59,263.86c.16-.38.33-.75.52-1.14a1,1,0,0,1,1.85.9l-.37.8c-.67-.22-1.34-.4-2-.56Z" transform="translate(-18.98 -15.2)"/><path class="cls-13" d="M73.59,263.86c.16-.38.33-.75.52-1.14a1,1,0,0,1,1.85.9l-.37.8c-.67-.22-1.34-.4-2-.56Z" transform="translate(-18.98 -15.2)"/><path class="cls-13" d="M62.86,268.38a24.91,24.91,0,0,0,2.41,2.86l-.15.22c-.7-.37-1.46-.76-2.33-1.17a1,1,0,0,1,.07-1.91Z" transform="translate(-18.98 -15.2)"/><path class="cls-13" d="M54.4,239.65a6.3,6.3,0,0,0-3.75-1.83,1,1,0,0,1,.29-2,8.13,8.13,0,0,1,4.51,2.1,15.2,15.2,0,0,1,1.67,1.79c.54.66,1.08,1.39,1.67,2.16a1,1,0,1,1-1.62,1.26c-.5-.65-1-1.27-1.4-1.85a14.27,14.27,0,0,0-1.37-1.58Z" transform="translate(-18.98 -15.2)"/><path class="cls-13" d="M43.89,211.63a1,1,0,0,1,.74-1.93,15.53,15.53,0,0,1,4.26,2.49c1.22,1,2.36,2.11,3.75,3.37a1,1,0,0,1,.08,1.46,1,1,0,0,1-1.45.07c-1.29-1.17-2.34-2.23-3.46-3.15a13.67,13.67,0,0,0-3.92-2.31Z" transform="translate(-18.98 -15.2)"/><path class="cls-13" d="M56.1,211.35a1,1,0,0,1,.31,1.41,20.73,20.73,0,0,0-3,5.93,1,1,0,0,1-2-.6,22.45,22.45,0,0,1,3.21-6.44,1,1,0,0,1,1.41-.3Z" transform="translate(-18.98 -15.2)"/><path class="cls-13" d="M56,187.19a1,1,0,0,1,1.24,1.65,32.18,32.18,0,0,0-3.12,2.64c-.91.87-1.79,1.79-2.92,2.93A1,1,0,1,1,49.7,193c1.17-1.18,2.08-2.13,3-3A34.49,34.49,0,0,1,56,187.19Z" transform="translate(-18.98 -15.2)"/><path class="cls-13" d="M45.12,189.14a23.92,23.92,0,0,1-1.26-2.2,1,1,0,0,1,.46-1.39,1,1,0,0,1,1.37.47A21.19,21.19,0,0,0,47,188.23c.43.65.86,1.25,1.29,1.86a25.83,25.83,0,0,1,2.57,4.17,1,1,0,0,1-1.85.9A25,25,0,0,0,46.42,191c-.43-.61-.87-1.21-1.3-1.86Z" transform="translate(-18.98 -15.2)"/><path class="cls-13" d="M60.09,167.56a1,1,0,0,1-.58,1.33,15.38,15.38,0,0,0-5.8,3.9,1,1,0,0,1-1.45-1.46,17.24,17.24,0,0,1,6.5-4.35,1,1,0,0,1,1.33.58Z" transform="translate(-18.98 -15.2)"/><path class="cls-13" d="M48.59,164.22a1,1,0,0,1,1.44-.17A10.89,10.89,0,0,1,54,169.67a1,1,0,1,1-2,.65,9.09,9.09,0,0,0-3.25-4.67,1,1,0,0,1-.17-1.43Z" transform="translate(-18.98 -15.2)"/><path class="cls-13" d="M61.59,155.64a1,1,0,0,1-.46,1.38L57,159.08a1,1,0,1,1-.92-1.84l4.1-2.06a1,1,0,0,1,1.38.46Z" transform="translate(-18.98 -15.2)"/><path class="cls-13" d="M54.3,149.43a1,1,0,0,1,1.22.79,33,33,0,0,1,1,6.34,1,1,0,0,1-2,.11,31.3,31.3,0,0,0-1-6,1,1,0,0,1,.78-1.23Z" transform="translate(-18.98 -15.2)"/><path class="cls-13" d="M89.37,245.51c-4.92,12.3-1.75,28.67,2.5,41.78A161.34,161.34,0,0,0,101.3,310l-.26.23-2.62-2.1a153.1,153.1,0,0,1-8.6-22.8c-3.69-12.93-6.16-28.91-1.27-41.1C88.55,244.24,94.58,232.5,89.37,245.51Z" transform="translate(-18.98 -15.2)"/><path class="cls-13" d="M115.78,281.71c0,.05,4.94,18.36-17.93,22C95.81,290.28,104,287,110,284.94a19.19,19.19,0,0,0,4.23-2.05c.43-.28,1-.74,1.59-1.18Z" transform="translate(-18.98 -15.2)"/><path class="cls-13" d="M95.1,301.69c-23.52,1.36-29.22-16.89-29.22-16.89.78.3,1.61.59,2.16.75a27,27,0,0,0,5.14,1.06c6.73.68,16.31,2.1,21.92,15.08Z" transform="translate(-18.98 -15.2)"/><path class="cls-13" d="M106.86,260.64s4.68,17.46-17,20.86c-1.95-12.7,5.85-15.84,11.49-17.77a19.18,19.18,0,0,0,4-2c.4-.26,1-.7,1.52-1.13Z" transform="translate(-18.98 -15.2)"/><path class="cls-13" d="M88.48,278.29c-11.23.65-18.14-3.38-22.26-7.53a25.52,25.52,0,0,1-4.31-5.84A19.94,19.94,0,0,1,61,263c-.18-.46-.27-.72-.27-.73.75.29,1.54.56,2.05.71a26.53,26.53,0,0,0,4.88,1c6.39.64,15.49,2,20.83,14.32Z" transform="translate(-18.98 -15.2)"/><path class="cls-13" d="M86.75,263.36c-.18-12,7.71-14.06,13.38-15.27a20.06,20.06,0,0,0,4.12-1.39c.42-.2,1-.55,1.6-.89,0,0,2.19,16.65-19.1,17.55Z" transform="translate(-18.98 -15.2)"/><path class="cls-13" d="M85.91,257.71C64.31,256.61,61.39,240,61.39,240c.7.36,1.42.68,1.89.88a26.59,26.59,0,0,0,4.54,1.44c6.06,1.26,14.61,3.44,18.09,15.42Z" transform="translate(-18.98 -15.2)"/><path class="cls-13" d="M95.6,285.54a.49.49,0,0,1,.44.58,56.17,56.17,0,0,1-1.8,8.4.49.49,0,0,1-.63.36.5.5,0,0,1-.37-.63A53.86,53.86,0,0,0,95,286a.49.49,0,0,1,.57-.45Z" transform="translate(-18.98 -15.2)"/><path class="cls-13" d="M86.77,284.42a.5.5,0,0,1-.21-.7.49.49,0,0,1,.69-.21,8.86,8.86,0,0,1,3,2.6c.76,1,1.43,2.12,2.4,3.37a.5.5,0,0,1-.08.72.51.51,0,0,1-.73-.09c-.92-1.19-1.54-2.26-2.25-3.21a8,8,0,0,0-2.81-2.48Z" transform="translate(-18.98 -15.2)"/><path class="cls-13" d="M89.72,268.78a12.07,12.07,0,0,0,.9-1.2.5.5,0,0,1,.7-.15.49.49,0,0,1,.15.71,10.35,10.35,0,0,1-.87,1.18c-.3.33-.59.62-.86.92a9,9,0,0,0-1.61,2.11.49.49,0,0,1-.69.22.5.5,0,0,1-.21-.7,9.35,9.35,0,0,1,1.62-2.15c.28-.29.57-.6.87-.94Z" transform="translate(-18.98 -15.2)"/><path class="cls-13" d="M82.55,262.1a.48.48,0,0,1,.72,0c2.16,2,3,3.7,4,6.64a.51.51,0,0,1-1,.34c-1-2.75-1.71-4.35-3.72-6.23a.49.49,0,0,1,0-.73Z" transform="translate(-18.98 -15.2)"/><polygon class="cls-13" points="54.29 66.87 56.54 77.38 34.35 61.19 54.29 66.87"/><polygon class="cls-13" points="65.29 69.89 56.54 77.38 64.67 53.02 65.29 69.89"/><polygon class="cls-13" points="54.29 66.87 56.54 77.38 64.67 53.02 54.29 66.87"/><polygon class="cls-13" points="65.29 69.89 56.54 77.38 82.07 76.38 65.29 69.89"/><polygon class="cls-13" points="82.07 76.38 56.54 77.38 65.5 83.91 82.07 76.38"/><polygon class="cls-13" points="65.5 83.91 56.54 77.38 63.82 103.21 65.5 83.91"/><polygon class="cls-13" points="63.82 103.21 56.54 77.38 52.4 88.19 63.82 103.21"/><polygon class="cls-13" points="52.4 88.19 56.54 77.38 36.34 92.47 52.4 88.19"/><polygon class="cls-13" points="36.34 92.47 56.54 77.38 46.35 78.21 36.34 92.47"/><polygon class="cls-13" points="46.35 78.21 56.54 77.38 34.35 61.19 46.35 78.21"/><polygon class="cls-13" points="63.12 100.63 64.17 82.93 80.64 76.41 64.23 70.9 64.41 54.23 54.44 67.99 35.93 62.33 47.08 78.17 37.08 91.98 52.86 86.62 63.12 100.63"/><polygon class="cls-13" points="325.7 79.3 315.02 78.4 336.94 61.82 325.7 79.3"/><polygon class="cls-13" points="319.61 88.99 315.02 78.4 335.85 93.32 319.61 88.99"/><polygon class="cls-13" points="325.7 79.3 315.02 78.4 335.85 93.32 325.7 79.3"/><polygon class="cls-13" points="319.61 88.99 315.02 78.4 308.51 103.19 319.61 88.99"/><polygon class="cls-13" points="308.51 103.19 315.02 78.4 306.18 85.08 308.51 103.19"/><polygon class="cls-13" points="306.18 85.08 315.02 78.4 288.29 77.83 306.18 85.08"/><polygon class="cls-13" points="288.29 77.83 315.02 78.4 305.94 71.26 288.29 77.83"/><polygon class="cls-13" points="305.94 71.26 315.02 78.4 306.55 54.59 305.94 71.26"/><polygon class="cls-13" points="306.55 54.59 315.02 78.4 317.22 68.36 306.55 54.59"/><polygon class="cls-13" points="317.22 68.36 315.02 78.4 336.94 61.82 317.22 68.36"/><polygon class="cls-13" points="290.95 77.91 307.5 84.09 308.89 101.81 318.95 87.67 334.78 92.71 324.58 79.12 335.38 63.01 317.03 69.08 306.8 55.45 307.31 72.16 290.95 77.91"/><path class="cls-13" d="M194.74,350.93c-18-10.4-16.41-23.51-14.85-32.65a32.29,32.29,0,0,0,.36-7.09c-.05-.88-.21-2.07-.37-3.06.46-.93.2.06,1.11.56a29,29,0,0,1,2.8,1.75,35,35,0,0,1,7.77,7.44c5.09,6.76,8.85,17.41,3.18,33.05Z" transform="translate(-18.98 -15.2)"/><path class="cls-13" d="M155.75,372.27c.82-.6,1.78-1.31,2.45-1.88A31.57,31.57,0,0,0,163,365.2c5.47-7.47,13.79-17.68,33.72-11.95-14.45,29.71-41,19-41,19Z" transform="translate(-18.98 -15.2)"/><path class="cls-13" d="M169.68,333.77a1,1,0,0,1,1.23.76c1.35,5.79,2.65,9.87,7.31,13.31a1,1,0,0,1,.21,1.44,1,1,0,0,1-1.44.23c-5.08-3.77-6.61-8.19-8.08-14.51a1,1,0,0,1,.77-1.23Z" transform="translate(-18.98 -15.2)"/><path class="cls-13" d="M163,351.22a1,1,0,0,1-.46-2c2-.45,3.59-.92,5.16-1.29a31.34,31.34,0,0,1,5.26-.79,1,1,0,0,1,1.09,1,1,1,0,0,1-1,1.1A26.51,26.51,0,0,0,168,350c-1.53.35-3,.81-5,1.25Z" transform="translate(-18.98 -15.2)"/><path class="cls-13" d="M358.68,209c-1.12-15.55-10.43-18.78-17.07-20.71a24.13,24.13,0,0,1-4.88-2.07c-.5-.27-1.24-.78-1.94-1.26a20.34,20.34,0,0,0,.28,3.4,26.15,26.15,0,0,0,2.46,7.7c2.87,5.62,8.77,11.66,21.15,12.94Z" transform="translate(-18.98 -15.2)"/><path class="cls-13" d="M349.6,240.31l-1-1.81a3.48,3.48,0,0,0,.39.43c.77.84,1.61,1.7,2.63,2.71a1,1,0,0,1,0,1.46,1,1,0,0,1-1.45,0c-.62-.62-1.17-1.17-1.68-1.72l.14-.55.94-.52ZM345.09,234a47,47,0,0,0,3.54,4.46l-1.34.71-.54.28c-1.09-1.25-2.1-2.53-3.33-4.24a1,1,0,0,1,1.67-1.21Z" transform="translate(-18.98 -15.2)"/><path class="cls-13" d="M308.13,304a42.2,42.2,0,0,1-4.61,6.89,41.21,41.21,0,0,1-8.76-15.3l.22-.09c2.23,3.51,6.19,6.76,13.15,8.5Zm-6.76-37.6a16,16,0,0,0,5.77,11.13c2.21,4,4.29,8.84,4.22,14.55-2.58-4.86-7.58-6.78-11.39-8.08a18.39,18.39,0,0,1-4-1.95,20.76,20.76,0,0,1-1.72-1.29,34.33,34.33,0,0,1,7.14-14.36Z" transform="translate(-18.98 -15.2)"/><path class="cls-13" d="M308.13,304c-7-1.74-10.92-5-13.15-8.5l-.23.09a41.25,41.25,0,0,0,8.77,15.3,42.2,42.2,0,0,0,4.61-6.89Z" transform="translate(-18.98 -15.2)"/><path class="cls-13" d="M302.48,313.73c12.12,11.35,23.37,12,31.55,10a35,35,0,0,0,9.86-4.27c1.16-.74,2.08-1.42,2.7-1.91a1.34,1.34,0,0,1,1.62,0l-.7-.75c-1-.25-2.09-.6-2.93-.89a31.47,31.47,0,0,1-6.36-3.1c-6.13-4-14.53-8.86-25.93-4.6l-.3.6-3.45,2.78-1.23-1a49.78,49.78,0,0,0-4.83,3.21Z" transform="translate(-18.98 -15.2)"/><path class="cls-13" d="M340.1,292.88a30,30,0,0,0,24.45-5.19,34.72,34.72,0,0,0,6.11-5.76c.69-.81,1.2-1.51,1.54-2s.5-.76.51-.77c-1,0-2.18,0-3.06-.05a30.64,30.64,0,0,1-7-1.23c-8.44-2.52-20.41-5.5-32.32,8.59a46.35,46.35,0,0,1,5.94-.91,26.23,26.23,0,0,0,4.95-1c.53-.16,1.33-.47,2.09-.77l2-.78-.64,2a15.22,15.22,0,0,1-1,2.45,27,27,0,0,1-3.56,5.39Z" transform="translate(-18.98 -15.2)"/><path class="cls-13" d="M338.12,254.82a23.8,23.8,0,0,0,8.58-8.46,32.29,32.29,0,0,1-2.21,12.92,43.32,43.32,0,0,1-6.37-4.46Zm-10.28-18.08a22.7,22.7,0,0,0,9.23-7.6c3.09,2.71,6.48,6.13,8.3,11a22.85,22.85,0,0,1-3.81,1.15c-3.26.68-7.33,1.65-11,4.28a26.23,26.23,0,0,1-2.73-8.79Z" transform="translate(-18.98 -15.2)"/><path class="cls-13" d="M338.12,254.82a43.32,43.32,0,0,0,6.37,4.46,32.29,32.29,0,0,0,2.21-12.92,23.88,23.88,0,0,1-8.58,8.46Z" transform="translate(-18.98 -15.2)"/><path class="cls-13" d="M327.84,236.74a26.23,26.23,0,0,0,2.73,8.79c3.66-2.63,7.73-3.6,11-4.28a22.57,22.57,0,0,0,3.81-1.15,27.15,27.15,0,0,0-7.9-11.4,38.76,38.76,0,0,1-6.91-8.61,35.3,35.3,0,0,0-2.72,16.65Z" transform="translate(-18.98 -15.2)"/><path class="cls-13" d="M347.41,258.09c27.08,12.11,39.2-10.67,39.2-10.67-.92.07-2,.11-2.75.1a26.9,26.9,0,0,1-6.32-.77c-8.08-2-19.69-4.19-30.13,11.34Z" transform="translate(-18.98 -15.2)"/><path class="cls-13" d="M335.88,200.51a30.37,30.37,0,0,0-.88,5.9,26.17,26.17,0,0,0,2.94,12.9,35.72,35.72,0,0,0,2.16,3.29,33.38,33.38,0,0,0,13.9,9.71c3.2-16.55-5.59-22.56-12-26.47a25.3,25.3,0,0,1-4.51-3.55c-.48-.46-1.09-1.16-1.62-1.78Z" transform="translate(-18.98 -15.2)"/><path class="cls-13" d="M356.29,229.75c13,3.49,21.27-.32,26.34-4.92a28.25,28.25,0,0,0,5.44-6.81c.55-1,.95-1.82,1.21-2.41a1.11,1.11,0,0,1,1.33-.55l-1-.34c-.83.2-1.77.38-2.43.48a26.22,26.22,0,0,1-5.73.21c-7.45-.62-18.09-.94-25.19,14.34Z" transform="translate(-18.98 -15.2)"/><path class="cls-13" d="M360,205.9c12.1-.42,18.24-5.9,21.39-11.18a25.68,25.68,0,0,0,2.89-7.3,23,23,0,0,0,.49-3.26c-.69.41-1.45.81-2,1.06a23,23,0,0,1-4.87,1.69c-6.58,1.44-15.82,4-17.93,19Z" transform="translate(-18.98 -15.2)"/><path class="cls-13" d="M356.82,185.18c-2.13-13.49-10.48-15.62-16.42-16.81a21,21,0,0,1-4.42-1.45c-.46-.2-1.14-.58-1.79-.95a19.6,19.6,0,0,0,.5,2.95,22.49,22.49,0,0,0,2.72,6.53c2.91,4.7,8.5,9.54,19.41,9.73Z" transform="translate(-18.98 -15.2)"/><path class="cls-13" d="M357.35,183c21.53-1.89,21.23-20.71,21.23-20.71-.61.42-1.27.81-1.71,1a21.07,21.07,0,0,1-4.3,1.75c-5.85,1.61-14,4.31-15.22,17.91Z" transform="translate(-18.98 -15.2)"/><path class="cls-13" d="M358.2,166c17.41-10.93,9.08-26.73,9.08-26.73-.35.63-.74,1.24-1,1.63a20.39,20.39,0,0,1-2.88,3.34c-4.27,3.89-10,9.73-5.19,21.76Z" transform="translate(-18.98 -15.2)"/><path class="cls-13" d="M355.87,164.41c-7.59-10.5-15.57-8.68-21.12-7.12a20,20,0,0,1-4.36.69c-.46,0-1.21,0-1.92,0-.28.18-.39.24-.38.26a1,1,0,0,1,.8.39c.28.4.7,1,1.26,1.63a22,22,0,0,0,5.11,4.36c4.49,2.72,11.3,4.39,20.61-.17Z" transform="translate(-18.98 -15.2)"/><path class="cls-13" d="M340.59,133.39a17.21,17.21,0,0,0-.36,2.41,18.41,18.41,0,0,0,.57,5.71c1.17,4.4,4.45,9.49,12.82,12.22,1.53-11-4.47-14.67-8.82-17a17.24,17.24,0,0,1-3.09-2.18c-.29-.26-.72-.7-1.12-1.14Z" transform="translate(-18.98 -15.2)"/><path class="cls-13" d="M280.24,330.77c14.92-14.46,10.26-26.79,6.54-35.28a32.51,32.51,0,0,1-2.06-6.79c-.16-.87-.28-2.07-.38-3.07-.66-.78-.18.12-.93.81a31.1,31.1,0,0,0-2.3,2.39,34.64,34.64,0,0,0-5.75,9.11c-3.29,7.79-4.39,19.05,4.88,32.83Z" transform="translate(-18.98 -15.2)"/><path class="cls-13" d="M278.86,333.51C300,358.85,323.19,342,323.19,342c-.93-.36-2-.84-2.8-1.24a31.8,31.8,0,0,1-5.94-3.86c-7.11-5.92-17.63-13.81-35.59-3.41Z" transform="translate(-18.98 -15.2)"/><path class="cls-13" d="M250.77,343c16.55-12.52,13.43-25.33,10.77-34.21a32.21,32.21,0,0,1-1.22-7c-.05-.88,0-2.08,0-3.09-.57-.86-.18.09-1,.69a30.78,30.78,0,0,0-2.57,2.1,34.17,34.17,0,0,0-6.81,8.33c-4.22,7.33-6.67,18.36.86,33.18Z" transform="translate(-18.98 -15.2)"/><path class="cls-13" d="M249.05,345.56c9,14,19.78,17.35,28.22,17.34a34.46,34.46,0,0,0,10.59-1.74A28.71,28.71,0,0,0,291,360a1.34,1.34,0,0,1,1.57.38l-.49-.9a30.7,30.7,0,0,1-2.64-1.58,31.71,31.71,0,0,1-5.42-4.54c-6.33-6.75-15.82-15.87-34.92-7.75Z" transform="translate(-18.98 -15.2)"/><path class="cls-13" d="M275.65,323.9a1,1,0,0,0-1.09,1c-.36,5.14-2,9.23-6.61,11.51a1,1,0,1,0,.9,1.84c5.36-2.62,7.34-7.27,7.75-13.2a1,1,0,0,0-1-1.1Z" transform="translate(-18.98 -15.2)"/><path class="cls-13" d="M281.66,338.69a1,1,0,0,0-.57-1.33,25.62,25.62,0,0,0-9.58-2.15,1,1,0,0,0-1.06,1,1,1,0,0,0,1,1.07,23.88,23.88,0,0,1,8.88,2,1,1,0,0,0,1.34-.57Z" transform="translate(-18.98 -15.2)"/><path class="cls-13" d="M296.17,310a1,1,0,0,0-1.1,1c-.37,5-.83,8.38-3.89,12.31a1,1,0,0,0,.18,1.45,1,1,0,0,0,1.44-.18c3.35-4.3,3.92-7.92,4.32-13.43a1,1,0,0,0-.95-1.11Z" transform="translate(-18.98 -15.2)"/><path class="cls-13" d="M303.65,324.41a1,1,0,0,0-.38-1.41,16.57,16.57,0,0,0-9.22-2.19,1,1,0,1,0,0,2.05,14.8,14.8,0,0,1,8.21,1.93,1,1,0,0,0,1.39-.38Z" transform="translate(-18.98 -15.2)"/><path class="cls-13" d="M336,263.84c-.66.16-1.33.34-2,.56l-.38-.8a1,1,0,0,1,.48-1.38,1,1,0,0,1,1.37.48c.18.38.37.77.52,1.14Z" transform="translate(-18.98 -15.2)"/><path class="cls-13" d="M336,263.84c-.16-.38-.34-.76-.52-1.14a1,1,0,0,0-1.37-.48,1,1,0,0,0-.48,1.38l.38.8c.66-.22,1.33-.4,2-.56Z" transform="translate(-18.98 -15.2)"/><path class="cls-13" d="M346.73,268.35a25,25,0,0,1-2.41,2.87l.16.22c.7-.37,1.45-.76,2.31-1.18a1,1,0,0,0-.06-1.91Z" transform="translate(-18.98 -15.2)"/><path class="cls-13" d="M355.19,239.63a6.37,6.37,0,0,1,3.75-1.84,1,1,0,0,0,.87-1.16,1,1,0,0,0-1.16-.88,8.06,8.06,0,0,0-4.5,2.09,15.49,15.49,0,0,0-1.68,1.81c-.53.65-1.08,1.39-1.66,2.15a1,1,0,1,0,1.61,1.26c.5-.65,1-1.28,1.4-1.86a15.26,15.26,0,0,1,1.37-1.57Z" transform="translate(-18.98 -15.2)"/><path class="cls-13" d="M365.41,212.51a1,1,0,0,0-.74-1.93,15.78,15.78,0,0,0-4.26,2.49c-1.21,1-2.36,2.1-3.75,3.38a1,1,0,0,0-.07,1.46A1,1,0,0,0,358,218c1.3-1.17,2.35-2.23,3.46-3.14a13.47,13.47,0,0,1,3.92-2.32Z" transform="translate(-18.98 -15.2)"/><path class="cls-13" d="M353.49,211.32a1,1,0,0,0-.3,1.42,20.52,20.52,0,0,1,2.95,5.92,1,1,0,1,0,2-.59,22.3,22.3,0,0,0-3.2-6.44,1,1,0,0,0-1.42-.31Z" transform="translate(-18.98 -15.2)"/><path class="cls-13" d="M353.64,187.17a1,1,0,0,0-1.24,1.65,32.18,32.18,0,0,1,3.12,2.64c.91.87,1.79,1.79,2.93,2.93a1,1,0,0,0,1.45-1.46c-1.17-1.18-2.1-2.13-3-3a34.5,34.5,0,0,0-3.22-2.73Z" transform="translate(-18.98 -15.2)"/><path class="cls-13" d="M363.66,189.14a23.92,23.92,0,0,0,1.26-2.2,1,1,0,0,0-.46-1.39,1,1,0,0,0-1.37.47,23.14,23.14,0,0,1-1.28,2.21c-.43.65-.86,1.25-1.29,1.86a25.15,25.15,0,0,0-2.57,4.17,1,1,0,0,0,1.85.9,25,25,0,0,1,2.56-4.16c.43-.61.86-1.21,1.3-1.86Z" transform="translate(-18.98 -15.2)"/><path class="cls-13" d="M349.5,167.54a1,1,0,0,0,.58,1.33,15.38,15.38,0,0,1,5.81,3.89,1,1,0,0,0,1.45,0,1,1,0,0,0,0-1.46,17.22,17.22,0,0,0-6.5-4.34,1,1,0,0,0-1.34.58Z" transform="translate(-18.98 -15.2)"/><path class="cls-13" d="M361,164.19a1,1,0,0,0-1.43-.17,10.8,10.8,0,0,0-3.93,5.63,1,1,0,0,0,1.95.65,9,9,0,0,1,3.25-4.67,1,1,0,0,0,.16-1.44Z" transform="translate(-18.98 -15.2)"/><path class="cls-13" d="M348,155.61a1,1,0,0,0,.46,1.39l4.11,2.06a1,1,0,0,0,.91-1.84l-4.1-2.06a1,1,0,0,0-1.38.45Z" transform="translate(-18.98 -15.2)"/><path class="cls-13" d="M355.29,149.41a1,1,0,0,0-1.22.79,33,33,0,0,0-1.05,6.34,1,1,0,1,0,2.05.1,32.37,32.37,0,0,1,1-6,1,1,0,0,0-.78-1.22Z" transform="translate(-18.98 -15.2)"/><path class="cls-13" d="M320.22,245.49c4.92,12.3,1.76,28.67-2.5,41.78A160.63,160.63,0,0,1,308.29,310l.26.23,2.62-2.1a150.69,150.69,0,0,0,8.6-22.8c3.69-12.94,6.16-28.9,1.27-41.1C321,244.22,315,232.48,320.22,245.49Z" transform="translate(-18.98 -15.2)"/><path class="cls-13" d="M293.81,281.68s-4.94,18.37,17.93,21.95c2.05-13.37-6.16-16.68-12.1-18.71a19.76,19.76,0,0,1-4.24-2.05,18.65,18.65,0,0,1-1.59-1.19Z" transform="translate(-18.98 -15.2)"/><path class="cls-13" d="M314.49,301.67c23.52,1.36,29.22-16.89,29.22-16.89-.78.3-1.61.59-2.16.75a28.46,28.46,0,0,1-5.13,1.06c-6.74.68-16.32,2.09-21.93,15.08Z" transform="translate(-18.98 -15.2)"/><path class="cls-13" d="M302.73,260.62s-4.68,17.46,17,20.85c2-12.7-5.85-15.84-11.49-17.78a18.29,18.29,0,0,1-4-1.94c-.4-.27-1-.71-1.52-1.13Z" transform="translate(-18.98 -15.2)"/><path class="cls-13" d="M321.11,278.27c11.23.65,18.14-3.38,22.27-7.54a25.52,25.52,0,0,0,4.3-5.84,18.9,18.9,0,0,0,.92-1.95c.19-.44.27-.72.28-.73-.75.29-1.55.57-2.06.72a27,27,0,0,1-4.88,1c-6.39.64-15.49,2-20.83,14.32Z" transform="translate(-18.98 -15.2)"/><path class="cls-13" d="M322.84,263.34c.18-12-7.71-14.06-13.38-15.28a19.47,19.47,0,0,1-4.12-1.39c-.42-.2-1-.55-1.6-.88,0,0-2.19,16.65,19.1,17.55Z" transform="translate(-18.98 -15.2)"/><path class="cls-13" d="M323.68,257.69c21.6-1.11,24.52-17.74,24.52-17.75-.7.36-1.42.69-1.88.88a25.86,25.86,0,0,1-4.55,1.44c-6,1.27-14.6,3.45-18.09,15.43Z" transform="translate(-18.98 -15.2)"/><path class="cls-13" d="M314,285.51a.51.51,0,0,0-.45.58,56.33,56.33,0,0,0,1.81,8.41.49.49,0,0,0,.63.36.51.51,0,0,0,.37-.63,54,54,0,0,1-1.79-8.27.5.5,0,0,0-.57-.45Z" transform="translate(-18.98 -15.2)"/><path class="cls-13" d="M322.83,284.39a.51.51,0,1,0-.49-.9,8.73,8.73,0,0,0-3,2.59c-.76,1-1.42,2.12-2.4,3.37a.5.5,0,0,0,.08.72.51.51,0,0,0,.73-.08c.91-1.19,1.54-2.26,2.25-3.22a8.12,8.12,0,0,1,2.82-2.48Z" transform="translate(-18.98 -15.2)"/><path class="cls-13" d="M319.87,268.75a10.8,10.8,0,0,1-.9-1.19.48.48,0,0,0-.7-.15.48.48,0,0,0-.15.71,9.36,9.36,0,0,0,.87,1.17c.3.34.58.63.86.92a8.84,8.84,0,0,1,1.61,2.12.5.5,0,0,0,.69.22.51.51,0,0,0,.21-.71,9.57,9.57,0,0,0-1.62-2.15c-.28-.29-.57-.59-.87-.94Z" transform="translate(-18.98 -15.2)"/><path class="cls-13" d="M327,262.08a.48.48,0,0,0-.72,0c-2.15,2-2.95,3.7-4,6.64a.5.5,0,0,0,.31.66.49.49,0,0,0,.66-.31c1-2.76,1.71-4.36,3.72-6.23a.49.49,0,0,0,0-.73Z" transform="translate(-18.98 -15.2)"/><path class="cls-13" d="M322.4,250.05c3.44-7.71,1.45-12.78-1.38-15.91a16.54,16.54,0,0,0-4.34-3.35,20.92,20.92,0,0,0-2.24-1c.08.56.16,1.11.18,1.43a13.67,13.67,0,0,1-.31,3.45c-1,4.48-2.08,10.88,8.09,15.34Z" transform="translate(-18.98 -15.2)"/><path class="cls-13" d="M87.8,250.05c-3.44-7.71-1.45-12.78,1.39-15.91a16.23,16.23,0,0,1,4.34-3.35,19.88,19.88,0,0,1,2.23-1c-.08.56-.16,1.11-.17,1.43a13.16,13.16,0,0,0,.3,3.45c1,4.48,2.08,10.88-8.09,15.34Z" transform="translate(-18.98 -15.2)"/><path class="cls-13" d="M214.85,350.91c18-10.4,16.41-23.51,14.85-32.65a32.29,32.29,0,0,1-.36-7.09c.06-.88.21-2.08.37-3.07-.46-.93-.2.07-1.11.56a30.83,30.83,0,0,0-2.8,1.76,34.93,34.93,0,0,0-7.77,7.44c-5.08,6.76-8.85,17.42-3.18,33.05Z" transform="translate(-18.98 -15.2)"/><path class="cls-13" d="M253.85,372.24c-.83-.59-1.79-1.3-2.46-1.88a31.05,31.05,0,0,1-4.83-5.18c-5.47-7.47-13.78-17.69-33.71-11.95,14.44,29.72,41,19,41,19Z" transform="translate(-18.98 -15.2)"/><path class="cls-13" d="M239.91,333.75a1,1,0,0,0-1.23.76c-1.35,5.78-2.65,9.86-7.3,13.3a1,1,0,0,0-.22,1.45,1,1,0,0,0,1.44.23c5.08-3.77,6.61-8.19,8.08-14.51a1,1,0,0,0-.77-1.23Z" transform="translate(-18.98 -15.2)"/><path class="cls-13" d="M246.63,351.2a1,1,0,0,0,1.23-.78,1,1,0,0,0-.77-1.23c-2-.46-3.58-.92-5.16-1.3a30.26,30.26,0,0,0-5.26-.78,1,1,0,0,0-1.09.95,1,1,0,0,0,1,1.1,28.18,28.18,0,0,1,5.09.78c1.53.37,3.05.81,5,1.26Z" transform="translate(-18.98 -15.2)"/><path d="M89.82,59.32c-1.34-1.13-2.33-1.78-3.1-1.82a3.82,3.82,0,0,0-1.74.61c-.38.24-.63.34-.82,0s.09-.53.62-.87c2-1.24,4.14-2.44,4.49-2.65s1.94-1.38,4.14-2.75c.54-.34.87-.39,1-.16s-.09.53-.47.77a2.32,2.32,0,0,0-.86.75c-.25.36-.16.68.11,1.09a29.69,29.69,0,0,0,3,3c2.22,2.1,13,11.41,15,13.11l.11-.07-5-24.44c-.25-1.32-.22-1.77.09-2s1,.19,2.22,1.1l19.9,14.17.11-.07c-.91-3-4.16-14.92-5.62-20.21a9.56,9.56,0,0,0-1-2.44c-.38-.61-1.06-.93-2.54,0-.38.24-.72.29-.86.06s.09-.53.66-.9c2-1.26,3.69-2.14,4-2.36s1.83-1.3,3.08-2.09c.42-.26.73-.35.88-.12s0,.5-.29.71a4.81,4.81,0,0,0-1.21,1c-.7.91-.17,2.69.39,5.36,1.25,5.89,4.83,20.49,6.54,27.36.42,1.59.52,2.17,0,2.48s-.89-.08-2.34-1.13L110.52,52.8l-.08.05c.49,2.4,3.87,19,4.43,23.55.25,2,.35,2.58-.11,2.87s-.83-.06-1.75-.86Z" transform="translate(-18.98 -15.2)"/><path d="M144.16,39.79c-2.25-6.43-2.66-7.62-3.22-8.94s-1.26-2-2.27-1.87a6.44,6.44,0,0,0-1.58.36c-.42.15-.71.15-.82-.18s.22-.46.9-.71c1.61-.56,4.32-1.36,5.54-1.79,1.06-.37,3.51-1.37,5.12-1.92.55-.19.92-.22,1,0s-.11.52-.53.66a7.77,7.77,0,0,0-1.23.57c-1.07.61-1.15,1.45-.72,3s.8,2.57,3,9l2.6,7.45c1.43,4.11,2.6,7.45,3.4,9.21.53,1.1,1.09,1.76,2.42,1.49a19.23,19.23,0,0,0,2.22-.59c.46-.16.72-.1.79.11s-.19.54-.65.7c-2.8,1-5.51,1.78-6.65,2.18-1,.33-3.6,1.39-5.29,2-.55.2-.89.17-1-.12s.06-.4.56-.58a7,7,0,0,0,1.47-.7c.79-.46.79-1.27.49-2.54-.41-1.86-1.58-5.2-3-9.3Z" transform="translate(-18.98 -15.2)"/><path d="M171.63,46.92c.55,3.45,1.27,4.54,2.21,4.73a7.13,7.13,0,0,0,2.35,0c.49-.07.76,0,.8.25s-.34.5-1,.58c-2.88.38-4.68.48-5.53.59-.4.05-2.47.45-4.78.76-.58.07-1,.08-1-.32s.22-.39.66-.45a8.08,8.08,0,0,0,2-.48c1.11-.51,1.12-1.82.66-5.7l-3-26.36c-.12-.89-.07-1.53.38-1.59s1,.46,1.82,1.16c.61.51,8.31,6.87,15.64,12.47,3.42,2.63,10.25,8.25,11.1,8.86l.22,0-3-19.9c-.39-2.7-.9-3.49-2-3.8a7.33,7.33,0,0,0-2.39,0c-.53.07-.73,0-.76-.31s.44-.46,1.1-.54c2.32-.3,4.47-.45,5.4-.57.49-.06,2.16-.42,4.34-.71.58-.07,1-.09,1.08.27s-.22.44-.75.51a4.68,4.68,0,0,0-1.32.3c-1.2.52-1.43,1.5-1.15,4l3.17,28.11c.13,1,0,1.4-.4,1.45s-1.08-.36-1.64-.78c-3.15-2.3-9.6-7.38-14.81-11.35-5.48-4.17-11.13-9.09-12-9.83l-.14,0Z" transform="translate(-18.98 -15.2)"/><path d="M214.73,44.06c-.41,3.48,0,4.72.85,5.16a7.45,7.45,0,0,0,2.27.64c.48.07.74.19.7.46s-.46.39-1.09.3c-2.88-.41-4.64-.8-5.49-.92-.4-.06-2.5-.22-4.81-.55-.58-.08-1-.18-.92-.58s.32-.32.77-.26a8,8,0,0,0,2,.06c1.2-.19,1.56-1.45,2.16-5.31l4.14-26.24c.13-.89.35-1.49.79-1.43s.81.71,1.45,1.61c.45.66,6.17,8.86,11.74,16.23,2.6,3.45,7.68,10.7,8.33,11.52l.23,0,2.39-20c.34-2.72.06-3.62-.94-4.22A7.36,7.36,0,0,0,237,20c-.54-.08-.7-.24-.66-.5s.55-.33,1.22-.26c2.31.33,4.42.77,5.35.9.49.07,2.2.18,4.37.5.58.09,1,.19,1,.55s-.32.36-.85.28a4.93,4.93,0,0,0-1.35-.05c-1.3.18-1.78,1.06-2.19,3.54l-4.47,28c-.14,1-.37,1.35-.77,1.29s-.95-.63-1.37-1.19C234.84,49.92,230,43.29,226,38.06c-4.16-5.49-8.3-11.74-9-12.7l-.13,0Z" transform="translate(-18.98 -15.2)"/><path d="M259.93,38.56c2.48-6.35,2.94-7.52,3.38-8.89s.4-2.26-.86-3.09a8.77,8.77,0,0,0-1.59-.77c-.45-.17-.67-.36-.56-.65s.44-.26,1.07,0c1.13.44,2.32,1,3.37,1.36s2,.89,2.6,1.12c1.34.52,9.66,3.77,10.47,4a18.41,18.41,0,0,0,1.89.46,4.4,4.4,0,0,1,.74.09c.21.08.18.27.1.47s-.52.71-1.4,2.59c-.2.4-1,2.21-1.29,2.68-.12.19-.3.41-.59.29s-.3-.35-.15-.73a5,5,0,0,0,.34-1.6c0-.87-.22-1.54-2.22-2.6-.67-.37-5-2.17-5.86-2.49-.21-.08-.35,0-.46.3l-4.14,10.58c-.11.29-.13.47.11.57.92.36,5.73,2.24,6.73,2.53a3.13,3.13,0,0,0,2.25.16c.42-.22.67-.36.88-.28s.26.2.16.45a32.65,32.65,0,0,0-1.53,2.92c-.41.8-1.15,2.44-1.26,2.73s-.31.8-.69.65a.35.35,0,0,1-.23-.52,11.35,11.35,0,0,0,.42-1.57c.12-.92-.22-1.77-1.7-2.55-.76-.39-4.88-2-5.89-2.44-.2-.08-.31.07-.41.32L262.32,48c-.56,1.42-2.1,5.25-2.53,6.48-1.05,2.91-.63,3.8,3.64,5.47a11.17,11.17,0,0,0,4.13,1c1.28-.07,2.12-.75,3.08-2.35.27-.43.42-.57.71-.45s.2.46,0,.89A34.9,34.9,0,0,1,269,63.47c-.71,1-1.09.82-2.68.21-3.14-1.23-5.41-2.21-7.18-3s-3.05-1.33-4.3-1.82c-.46-.18-1.4-.5-2.4-.89s-2.09-.72-2.92-1c-.54-.21-.79-.45-.67-.74s.29-.27.8-.07a8.11,8.11,0,0,0,1.57.42c.9.16,1.47-.68,2.11-1.83.89-1.67,2.19-5,3.69-8.82Z" transform="translate(-18.98 -15.2)"/><path d="M289.3,51.78c3.71-5.72,4.4-6.77,5.1-8s.85-2.12-.22-3.19a8.68,8.68,0,0,0-1.39-1.07c-.42-.27-.6-.49-.42-.76s.48-.16,1,.21c2,1.29,4.29,2.94,5.09,3.46,1.27.83,4.21,2.57,5.37,3.33,2.37,1.54,4.75,3.4,5.87,6.11a7.8,7.8,0,0,1-.78,6.82c-1.81,2.78-4.64,4.58-10.45,5.2.61,6.39,1,11.42,1.74,15.2.69,3.55,2.06,4.82,2.55,5.3a8.26,8.26,0,0,0,1,.8c.3.19.38.4.26.59s-.51.2-1-.09l-3.58-2.32c-2.1-1.37-2.92-2.17-3.56-3.33-1.05-1.92-1.34-4.61-1.56-8.88-.16-3-.23-6.73-.35-7.61a.91.91,0,0,0-.51-.7l-3.22-2.21a.31.31,0,0,0-.5.11l-.34.53c-2.27,3.5-4.2,6.47-5,8.17-.6,1.17-.91,2.14.12,3a19.36,19.36,0,0,0,1.75,1.35c.3.2.38.41.25.6s-.5.2-1-.12c-2.19-1.41-4.89-3.33-5.46-3.7s-3.16-1.89-4.67-2.87c-.48-.32-.67-.6-.5-.87s.34-.2.8.09a6.74,6.74,0,0,0,1.45.73c.85.34,1.58-.37,2.44-1.36,1.21-1.46,3.14-4.43,5.39-7.89Zm2.51,5.85c-.27.42-.29.62-.1.9a11.49,11.49,0,0,0,2.61,2.23c1.51,1,2.09,1.15,3.09,1.1,1.67-.1,3.88-1.12,5.88-4.21,3.48-5.34.94-9.17-1.28-10.62a9.72,9.72,0,0,0-2.09-1.14c-.32-.1-.49,0-.68.3Z" transform="translate(-18.98 -15.2)"/><path d="M115.24,124.61c0-7,0-8.25-.1-9.72s-.45-2.29-2-2.61a9.41,9.41,0,0,0-1.78-.14c-.51,0-.78-.09-.78-.41s.32-.41,1-.41c2.43,0,5.31.13,6.23.13,2.25,0,4-.13,5.59-.13,8.29,0,9.76,4.44,9.76,6.87,0,3.76-2.15,6-4.67,8,3.75,1.28,8.34,4.54,8.34,9.9,0,4.9-3.81,10-12.24,10-.55,0-1.88-.09-3.2-.14s-2.75-.13-3.44-.13c-.51,0-1.51,0-2.62,0s-2.24.09-3.16.09c-.59,0-.91-.13-.91-.45s.18-.37.73-.37a8.25,8.25,0,0,0,1.65-.18c.91-.19,1.14-1.19,1.33-2.53.23-1.92.23-5.54.23-9.76Zm5.49.78c0,.37.14.46.33.5a10.44,10.44,0,0,0,2.15.14,4.65,4.65,0,0,0,3.3-.87,6,6,0,0,0,1.88-4.86c0-3.07-1.79-7.1-5.73-7.1a7.55,7.55,0,0,0-1.51.09c-.32.09-.42.28-.42.78Zm6,3.67A6.6,6.6,0,0,0,123,128c-.83,0-1.28,0-2,0-.18,0-.28.09-.28.32v10.86c0,3,.14,3.8,1.61,4.4a8.32,8.32,0,0,0,3.34.55c2.06,0,5.55-1.1,5.55-5.87A10.88,10.88,0,0,0,126.78,129.06Z" transform="translate(-18.98 -15.2)"/><path d="M142.13,124.61c0-7,0-8.25-.09-9.72s-.46-2.29-2-2.61a9.61,9.61,0,0,0-1.79-.14c-.5,0-.78-.09-.78-.41s.33-.41,1-.41c2.43,0,5.32.13,6.28.13,1.56,0,5-.13,6.46-.13,2.89,0,6,.27,8.44,2a8,8,0,0,1,3.11,6.28c0,3.39-1.42,6.51-6.05,10.26,4.08,5.13,7.24,9.21,9.95,12,2.56,2.66,4.44,3,5.13,3.12a7.4,7.4,0,0,0,1.28.14c.37,0,.55.13.55.36s-.32.46-.87.46h-4.35c-2.57,0-3.71-.23-4.91-.87-2-1.05-3.71-3.21-6.27-6.73-1.83-2.52-3.94-5.64-4.54-6.33a1,1,0,0,0-.82-.32l-4-.09c-.23,0-.37.09-.37.37v.64c0,4.26,0,7.88.23,9.8.14,1.33.41,2.34,1.79,2.52a21.78,21.78,0,0,0,2.25.19c.36,0,.55.13.55.36s-.32.46-.92.46c-2.66,0-6.05-.14-6.74-.14-.87,0-3.75.14-5.59.14-.59,0-.91-.14-.91-.46s.18-.36.73-.36a7.48,7.48,0,0,0,1.65-.19c.91-.18,1.14-1.19,1.33-2.52.22-1.92.22-5.54.22-9.76v-8.06Zm5.41,3.62c0,.51.09.69.41.83a12.18,12.18,0,0,0,3.49.45c1.83,0,2.43-.18,3.25-.78,1.38-1,2.7-3.11,2.7-6.87,0-6.51-4.3-8.39-7-8.39a10.57,10.57,0,0,0-2.43.18c-.32.09-.41.28-.41.65Z" transform="translate(-18.98 -15.2)"/><path d="M176.73,124.61c0-7,0-8.25-.09-9.72s-.55-2.33-1.56-2.56a6.38,6.38,0,0,0-1.65-.19c-.46,0-.73-.09-.73-.46s.36-.36,1.1-.36c1.74,0,4.62.13,6,.13,1.14,0,3.84-.13,5.59-.13.59,0,1,.09,1,.36s-.28.46-.73.46a8,8,0,0,0-1.38.14c-1.23.23-1.6,1-1.69,2.61s-.09,2.75-.09,9.72v8.06c0,4.45,0,8.06.18,10,.14,1.23.46,2.06,1.83,2.24a19.8,19.8,0,0,0,2.34.18c.51,0,.74.14.74.37s-.37.46-.88.46c-3,0-5.91-.14-7.15-.14-1,0-3.94.14-5.77.14-.6,0-.91-.14-.91-.46s.18-.37.73-.37a7.57,7.57,0,0,0,1.65-.18c.91-.18,1.19-1,1.33-2.29.22-1.93.22-5.55.22-10v-8.06Z" transform="translate(-18.98 -15.2)"/><path d="M201.24,113.89l-6.83.18c-2.65.09-3.76.32-4.44,1.33a5.45,5.45,0,0,0-.78,1.6c-.1.37-.23.55-.51.55s-.41-.22-.41-.73c0-.74.87-4.9,1-5.27.14-.59.28-.87.55-.87a10.7,10.7,0,0,0,2,.55c1.34.14,3.07.23,4.59.23h18.14a22.13,22.13,0,0,0,3.16-.23,10.36,10.36,0,0,1,1.25-.23c.31,0,.36.27.36,1,0,1-.14,4.13-.14,5.32-.05.46-.14.73-.41.73s-.46-.23-.51-.91l-.05-.51c-.09-1.19-1.32-2.47-5.4-2.56l-5.77-.14v18.79c0,4.21,0,7.83.23,9.8.13,1.29.41,2.3,1.78,2.48a19.64,19.64,0,0,0,2.34.18c.5,0,.73.14.73.37s-.37.46-.87.46c-3,0-5.91-.14-7.19-.14-1.06,0-3.94.14-5.78.14-.59,0-.91-.14-.91-.46s.18-.37.73-.37a7.57,7.57,0,0,0,1.65-.18c.91-.18,1.19-1.19,1.33-2.52.23-1.93.23-5.55.23-9.76Z" transform="translate(-18.98 -15.2)"/><path d="M225.38,124.61c0-7,0-8.25-.09-9.72s-.55-2.33-1.56-2.56a6.38,6.38,0,0,0-1.65-.19c-.45,0-.73-.09-.73-.46s.37-.36,1.1-.36c1.74,0,4.63.13,6,.13,1.14,0,3.85-.13,5.59-.13.6,0,1,.09,1,.36s-.27.46-.72.46a8,8,0,0,0-1.38.14c-1.24.23-1.6,1-1.7,2.61s-.09,2.75-.09,9.72v8.06c0,4.45,0,8.06.19,10,.13,1.23.45,2.06,1.82,2.24a20,20,0,0,0,2.34.18c.51,0,.73.14.73.37s-.36.46-.87.46c-3,0-5.9-.14-7.14-.14-1.06,0-3.95.14-5.78.14-.59,0-.92-.14-.92-.46s.19-.37.74-.37a7.57,7.57,0,0,0,1.65-.18c.92-.18,1.19-1,1.33-2.29.23-1.93.23-5.55.23-10v-8.06Z" transform="translate(-18.98 -15.2)"/><path d="M240.14,145.41c-.74-.32-.87-.54-.87-1.55,0-2.52.18-5.27.22-6s.19-1.19.56-1.19.45.41.45.78a9.67,9.67,0,0,0,.42,2.34c1,3.39,3.71,4.63,6.55,4.63,4.12,0,6.14-2.8,6.14-5.23,0-2.24-.68-4.35-4.49-7.33L247,130.2c-5.05-3.94-6.78-7.15-6.78-10.86,0-5,4.21-8.66,10.58-8.66a22.14,22.14,0,0,1,6.09.78c.42.09.64.23.64.55,0,.59-.18,1.92-.18,5.5,0,1-.14,1.37-.5,1.37s-.46-.27-.46-.82a5.55,5.55,0,0,0-1.19-3,5.82,5.82,0,0,0-5-2.25c-3.39,0-5.45,2-5.45,4.73,0,2.1,1,3.71,4.86,6.59l1.28,1c5.55,4.17,7.51,7.33,7.51,11.68a9.26,9.26,0,0,1-4.3,8,13.32,13.32,0,0,1-7.29,1.87A15.6,15.6,0,0,1,240.14,145.41Z" transform="translate(-18.98 -15.2)"/><path d="M289.4,125.89c.14,0,.27-.09.27-.32v-1c0-7,0-8.25-.09-9.72s-.46-2.29-2-2.61a9.53,9.53,0,0,0-1.79-.14c-.5,0-.78-.09-.78-.41s.32-.41,1-.41c2.48,0,5.36.13,6.61.13,1.1,0,4-.13,5.77-.13.64,0,1,.09,1,.41s-.27.41-.82.41a8.46,8.46,0,0,0-1.34.14c-1.23.23-1.6,1-1.69,2.61s-.09,2.75-.09,9.72v8.06c0,4.22,0,7.84.23,9.81.14,1.28.41,2.29,1.79,2.47a19.61,19.61,0,0,0,2.33.19c.51,0,.73.13.73.36s-.36.46-.91.46c-3,0-5.86-.14-7.15-.14-1.06,0-3.94.14-5.73.14-.64,0-1-.14-1-.46s.18-.36.73-.36a7.48,7.48,0,0,0,1.65-.19c.91-.18,1.14-1.19,1.33-2.52.23-1.92.23-5.54.23-9.76v-4a.26.26,0,0,0-.27-.27H271.89c-.14,0-.27,0-.27.27v4c0,4.22,0,7.84.23,9.81.14,1.28.41,2.29,1.79,2.47a19.27,19.27,0,0,0,2.33.19c.5,0,.73.13.73.36s-.37.46-.91.46c-3,0-5.87-.14-7.15-.14-1.05,0-3.95.14-5.77.14-.6,0-.93-.14-.93-.46s.19-.36.74-.36a7.48,7.48,0,0,0,1.65-.19c.92-.18,1.15-1.19,1.33-2.52.23-1.92.23-5.54.23-9.76v-8.06c0-7,0-8.25-.09-9.72s-.46-2.29-2-2.61a9.53,9.53,0,0,0-1.79-.14c-.5,0-.78-.09-.78-.41s.32-.41,1-.41c2.47,0,5.36.13,6.59.13s4-.13,5.78-.13c.64,0,1,.09,1,.41s-.27.41-.82.41a8.36,8.36,0,0,0-1.33.14c-1.24.23-1.61,1-1.7,2.61s-.09,2.75-.09,9.72v1c0,.23.14.32.27.32Z" transform="translate(-18.98 -15.2)"/><path d="M130.36,162.66l-6.83.19c-2.66.09-3.76.32-4.45,1.33a5.88,5.88,0,0,0-.78,1.6c-.09.37-.22.55-.5.55s-.41-.23-.41-.73c0-.74.87-4.9,1-5.27.14-.6.28-.87.55-.87a10.44,10.44,0,0,0,2,.55c1.33.13,3.07.23,4.58.23H143.6a22.13,22.13,0,0,0,3.16-.23,10.34,10.34,0,0,1,1.24-.23c.32,0,.36.27.36,1,0,1-.13,4.13-.13,5.32,0,.46-.14.73-.42.73s-.45-.22-.5-.91l-.05-.51c-.09-1.19-1.33-2.47-5.41-2.57l-5.77-.13v18.79c0,4.21,0,7.84.23,9.8.13,1.29.41,2.3,1.78,2.48a20,20,0,0,0,2.34.18c.5,0,.73.14.73.37s-.36.46-.87.46c-3,0-5.91-.14-7.19-.14-1.06,0-3.94.14-5.78.14-.59,0-.91-.14-.91-.46s.18-.37.73-.37a7.57,7.57,0,0,0,1.65-.18c.92-.18,1.19-1.19,1.33-2.52.23-1.92.23-5.54.23-9.76v-18.8Z" transform="translate(-18.98 -15.2)"/><path d="M154.5,173.39c0-7,0-8.25-.09-9.71s-.46-2.29-2-2.62a9.61,9.61,0,0,0-1.78-.13c-.51,0-.78-.1-.78-.42s.32-.41,1-.41c2.44,0,5.32.14,6.28.14,1.56,0,5.05-.14,6.47-.14,2.88,0,6,.27,8.43,2a8,8,0,0,1,3.11,6.28c0,3.39-1.42,6.51-6,10.26,4.08,5.14,7.24,9.22,9.95,12,2.56,2.66,4.44,3,5.13,3.12a7.4,7.4,0,0,0,1.28.14c.37,0,.55.13.55.37s-.32.45-.87.45h-4.35c-2.57,0-3.71-.23-4.91-.87-2-1.05-3.71-3.21-6.27-6.73-1.83-2.53-3.94-5.64-4.54-6.33a1,1,0,0,0-.82-.32l-4-.09c-.23,0-.37.09-.37.37v.64c0,4.26,0,7.88.23,9.81.14,1.32.42,2.33,1.79,2.52a21.58,21.58,0,0,0,2.25.18c.36,0,.55.13.55.37s-.32.45-.92.45c-2.66,0-6.05-.13-6.74-.13-.87,0-3.75.13-5.59.13-.59,0-.91-.13-.91-.45s.18-.37.73-.37a7.57,7.57,0,0,0,1.65-.18c.91-.19,1.14-1.2,1.33-2.52.22-1.93.22-5.55.22-9.77v-8.06Zm5.41,3.62c0,.5.09.69.41.82a12.17,12.17,0,0,0,3.49.46c1.83,0,2.43-.18,3.25-.78,1.38-1,2.7-3.11,2.7-6.87,0-6.51-4.3-8.39-7-8.39a9.89,9.89,0,0,0-2.43.19c-.32.09-.41.27-.41.64Z" transform="translate(-18.98 -15.2)"/><path d="M190.93,182.78c-.23,0-.32.1-.41.37L188,189.7a8.83,8.83,0,0,0-.68,2.8c0,.82.41,1.42,1.83,1.42h.69c.55,0,.69.09.69.37s-.28.45-.78.45c-1.47,0-3.44-.13-4.86-.13-.5,0-3,.13-5.41.13-.59,0-.87-.09-.87-.45s.19-.37.56-.37,1,0,1.42-.09c2.1-.27,3-1.83,3.89-4.13L196,160.93c.55-1.33.83-1.84,1.29-1.84s.68.41,1.14,1.47c1.1,2.52,8.43,21.22,11.37,28.18,1.73,4.13,3.06,4.77,4,5a10,10,0,0,0,1.93.18c.37,0,.59.05.59.37s-.41.45-2.1.45-5,0-8.66-.09c-.83,0-1.38,0-1.38-.36s.19-.37.65-.41a.76.76,0,0,0,.41-1.06l-3.67-9.72a.45.45,0,0,0-.46-.32Zm9.35-2.29c.23,0,.27-.14.23-.27l-4.13-11.32c0-.19-.09-.42-.23-.42s-.22.23-.27.42l-4.22,11.27c0,.18,0,.32.19.32Z" transform="translate(-18.98 -15.2)"/><path d="M209.62,164.59c-1.05-2.52-1.83-3-3.48-3.48a6.81,6.81,0,0,0-1.79-.19c-.41,0-.55-.13-.55-.41s.51-.41,1.2-.41c2.42,0,5,.13,6.64.13,1.14,0,3.34-.13,5.63-.13.56,0,1.06.09,1.06.41s-.27.41-.69.41a3.3,3.3,0,0,0-1.78.32,1.08,1.08,0,0,0-.46,1,13.73,13.73,0,0,0,1,3.53l7.88,20.8h.18c2-5,7.93-19.8,9-22.82A5.53,5.53,0,0,0,234,162a.88.88,0,0,0-.59-.87,6.17,6.17,0,0,0-1.83-.22c-.42,0-.78-.05-.78-.37s.41-.46,1.28-.46c2.29,0,4.22.14,4.81.14.78,0,2.94-.14,4.31-.14.6,0,1,.09,1,.41s-.27.42-.73.42a4,4,0,0,0-2.25.55c-.59.41-1.28,1.18-2.52,4.12-1.78,4.31-3,6.78-5.5,12.42-2.93,6.69-5.08,11.68-6.09,14-1.19,2.65-1.47,3.39-2.11,3.39s-.87-.65-1.74-2.8Z" transform="translate(-18.98 -15.2)"/><path d="M247,173.39c0-7,0-8.25-.11-9.71s-.45-2.29-2-2.62a9.65,9.65,0,0,0-1.79-.13c-.5,0-.78-.1-.78-.42s.32-.41,1-.41c1.24,0,2.57.05,3.71.05s2.25.09,2.89.09c1.47,0,10.59,0,11.45-.05a18.64,18.64,0,0,0,2-.27,3.93,3.93,0,0,1,.73-.19c.23,0,.27.19.27.42s-.22.87-.36,3c0,.46-.14,2.47-.23,3-.05.23-.14.5-.47.5s-.4-.23-.4-.64a5.14,5.14,0,0,0-.27-1.65c-.33-.82-.79-1.38-3.07-1.65-.79-.09-5.6-.18-6.51-.18-.24,0-.32.13-.32.45v11.6c0,.32.05.5.32.5,1,0,6.28,0,7.33-.09a3.18,3.18,0,0,0,2.2-.69c.32-.36.5-.59.73-.59s.32.09.32.37-.18,1-.36,3.34c0,.92-.19,2.75-.19,3.07s0,.87-.41.87a.36.36,0,0,1-.41-.41,10.87,10.87,0,0,0-.18-1.65c-.23-.92-.87-1.6-2.57-1.79-.87-.09-5.41-.13-6.51-.13-.22,0-.27.18-.27.46v3.62c0,1.55,0,5.77,0,7.1.09,3.16.82,3.85,5.5,3.85a11.61,11.61,0,0,0,4.31-.55c1.19-.55,1.74-1.51,2.06-3.39.1-.51.19-.69.5-.69s.37.37.37.83a37.18,37.18,0,0,1-.59,5.08c-.32,1.19-.73,1.19-2.48,1.19-3.44,0-6-.09-7.92-.13s-3.39-.14-4.77-.14c-.5,0-1.51,0-2.61,0s-2.24.09-3.17.09c-.59,0-.92-.14-.92-.46s.19-.37.74-.37a7.57,7.57,0,0,0,1.65-.18c.92-.18,1.15-1.19,1.33-2.52.24-1.92.24-5.54.24-9.76v-8.07Z" transform="translate(-18.98 -15.2)"/><path d="M279.41,181.46c0,5.86,0,9,1,9.85.78.69,2,1,5.55,1,2.42,0,4.21,0,5.35-1.29a5.72,5.72,0,0,0,1.2-2.75c0-.41.14-.69.5-.69s.37.24.37.78a34.59,34.59,0,0,1-.7,5.27c-.26,1-.5,1.24-2.88,1.24-3.3,0-5.68-.09-7.74-.14s-3.71-.13-5.59-.13c-.51,0-1.52,0-2.61,0s-2.25.09-3.17.09c-.59,0-.91-.13-.91-.46s.17-.36.73-.36a7.56,7.56,0,0,0,1.65-.19c.92-.18,1.14-1.19,1.33-2.52.23-1.92.23-5.54.23-9.76v-8.07c0-7,0-8.24-.09-9.71s-.46-2.29-2-2.61a6.24,6.24,0,0,0-1.51-.14c-.5,0-.78-.09-.78-.41s.32-.41,1-.41c2.16,0,5,.13,6.28.13s4.45-.13,6.23-.13c.64,0,1,.09,1,.41s-.28.41-.83.41a12.28,12.28,0,0,0-1.78.14c-1.24.22-1.61,1-1.7,2.61s-.09,2.75-.09,9.71v8.08Z" transform="translate(-18.98 -15.2)"/><path d="M115.94,231.56c-.23,0-.32.09-.42.37l-2.47,6.55a8.93,8.93,0,0,0-.69,2.79c0,.83.41,1.43,1.83,1.43h.69c.55,0,.69.09.69.37s-.28.46-.78.46c-1.47,0-3.44-.14-4.86-.14-.5,0-3,.14-5.4.14-.6,0-.88-.1-.88-.46s.19-.37.56-.37,1.05,0,1.42-.09c2.1-.27,3-1.84,3.89-4.13L121,209.71c.55-1.34.83-1.84,1.29-1.84s.68.41,1.14,1.46c1.1,2.52,8.43,21.23,11.37,28.19,1.74,4.13,3.07,4.77,4,5a10.72,10.72,0,0,0,1.92.18c.37,0,.6.05.6.37s-.41.46-2.11.46-5,0-8.66-.1c-.82,0-1.37,0-1.37-.36s.18-.37.64-.42a.74.74,0,0,0,.41-1.05l-3.66-9.71a.45.45,0,0,0-.46-.32H115.94Zm9.35-2.28c.22,0,.27-.14.22-.28l-4.12-11.32c0-.19-.09-.41-.23-.41s-.23.22-.27.41L116.67,229c0,.18,0,.32.18.32Z" transform="translate(-18.98 -15.2)"/><path d="M136.6,213.37c-.55-1.7-1-2.79-1.7-3.26a4.16,4.16,0,0,0-1.83-.4c-.46,0-.73-.05-.73-.42s.37-.41,1-.41c2.39,0,4.91.14,5.32.14s2.43-.14,5.09-.14c.64,0,1,.14,1,.41s-.37.42-.82.42a2.47,2.47,0,0,0-1.15.18c-.41.18-.51.5-.51,1a29.31,29.31,0,0,0,1,4.21c.77,3,5,16.92,5.86,19.47h.14l8.89-23.87c.46-1.28.78-1.65,1.14-1.65s.74.69,1.33,2.15l9.53,23.06h.14c.83-3.08,4.49-15.17,6.1-20.53a9.78,9.78,0,0,0,.46-2.66c0-.73-.42-1.37-2.21-1.37-.45,0-.77-.14-.77-.41s.36-.42,1-.42c2.43,0,4.35.14,4.76.14s2.3-.14,3.81-.14c.5,0,.83.09.83.37s-.24.46-.65.46a4.81,4.81,0,0,0-1.6.23c-1.1.41-1.61,2.24-2.57,4.86-2.11,5.77-6.92,20.34-9.16,27.22-.51,1.6-.73,2.15-1.33,2.15s-.74-.55-1.42-2.24l-9.53-23H158c-.87,2.34-7,18.56-8.93,22.77-.87,1.88-1.1,2.43-1.65,2.43s-.64-.5-1.06-1.69Z" transform="translate(-18.98 -15.2)"/><path d="M187.19,231.56c-.23,0-.33.09-.42.37l-2.47,6.55a8.93,8.93,0,0,0-.69,2.79c0,.83.41,1.43,1.83,1.43h.69c.55,0,.68.09.68.37s-.27.46-.77.46c-1.47,0-3.44-.14-4.86-.14-.51,0-3,.14-5.41.14-.59,0-.87-.1-.87-.46s.18-.37.55-.37,1.05,0,1.42-.09c2.11-.27,3-1.84,3.89-4.13l11.51-28.77c.55-1.34.82-1.84,1.28-1.84s.69.41,1.14,1.46c1.11,2.52,8.44,21.23,11.37,28.19,1.74,4.13,3.07,4.77,4,5a10.64,10.64,0,0,0,1.92.18c.37,0,.6.05.6.37s-.42.46-2.11.46-5,0-8.66-.1c-.82,0-1.37,0-1.37-.36s.18-.37.64-.42a.74.74,0,0,0,.41-1.05l-3.66-9.71a.45.45,0,0,0-.46-.32H187.19Zm9.35-2.28c.23,0,.27-.14.23-.28l-4.13-11.32c0-.19-.09-.41-.23-.41s-.23.22-.27.41L187.92,229c0,.18,0,.32.18.32Z" transform="translate(-18.98 -15.2)"/><path d="M217.43,222.17c0-7,0-8.25-.09-9.72s-.46-2.29-2-2.61a9.41,9.41,0,0,0-1.78-.14c-.5,0-.79-.09-.79-.41s.33-.41,1-.41c2.43,0,5.32.14,6.28.14,1.56,0,5-.14,6.46-.14,2.89,0,6,.27,8.43,2a8,8,0,0,1,3.12,6.28c0,3.39-1.42,6.51-6,10.27,4.08,5.13,7.24,9.21,9.94,12,2.56,2.66,4.45,3,5.13,3.12a7.5,7.5,0,0,0,1.28.14c.37,0,.56.14.56.37s-.32.46-.87.46h-4.36c-2.57,0-3.71-.23-4.9-.88-2-1.05-3.71-3.2-6.28-6.73-1.83-2.52-3.94-5.64-4.53-6.32a1,1,0,0,0-.83-.32l-4-.1c-.22,0-.36.1-.36.37v.64c0,4.27,0,7.89.22,9.81.14,1.33.42,2.34,1.79,2.52a19.16,19.16,0,0,0,2.25.18c.36,0,.55.14.55.37s-.32.46-.92.46c-2.66,0-6-.13-6.73-.13-.87,0-3.76.13-5.6.13-.59,0-.91-.13-.91-.46s.18-.37.73-.37a7,7,0,0,0,1.65-.18c.92-.18,1.15-1.19,1.33-2.52.23-1.92.23-5.54.23-9.77v-8.06Zm5.41,3.61c0,.51.08.7.41.84a12.42,12.42,0,0,0,3.48.45c1.83,0,2.43-.18,3.26-.78,1.37-1,2.69-3.12,2.69-6.87,0-6.51-4.3-8.39-7-8.39a10.47,10.47,0,0,0-2.42.18c-.32.1-.41.28-.41.64v13.93Z" transform="translate(-18.98 -15.2)"/><path d="M252,222.17c0-7,0-8.25-.09-9.72s-.46-2.29-2-2.61a9.61,9.61,0,0,0-1.79-.14c-.5,0-.78-.09-.78-.41s.32-.41,1-.41c2.43,0,5.32.14,6.6.14s4.31-.14,7.05-.14c5.74,0,13.39,0,18.38,5.22a16.34,16.34,0,0,1,4.45,11.64,18.14,18.14,0,0,1-5,12.78c-2.1,2.16-6.87,5.41-15.35,5.41-1.65,0-3.52-.13-5.27-.27s-3.35-.27-4.49-.27c-.5,0-1.52,0-2.61,0s-2.25.1-3.17.1c-.59,0-.91-.14-.91-.46s.18-.38.73-.38a7.67,7.67,0,0,0,1.65-.17c.92-.18,1.15-1.2,1.33-2.52.23-1.93.23-5.55.23-9.77v-8.06Zm5.73,5c0,4.86,0,8.39.09,9.26,0,1.14.13,3,.5,3.48.59.87,2.38,1.83,6,1.83,4.68,0,7.79-.91,10.55-3.3,2.93-2.52,3.84-6.69,3.84-11.41,0-5.82-2.42-9.58-4.39-11.45-4.22-4-9.45-4.58-13-4.58a12.42,12.42,0,0,0-3,.32.83.83,0,0,0-.55.91c-.05,1.56-.05,5.55-.05,9.17v5.77Z" transform="translate(-18.98 -15.2)"/><path d="M289,243c-.74-.32-.87-.54-.87-1.56,0-2.52.18-5.27.22-6s.19-1.19.56-1.19.45.41.45.78a9.76,9.76,0,0,0,.42,2.34c1,3.39,3.71,4.62,6.55,4.62,4.13,0,6.14-2.79,6.14-5.22,0-2.25-.69-4.36-4.49-7.33l-2.1-1.65c-5.05-3.94-6.78-7.15-6.78-10.87,0-5,4.21-8.66,10.58-8.66a21.8,21.8,0,0,1,6.1.79c.4.09.64.23.64.55,0,.59-.18,1.92-.18,5.49,0,1-.15,1.38-.52,1.38s-.45-.27-.45-.83a5.58,5.58,0,0,0-1.19-3,5.82,5.82,0,0,0-5-2.24c-3.39,0-5.45,2-5.45,4.71,0,2.11,1.05,3.72,4.86,6.6l1.28,1c5.54,4.17,7.52,7.33,7.52,11.68a9.23,9.23,0,0,1-4.32,8,13.24,13.24,0,0,1-7.28,1.87A15.72,15.72,0,0,1,289,243Z" transform="translate(-18.98 -15.2)"/></g><g id="Layer_3_copy" data-name="Layer 3 copy"><path class="cls-14" d="M22.35,412.64H34.68q8.34,0,12.25,2.83t3.9,8.55a9.24,9.24,0,0,1-2.38,6.5,11.57,11.57,0,0,1-7,3.34v.19q5.39.79,7.92,3.4a9.92,9.92,0,0,1,2.54,7.24q0,6.21-4.12,9.57t-11.69,3.35H22.35Zm3.14,20h9.9q6.34,0,9.21-2.1t2.88-6.6q0-4.5-3.24-6.52c-2.17-1.36-5.39-2-9.68-2H25.49Zm0,2.77v19.41H36.07q12.48,0,12.49-10.15,0-9.26-13.17-9.26Z" transform="translate(-18.98 -15.2)"/><path class="cls-14" d="M75.21,458.23q-7.29,0-11.37-4.5t-4.07-12.58q0-8,3.94-12.81a13,13,0,0,1,10.61-4.81,11.45,11.45,0,0,1,9.32,4.12q3.42,4.13,3.41,11.2v2.46H63q.06,6.88,3.21,10.52t9,3.63a28.64,28.64,0,0,0,5-.4,30.07,30.07,0,0,0,5.49-1.73v2.77a24.74,24.74,0,0,1-5.23,1.68A28.75,28.75,0,0,1,75.21,458.23Zm-.89-32a10,10,0,0,0-7.75,3.19q-2.92,3.18-3.42,9.18H83.82q0-5.82-2.52-9.09A8.33,8.33,0,0,0,74.32,426.23Z" transform="translate(-18.98 -15.2)"/><path class="cls-14" d="M117.65,448.91a7.94,7.94,0,0,1-3.42,6.9q-3.41,2.42-9.69,2.42-6.71,0-10.64-2.06v-3.3a23.5,23.5,0,0,0,10.64,2.53q5,0,7.52-1.65a5,5,0,0,0,2.57-4.38,5.35,5.35,0,0,0-2-4.25,22.4,22.4,0,0,0-6.73-3.38,38.54,38.54,0,0,1-7-3.12,9.88,9.88,0,0,1-3.06-3,7.36,7.36,0,0,1-1-4,6.87,6.87,0,0,1,3.15-5.94c2.1-1.46,5-2.18,8.82-2.18a26.28,26.28,0,0,1,10.27,2l-1.14,2.77a24,24,0,0,0-9.13-2,13.29,13.29,0,0,0-6.5,1.36,4.15,4.15,0,0,0-2.4,3.75,5.19,5.19,0,0,0,1.87,4.18q1.86,1.57,7.27,3.51a35.74,35.74,0,0,1,6.58,2.94,9.53,9.53,0,0,1,3.1,3A7.33,7.33,0,0,1,117.65,448.91Z" transform="translate(-18.98 -15.2)"/><path class="cls-14" d="M135.72,455.52a23.26,23.26,0,0,0,5-.49v2.46a16.16,16.16,0,0,1-5.1.74q-4.44,0-6.54-2.37c-1.4-1.58-2.11-4.06-2.11-7.45V426.82h-5V425l5-1.38,1.54-7.57h1.57v8.09h9.81v2.65h-9.81V448c0,2.57.45,4.46,1.35,5.69A4.93,4.93,0,0,0,135.72,455.52Z" transform="translate(-18.98 -15.2)"/><path class="cls-14" d="M193,412.64h3.42l-16.83,45h-2.77l-16.76-45h3.35l11.32,30.61q2.58,6.92,3.48,10.39.62-2.31,2.43-7.17Z" transform="translate(-18.98 -15.2)"/><path class="cls-14" d="M202.18,414.88c0-2,.64-2.95,1.94-2.95a1.73,1.73,0,0,1,1.49.77,3.75,3.75,0,0,1,.54,2.18,3.88,3.88,0,0,1-.54,2.19,1.71,1.71,0,0,1-1.49.8C202.82,417.87,202.18,416.87,202.18,414.88Zm3.47,42.73h-3V424.17h3Z" transform="translate(-18.98 -15.2)"/><path class="cls-14" d="M220.53,457.61h-3.05V409.75h3.05Z" transform="translate(-18.98 -15.2)"/><path class="cls-14" d="M235.4,457.61h-3.05V409.75h3.05Z" transform="translate(-18.98 -15.2)"/><path class="cls-14" d="M267.53,457.61l-.77-5.29h-.25a15.92,15.92,0,0,1-5.18,4.57,13.86,13.86,0,0,1-6.29,1.34c-3.28,0-5.84-.85-7.66-2.53a9,9,0,0,1-2.74-7,8.62,8.62,0,0,1,4.08-7.6c2.71-1.8,6.65-2.76,11.79-2.86l6.37-.18v-2.22c0-3.18-.64-5.58-1.94-7.2s-3.37-2.43-6.24-2.43a20.8,20.8,0,0,0-9.63,2.59l-1.14-2.65a25.51,25.51,0,0,1,10.89-2.58c3.67,0,6.42,1,8.23,2.86s2.72,4.88,2.72,8.92v22.24Zm-12.31-2.15q5.36,0,8.45-3.06t3.09-8.51V440.6l-5.85.24q-7,.35-10,2.2a6.35,6.35,0,0,0-3,5.8,6.25,6.25,0,0,0,1.92,4.88A7.84,7.84,0,0,0,255.22,455.46Z" transform="translate(-18.98 -15.2)"/><path class="cls-14" d="M331.57,457.61h-3.16V435.49H302.13v22.12H299v-45h3.13v20h26.28v-20h3.16Z" transform="translate(-18.98 -15.2)"/><path class="cls-14" d="M371.82,440.84q0,8.19-4,12.79t-10.95,4.6a14.17,14.17,0,0,1-7.76-2.13A13.49,13.49,0,0,1,344,450a22.13,22.13,0,0,1-1.79-9.17q0-8.18,4-12.75t10.89-4.56q6.89,0,10.81,4.63T371.82,440.84Zm-26.39,0q0,6.9,3,10.76a11.44,11.44,0,0,0,17.14,0q3-3.87,3-10.76t-3.07-10.73a10.4,10.4,0,0,0-8.59-3.82,10.26,10.26,0,0,0-8.54,3.8Q345.43,433.9,345.43,440.84Z" transform="translate(-18.98 -15.2)"/><path class="cls-14" d="M384.76,457.61h-3.05V409.75h3.05Z" transform="translate(-18.98 -15.2)"/><path class="cls-14" d="M396.16,414.88c0-2,.64-2.95,1.93-2.95a1.74,1.74,0,0,1,1.5.77,3.84,3.84,0,0,1,.53,2.18,4,4,0,0,1-.53,2.19,1.72,1.72,0,0,1-1.5.8C396.8,417.87,396.16,416.87,396.16,414.88Zm3.47,42.73h-3V424.17h3Z" transform="translate(-18.98 -15.2)"/><path class="cls-14" d="M423.7,423.53a14,14,0,0,1,6.28,1.32,12.56,12.56,0,0,1,4.74,4.52h.18c-.12-2.58-.18-5.12-.18-7.6v-12h3v47.86h-2L435,452.5h-.24a12.39,12.39,0,0,1-11,5.73q-6.92,0-10.58-4.31t-3.66-12.55c0-5.79,1.21-10.2,3.63-13.26S419.09,423.53,423.7,423.53Zm0,2.76q-5.47,0-8.23,3.85t-2.75,11.17q0,14.2,11,14.21,5.67,0,8.31-3.29t2.65-10.86v-.53q0-7.74-2.6-11.15C430.38,427.43,427.58,426.29,423.7,426.29Z" transform="translate(-18.98 -15.2)"/><path class="cls-14" d="M469.89,457.61l-.77-5.29h-.24a15.94,15.94,0,0,1-5.19,4.57,13.86,13.86,0,0,1-6.29,1.34c-3.28,0-5.83-.85-7.66-2.53a9,9,0,0,1-2.74-7,8.62,8.62,0,0,1,4.08-7.6q4.08-2.7,11.8-2.86l6.36-.18v-2.22q0-4.77-1.93-7.2t-6.25-2.43a20.86,20.86,0,0,0-9.63,2.59l-1.13-2.65a25.5,25.5,0,0,1,10.88-2.58q5.52,0,8.23,2.86t2.73,8.92v22.24Zm-12.3-2.15A11.48,11.48,0,0,0,466,452.4q3.09-3.06,3.09-8.51V440.6l-5.84.24q-7,.35-10,2.2a6.35,6.35,0,0,0-3,5.8,6.23,6.23,0,0,0,1.93,4.88A7.8,7.8,0,0,0,457.59,455.46Z" transform="translate(-18.98 -15.2)"/><path class="cls-14" d="M478,424.17h3.13l7.08,18.77q3.23,8.64,4.09,11.66h.18q1.31-4,4.22-11.85l7.07-18.58h3.14l-15,38.85a30.65,30.65,0,0,1-3,6.4,8.29,8.29,0,0,1-2.88,2.5,8.83,8.83,0,0,1-4,.83,13.75,13.75,0,0,1-3.91-.65v-2.65a14.32,14.32,0,0,0,3.84.5,5.19,5.19,0,0,0,2.77-.74,6.87,6.87,0,0,0,2.17-2.29,29.79,29.79,0,0,0,2.25-4.93q1.28-3.36,1.64-4.38Z" transform="translate(-18.98 -15.2)"/><path class="cls-14" d="M550.1,414.82q-8.46,0-13.32,5.42t-4.86,14.82q0,9.63,4.58,14.95t13.11,5.32a35.67,35.67,0,0,0,10.4-1.44v2.77a34.14,34.14,0,0,1-11.14,1.57q-9.48,0-14.92-6.13T528.51,435a26.88,26.88,0,0,1,2.59-12.09,18.8,18.8,0,0,1,7.48-8.07A22.06,22.06,0,0,1,549.92,412a27.25,27.25,0,0,1,11.78,2.46l-1.26,2.83A22.87,22.87,0,0,0,550.1,414.82Z" transform="translate(-18.98 -15.2)"/><path class="cls-14" d="M597.55,440.84q0,8.19-4,12.79t-11,4.6a14.13,14.13,0,0,1-7.75-2.13,13.5,13.5,0,0,1-5.14-6.09,22.13,22.13,0,0,1-1.78-9.17q0-8.18,4-12.75t10.89-4.56q6.9,0,10.82,4.63T597.55,440.84Zm-26.39,0q0,6.9,3,10.76a11.43,11.43,0,0,0,17.13,0q3-3.87,3-10.76t-3.06-10.73a10.42,10.42,0,0,0-8.6-3.82,10.23,10.23,0,0,0-8.53,3.8Q571.16,433.9,571.16,440.84Z" transform="translate(-18.98 -15.2)"/><path class="cls-14" d="M649.21,457.61V435.68q0-4.89-1.9-7.14c-1.28-1.5-3.22-2.25-5.85-2.25-3.42,0-6,.95-7.6,2.84S631.4,434,631.4,438v19.6h-3.11V434.75c0-5.63-2.58-8.46-7.75-8.46-3.5,0-6.06,1-7.66,3.07s-2.4,5.3-2.4,9.79v18.46h-3V424.17H610l.65,4.59h.18a9.52,9.52,0,0,1,3.94-3.86,11.64,11.64,0,0,1,5.63-1.37q7.9,0,10.15,5.93h.12a11.46,11.46,0,0,1,4.39-4.4,12.65,12.65,0,0,1,6.26-1.53c3.65,0,6.38,1,8.21,2.92s2.74,5,2.74,9.29v21.87Z" transform="translate(-18.98 -15.2)"/><path class="cls-14" d="M678,458.23q-7.72,0-11.26-5.79h-.21l.09,2.59c.08,1.51.12,3.18.12,5v12.74h-3V424.17h2.58l.59,4.77H667q3.45-5.42,11-5.41,6.76,0,10.32,4.44t3.56,12.94q0,8.23-3.74,12.78A12.52,12.52,0,0,1,678,458.23Zm-.06-2.71a9.3,9.3,0,0,0,8-3.82q2.82-3.81,2.82-10.67,0-14.73-10.65-14.74c-3.89,0-6.76,1.08-8.58,3.22s-2.74,5.63-2.74,10.47v1q0,7.84,2.63,11.2C671.12,454.4,674,455.52,677.93,455.52Z" transform="translate(-18.98 -15.2)"/><path class="cls-14" d="M722.12,457.61l-.77-5.29h-.25a15.92,15.92,0,0,1-5.18,4.57,13.89,13.89,0,0,1-6.29,1.34c-3.28,0-5.84-.85-7.66-2.53a9,9,0,0,1-2.74-7,8.62,8.62,0,0,1,4.08-7.6c2.71-1.8,6.65-2.76,11.79-2.86l6.37-.18v-2.22q0-4.77-1.94-7.2t-6.24-2.43a20.8,20.8,0,0,0-9.63,2.59l-1.14-2.65a25.51,25.51,0,0,1,10.89-2.58q5.51,0,8.23,2.86t2.72,8.92v22.24Zm-12.31-2.15q5.36,0,8.45-3.06t3.09-8.51V440.6l-5.85.24q-7,.35-10,2.2a6.35,6.35,0,0,0-3,5.8,6.25,6.25,0,0,0,1.92,4.88A7.8,7.8,0,0,0,709.81,455.46Z" transform="translate(-18.98 -15.2)"/><path class="cls-14" d="M759.14,457.61V435.92c0-3.36-.71-5.81-2.12-7.33s-3.61-2.3-6.59-2.3c-4,0-6.92,1-8.78,3s-2.78,5.29-2.78,9.82v18.46h-3V424.17h2.59l.58,4.59h.18q3.27-5.24,11.6-5.23,11.38,0,11.38,12.21v21.87Z" transform="translate(-18.98 -15.2)"/><path class="cls-14" d="M768,424.17h3.14l7.08,18.77q3.22,8.64,4.09,11.66h.18q1.29-4,4.22-11.85l7.07-18.58h3.14L782,463a30,30,0,0,1-3.05,6.4,8.26,8.26,0,0,1-2.87,2.5,8.84,8.84,0,0,1-4,.83,13.68,13.68,0,0,1-3.9-.65v-2.65a14.26,14.26,0,0,0,3.84.5,5.19,5.19,0,0,0,2.77-.74,7,7,0,0,0,2.17-2.29,30.8,30.8,0,0,0,2.24-4.93q1.27-3.36,1.65-4.38Z" transform="translate(-18.98 -15.2)"/></g></svg>