<svg id="Layer_1" data-name="Layer 1" xmlns="http://www.w3.org/2000/svg" viewBox="0 0 109.26 53"><defs><style>.cls-1{fill:#1679bf;}.cls-2{fill:#ea272a;}.cls-3{fill:#020202;}</style></defs><title>ABTA_Mobile</title><path class="cls-1" d="M16.56,1A9.94,9.94,0,0,0,15.22,1v2.3h0V28.55h0v.9c.44,0,.89.06,1.34.06A14.28,14.28,0,0,0,16.56,1ZM21.8,16.54a19.56,19.56,0,0,1-.36,2.66H18.08V16.54Zm-3.7-2.67V11.2h3.33a18.83,18.83,0,0,1,.37,2.67Zm6.5,2.67H28a11.44,11.44,0,0,1-.62,2.66h-3.1a18.09,18.09,0,0,0,.35-2.66Zm0-2.67a18.83,18.83,0,0,0-.37-2.67H27.3a10.72,10.72,0,0,1,.64,2.67Zm1.27-5.33H23.44A18.28,18.28,0,0,0,21.62,5a11.72,11.72,0,0,1,4.23,3.58Zm-5.21,0H18.08V3.89a17.31,17.31,0,0,1,2.56,4.65ZM18.08,26.63V21.87h2.59A17,17,0,0,1,18.08,26.63Zm3.57-1.09a16.82,16.82,0,0,0,1.82-3.62h2.42a11.44,11.44,0,0,1-4.24,3.57Z"/><path class="cls-1" d="M62.56,27.79h-7.5V4.17h7.38c4.77,0,7,3.26,7,6.13a5.26,5.26,0,0,1-2.83,4.91v.07a5.19,5.19,0,0,1,4.33,5.35C70.94,24,68.5,27.79,62.56,27.79Zm-.76-20H59.4V14h2.29a3.13,3.13,0,0,0,3.36-2.9c0-.1,0-.22,0-.33C65.06,9.08,63.92,7.83,61.8,7.83Zm.82,9.78H59.4v6.53h2.76c2.9,0,4.33-1.3,4.33-3.44,0-1.84-1.4-3.07-3.83-3.07Z"/><path class="cls-1" d="M88.34,7.79H82.05v20H77.68v-20H70.8V4.17h19Z"/><path class="cls-1" d="M48.46,27.79l-2.33-5.92H37.69L35.5,27.79H31.16L40.3,4.16h3.25L53,27.79ZM42.86,12.9A24.94,24.94,0,0,1,42,10h0a19,19,0,0,1-.86,2.87l-2,5.5h5.7Z"/><path class="cls-1" d="M102.58,27.79l-2.33-5.92H91.8l-2.18,5.92H85.27L94.41,4.16h3.26l9.46,23.63ZM97,12.9a24.94,24.94,0,0,1-.9-2.94h0a17.88,17.88,0,0,1-.86,2.87l-2,5.5H99Z"/><path class="cls-2" d="M13.87,12.54V11.46L7,4.63C6.65,5,6.29,5.34,6,5.71l6.85,6.83Z"/><path class="cls-2" d="M13.87,17.85v1.08L7,25.77A12.23,12.23,0,0,1,6,24.69l6.85-6.84Z"/><path class="cls-2" d="M13.87,13.9H2.34c0,.44-.06.88-.06,1.33a9.79,9.79,0,0,0,.06,1.33H13.87Z"/><path class="cls-1" d="M5.2,6.63a14.19,14.19,0,0,0-2.64,5.93h8.58Z"/><path class="cls-1" d="M13.87,9.8V1.23A14.45,14.45,0,0,0,7.94,3.87Z"/><path class="cls-1" d="M7.94,26.52a14.19,14.19,0,0,0,5.93,2.64V20.63Z"/><path class="cls-1" d="M11.14,17.85H2.56A14.08,14.08,0,0,0,5.2,23.78Z"/><path class="cls-3" d="M7.61,41.63l4,10.21H10.1L9,48.76H4.67L3.52,51.84H2.13l4-10.21Zm1,6L6.9,42.87h0L5.09,47.63Z"/><path class="cls-3" d="M16.51,41.63H18l.69.1a1.76,1.76,0,0,1,.55.22,2.73,2.73,0,0,1,.86.83,2.32,2.32,0,0,1,.35,1.3,2.49,2.49,0,0,1-.4,1.41,2.21,2.21,0,0,1-1.12.88h0a2.4,2.4,0,0,1,1.45.86,2.58,2.58,0,0,1,.5,1.6,3.06,3.06,0,0,1-.2,1.09,2.76,2.76,0,0,1-.6.93,3,3,0,0,1-1,.66,3.08,3.08,0,0,1-1.34.25H12.8V41.63ZM16.88,46a2.66,2.66,0,0,0,1.67-.39,1.48,1.48,0,0,0,.51-1.22,1.84,1.84,0,0,0-.17-.86,1.33,1.33,0,0,0-.48-.49,2.06,2.06,0,0,0-.69-.22q-.42,0-.84,0H14.16v3.25Zm.69,4.68A2,2,0,0,0,19,50.21a1.73,1.73,0,0,0,.51-1.35A1.7,1.7,0,0,0,19.3,48a1.55,1.55,0,0,0-.49-.53,2.27,2.27,0,0,0-.71-.27,5.69,5.69,0,0,0-.83-.08H14.16V50.7Z"/><path class="cls-3" d="M21.72,42.77V41.63h8.17v1.14H26.48v9.07H25.12V42.77Z"/><path class="cls-3" d="M34.18,41.63l4,10.21h-1.5l-1.12-3.08H31.23l-1.14,3.08H28.7l4-10.21Zm.94,6-1.7-4.76h0l-1.76,4.76Z"/><path class="cls-3" d="M45,41.63l5.38,8.28h0V41.63h1.29V51.84H50.16l-5.31-8.21h0v8.2H43.57V41.63Z"/><path class="cls-3" d="M53.71,46.63a3.28,3.28,0,0,1,1.81-2.06,4.15,4.15,0,0,1,3.1,0,3.36,3.36,0,0,1,1.81,2.06,5.11,5.11,0,0,1,0,3,3.36,3.36,0,0,1-.69,1.22,2.81,2.81,0,0,1-1.12.81,3.6,3.6,0,0,1-1.55.3,3.76,3.76,0,0,1-1.55-.3,3,3,0,0,1-1.13-.81,3.49,3.49,0,0,1-.68-1.22,5.11,5.11,0,0,1,0-3Zm1.23,2.71a2.55,2.55,0,0,0,.5.88,2.2,2.2,0,0,0,1.63.72,2,2,0,0,0,.89-.19,2.15,2.15,0,0,0,.74-.53,2.38,2.38,0,0,0,.49-.88,4,4,0,0,0,0-2.38,2.55,2.55,0,0,0-.49-.88,2.16,2.16,0,0,0-3.26,0,2.75,2.75,0,0,0-.5.88A4.19,4.19,0,0,0,54.94,49.34Z"/><path class="cls-3" d="M64.15,50.25v1.59H62.56V50.25Z"/><path class="cls-3" d="M70.89,51.84H69.53V47.63l-4-6H67.2l3.06,4.86,3-4.86H74.8l-3.9,6v4.21Z"/><path class="cls-3" d="M80.42,43.19a1.7,1.7,0,0,0-1.18-.42,2,2,0,0,0-1.24.38,2.59,2.59,0,0,0-.74,1,4.59,4.59,0,0,0-.36,1.25,10.2,10.2,0,0,0-.1,1.23h0a2.71,2.71,0,0,1,1.07-1,3.36,3.36,0,0,1,1.46-.31,3.25,3.25,0,0,1,1.31.25,2.89,2.89,0,0,1,1,.69,3.21,3.21,0,0,1,.6,1,3.63,3.63,0,0,1,.22,1.3,4.07,4.07,0,0,1-.17,1.16,3.16,3.16,0,0,1-.57,1.09,2.83,2.83,0,0,1-1,.82,3.6,3.6,0,0,1-1.61.32,3,3,0,0,1-2.88-1.63,4.77,4.77,0,0,1-.49-1.58,11.48,11.48,0,0,1-.12-1.66,11.19,11.19,0,0,1,.18-2,5.54,5.54,0,0,1,.6-1.74,3.5,3.5,0,0,1,1.15-1.21,3.34,3.34,0,0,1,1.8-.46,3,3,0,0,1,2,.66,2.78,2.78,0,0,1,.86,1.93H81A1.81,1.81,0,0,0,80.42,43.19Zm-2.21,3.38a2.1,2.1,0,0,0-.65.49,1.92,1.92,0,0,0-.41.72,3.13,3.13,0,0,0-.14.9,2.64,2.64,0,0,0,.15.89,2.07,2.07,0,0,0,.4.71,2.18,2.18,0,0,0,2.43.48,1.62,1.62,0,0,0,.64-.49,2,2,0,0,0,.39-.73,2.23,2.23,0,0,0,.14-.85A3.35,3.35,0,0,0,81,47.8a1.88,1.88,0,0,0-1-1.22,2.14,2.14,0,0,0-.9-.19,2.38,2.38,0,0,0-.91.18Z"/><path class="cls-3" d="M83.8,45.7a7.78,7.78,0,0,1,.14-1.17,7.18,7.18,0,0,1,.33-1.09,3,3,0,0,1,.59-.9,2.78,2.78,0,0,1,.93-.61,4.19,4.19,0,0,1,2.71,0,2.78,2.78,0,0,1,.93.61,3,3,0,0,1,.59.9,7.18,7.18,0,0,1,.33,1.09,7.78,7.78,0,0,1,.14,1.17V48a7.48,7.48,0,0,1-.14,1.17A5,5,0,0,1,90,50.27a2.87,2.87,0,0,1-.59.9,2.39,2.39,0,0,1-.93.61,3.73,3.73,0,0,1-1.36.22,3.65,3.65,0,0,1-1.35-.22,2.51,2.51,0,0,1-.93-.61,2.87,2.87,0,0,1-.59-.9,5,5,0,0,1-.33-1.08A7.48,7.48,0,0,1,83.8,48V45.7Zm1.29,2.43a5.37,5.37,0,0,0,.23,1.33,2.49,2.49,0,0,0,.62,1,1.89,1.89,0,0,0,2.41,0,2.49,2.49,0,0,0,.62-1,5.37,5.37,0,0,0,.23-1.33V46c0-.3,0-.6-.07-.91s-.11-.59-.19-.88a2.47,2.47,0,0,0-.36-.75A2,2,0,0,0,88,43a2.06,2.06,0,0,0-1.75,0,2,2,0,0,0-.59.52,2.73,2.73,0,0,0-.36.75,6.87,6.87,0,0,0-.18.88A7.14,7.14,0,0,0,85,46v.82c0,.38,0,.78.07,1.28Z"/><path class="cls-3" d="M93.85,50.54a1.92,1.92,0,0,0,1.26.4,1.77,1.77,0,0,0,1.67-1,6.32,6.32,0,0,0,.62-3h0a2.63,2.63,0,0,1-2.35,1.4,3.4,3.4,0,0,1-1.37-.25,2.65,2.65,0,0,1-1-.69,2.72,2.72,0,0,1-.61-1.07A4.57,4.57,0,0,1,91.86,45a3.87,3.87,0,0,1,.24-1.34,3.09,3.09,0,0,1,.69-1,3.27,3.27,0,0,1,1.06-.68,3.83,3.83,0,0,1,1.34-.24,4.11,4.11,0,0,1,1.35.22,2.66,2.66,0,0,1,1.1.76,4.27,4.27,0,0,1,.75,1.49,8.34,8.34,0,0,1,.28,2.38,8,8,0,0,1-.84,4A2.87,2.87,0,0,1,95.15,52,3.35,3.35,0,0,1,93,51.3a2.59,2.59,0,0,1-1-2h1.22A1.55,1.55,0,0,0,93.85,50.54Zm3.2-6.34a2.54,2.54,0,0,0-.4-.74A2.15,2.15,0,0,0,94.17,43a1.59,1.59,0,0,0-.61.54,2.39,2.39,0,0,0-.35.76,3.94,3.94,0,0,0-.1.9,2.2,2.2,0,0,0,.15.81,2.47,2.47,0,0,0,.41.68,2,2,0,0,0,.63.48,1.63,1.63,0,0,0,.81.18,1.82,1.82,0,0,0,.86-.18A2,2,0,0,0,97,45.94a2.45,2.45,0,0,0,.14-.85A3,3,0,0,0,97.05,44.2Z"/><path class="cls-3" d="M102.73,46.06h.4a2.08,2.08,0,0,0,.74-.11,1.58,1.58,0,0,0,.62-.31,1.52,1.52,0,0,0,.58-1.24,1.48,1.48,0,0,0-.52-1.22,2,2,0,0,0-1.29-.41,2.09,2.09,0,0,0-.85.18,1.87,1.87,0,0,0-.6.48,2.09,2.09,0,0,0-.35.7,3,3,0,0,0-.11.84h-1.22a4.66,4.66,0,0,1,.24-1.33,3,3,0,0,1,.59-1,2.84,2.84,0,0,1,1-.67,3.77,3.77,0,0,1,1.33-.24,4.61,4.61,0,0,1,1.23.16,3.35,3.35,0,0,1,1,.5,2.41,2.41,0,0,1,.65.84,3,3,0,0,1,.23,1.22,1.88,1.88,0,0,1-.4,1.21,2.36,2.36,0,0,1-1,.8h0a2.2,2.2,0,0,1,1.38.87,2.82,2.82,0,0,1,.45,1.59,2.91,2.91,0,0,1-.28,1.34,2.57,2.57,0,0,1-.75,1,3.19,3.19,0,0,1-1.11.58,4.74,4.74,0,0,1-1.35.19,3.91,3.91,0,0,1-1.4-.22,2.71,2.71,0,0,1-1.07-.63,2.58,2.58,0,0,1-.68-1,3.67,3.67,0,0,1-.22-1.4h1.21a2.53,2.53,0,0,0,.57,1.61,2,2,0,0,0,1.59.62,2.45,2.45,0,0,0,.85-.14,2.17,2.17,0,0,0,.7-.38,1.82,1.82,0,0,0,.48-.62,1.88,1.88,0,0,0,.17-.82,1.92,1.92,0,0,0-.17-.84,1.79,1.79,0,0,0-.45-.61,2.14,2.14,0,0,0-.68-.37,2.8,2.8,0,0,0-.86-.13c-.24,0-.48,0-.72,0v-1Z"/></svg>