<svg id="Layer_1" data-name="Layer 1" xmlns="http://www.w3.org/2000/svg" viewBox="0 0 53 53"><defs><style>.cls-1{fill:#0593b3;}.cls-2{fill:#fafdff;}</style></defs><title>ATOL_Mobile</title><path class="cls-1" d="M36.35,30a10.52,10.52,0,0,1-8.74-5.85c-4-8,4.33-12.26,4.33-12.26l7.36,1.32Z"/><path class="cls-1" d="M1.72,22.58A25,25,0,0,0,22.85,51.25,25.4,25.4,0,0,0,51.28,31.34a25.41,25.41,0,0,0-25-29.84A24.45,24.45,0,0,0,1.85,22.15ZM22.3,49.91A23.77,23.77,0,1,1,49.86,30.63h0A23.81,23.81,0,0,1,22.3,49.91Z"/><path class="cls-1" d="M4.67,32a2.32,2.32,0,0,0-.12-.57,5.1,5.1,0,0,0-.19-.55l5.16-1.41L10,31.3c.29,1,0,1.72-.83,2-1.34.28-1.89-.58-2.26-1.93Zm2.63-.73a3.19,3.19,0,0,0,.19.48,1,1,0,0,0,1.21.39c.6-.16.91-.58.81-1l-.13-.46Z"/><path class="cls-1" d="M10.79,33.58,11.63,35a3.29,3.29,0,0,1,.5,1.17,1.17,1.17,0,0,1-.62,1.15A1.39,1.39,0,0,1,9.69,37c-.43.75-.8,1.53-1.19,2.3l-.27.51c-.1-.21-.2-.43-.32-.63s-.26-.4-.39-.59L8.46,37c.12-.21.32-.58.49-.87v0L6.76,37.32c-.08-.17-.16-.35-.26-.52a4.07,4.07,0,0,0-.33-.48ZM9.21,35.89a1,1,0,0,0,1.25.66.87.87,0,0,0,.33-.17,2.35,2.35,0,0,0,.32-.23c.5-.44.14-.91-.1-1.32Z"/><path class="cls-1" d="M11.54,43.43a2.64,2.64,0,0,1-.61-3.69,2.61,2.61,0,0,1,.27-.31,2.82,2.82,0,0,1,4-.28l.19.19A2.64,2.64,0,0,1,16,43a2.69,2.69,0,0,1-.27.32,2.84,2.84,0,0,1-4,.24Zm.49-3a1.83,1.83,0,0,0-.15,2.65c.85.77,2.1.24,2.95-.73.66-.76,1.07-1.93.19-2.71s-1.84-.49-3,.82Z"/><path class="cls-1" d="M18.08,47.36a5.12,5.12,0,0,0-.52-.27c-.18-.08-.37-.13-.56-.2l1.91-4.4A9.76,9.76,0,0,0,17.53,42a2.28,2.28,0,0,0,.17-.3,1.86,1.86,0,0,0,.1-.31L21.48,43c-.05.1-.12.19-.16.29a1.7,1.7,0,0,0-.1.32A9.75,9.75,0,0,0,20,43Z"/><path class="cls-1" d="M25.21,43.65a1.7,1.7,0,0,0-.1.32v.34a10.3,10.3,0,0,0-1.81-.41l-.25,1.68.8.14a8.26,8.26,0,0,0,1,.09,1.68,1.68,0,0,0-.09.32,1.93,1.93,0,0,0,0,.34,6.14,6.14,0,0,0-.94-.23L23,46.1l-.34,2c.6.09,1.2.16,1.8.19a1.7,1.7,0,0,1-.1.32,1.93,1.93,0,0,0,0,.34l-2.93-.5.84-5.3Z"/><path class="cls-1" d="M30.79,47.75l-.11.68a3.48,3.48,0,0,1-1.5.48A2.69,2.69,0,0,1,26,46.79l0-.21a2.83,2.83,0,0,1,2.38-3.22,3.11,3.11,0,0,1,.43,0,3.28,3.28,0,0,1,1.61.23l-.12.82h-.11a1.65,1.65,0,0,0-1.36-.59c-1.29.12-1.69,1.41-1.58,2.55.13,1.32.87,2.19,2.07,2.08a2.22,2.22,0,0,0,1.33-.72Z"/><path class="cls-1" d="M35.21,47.2c-.19.06-.38.11-.56.18a3.65,3.65,0,0,0-.53.25l-1.75-4.47a10.51,10.51,0,0,0-1.31.63,1,1,0,0,0-.09-.32,1.64,1.64,0,0,0-.16-.29l3.74-1.47c0,.11.05.21.08.32s.11.2.17.3a9.13,9.13,0,0,0-1.35.41Z"/><path class="cls-1" d="M37.65,39.58a1.64,1.64,0,0,0,.16.29,2.75,2.75,0,0,0,.22.26,10,10,0,0,0-1.53.94l1,1.37.66-.46a7.27,7.27,0,0,0,.74-.61l.16.29a2.73,2.73,0,0,0,.23.25,8.7,8.7,0,0,0-.83.5l-.66.47,1.14,1.62a15.12,15.12,0,0,0,1.36-1.16c0,.1.1.2.16.3a2.73,2.73,0,0,0,.23.25L38.3,45.58l-3.06-4.34Z"/><path class="cls-1" d="M40.07,36.87a2.3,2.3,0,0,1,3.22-.47l.21.18a2.66,2.66,0,0,1,.67,3.71,3.25,3.25,0,0,1-.23.29L42.58,42.3,38.42,39ZM43,41.06l.41-.52c.67-.85.75-1.82-.68-3-1.15-.91-2-.73-2.72.14l-.47.6Z"/><path class="cls-1" d="M21.2,9.21l.16-.86L22,7.93c.28-.18.56-.38.85-.61a5.42,5.42,0,0,0,.8-.71,1.48,1.48,0,0,0,.4-.72.62.62,0,0,0-.16-.58,1,1,0,0,0-.54-.26,1.72,1.72,0,0,0-.64,0,2.72,2.72,0,0,0-.61.2l.07-.86a3.3,3.3,0,0,1,1.56-.1A1.38,1.38,0,0,1,25.09,5.7a1.49,1.49,0,0,1-.05.36,2.11,2.11,0,0,1-.31.76,3.47,3.47,0,0,1-.6.67,15.35,15.35,0,0,1-1.52,1.13L24.69,9l-.14.8Z"/><path class="cls-1" d="M25.58,9a3.08,3.08,0,0,0,1.06.43H27l.36-.07a.67.67,0,0,0,.3-.19.66.66,0,0,0,.16-.31.73.73,0,0,0-.19-.69,1.53,1.53,0,0,0-.76-.3l-.48-.09L26.52,7l.45.07a1.67,1.67,0,0,0,.83,0,.57.57,0,0,0,.39-.49.65.65,0,0,0,0-.34A.58.58,0,0,0,28,6a1.2,1.2,0,0,0-.57-.24,2.33,2.33,0,0,0-1.17.1L26.39,5a3.45,3.45,0,0,1,1.43,0,2.83,2.83,0,0,1,.5.13,1.92,1.92,0,0,1,.5.29,1.08,1.08,0,0,1,.34.47,1.28,1.28,0,0,1,.05.7,1.22,1.22,0,0,1-.41.75,1.94,1.94,0,0,1-.76.31h0a1.06,1.06,0,0,1,.66.53,1.27,1.27,0,0,1,.1.86,1.9,1.9,0,0,1-.3.72,1.64,1.64,0,0,1-.55.38l-.31.08-.34.05a3.64,3.64,0,0,1-.66,0,5.08,5.08,0,0,1-1.27-.4Z"/><path class="cls-1" d="M29.3,10.64l.15-.86.65-.42a8.64,8.64,0,0,0,.85-.6,6.85,6.85,0,0,0,.8-.72,1.56,1.56,0,0,0,.4-.72A.65.65,0,0,0,32,6.75a1,1,0,0,0-.55-.27,1.72,1.72,0,0,0-.64,0,3,3,0,0,0-.6.2l.1-.85a3.25,3.25,0,0,1,1.55-.1,1.39,1.39,0,0,1,1.37,1.43,1.33,1.33,0,0,1,0,.34,2,2,0,0,1-.32.76,3.53,3.53,0,0,1-.6.68,17,17,0,0,1-1.51,1.13l2.08.36-.15.8Z"/><path class="cls-1" d="M33.71,10.44a2.89,2.89,0,0,0,1.06.43,2,2,0,0,0,.35,0,2.29,2.29,0,0,0,.36-.07.85.85,0,0,0,.3-.19.51.51,0,0,0,.15-.3.71.71,0,0,0-.19-.69A1.6,1.6,0,0,0,35,9.31l-.49-.09.15-.79.45.15a1.47,1.47,0,0,0,.83,0A.61.61,0,0,0,36.3,8a.65.65,0,0,0,0-.34.45.45,0,0,0-.16-.24,1,1,0,0,0-.57-.25,2.36,2.36,0,0,0-1.15.08l.08-.83a3.8,3.8,0,0,1,2,.12,1.54,1.54,0,0,1,.49.3,1,1,0,0,1,.35.46,1.42,1.42,0,0,1,0,.71,1.22,1.22,0,0,1-.41.74,1.94,1.94,0,0,1-.76.31h0a1,1,0,0,1,.66.52,1.41,1.41,0,0,1,.09.86,1.34,1.34,0,0,1-.79,1.1l-.31.07-.34,0a3.64,3.64,0,0,1-.66,0,4.7,4.7,0,0,1-1.27-.4Z"/><path class="cls-1" d="M34.48,35.82l.08-.45-2.43-.43.36-2-1-.18-.44,2.48Zm-13-4.42,1.47.27-.36,2,1,.18.36-2,1.47.26.08-.44-4-.71Zm-2.57-.32.45,1.09-1.31-.24-.34.39,1.86.33.22.56,1.11.2-1.27-2.83-1.17-.21L16.3,32.58l1.08.19ZM24.58,27a14.71,14.71,0,0,0,11.54,4.27L34.75,38.9,14.16,35.28l4.53-25.7,4.06.72c-3.06,5.52-3,11.57,1.85,16.65Z"/><ellipse class="cls-2" cx="28.22" cy="33.57" rx="1.26" ry="2.35" transform="translate(-9.56 55.85) rotate(-80.47)"/><ellipse class="cls-1" cx="28.21" cy="33.56" rx="0.87" ry="1.35" transform="translate(-9.55 55.82) rotate(-80.47)"/></svg>