<svg id="Layer_1" data-name="Layer 1" xmlns="http://www.w3.org/2000/svg" xmlns:xlink="http://www.w3.org/1999/xlink" viewBox="0 0 52 52"><defs><style>.cls-1{fill:url(#linear-gradient);}.cls-2{fill:url(#linear-gradient-2);}.cls-3{fill:url(#linear-gradient-3);}.cls-4{fill:url(#linear-gradient-4);}.cls-5{fill:url(#linear-gradient-5);}.cls-6{fill:url(#linear-gradient-6);}.cls-7{fill:url(#linear-gradient-7);}.cls-8{fill:url(#linear-gradient-8);}.cls-9{fill:url(#linear-gradient-9);}.cls-10{fill:url(#linear-gradient-10);}.cls-11{fill:url(#linear-gradient-11);}.cls-12{fill:url(#linear-gradient-12);}.cls-13{fill:url(#linear-gradient-13);}.cls-14{fill:url(#linear-gradient-14);}.cls-15{fill:url(#linear-gradient-15);}.cls-16{fill:url(#linear-gradient-16);}.cls-17{fill:#fff;}.cls-18{fill:url(#linear-gradient-17);}</style><linearGradient id="linear-gradient" x1="32.47" y1="29.54" x2="32.47" y2="11.43" gradientUnits="userSpaceOnUse"><stop offset="0" stop-color="#005c98"/><stop offset="1" stop-color="#009ab7"/></linearGradient><linearGradient id="linear-gradient-2" x1="26.01" y1="51.45" x2="26.01" y2="0.64" xlink:href="#linear-gradient"/><linearGradient id="linear-gradient-3" x1="6.8" y1="32.9" x2="6.8" y2="28.99" xlink:href="#linear-gradient"/><linearGradient id="linear-gradient-4" x1="8.71" y1="39.34" x2="8.71" y2="33.12" xlink:href="#linear-gradient"/><linearGradient id="linear-gradient-5" x1="13.02" y1="43.84" x2="13.02" y2="38" xlink:href="#linear-gradient"/><linearGradient id="linear-gradient-6" x1="18.8" y1="46.9" x2="18.8" y2="40.95" xlink:href="#linear-gradient"/><linearGradient id="linear-gradient-7" x1="22.89" y1="48.49" x2="22.89" y2="42.69" xlink:href="#linear-gradient"/><linearGradient id="linear-gradient-8" x1="27.95" y1="48.51" x2="27.95" y2="42.89" xlink:href="#linear-gradient"/><linearGradient id="linear-gradient-9" x1="32.57" y1="47.17" x2="32.57" y2="41.25" xlink:href="#linear-gradient"/><linearGradient id="linear-gradient-10" x1="37.52" y1="45.12" x2="37.52" y2="39.12" xlink:href="#linear-gradient"/><linearGradient id="linear-gradient-11" x1="41.1" y1="41.84" x2="41.1" y2="35.48" xlink:href="#linear-gradient"/><linearGradient id="linear-gradient-12" x1="22.7" y1="9.29" x2="22.7" y2="3.78" xlink:href="#linear-gradient"/><linearGradient id="linear-gradient-13" x1="26.86" y1="9.86" x2="26.86" y2="4.5" xlink:href="#linear-gradient"/><linearGradient id="linear-gradient-14" x1="30.82" y1="10.77" x2="30.82" y2="5.22" xlink:href="#linear-gradient"/><linearGradient id="linear-gradient-15" x1="34.98" y1="11.22" x2="34.98" y2="5.93" xlink:href="#linear-gradient"/><linearGradient id="linear-gradient-16" x1="24.7" y1="38.44" x2="24.7" y2="9.12" xlink:href="#linear-gradient"/><linearGradient id="linear-gradient-17" x1="27.77" y1="33.99" x2="27.77" y2="32.22" gradientTransform="translate(55.82 0.24) rotate(80.47)" xlink:href="#linear-gradient"/></defs><title>ATOL_Mob</title><path class="cls-1" d="M35.91,29.54a10.48,10.48,0,0,1-8.74-5.85c-4-8,4.33-12.26,4.33-12.26l7.36,1.32Z"/><path class="cls-2" d="M.86,22.47a25.5,25.5,0,1,0,.3-1.66C1,21.36.94,21.91.86,22.47Zm21,27A23.77,23.77,0,1,1,49.42,30.17h0A23.8,23.8,0,0,1,21.86,49.45Z"/><path class="cls-3" d="M4.23,31.52A2.9,2.9,0,0,0,4.11,31c-.05-.18-.12-.37-.19-.55L9.08,29l.5,1.85c.29,1,0,1.72-.83,2-1.34.28-1.89-.58-2.26-1.93Zm2.63-.73a2.53,2.53,0,0,0,.19.48,1,1,0,0,0,1.21.39c.6-.16.91-.58.81-1l-.13-.46Z"/><path class="cls-4" d="M10.35,33.12l.84,1.43a3.45,3.45,0,0,1,.5,1.17,1.16,1.16,0,0,1-.62,1.15,1.38,1.38,0,0,1-1.82-.34c-.43.75-.8,1.53-1.19,2.3l-.27.51c-.1-.21-.2-.43-.32-.63s-.26-.4-.39-.59L8,36.49c.12-.21.32-.58.49-.87h0L6.32,36.86c-.08-.17-.16-.35-.26-.52s-.21-.32-.33-.48ZM8.77,35.43a1,1,0,0,0,1.25.66.87.87,0,0,0,.33-.17,1.72,1.72,0,0,0,.32-.23c.5-.44.14-.91-.1-1.32Z"/><path class="cls-5" d="M11.1,43a2.64,2.64,0,0,1-.61-3.68,2.69,2.69,0,0,1,.27-.32,2.83,2.83,0,0,1,4-.28h0l.19.18a2.64,2.64,0,0,1,.61,3.68,1.69,1.69,0,0,1-.27.32,2.83,2.83,0,0,1-4,.24Zm.49-3a1.83,1.83,0,0,0-.21,2.58l.06.07c.85.77,2.1.24,3-.73.66-.76,1.07-1.93.19-2.71s-1.84-.49-3,.82Z"/><path class="cls-6" d="M17.64,46.9a5.12,5.12,0,0,0-.52-.27c-.18-.08-.37-.13-.56-.2L18.47,42a11.21,11.21,0,0,0-1.38-.47,1.46,1.46,0,0,0,.17-.3,1.6,1.6,0,0,0,.1-.31L21,42.54c-.05.1-.12.19-.16.29a2,2,0,0,0-.1.32,13.25,13.25,0,0,0-1.24-.65Z"/><path class="cls-7" d="M24.77,43.19a2,2,0,0,0-.1.32v.34a11.28,11.28,0,0,0-1.81-.41l-.25,1.68.8.14a8.26,8.26,0,0,0,1,.09,2.23,2.23,0,0,0-.09.32,1.93,1.93,0,0,0,0,.34,7.58,7.58,0,0,0-.94-.23l-.79-.14-.34,2a13.56,13.56,0,0,0,1.8.19,1.7,1.7,0,0,1-.1.32,1.93,1.93,0,0,0,0,.34L21,48l.84-5.3Z"/><path class="cls-8" d="M30.35,47.29l-.11.68a3.36,3.36,0,0,1-1.5.48,2.68,2.68,0,0,1-3.15-2.1h0v-.22A2.84,2.84,0,0,1,28,42.9h.43a3.53,3.53,0,0,1,1.61.23l-.15.79h-.11a1.69,1.69,0,0,0-1.36-.59c-1.29.12-1.69,1.41-1.58,2.55.13,1.32.87,2.19,2.07,2.08a2.2,2.2,0,0,0,1.33-.72Z"/><path class="cls-9" d="M34.77,46.74c-.19.06-.38.11-.56.18l-.53.25L31.93,42.7a10.51,10.51,0,0,0-1.31.63,1,1,0,0,0-.09-.32,2.09,2.09,0,0,0-.16-.29l3.74-1.47a.48.48,0,0,0,.08.32,3.18,3.18,0,0,1,.17.3,10.51,10.51,0,0,0-1.35.41Z"/><path class="cls-10" d="M37.21,39.12a1.35,1.35,0,0,0,.16.29,1.88,1.88,0,0,0,.22.26,10.81,10.81,0,0,0-1.53.94l1,1.37.66-.46a6.15,6.15,0,0,0,.74-.61,2.69,2.69,0,0,0,.16.29,1.84,1.84,0,0,0,.23.25c-.29.16-.56.32-.83.5l-.66.47L38.5,44a13.46,13.46,0,0,0,1.36-1.16c0,.1.1.2.16.3a1.84,1.84,0,0,0,.23.25l-2.39,1.69L34.8,40.78Z"/><path class="cls-11" d="M39.63,36.41a2.3,2.3,0,0,1,3.22-.47h0l.21.18a2.68,2.68,0,0,1,.67,3.72,2.15,2.15,0,0,1-.23.28l-1.36,1.72L38,38.54Zm2.89,4.19.41-.52c.67-.85.75-1.82-.68-3-1.15-.91-2-.73-2.72.14l-.47.6Z"/><path class="cls-12" d="M20.76,8.75l.16-.86.64-.42c.28-.18.56-.38.85-.61a4.9,4.9,0,0,0,.8-.71,1.39,1.39,0,0,0,.4-.72.63.63,0,0,0-.16-.58,1,1,0,0,0-.54-.26,2.29,2.29,0,0,0-.64,0,3.11,3.11,0,0,0-.61.2l.07-.86a3.43,3.43,0,0,1,1.56-.1,1.39,1.39,0,0,1,1.36,1.4v0a1.34,1.34,0,0,1,0,.35,2,2,0,0,1-.31.76,3.2,3.2,0,0,1-.6.67,12.4,12.4,0,0,1-1.52,1.09l2.08.37-.14.8Z"/><path class="cls-13" d="M25.14,8.55A2.73,2.73,0,0,0,26.2,9h.35a1.53,1.53,0,0,0,.36-.07.64.64,0,0,0,.3-.19.58.58,0,0,0,.16-.31.74.74,0,0,0-.19-.69,1.74,1.74,0,0,0-.76-.3l-.48-.09.14-.79.45.07a1.67,1.67,0,0,0,.83,0,.55.55,0,0,0,.39-.49.65.65,0,0,0,0-.34.73.73,0,0,0-.15-.25A1.31,1.31,0,0,0,27,5.29a2.58,2.58,0,0,0-1.17.1L26,4.57a3.45,3.45,0,0,1,1.43,0,4.07,4.07,0,0,1,.5.13,2.25,2.25,0,0,1,.5.29,1.21,1.21,0,0,1,.34.47,1.29,1.29,0,0,1,.05.7,1.2,1.2,0,0,1-.41.75,1.68,1.68,0,0,1-.76.31h0a1.16,1.16,0,0,1,.66.53,1.29,1.29,0,0,1,.1.86,1.7,1.7,0,0,1-.3.72,1.4,1.4,0,0,1-.55.38l-.31.08-.34.05a3.64,3.64,0,0,1-.66,0,4.7,4.7,0,0,1-1.27-.4Z"/><path class="cls-14" d="M28.86,10.18,29,9.32l.65-.42a6.22,6.22,0,0,0,.85-.6,6,6,0,0,0,.8-.72,1.6,1.6,0,0,0,.4-.72.67.67,0,0,0-.16-.57A1,1,0,0,0,31,6a2.29,2.29,0,0,0-.64,0,3.84,3.84,0,0,0-.6.2l.1-.85a3.38,3.38,0,0,1,1.55-.1A1.4,1.4,0,0,1,32.78,6.7h0a1.27,1.27,0,0,1-.05.34,1.84,1.84,0,0,1-.32.76,3.25,3.25,0,0,1-.6.68A13.8,13.8,0,0,1,30.3,9.61l2.08.36-.15.8Z"/><path class="cls-15" d="M33.27,10a2.73,2.73,0,0,0,1.06.43.69.69,0,0,0,.35,0,1.15,1.15,0,0,0,.36-.07.64.64,0,0,0,.3-.19.54.54,0,0,0,.15-.3.69.69,0,0,0-.19-.69,1.71,1.71,0,0,0-.75-.31l-.49-.09L34.21,8l.45.15a1.47,1.47,0,0,0,.83,0,.6.6,0,0,0,.37-.54.65.65,0,0,0,0-.34A.49.49,0,0,0,35.7,7a1.18,1.18,0,0,0-.57-.25A2.48,2.48,0,0,0,34,6.83L34.06,6A3.91,3.91,0,0,1,36,6.12a1.54,1.54,0,0,1,.49.3,1.05,1.05,0,0,1,.35.46,1.42,1.42,0,0,1,0,.71,1.17,1.17,0,0,1-.41.74,1.68,1.68,0,0,1-.76.31h0a1.11,1.11,0,0,1,.66.52,1.42,1.42,0,0,1,.09.86,1.34,1.34,0,0,1-.79,1.1l-.31.07H35a2.43,2.43,0,0,1-.66,0,4.37,4.37,0,0,1-1.27-.4Z"/><path class="cls-16" d="M34,35.36l.08-.45-2.43-.43.36-2-1-.18-.44,2.48ZM21,30.94l1.47.27-.36,2,1,.18.36-2,1.47.26.08-.44-4-.71Zm-2.57-.32.45,1.09-1.31-.24-.34.39,1.86.33.22.56,1.11.2-1.27-2.83L18,29.91l-2.16,2.21,1.08.19Zm5.67-4.13a14.65,14.65,0,0,0,11.54,4.27l-1.37,7.68L13.72,34.82l4.53-25.7,4.06.72c-3.06,5.52-3,11.57,1.85,16.65Z"/><ellipse class="cls-17" cx="27.78" cy="33.11" rx="1.26" ry="2.35" transform="translate(-9.47 55.03) rotate(-80.47)"/><ellipse class="cls-18" cx="27.77" cy="33.11" rx="0.87" ry="1.35" transform="translate(-9.48 55.01) rotate(-80.47)"/></svg>