<?xml version="1.0" encoding="UTF-8" standalone="no"?>
<svg xmlns:i="&amp;ns_ai;" xmlns="http://www.w3.org/2000/svg" x="0px" y="0px" viewBox="0 0 829.23296 154.576" xml:space="preserve">
  <switch transform="translate(-2.553,-219.458)">
    <g i:extraneous="self">
      <path d="M226.67 331.525h16.508v26.981c-7.646 5.403-18.112 8.286-27.734 8.286-21.044 0-36.409-14.053-36.409-33.874 0-19.821 15.366-33.874 36.782-33.874 12.361 0 22.356 4.188 28.868 11.915l-11.883 10.603c-4.536-4.925-9.72-7.249-16.038-7.249-11.324 0-18.865 7.347-18.865 18.606 0 10.984 7.541 18.614 18.679 18.614 3.491 0 6.788-.648 10.093-2.138v-17.87zM251.707 332.919c0-19.537 15.568-33.874 36.693-33.874 21.133 0 36.693 14.337 36.693 33.874 0 19.545-15.56 33.874-36.693 33.874-21.125 0-36.693-14.328-36.693-33.874m54.521 0c0-11.259-7.825-18.614-17.828-18.614-9.995 0-17.828 7.355-17.828 18.614 0 11.259 7.833 18.614 17.828 18.614 10.004 0 17.828-7.355 17.828-18.614M331.558 332.919c0-19.537 15.568-33.874 36.693-33.874 21.133 0 36.693 14.337 36.693 33.874 0 19.545-15.56 33.874-36.693 33.874-21.125 0-36.693-14.328-36.693-33.874m54.521 0c0-11.259-7.825-18.614-17.828-18.614-10.004 0-17.828 7.355-17.828 18.614 0 11.259 7.825 18.614 17.828 18.614 10.003 0 17.828-7.355 17.828-18.614M414.805 300.348h31.225c21.878 0 36.879 12.563 36.879 32.57 0 20.007-15.001 32.57-36.879 32.57h-31.225zm30.472 50.438c11.219 0 18.76-6.61 18.76-17.869 0-11.259-7.541-17.861-18.76-17.861h-11.802v35.729h11.802zM574.192 350.887 605.701 350.887 605.701 365.491 555.521 365.491 555.521 300.351 574.192 300.351zM608.662 332.919c0-19.537 15.568-33.874 36.693-33.874 21.133 0 36.693 14.337 36.693 33.874 0 19.545-15.56 33.874-36.693 33.874-21.125 0-36.693-14.328-36.693-33.874m54.521 0c0-11.259-7.825-18.614-17.828-18.614-9.995 0-17.828 7.355-17.828 18.614 0 11.259 7.833 18.614 17.828 18.614 10.003 0 17.828-7.355 17.828-18.614M688.513 332.919c0-19.537 15.568-33.874 36.693-33.874 21.133 0 36.693 14.337 36.693 33.874 0 19.545-15.56 33.874-36.693 33.874-21.124 0-36.693-14.328-36.693-33.874m54.521 0c0-11.259-7.825-18.614-17.828-18.614-10.003 0-17.828 7.355-17.828 18.614 0 11.259 7.825 18.614 17.828 18.614 10.004 0 17.828-7.355 17.828-18.614M831.281 324.453c0 14.791-11.324 24.008-29.338 24.008h-11.51v17.026h-18.671v-65.14h30.181c18.015.001 29.338 9.218 29.338 24.106m-18.864 0c0-6.051-3.872-9.59-11.607-9.59h-10.376v19.084h10.376c7.735-.001 11.607-3.54 11.607-9.494M498.767 322.426H533.718V341.631H498.767z"/>
      <path d="m 127.304,234.487 c 2.406,11.081 -1.288,25.369 -5.37,33.34 -3.029,5.897 -6.909,11.332 -11.227,16.483 -1.401,1.669 -2.851,3.305 -4.333,4.925 -0.688,-1.79 -1.272,-3.604 -1.79,-5.435 -1.515,1.855 -3.118,3.726 -4.868,5.646 0.834,2.811 1.822,5.565 3.07,8.254 2.074,4.487 5.767,12.668 11.243,13.908 2.065,0.462 3.92,-0.81 5.168,-4.973 0.332,-1.126 0.624,-2.454 0.867,-4.026 0.437,-2.884 2.608,-3.953 4.844,-3.718 0.607,0.057 1.215,0.194 1.798,0.437 2.211,0.932 4.009,3.118 3.564,6.059 -0.591,3.872 -1.863,7.168 -3.604,9.801 -4.009,6.026 -10.514,8.521 -17.099,6.164 -3.143,-1.118 -5.872,-3.11 -8.149,-5.484 -4.342,-4.544 -7.209,-10.36 -9.412,-16.151 -0.219,-0.583 -0.413,-1.166 -0.616,-1.758 -1.612,1.547 -3.183,3.038 -4.722,4.479 0.664,1.555 1.361,3.11 2.155,4.625 -1.515,1.49 -3.029,2.989 -4.487,4.487 -2.867,2.948 -5.743,5.978 -8.521,9.113 -1.555,-1.369 -3.216,-2.633 -4.917,-3.856 -1.66,1.482 -3.24,2.892 -4.755,4.253 4.641,3.362 8.618,7.816 11.47,12.847 1.061,1.863 1.96,3.831 2.616,5.864 3.945,12.223 -0.275,28.447 -13.179,33.032 4.504,0.794 9.121,1.231 13.851,1.231 43.262,0 78.343,-34.603 78.343,-77.29 -0.002,-25.54 -12.573,-48.187 -31.94,-62.257" style="fill:#af2009"/>
      <path d="m 102.933,276.795 c 1.563,-1.863 3.102,-3.758 4.528,-5.735 5.808,-8.027 9.501,-16.573 9.655,-26.657 0.065,-4.633 -0.907,-11.923 -4.892,-13.786 -1.474,-0.688 -3.337,-0.664 -5.727,0.535 -0.17,0.081 -0.324,0.202 -0.494,0.292 -8.772,4.925 -9.744,19.821 -9.931,28.366 -0.073,3.305 0.04,6.634 0.284,9.955 -0.024,0.049 0,0.356 0.057,0.883 0.535,6.358 1.498,12.701 3.305,18.8 1.75,-1.92 3.353,-3.791 4.86,-5.646 -0.657,-2.309 -1.2,-4.642 -1.645,-7.007" style="fill:#770f00"/>
      <path d="m 70.204,316.301 c -0.94,-0.656 -1.887,-1.304 -2.843,-1.944 1.976,-2.219 3.961,-4.39 5.881,-6.431 3.621,-3.848 7.411,-7.59 11.21,-11.332 0.348,1.053 0.713,2.09 1.102,3.118 0.348,0.915 0.729,1.822 1.118,2.722 1.539,-1.442 3.102,-2.924 4.714,-4.471 -2.851,-8.108 -4.471,-16.929 -5.346,-25.321 -1.336,-12.814 -1.012,-26.989 4.666,-38.718 1.823,-3.783 4.747,-7.428 8.286,-10.133 0.786,-0.591 1.604,-1.134 2.446,-1.628 -6.553,-1.75 -13.43,-2.705 -20.542,-2.705 -43.262,0 -78.343,34.603 -78.343,77.29 0,28.439 15.584,53.274 38.783,66.695 -5.889,-10.732 -0.94,-25.677 7.517,-33.777 0.381,-0.373 1.409,-1.296 1.409,-1.296 0,0 2.227,1.345 4.617,3.329 1.166,-1.199 2.438,-2.446 3.775,-3.734 -2.73,-2.13 -5.508,-4.171 -8.448,-6.124 -3.872,-2.576 -7.954,-5.2 -10.992,-8.748 -9.461,-11.065 -10.66,-29.192 -1.401,-40.719 0.81,-1.013 1.669,-1.985 2.641,-2.884 4.779,-4.415 10.23,-6.278 15.593,-6.148 8.084,0.178 15.933,4.925 20.857,12.579 1.831,2.843 0.462,5.573 -1.814,6.885 -0.583,0.332 -1.223,0.575 -1.879,0.705 -1.952,0.381 -4.082,-0.203 -5.443,-2.325 -4.22,-6.553 -11.154,-9.21 -17.107,-6.107 -1.75,0.915 -3.418,2.3 -4.909,4.269 -0.178,0.235 -0.324,0.478 -0.486,0.713 -5.37,7.873 -3.904,19.31 2.09,26.374 5.022,5.929 12.012,9.833 18.403,14.321 0.13,0.097 0.251,0.211 0.381,0.308 1.523,-1.361 3.094,-2.778 4.755,-4.261 -0.237,-0.162 -0.456,-0.34 -0.691,-0.502" style="fill:#770f00"/>
      <path d="m 54.88,331.703 c 1.175,0.972 2.373,2.09 3.378,3.305 0.154,0.178 -3.831,4.253 -4.228,4.755 -1.855,2.309 -3.264,4.99 -3.985,7.857 -1.345,5.378 -0.275,12.701 5.176,15.552 8.343,4.366 16.249,-5.702 15.973,-13.786 -0.243,-7.055 -2.876,-13.559 -8.286,-18.022 -1.417,-1.166 -2.835,-2.284 -4.253,-3.394 -1.337,1.278 -2.609,2.526 -3.775,3.733" style="fill:#af2009"/>
      <path d="m 213.327,252.468 -6.277,-15.058 -6.286,15.058 z m 2.892,6.909 h -18.403 l -3.507,8.424 h -9.396 l 17.658,-39.325 h 9.064 l 17.715,39.325 h -9.623 z"/>
      <g>
        <path d="M256.705 260.331c7.865 0 13.017-4.666 13.017-12.19 0-7.533-5.152-12.199-13.017-12.199h-8.384v24.389zm-17.553-31.857h18.006c12.96 0 21.854 7.752 21.854 19.667 0 11.907-8.894 19.667-21.854 19.667h-18.006zM288.468 263.928l3.118-6.853c3.337 2.414 8.319 4.099 13.073 4.099 5.435 0 7.646-1.798 7.646-4.212 0-7.363-23.044-2.309-23.044-16.913 0-6.691 5.435-12.247 16.702-12.247 4.981 0 10.076 1.174 13.754 3.483l-2.827 6.909c-3.686-2.082-7.476-3.086-10.984-3.086-5.435 0-7.533 2.017-7.533 4.487 0 7.249 23.044 2.252 23.044 16.694 0 6.569-5.492 12.19-16.816 12.19-6.283.001-12.626-1.853-16.133-4.551"/>
      </g>
      <path d="M382.57 246.17 382.57 253.476 364.223 253.476 364.223 267.805 355.054 267.805 355.054 228.471 385 228.471 385 235.778 364.223 235.778 364.223 246.17z"/>
      <g>
        <path d="M428.094 248.138c0-7.468-5.322-12.587-12.401-12.587-7.079 0-12.401 5.119-12.401 12.587 0 7.468 5.322 12.587 12.401 12.587 7.079 0 12.401-5.119 12.401-12.587m-34.085 0c0-11.688 9.169-20.339 21.684-20.339 12.458 0 21.684 8.594 21.684 20.339 0 11.745-9.226 20.339-21.684 20.339-12.515 0-21.684-8.651-21.684-20.339M466.597 235.89h-7.476v13.713h7.476c5.597 0 8.432-2.584 8.432-6.861 0-4.325-2.835-6.852-8.432-6.852m8.602 31.914-7.646-10.959h-.454-7.978v10.959h-9.169V228.47H467.1c10.587 0 17.212 5.451 17.212 14.272 0 5.905-2.997 10.23-8.149 12.417l8.886 12.644h-9.85zM545.69 247.522h8.375v15.957c-4.358 3.256-10.36 4.998-16.022 4.998-12.45 0-21.627-8.481-21.627-20.339 0-11.85 9.177-20.339 21.797-20.339 6.966 0 12.741 2.357 16.589 6.804l-5.889 5.387c-2.884-3.029-6.221-4.431-10.246-4.431-7.695 0-12.96 5.111-12.96 12.579 0 7.363 5.265 12.587 12.847 12.587 2.495 0 4.82-.454 7.136-1.685zM599.822 248.138c0-7.468-5.322-12.587-12.401-12.587-7.079 0-12.401 5.119-12.401 12.587 0 7.468 5.322 12.587 12.401 12.587 7.079 0 12.401-5.119 12.401-12.587m-34.085 0c0-11.688 9.169-20.339 21.684-20.339 12.458 0 21.684 8.594 21.684 20.339 0 11.745-9.226 20.339-21.684 20.339-12.515 0-21.684-8.651-21.684-20.339M653.271 248.138c0-7.468-5.322-12.587-12.401-12.587-7.079 0-12.401 5.119-12.401 12.587 0 7.468 5.322 12.587 12.401 12.587 7.079.001 12.401-5.119 12.401-12.587m-34.085 0c0-11.688 9.169-20.339 21.684-20.339 12.458 0 21.684 8.594 21.684 20.339 0 11.745-9.226 20.339-21.684 20.339-12.515 0-21.684-8.651-21.684-20.339M692.679 260.331c7.865 0 13.017-4.666 13.017-12.19 0-7.533-5.152-12.199-13.017-12.199h-8.384v24.389zm-17.552-31.857h18.006c12.96 0 21.846 7.752 21.846 19.667 0 11.907-8.886 19.667-21.846 19.667h-18.006zM776.362 256.116c0-3.313-2.551-4.884-7.306-4.884h-10.7v9.72h10.7c4.754 0 7.306-1.467 7.306-4.836m-18.006-20.793v9.274h9.112c4.479 0 6.909-1.571 6.909-4.666 0-3.086-2.43-4.609-6.909-4.609h-9.112zm27.232 21.749c0 6.796-5.435 10.733-15.852 10.733h-20.493v-39.334h19.359c9.906 0 15.001 4.107 15.001 10.23 0 3.928-2.033 6.966-5.265 8.651 4.415 1.401 7.25 4.779 7.25 9.72"/>
      </g>
      <path d="M801.614 228.472 791.877 228.472 807.219 253.76 807.219 267.798 816.396 267.798 816.396 253.874 831.786 228.472 822.787 228.472 812.2 245.944z"/>
    </g>
  </switch>
</svg>
